<svg id="Camada_1" data-name="Camada 1" xmlns="http://www.w3.org/2000/svg" viewBox="0 0 527.39 176.02"><defs><style>.cls-1{fill:#fff;}</style></defs><path class="cls-1" d="M183.58,389.88h0a4.41,4.41,0,0,1-4.3,3.41H132.19a2.28,2.28,0,0,1-1.93-3.49l1.5-2.41a1.41,1.41,0,0,1,1.27-.66l50.27,2.78A.3.3,0,0,1,183.58,389.88Zm-50.23-5.22,5.23-7.08a7.73,7.73,0,0,1,7.2-3.08L184,379.39c1.37.25,2.39,1.1,2.09,2.23l-2,6a1.17,1.17,0,0,1-1.13.78l-48.9-2.29A.91.91,0,0,1,133.35,384.66Zm-1.95,1.69a5.29,5.29,0,0,1-8.56.28,10.08,10.08,0,0,0-3.78-3.08,10.56,10.56,0,0,0-2.47-.89,5.27,5.27,0,0,1-3.67-7.13l25.34-63.74a5.2,5.2,0,0,1,4.44-3.27h0a5.22,5.22,0,0,1,5.56,6l-8.48,58.83a5.24,5.24,0,0,1-.88,2.24Zm7.36-77.26a13.92,13.92,0,0,1,5.59-.65c2.07.25,2.63,1.07,3.5,1.5a1.46,1.46,0,0,0,2-.88l6.05-18.89a2.14,2.14,0,0,0-2.09-2.62l-36,0a2.16,2.16,0,0,0-2.09,1.66l-.48,2.09a3.6,3.6,0,0,0,3.56,4.41l22.71-.84a1.48,1.48,0,0,1,1.45,1.95l-4.19,12.31m-18.28,79.18a4.59,4.59,0,1,1-4.59-4.6A4.59,4.59,0,0,1,120.48,388.27Z" transform="translate(-111.3 -287.51)"/><path class="cls-1" d="M231.2,320.77l-16.4,70.86a2.16,2.16,0,0,1-2.1,1.67H192.91a2.16,2.16,0,0,1-2.1-2.64l16.4-70.86a2.16,2.16,0,0,1,2.1-1.67h19.8A2.14,2.14,0,0,1,231.2,320.77Zm7-28.09L235,306.31a2.1,2.1,0,0,1-2.05,1.63H212.34a2.11,2.11,0,0,1-2.05-2.58l3.15-13.63a2.1,2.1,0,0,1,2.05-1.63H236.1A2.11,2.11,0,0,1,238.15,292.68Z" transform="translate(-111.3 -287.51)"/><path class="cls-1" d="M370.5,334.57a35.26,35.26,0,0,1-.3,4.41,49.33,49.33,0,0,1-.89,4.94l-10.76,46.46a2.12,2.12,0,0,1-2.06,1.64H337.21s-2.39-.43-2.09-1.77l8.09-34.71q.87-3.85,1.58-7.4a30.68,30.68,0,0,0,.7-5.71q0-3.85-2.11-5.66t-7.53-1.8a16.71,16.71,0,0,0-5.85,1.24,63.44,63.44,0,0,0-7,3.24,2.17,2.17,0,0,0-1.11,1.43l-11.59,50.36a3.19,3.19,0,0,1-2.09,2.06H288.32a2.73,2.73,0,0,1-2.09-3l8.07-34.71c.5-2.18,1-4.52,1.46-7.06a34.3,34.3,0,0,0,.74-5.8c0-2.7-.67-4.68-2-5.89s-3.86-1.83-7.54-1.83a17.49,17.49,0,0,0-6.24,1.32,68.33,68.33,0,0,0-6.75,3.13,2.17,2.17,0,0,0-1.11,1.43l-11.59,50.36c-.23,1-2.09.8-2.09.8H240.22a2.12,2.12,0,0,1-2.06-2.59l16.13-69.66a2.12,2.12,0,0,1,2.06-1.64h19.44a2.14,2.14,0,0,1,2.08,2.65l-.11.46a2.12,2.12,0,0,0,3.17,2.28,84.91,84.91,0,0,1,8.68-4.72,29.42,29.42,0,0,1,12.56-2.7,21.81,21.81,0,0,1,12.25,3.26,16.49,16.49,0,0,1,6.05,7.17,2.12,2.12,0,0,0,3.14.82,90.08,90.08,0,0,1,13.51-8,31.87,31.87,0,0,1,13.45-3.22q9.71,0,14.82,4.8T370.5,334.57Z" transform="translate(-111.3 -287.51)"/><path class="cls-1" d="M468.73,342a60.55,60.55,0,0,1-3.35,19.95,52.92,52.92,0,0,1-9.11,16.63A45.94,45.94,0,0,1,442.66,390a35.09,35.09,0,0,1-17,4.12,42,42,0,0,1-11-1.36,36.23,36.23,0,0,1-6.63-2.49,2.12,2.12,0,0,0-3,1.41l-6.15,26.67a2.13,2.13,0,0,1-2.08,1.65H377.19a2.14,2.14,0,0,1-2.08-2.62l22.51-97.64a2.13,2.13,0,0,1,2.08-1.65h19.63a2.14,2.14,0,0,1,2.08,2.62h0a2.13,2.13,0,0,0,3.2,2.29,68.63,68.63,0,0,1,8.12-4.37,30.41,30.41,0,0,1,12.69-2.59q11.26,0,17.3,6.87C466.71,327.52,468.73,333.86,468.73,342Zm-31.05,26.27a32.1,32.1,0,0,0,4.39-9.82,46.47,46.47,0,0,0,1.53-12.22c0-4-.89-7.13-2.66-9.29s-4.93-3.22-9.48-3.22a19.83,19.83,0,0,0-6.9,1.24,56.69,56.69,0,0,0-6.28,2.76,2.15,2.15,0,0,0-1.11,1.43l-8,34.8a2.12,2.12,0,0,0,1.39,2.51,22.58,22.58,0,0,0,3.14.75,33.49,33.49,0,0,0,5.81.5,21.56,21.56,0,0,0,10.69-2.6A21.2,21.2,0,0,0,437.68,368.24Z" transform="translate(-111.3 -287.51)"/><path class="cls-1" d="M521.74,390.55a2.13,2.13,0,0,0-3.24-2.28l-1,.66a43.22,43.22,0,0,1-5.91,3.29,48.07,48.07,0,0,1-7,2.34,39.43,39.43,0,0,1-9,.8q-9.3,0-15.19-5.24a17.4,17.4,0,0,1-5.89-13.63,26.2,26.2,0,0,1,4.18-15,28.42,28.42,0,0,1,12.41-9.83,68.6,68.6,0,0,1,18.35-5q10.63-1.53,23.06-2.27c0-.27.14-.7.29-1.3a8.89,8.89,0,0,0,.22-2,6.69,6.69,0,0,0-4.39-6.62q-4.38-1.89-13.08-1.9a48.35,48.35,0,0,0-13,2q-6.9,1.94-10.48,3.24a1.54,1.54,0,0,1-.52.09h0a1.57,1.57,0,0,1-1.54-1.89l2.87-14.47a2.12,2.12,0,0,1,1.61-1.67c2.76-.62,6.64-1.31,11.61-2.08a115.94,115.94,0,0,1,17.47-1.32q17.55,0,25.74,4.59t8.2,14.24c0,.89-.08,2-.23,3.47a26.57,26.57,0,0,1-.64,3.73l-11.3,49.19a2.14,2.14,0,0,1-2.09,1.66h-19.6a2,2,0,0,1-1.89-2.62Zm6.9-30.08a2.14,2.14,0,0,0-2.29-2.61c-3.18.29-6.2.62-9.06,1a46.73,46.73,0,0,0-9.55,2.13,13.63,13.63,0,0,0-6.2,4.13,11,11,0,0,0-2.14,7.06c0,2.57.94,4.38,2.84,5.43s4.64,1.57,8.25,1.57a20.48,20.48,0,0,0,7.58-1.63,36.42,36.42,0,0,0,6.89-3.67,2.16,2.16,0,0,0,.88-1.3Z" transform="translate(-111.3 -287.51)"/><path class="cls-1" d="M577,385.19a1.21,1.21,0,0,0,2.17.51L594.78,363c1.12-1.55,2.09-3.06,1.77-4.94-1.63-9.76-6.59-40.6-6.59-40.6a2.13,2.13,0,0,0-2.11-1.86H569.22a3.36,3.36,0,0,0-3.31,3.91Z" transform="translate(-111.3 -287.51)"/><path class="cls-1" d="M636.17,315.58h-7.06a2.49,2.49,0,0,0-2.17,1.25l-56,86.64a1.31,1.31,0,0,0,.7,1.95,6.65,6.65,0,0,1,3,1.49,25.79,25.79,0,0,1,3.2,4.09c1.49.46,2-.08,2.87-1.39l57.54-90.18A2.51,2.51,0,0,0,636.17,315.58Z" transform="translate(-111.3 -287.51)"/><path class="cls-1" d="M573.45,408a13.88,13.88,0,0,0-4-1.58.89.89,0,0,0-.66.1c-2.44,1.49-3.78,2.48-11,7.86a1,1,0,0,0,.48,1.8,39.58,39.58,0,0,1,6.26,1.25c1.93.87,6.62,4.92,6.62,4.92a1.09,1.09,0,0,0,1.28-.76l4-7.83a2.15,2.15,0,0,0,.06-1.9A9,9,0,0,0,573.45,408Z" transform="translate(-111.3 -287.51)"/><path class="cls-1" d="M564,422.84a53.12,53.12,0,0,0-6.67-3c-2.91-.56-3.69.19-4.84,1.13-4.11,3.34-14.23,15.84-20.05,18.41-7,3.1-23.09-4.45-25.83-4.92a1.24,1.24,0,0,0-1,.23,6.48,6.48,0,0,0-2.19,4.33,15.36,15.36,0,0,0,.84,4.41c1.63,4.65,17.85,10.57,0,3.08.28,1.66.5,2.51.55,2.74a17,17,0,0,0,16.5,13.05s6.79.19,13.77.23h0c6.65,0,13.48-.06,14.79-.6,4-1.64,8.51-5.49,9.67-9l8.42-25.07S568.59,425.93,564,422.84Z" transform="translate(-111.3 -287.51)"/><path class="cls-1" d="M499.65,428.13c-.59.62-8.56-9.78-16-5.69-2.53,1.4-3-2.2-5.94-5-6.25-6-15.54-8.66-19.37,2.79-1.72,5.15-.5,12.38-1.05,14.2s-3.86-8.91-3.54-13.64c1.46-21.25,21.54-12.18,26.82-7.13,2.89,2.78,2.27,4.22,3.91,3.82C491.49,415.7,501.67,426,499.65,428.13Z" transform="translate(-111.3 -287.51)"/><path class="cls-1" d="M562.5,463.46h0c-.21-.13,2.91-.73,7.52-3.28,3.52-1.94,3.33-4.34,5.24-4.52a3.53,3.53,0,0,1,.87,0c1.24.2,1.79,1.41,4,1.28,3.38-.19,7.71-4.08,8.71-7.86,1.12-4.2-1.48-7.05-2.23-8.59-.51-1.07,6,4.87,6.46,8.44a10.08,10.08,0,0,1-4.43,9c-3.63,2.3-7,2.61-9.46,1.67a4.7,4.7,0,0,0-3-.44,11.84,11.84,0,0,0-2.72,1.88,10.25,10.25,0,0,1-4.52,1.9A27,27,0,0,1,562.5,463.46Z" transform="translate(-111.3 -287.51)"/><path class="cls-1" d="M593.82,443.05c-.12.15,2.24-.9.68-5-1.19-3.12-3.17-3.23-3.11-4.82a2.76,2.76,0,0,1,.09-.71c.31-1,1.36-1.33,1.5-3.17.22-2.8-2.47-6.79-5.46-8.05-3.3-1.4-5.92.42-7.28.86-.92.31,4.66-4.38,7.63-4.37a8.32,8.32,0,0,1,6.85,4.65c1.47,3.27,1.34,6.08.29,8a3.93,3.93,0,0,0-.69,2.42,2.72,2.72,0,0,0,.9,1.87,7.4,7.4,0,0,1,2.06,4.49C597.24,440.66,593.82,443.05,593.82,443.05Z" transform="translate(-111.3 -287.51)"/><path class="cls-1" d="M469.23,460.34c-1.16-.1-13.83,4-19.33-6.19-1.88-3.47-4.21.06-8.69.84-9.53,1.69-28.72-8.51-19.67-21.05,7.07-9.81,18.13-7.67,16-8.18-3-.69-18.75-.87-22.89,9.32-9.12,22.46,21.78,28.34,29.12,26.15,4.34-1.3,2.94-2.73,4.41-1C454.44,467.47,472.11,460.6,469.23,460.34Z" transform="translate(-111.3 -287.51)"/></svg>