<svg width="39" height="40" viewBox="0 0 39 40" fill="none" xmlns="http://www.w3.org/2000/svg">
<path fill-rule="evenodd" clip-rule="evenodd" d="M12.7812 14.625C12.7812 12.8431 13.4891 11.1341 14.7491 9.87413C16.0091 8.61412 17.7181 7.90625 19.5 7.90625C21.2819 7.90625 22.9909 8.61412 24.2509 9.87413C25.5109 11.1341 26.2188 12.8431 26.2188 14.625C26.2188 16.4069 25.5109 18.1159 24.2509 19.3759C22.9909 20.6359 21.2819 21.3438 19.5 21.3438C17.7181 21.3438 16.0091 20.6359 14.7491 19.3759C13.4891 18.1159 12.7812 16.4069 12.7812 14.625ZM19.5 10.5938C18.4308 10.5938 17.4055 11.0185 16.6495 11.7745C15.8935 12.5305 15.4688 13.5558 15.4688 14.625C15.4688 15.6942 15.8935 16.7195 16.6495 17.4755C17.4055 18.2315 18.4308 18.6562 19.5 18.6562C20.5692 18.6562 21.5945 18.2315 22.3505 17.4755C23.1065 16.7195 23.5312 15.6942 23.5312 14.625C23.5312 13.5558 23.1065 12.5305 22.3505 11.7745C21.5945 11.0185 20.5692 10.5938 19.5 10.5938Z" fill="#131517"/>
<path fill-rule="evenodd" clip-rule="evenodd" d="M0.239258 19.9997C0.239258 9.36255 8.86255 0.739258 19.4997 0.739258C30.1368 0.739258 38.7601 9.36255 38.7601 19.9997C38.7601 30.6368 30.1368 39.2601 19.4997 39.2601C8.86255 39.2601 0.239258 30.6368 0.239258 19.9997ZM19.4997 3.42676C16.2257 3.42691 13.0252 4.39674 10.3019 6.21389C7.57854 8.03103 5.45442 10.6141 4.19752 13.6371C2.94061 16.6602 2.60725 19.9878 3.23947 23.2001C3.8717 26.4124 5.44119 29.3654 7.74992 31.6867C8.07242 29.9434 8.70847 28.3005 9.98234 26.9782C11.8905 25.0002 14.9381 24.0309 19.4997 24.0309C24.0613 24.0309 27.1089 25.0002 29.0152 26.9782C30.2909 28.3005 30.9251 29.9434 31.2494 31.6885C33.5588 29.3673 35.1288 26.4141 35.7614 23.2015C36.394 19.9889 36.0607 16.6609 34.8038 13.6375C33.5468 10.6141 31.4224 8.03073 28.6987 6.21349C25.9749 4.39626 22.774 3.42656 19.4997 3.42676ZM28.8056 33.7149C28.6228 31.5434 28.1516 29.9524 27.082 28.8433C25.9174 27.6376 23.762 26.7184 19.4997 26.7184C15.2373 26.7184 13.0819 27.6376 11.9173 28.8433C10.8477 29.9542 10.3765 31.5434 10.1938 33.7167C12.9378 35.5831 16.181 36.5784 19.4997 36.5726C22.8185 36.5777 26.0617 35.5818 28.8056 33.7149Z" fill="#131517"/>
</svg>
