<svg width="19" height="19" viewBox="0 0 19 19" fill="none" xmlns="http://www.w3.org/2000/svg">
<path d="M8.68963 1.1054C9.07184 0.425302 10.0509 0.425301 10.4332 1.1054L12.7575 5.24128C12.8964 5.48842 13.1337 5.665 13.4103 5.72708L17.9782 6.75226C18.7152 6.91765 19.0098 7.80894 18.5166 8.38096L15.3654 12.0361C15.1869 12.2432 15.1009 12.5143 15.1275 12.7863L15.6004 17.6271C15.6753 18.3942 14.8908 18.9541 14.1897 18.6339L9.97682 16.7099C9.71298 16.5894 9.40981 16.5894 9.14596 16.7099L4.93309 18.6339C4.23197 18.9541 3.44746 18.3942 3.5224 17.6271L3.99531 12.7863C4.02189 12.5143 3.93593 12.2432 3.75743 12.0361L0.606154 8.38096C0.112989 7.80894 0.407625 6.91765 1.14456 6.75226L5.71251 5.72708C5.98913 5.665 6.2264 5.48843 6.36529 5.24128L8.68963 1.1054Z" fill="#FBAF0D"/>
</svg>
