<svg width="32" height="32" viewBox="0 0 32 32" fill="none" xmlns="http://www.w3.org/2000/svg">
<g clip-path="url(#clip0_888_2820)">
<path d="M29.5598 14.3463L17.8265 4.14631C16.7865 3.23964 15.2398 3.23964 14.1998 4.14631L2.46648 14.3463C1.77314 14.9463 2.19981 16.093 3.11981 16.093H6.58648V26.093C6.58648 27.613 7.82648 28.853 9.34648 28.853H12.6665V21.1196C12.6665 20.3863 13.2665 19.7863 13.9998 19.7863H17.9998C18.7331 19.7863 19.3331 20.3863 19.3331 21.1196V28.853H22.6531C24.1731 28.853 25.4131 27.613 25.4131 26.093V16.093H28.8798C29.8265 16.0796 30.2531 14.9463 29.5598 14.3463Z" stroke="white" stroke-width="2" stroke-miterlimit="10" stroke-linecap="round" stroke-linejoin="round"/>
</g>
<defs>
<clipPath id="clip0_888_2820">
<rect width="29.3733" height="26.9733" fill="white" transform="translate(1.33301 2.6665)"/>
</clipPath>
</defs>
</svg>
