<svg width="357" height="309" viewBox="0 0 357 309" fill="none" xmlns="http://www.w3.org/2000/svg">
<g filter="url(#filter0_d_1104_330)">
<rect x="8" y="6" width="337" height="289" rx="40" fill="#F3F3F3"/>
</g>
<rect x="42" y="230" width="270" height="46" rx="23" fill="#B2B8BF"/>
<path d="M55 248C55 242.477 59.4772 238 65 238H205C210.523 238 215 242.477 215 248V258C215 263.523 210.523 268 205 268H65C59.4772 268 55 263.523 55 258V248Z" fill="url(#paint0_linear_1104_330)"/>
<path d="M226 248C226 242.477 230.477 238 236 238H293C298.523 238 303 242.477 303 248V258C303 263.523 298.523 268 293 268H236C230.477 268 226 263.523 226 258V248Z" fill="url(#paint1_linear_1104_330)"/>
<g filter="url(#filter1_d_1104_330)">
<path d="M167 168C167 162.477 171.477 158 177 158H302C307.523 158 312 162.477 312 168V191C312 196.523 307.523 201 302 201H177C171.477 201 167 196.523 167 191V168Z" fill="url(#paint2_linear_1104_330)"/>
</g>
<g filter="url(#filter2_d_1104_330)">
<rect x="39" y="105" width="138" height="40" rx="10" fill="white"/>
</g>
<g filter="url(#filter3_d_1104_330)">
<rect x="42" y="52" width="138" height="40" rx="10" fill="white"/>
</g>
<path d="M179.409 184V172.364H186.432V173.614H180.818V177.545H186.068V178.795H180.818V182.75H186.523V184H179.409ZM194.972 177.227L193.767 177.568C193.691 177.367 193.58 177.172 193.432 176.983C193.288 176.79 193.091 176.631 192.841 176.506C192.591 176.381 192.271 176.318 191.881 176.318C191.347 176.318 190.902 176.441 190.545 176.688C190.193 176.93 190.017 177.239 190.017 177.614C190.017 177.947 190.138 178.21 190.381 178.403C190.623 178.597 191.002 178.758 191.517 178.886L192.812 179.205C193.593 179.394 194.174 179.684 194.557 180.074C194.939 180.46 195.131 180.958 195.131 181.568C195.131 182.068 194.987 182.515 194.699 182.909C194.415 183.303 194.017 183.614 193.506 183.841C192.994 184.068 192.4 184.182 191.722 184.182C190.831 184.182 190.095 183.989 189.511 183.602C188.928 183.216 188.559 182.652 188.403 181.909L189.676 181.591C189.797 182.061 190.027 182.413 190.364 182.648C190.705 182.883 191.15 183 191.699 183C192.324 183 192.82 182.867 193.188 182.602C193.559 182.333 193.744 182.011 193.744 181.636C193.744 181.333 193.638 181.08 193.426 180.875C193.214 180.667 192.888 180.511 192.449 180.409L190.994 180.068C190.195 179.879 189.608 179.585 189.233 179.188C188.862 178.786 188.676 178.284 188.676 177.682C188.676 177.189 188.814 176.754 189.091 176.375C189.371 175.996 189.752 175.699 190.233 175.483C190.718 175.267 191.267 175.159 191.881 175.159C192.744 175.159 193.422 175.348 193.915 175.727C194.411 176.106 194.763 176.606 194.972 177.227ZM200.945 175.273V176.409H196.422V175.273H200.945ZM197.74 173.182H199.081V181.5C199.081 181.879 199.136 182.163 199.246 182.352C199.359 182.538 199.503 182.663 199.678 182.727C199.856 182.788 200.043 182.818 200.24 182.818C200.388 182.818 200.509 182.811 200.604 182.795C200.698 182.777 200.774 182.761 200.831 182.75L201.104 183.955C201.013 183.989 200.886 184.023 200.723 184.057C200.56 184.095 200.354 184.114 200.104 184.114C199.725 184.114 199.354 184.032 198.99 183.869C198.63 183.706 198.331 183.458 198.092 183.125C197.857 182.792 197.74 182.371 197.74 181.864V173.182ZM206.413 184.182C205.625 184.182 204.934 183.994 204.339 183.619C203.749 183.244 203.286 182.72 202.953 182.045C202.624 181.371 202.459 180.583 202.459 179.682C202.459 178.773 202.624 177.979 202.953 177.301C203.286 176.623 203.749 176.097 204.339 175.722C204.934 175.347 205.625 175.159 206.413 175.159C207.201 175.159 207.891 175.347 208.482 175.722C209.076 176.097 209.538 176.623 209.868 177.301C210.201 177.979 210.368 178.773 210.368 179.682C210.368 180.583 210.201 181.371 209.868 182.045C209.538 182.72 209.076 183.244 208.482 183.619C207.891 183.994 207.201 184.182 206.413 184.182ZM206.413 182.977C207.012 182.977 207.504 182.824 207.891 182.517C208.277 182.21 208.563 181.807 208.749 181.307C208.934 180.807 209.027 180.265 209.027 179.682C209.027 179.098 208.934 178.555 208.749 178.051C208.563 177.547 208.277 177.14 207.891 176.83C207.504 176.519 207.012 176.364 206.413 176.364C205.815 176.364 205.322 176.519 204.936 176.83C204.55 177.14 204.264 177.547 204.078 178.051C203.893 178.555 203.8 179.098 203.8 179.682C203.8 180.265 203.893 180.807 204.078 181.307C204.264 181.807 204.55 182.21 204.936 182.517C205.322 182.824 205.815 182.977 206.413 182.977ZM217.915 180.432V175.273H219.256V184H217.915V182.523H217.824C217.619 182.966 217.301 183.343 216.869 183.653C216.438 183.96 215.892 184.114 215.233 184.114C214.688 184.114 214.203 183.994 213.778 183.756C213.354 183.513 213.021 183.15 212.778 182.665C212.536 182.176 212.415 181.561 212.415 180.818V175.273H213.756V180.727C213.756 181.364 213.934 181.871 214.29 182.25C214.65 182.629 215.108 182.818 215.665 182.818C215.998 182.818 216.337 182.733 216.682 182.562C217.03 182.392 217.322 182.131 217.557 181.778C217.795 181.426 217.915 180.977 217.915 180.432ZM228.78 184.205C228.227 184.205 227.725 184.1 227.274 183.892C226.823 183.68 226.465 183.375 226.2 182.977C225.935 182.576 225.803 182.091 225.803 181.523C225.803 181.023 225.901 180.617 226.098 180.307C226.295 179.992 226.558 179.746 226.888 179.568C227.217 179.39 227.581 179.258 227.979 179.17C228.38 179.08 228.784 179.008 229.189 178.955C229.719 178.886 230.149 178.835 230.479 178.801C230.812 178.763 231.054 178.701 231.206 178.614C231.361 178.527 231.439 178.375 231.439 178.159V178.114C231.439 177.553 231.286 177.117 230.979 176.807C230.676 176.496 230.215 176.341 229.598 176.341C228.958 176.341 228.456 176.481 228.092 176.761C227.729 177.042 227.473 177.341 227.325 177.659L226.053 177.205C226.28 176.674 226.583 176.261 226.962 175.966C227.344 175.667 227.761 175.458 228.212 175.341C228.666 175.22 229.113 175.159 229.553 175.159C229.833 175.159 230.155 175.193 230.518 175.261C230.886 175.326 231.24 175.46 231.581 175.665C231.926 175.869 232.212 176.178 232.439 176.591C232.666 177.004 232.78 177.557 232.78 178.25V184H231.439V182.818H231.371C231.28 183.008 231.128 183.21 230.916 183.426C230.704 183.642 230.422 183.826 230.07 183.977C229.717 184.129 229.287 184.205 228.78 184.205ZM228.984 183C229.515 183 229.962 182.896 230.325 182.688C230.693 182.479 230.969 182.21 231.155 181.881C231.344 181.551 231.439 181.205 231.439 180.841V179.614C231.382 179.682 231.257 179.744 231.064 179.801C230.875 179.854 230.655 179.902 230.405 179.943C230.159 179.981 229.918 180.015 229.683 180.045C229.452 180.072 229.265 180.095 229.121 180.114C228.772 180.159 228.446 180.233 228.143 180.335C227.844 180.434 227.602 180.583 227.416 180.784C227.234 180.981 227.143 181.25 227.143 181.591C227.143 182.057 227.316 182.409 227.661 182.648C228.009 182.883 228.45 183 228.984 183ZM243.273 184.182C242.455 184.182 241.75 183.989 241.159 183.602C240.568 183.216 240.114 182.684 239.795 182.006C239.477 181.328 239.318 180.553 239.318 179.682C239.318 178.795 239.481 178.013 239.807 177.335C240.136 176.653 240.595 176.121 241.182 175.739C241.773 175.352 242.462 175.159 243.25 175.159C243.864 175.159 244.417 175.273 244.909 175.5C245.402 175.727 245.805 176.045 246.119 176.455C246.434 176.864 246.629 177.341 246.705 177.886H245.364C245.261 177.489 245.034 177.136 244.682 176.83C244.333 176.519 243.864 176.364 243.273 176.364C242.75 176.364 242.292 176.5 241.898 176.773C241.508 177.042 241.203 177.422 240.983 177.915C240.767 178.403 240.659 178.977 240.659 179.636C240.659 180.311 240.765 180.898 240.977 181.398C241.193 181.898 241.496 182.286 241.886 182.562C242.28 182.839 242.742 182.977 243.273 182.977C243.621 182.977 243.938 182.917 244.222 182.795C244.506 182.674 244.746 182.5 244.943 182.273C245.14 182.045 245.28 181.773 245.364 181.455H246.705C246.629 181.97 246.441 182.434 246.142 182.847C245.847 183.256 245.455 183.581 244.966 183.824C244.481 184.062 243.917 184.182 243.273 184.182ZM251.233 184.205C250.68 184.205 250.178 184.1 249.727 183.892C249.277 183.68 248.919 183.375 248.653 182.977C248.388 182.576 248.256 182.091 248.256 181.523C248.256 181.023 248.354 180.617 248.551 180.307C248.748 179.992 249.011 179.746 249.341 179.568C249.67 179.39 250.034 179.258 250.432 179.17C250.833 179.08 251.237 179.008 251.642 178.955C252.172 178.886 252.602 178.835 252.932 178.801C253.265 178.763 253.508 178.701 253.659 178.614C253.814 178.527 253.892 178.375 253.892 178.159V178.114C253.892 177.553 253.739 177.117 253.432 176.807C253.129 176.496 252.669 176.341 252.051 176.341C251.411 176.341 250.909 176.481 250.545 176.761C250.182 177.042 249.926 177.341 249.778 177.659L248.506 177.205C248.733 176.674 249.036 176.261 249.415 175.966C249.797 175.667 250.214 175.458 250.665 175.341C251.119 175.22 251.566 175.159 252.006 175.159C252.286 175.159 252.608 175.193 252.972 175.261C253.339 175.326 253.693 175.46 254.034 175.665C254.379 175.869 254.665 176.178 254.892 176.591C255.119 177.004 255.233 177.557 255.233 178.25V184H253.892V182.818H253.824C253.733 183.008 253.581 183.21 253.369 183.426C253.157 183.642 252.875 183.826 252.523 183.977C252.17 184.129 251.741 184.205 251.233 184.205ZM251.438 183C251.968 183 252.415 182.896 252.778 182.688C253.146 182.479 253.422 182.21 253.608 181.881C253.797 181.551 253.892 181.205 253.892 180.841V179.614C253.835 179.682 253.71 179.744 253.517 179.801C253.328 179.854 253.108 179.902 252.858 179.943C252.612 179.981 252.371 180.015 252.136 180.045C251.905 180.072 251.718 180.095 251.574 180.114C251.225 180.159 250.9 180.233 250.597 180.335C250.297 180.434 250.055 180.583 249.869 180.784C249.688 180.981 249.597 181.25 249.597 181.591C249.597 182.057 249.769 182.409 250.114 182.648C250.462 182.883 250.903 183 251.438 183ZM257.68 184V175.273H258.976V176.636H259.089C259.271 176.17 259.565 175.809 259.97 175.551C260.375 175.29 260.862 175.159 261.43 175.159C262.006 175.159 262.485 175.29 262.868 175.551C263.254 175.809 263.555 176.17 263.771 176.636H263.862C264.086 176.186 264.421 175.828 264.868 175.562C265.315 175.294 265.851 175.159 266.476 175.159C267.256 175.159 267.894 175.403 268.391 175.892C268.887 176.377 269.135 177.133 269.135 178.159V184H267.794V178.159C267.794 177.515 267.618 177.055 267.266 176.778C266.913 176.502 266.499 176.364 266.021 176.364C265.408 176.364 264.932 176.549 264.595 176.92C264.258 177.288 264.089 177.754 264.089 178.318V184H262.726V178.023C262.726 177.527 262.565 177.127 262.243 176.824C261.921 176.517 261.506 176.364 260.999 176.364C260.65 176.364 260.324 176.456 260.021 176.642C259.722 176.828 259.48 177.085 259.294 177.415C259.112 177.741 259.021 178.117 259.021 178.545V184H257.68ZM271.587 184V175.273H272.928V184H271.587ZM272.268 173.818C272.007 173.818 271.782 173.729 271.592 173.551C271.407 173.373 271.314 173.159 271.314 172.909C271.314 172.659 271.407 172.445 271.592 172.267C271.782 172.089 272.007 172 272.268 172C272.53 172 272.753 172.089 272.939 172.267C273.128 172.445 273.223 172.659 273.223 172.909C273.223 173.159 273.128 173.373 272.939 173.551C272.753 173.729 272.53 173.818 272.268 173.818ZM276.724 178.75V184H275.384V175.273H276.679V176.636H276.793C276.997 176.193 277.308 175.837 277.724 175.568C278.141 175.295 278.679 175.159 279.338 175.159C279.929 175.159 280.446 175.28 280.889 175.523C281.332 175.761 281.677 176.125 281.923 176.614C282.17 177.098 282.293 177.712 282.293 178.455V184H280.952V178.545C280.952 177.86 280.774 177.326 280.418 176.943C280.062 176.557 279.573 176.364 278.952 176.364C278.524 176.364 278.141 176.456 277.804 176.642C277.471 176.828 277.207 177.098 277.014 177.455C276.821 177.811 276.724 178.242 276.724 178.75ZM286.084 178.75V184H284.743V172.364H286.084V176.636H286.197C286.402 176.186 286.709 175.828 287.118 175.562C287.531 175.294 288.08 175.159 288.766 175.159C289.36 175.159 289.881 175.278 290.328 175.517C290.775 175.752 291.122 176.114 291.368 176.602C291.618 177.087 291.743 177.705 291.743 178.455V184H290.402V178.545C290.402 177.852 290.222 177.316 289.862 176.938C289.506 176.555 289.012 176.364 288.379 176.364C287.94 176.364 287.546 176.456 287.197 176.642C286.853 176.828 286.58 177.098 286.379 177.455C286.182 177.811 286.084 178.242 286.084 178.75ZM297.741 184.182C296.954 184.182 296.262 183.994 295.668 183.619C295.077 183.244 294.615 182.72 294.281 182.045C293.952 181.371 293.787 180.583 293.787 179.682C293.787 178.773 293.952 177.979 294.281 177.301C294.615 176.623 295.077 176.097 295.668 175.722C296.262 175.347 296.954 175.159 297.741 175.159C298.529 175.159 299.219 175.347 299.81 175.722C300.404 176.097 300.866 176.623 301.196 177.301C301.529 177.979 301.696 178.773 301.696 179.682C301.696 180.583 301.529 181.371 301.196 182.045C300.866 182.72 300.404 183.244 299.81 183.619C299.219 183.994 298.529 184.182 297.741 184.182ZM297.741 182.977C298.34 182.977 298.832 182.824 299.219 182.517C299.605 182.21 299.891 181.807 300.077 181.307C300.262 180.807 300.355 180.265 300.355 179.682C300.355 179.098 300.262 178.555 300.077 178.051C299.891 177.547 299.605 177.14 299.219 176.83C298.832 176.519 298.34 176.364 297.741 176.364C297.143 176.364 296.651 176.519 296.264 176.83C295.878 177.14 295.592 177.547 295.406 178.051C295.221 178.555 295.128 179.098 295.128 179.682C295.128 180.265 295.221 180.807 295.406 181.307C295.592 181.807 295.878 182.21 296.264 182.517C296.651 182.824 297.143 182.977 297.741 182.977Z" fill="white"/>
<path d="M249.426 250H248.193C248.12 249.645 247.993 249.334 247.81 249.065C247.631 248.797 247.413 248.571 247.154 248.389C246.899 248.204 246.616 248.064 246.304 247.972C245.992 247.879 245.668 247.832 245.33 247.832C244.713 247.832 244.155 247.988 243.654 248.3C243.157 248.611 242.761 249.07 242.466 249.677C242.174 250.283 242.028 251.027 242.028 251.909C242.028 252.791 242.174 253.535 242.466 254.141C242.761 254.748 243.157 255.207 243.654 255.518C244.155 255.83 244.713 255.986 245.33 255.986C245.668 255.986 245.992 255.939 246.304 255.847C246.616 255.754 246.899 255.616 247.154 255.434C247.413 255.248 247.631 255.021 247.81 254.753C247.993 254.481 248.12 254.17 248.193 253.818H249.426C249.333 254.339 249.164 254.804 248.919 255.215C248.674 255.626 248.369 255.976 248.004 256.264C247.64 256.549 247.23 256.766 246.776 256.915C246.326 257.065 245.843 257.139 245.33 257.139C244.461 257.139 243.689 256.927 243.013 256.503C242.337 256.079 241.805 255.475 241.417 254.693C241.029 253.911 240.835 252.983 240.835 251.909C240.835 250.835 241.029 249.907 241.417 249.125C241.805 248.343 242.337 247.74 243.013 247.315C243.689 246.891 244.461 246.679 245.33 246.679C245.843 246.679 246.326 246.754 246.776 246.903C247.23 247.052 247.64 247.271 248.004 247.559C248.369 247.844 248.674 248.192 248.919 248.603C249.164 249.011 249.333 249.476 249.426 250ZM252.433 252.406V257H251.259V246.818H252.433V250.557H252.532C252.711 250.162 252.98 249.849 253.338 249.617C253.699 249.382 254.179 249.264 254.779 249.264C255.3 249.264 255.755 249.369 256.146 249.577C256.538 249.783 256.841 250.099 257.056 250.527C257.275 250.951 257.384 251.491 257.384 252.148V257H256.211V252.227C256.211 251.621 256.054 251.152 255.739 250.82C255.427 250.486 254.995 250.318 254.441 250.318C254.057 250.318 253.712 250.399 253.407 250.562C253.106 250.724 252.867 250.961 252.691 251.273C252.519 251.584 252.433 251.962 252.433 252.406ZM262.733 257.159C261.997 257.159 261.362 256.997 260.828 256.672C260.298 256.344 259.889 255.886 259.6 255.3C259.315 254.71 259.173 254.024 259.173 253.241C259.173 252.459 259.315 251.77 259.6 251.173C259.889 250.573 260.29 250.106 260.804 249.771C261.321 249.433 261.924 249.264 262.613 249.264C263.011 249.264 263.404 249.33 263.792 249.463C264.179 249.596 264.532 249.811 264.85 250.109C265.169 250.404 265.422 250.795 265.611 251.283C265.8 251.77 265.895 252.37 265.895 253.082V253.58H260.008V252.565H264.701C264.701 252.134 264.615 251.75 264.443 251.412C264.274 251.074 264.032 250.807 263.717 250.612C263.405 250.416 263.038 250.318 262.613 250.318C262.146 250.318 261.742 250.434 261.4 250.666C261.062 250.895 260.802 251.193 260.62 251.561C260.437 251.929 260.346 252.323 260.346 252.744V253.42C260.346 253.997 260.446 254.486 260.645 254.887C260.847 255.285 261.127 255.588 261.485 255.797C261.843 256.002 262.259 256.105 262.733 256.105C263.041 256.105 263.319 256.062 263.568 255.976C263.82 255.886 264.037 255.754 264.219 255.578C264.401 255.399 264.542 255.177 264.642 254.912L265.775 255.23C265.656 255.615 265.455 255.953 265.174 256.244C264.892 256.533 264.544 256.758 264.13 256.92C263.715 257.08 263.25 257.159 262.733 257.159ZM270.762 260.023C270.195 260.023 269.708 259.95 269.3 259.804C268.892 259.661 268.553 259.473 268.281 259.237C268.012 259.005 267.799 258.757 267.64 258.491L268.574 257.835C268.68 257.974 268.815 258.134 268.977 258.312C269.139 258.495 269.361 258.652 269.643 258.785C269.928 258.921 270.301 258.989 270.762 258.989C271.378 258.989 271.887 258.839 272.288 258.541C272.689 258.243 272.89 257.776 272.89 257.139V255.588H272.79C272.704 255.727 272.581 255.9 272.422 256.105C272.266 256.307 272.041 256.488 271.746 256.647C271.454 256.803 271.06 256.881 270.563 256.881C269.946 256.881 269.393 256.735 268.902 256.443C268.415 256.152 268.029 255.727 267.744 255.17C267.462 254.614 267.321 253.937 267.321 253.142C267.321 252.36 267.459 251.679 267.734 251.099C268.009 250.515 268.392 250.065 268.882 249.746C269.373 249.425 269.94 249.264 270.583 249.264C271.08 249.264 271.474 249.347 271.766 249.513C272.061 249.675 272.286 249.861 272.442 250.07C272.601 250.275 272.724 250.444 272.81 250.577H272.929V249.364H274.063V257.219C274.063 257.875 273.914 258.409 273.615 258.82C273.32 259.234 272.923 259.537 272.422 259.729C271.925 259.925 271.372 260.023 270.762 260.023ZM270.722 255.827C271.193 255.827 271.59 255.719 271.915 255.504C272.24 255.288 272.487 254.978 272.656 254.574C272.825 254.17 272.909 253.686 272.909 253.122C272.909 252.572 272.827 252.086 272.661 251.665C272.495 251.245 272.25 250.915 271.925 250.676C271.6 250.437 271.199 250.318 270.722 250.318C270.225 250.318 269.81 250.444 269.479 250.696C269.151 250.948 268.904 251.286 268.738 251.71C268.576 252.134 268.495 252.605 268.495 253.122C268.495 253.652 268.578 254.121 268.743 254.529C268.912 254.933 269.161 255.252 269.489 255.484C269.82 255.712 270.231 255.827 270.722 255.827ZM281.023 253.878V249.364H282.196V257H281.023V255.707H280.944C280.765 256.095 280.486 256.425 280.108 256.697C279.73 256.965 279.253 257.099 278.676 257.099C278.199 257.099 277.775 256.995 277.404 256.786C277.033 256.574 276.741 256.256 276.529 255.832C276.317 255.404 276.211 254.866 276.211 254.216V249.364H277.384V254.136C277.384 254.693 277.54 255.137 277.851 255.469C278.166 255.8 278.567 255.966 279.054 255.966C279.346 255.966 279.643 255.891 279.944 255.742C280.249 255.593 280.504 255.364 280.71 255.056C280.919 254.748 281.023 254.355 281.023 253.878ZM287.547 257.159C286.811 257.159 286.177 256.997 285.643 256.672C285.113 256.344 284.703 255.886 284.415 255.3C284.13 254.71 283.987 254.024 283.987 253.241C283.987 252.459 284.13 251.77 284.415 251.173C284.703 250.573 285.104 250.106 285.618 249.771C286.135 249.433 286.738 249.264 287.428 249.264C287.825 249.264 288.218 249.33 288.606 249.463C288.994 249.596 289.347 249.811 289.665 250.109C289.983 250.404 290.237 250.795 290.426 251.283C290.615 251.77 290.709 252.37 290.709 253.082V253.58H284.823V252.565H289.516C289.516 252.134 289.43 251.75 289.257 251.412C289.088 251.074 288.846 250.807 288.531 250.612C288.22 250.416 287.852 250.318 287.428 250.318C286.96 250.318 286.556 250.434 286.215 250.666C285.877 250.895 285.616 251.193 285.434 251.561C285.252 251.929 285.161 252.323 285.161 252.744V253.42C285.161 253.997 285.26 254.486 285.459 254.887C285.661 255.285 285.941 255.588 286.299 255.797C286.657 256.002 287.073 256.105 287.547 256.105C287.855 256.105 288.134 256.062 288.382 255.976C288.634 255.886 288.851 255.754 289.034 255.578C289.216 255.399 289.357 255.177 289.456 254.912L290.59 255.23C290.47 255.615 290.27 255.953 289.988 256.244C289.706 256.533 289.358 256.758 288.944 256.92C288.53 257.08 288.064 257.159 287.547 257.159ZM292.494 257V249.364H293.667V257H292.494ZM293.09 248.091C292.862 248.091 292.664 248.013 292.499 247.857C292.336 247.701 292.255 247.514 292.255 247.295C292.255 247.077 292.336 246.889 292.499 246.734C292.664 246.578 292.862 246.5 293.09 246.5C293.319 246.5 293.515 246.578 293.677 246.734C293.843 246.889 293.926 247.077 293.926 247.295C293.926 247.514 293.843 247.701 293.677 247.857C293.515 248.013 293.319 248.091 293.09 248.091Z" fill="white"/>
<path d="M64.2273 71.1818C64.2273 72.4091 64.0057 73.4697 63.5625 74.3636C63.1193 75.2576 62.5114 75.947 61.7386 76.4318C60.9659 76.9167 60.0833 77.1591 59.0909 77.1591C58.0985 77.1591 57.2159 76.9167 56.4432 76.4318C55.6705 75.947 55.0625 75.2576 54.6193 74.3636C54.1761 73.4697 53.9545 72.4091 53.9545 71.1818C53.9545 69.9545 54.1761 68.8939 54.6193 68C55.0625 67.1061 55.6705 66.4167 56.4432 65.9318C57.2159 65.447 58.0985 65.2045 59.0909 65.2045C60.0833 65.2045 60.9659 65.447 61.7386 65.9318C62.5114 66.4167 63.1193 67.1061 63.5625 68C64.0057 68.8939 64.2273 69.9545 64.2273 71.1818ZM62.8636 71.1818C62.8636 70.1742 62.6951 69.3239 62.358 68.6307C62.0246 67.9375 61.572 67.4129 61 67.0568C60.4318 66.7008 59.7955 66.5227 59.0909 66.5227C58.3864 66.5227 57.7481 66.7008 57.1761 67.0568C56.608 67.4129 56.1553 67.9375 55.8182 68.6307C55.4848 69.3239 55.3182 70.1742 55.3182 71.1818C55.3182 72.1894 55.4848 73.0398 55.8182 73.733C56.1553 74.4261 56.608 74.9508 57.1761 75.3068C57.7481 75.6629 58.3864 75.8409 59.0909 75.8409C59.7955 75.8409 60.4318 75.6629 61 75.3068C61.572 74.9508 62.0246 74.4261 62.358 73.733C62.6951 73.0398 62.8636 72.1894 62.8636 71.1818ZM67.7557 65.3636V77H66.4148V65.3636H67.7557ZM72.7798 77.2045C72.2268 77.2045 71.7249 77.1004 71.2741 76.892C70.8234 76.6799 70.4654 76.375 70.2003 75.9773C69.9351 75.5758 69.8026 75.0909 69.8026 74.5227C69.8026 74.0227 69.901 73.6174 70.098 73.3068C70.295 72.9924 70.5582 72.7462 70.8878 72.5682C71.2173 72.3902 71.581 72.2576 71.9787 72.1705C72.3802 72.0795 72.7836 72.0076 73.1889 71.9545C73.7192 71.8864 74.1491 71.8352 74.4787 71.8011C74.812 71.7633 75.0545 71.7008 75.206 71.6136C75.3613 71.5265 75.4389 71.375 75.4389 71.1591V71.1136C75.4389 70.553 75.2855 70.1174 74.9787 69.8068C74.6757 69.4962 74.2154 69.3409 73.598 69.3409C72.9579 69.3409 72.456 69.4811 72.0923 69.7614C71.7287 70.0417 71.473 70.3409 71.3253 70.6591L70.0526 70.2045C70.2798 69.6742 70.5829 69.2614 70.9616 68.9659C71.3442 68.6667 71.7609 68.4583 72.2116 68.3409C72.6662 68.2197 73.1132 68.1591 73.5526 68.1591C73.8329 68.1591 74.1548 68.1932 74.5185 68.2614C74.8859 68.3258 75.2401 68.4602 75.581 68.6648C75.9257 68.8693 76.2116 69.178 76.4389 69.5909C76.6662 70.0038 76.7798 70.5568 76.7798 71.25V77H75.4389V75.8182H75.3707C75.2798 76.0076 75.1283 76.2102 74.9162 76.4261C74.7041 76.642 74.4219 76.8258 74.0696 76.9773C73.7173 77.1288 73.2874 77.2045 72.7798 77.2045ZM72.9844 76C73.5147 76 73.9616 75.8958 74.3253 75.6875C74.6927 75.4792 74.9692 75.2102 75.1548 74.8807C75.3442 74.5511 75.4389 74.2045 75.4389 73.8409V72.6136C75.3821 72.6818 75.2571 72.7443 75.0639 72.8011C74.8745 72.8542 74.6548 72.9015 74.4048 72.9432C74.1586 72.9811 73.9181 73.0152 73.6832 73.0455C73.4522 73.072 73.2647 73.0947 73.1207 73.1136C72.7723 73.1591 72.4465 73.233 72.1435 73.3352C71.8442 73.4337 71.6018 73.5833 71.4162 73.7841C71.2344 73.9811 71.1435 74.25 71.1435 74.5909C71.1435 75.0568 71.3158 75.4091 71.6605 75.6477C72.009 75.8826 72.4503 76 72.9844 76ZM73.0298 67.0909L74.4162 64.4545H75.9844L74.2116 67.0909H73.0298ZM81.2273 75.4091L81.1364 76.0227C81.072 76.4545 80.9735 76.9167 80.8409 77.4091C80.7121 77.9015 80.5777 78.3655 80.4375 78.8011C80.2973 79.2367 80.1818 79.5833 80.0909 79.8409H79.0682C79.1174 79.5985 79.1818 79.2784 79.2614 78.8807C79.3409 78.483 79.4205 78.0379 79.5 77.5455C79.5833 77.0568 79.6515 76.5568 79.7045 76.0455L79.7727 75.4091H81.2273ZM88.3935 77V65.3636H89.7344V69.6591H89.848C89.9465 69.5076 90.0829 69.3144 90.2571 69.0795C90.4351 68.8409 90.6889 68.6288 91.0185 68.4432C91.3518 68.2538 91.8026 68.1591 92.3707 68.1591C93.1056 68.1591 93.7533 68.3428 94.3139 68.7102C94.8745 69.0777 95.312 69.5985 95.6264 70.2727C95.9408 70.947 96.098 71.7424 96.098 72.6591C96.098 73.5833 95.9408 74.3845 95.6264 75.0625C95.312 75.7367 94.8764 76.2595 94.3196 76.6307C93.7628 76.9981 93.1207 77.1818 92.3935 77.1818C91.8329 77.1818 91.384 77.089 91.0469 76.9034C90.7098 76.714 90.4503 76.5 90.2685 76.2614C90.0866 76.0189 89.9465 75.8182 89.848 75.6591H89.6889V77H88.3935ZM89.7116 72.6364C89.7116 73.2955 89.8082 73.8769 90.0014 74.3807C90.1946 74.8807 90.4768 75.2727 90.848 75.5568C91.2192 75.8371 91.6738 75.9773 92.2116 75.9773C92.7723 75.9773 93.2401 75.8295 93.6151 75.5341C93.9938 75.2348 94.2779 74.8333 94.4673 74.3295C94.6605 73.822 94.7571 73.2576 94.7571 72.6364C94.7571 72.0227 94.6624 71.4697 94.473 70.9773C94.2874 70.4811 94.0052 70.089 93.6264 69.8011C93.2514 69.5095 92.7798 69.3636 92.2116 69.3636C91.6662 69.3636 91.2079 69.5019 90.8366 69.7784C90.4654 70.0511 90.1851 70.4337 89.9957 70.9261C89.8063 71.4148 89.7116 71.9848 89.7116 72.6364ZM101.695 77.1818C100.907 77.1818 100.215 76.9943 99.6207 76.6193C99.0298 76.2443 98.5677 75.7197 98.2344 75.0455C97.9048 74.3712 97.7401 73.5833 97.7401 72.6818C97.7401 71.7727 97.9048 70.9792 98.2344 70.3011C98.5677 69.6231 99.0298 69.0966 99.6207 68.7216C100.215 68.3466 100.907 68.1591 101.695 68.1591C102.482 68.1591 103.172 68.3466 103.763 68.7216C104.357 69.0966 104.82 69.6231 105.149 70.3011C105.482 70.9792 105.649 71.7727 105.649 72.6818C105.649 73.5833 105.482 74.3712 105.149 75.0455C104.82 75.7197 104.357 76.2443 103.763 76.6193C103.172 76.9943 102.482 77.1818 101.695 77.1818ZM101.695 75.9773C102.293 75.9773 102.786 75.8239 103.172 75.517C103.558 75.2102 103.844 74.8068 104.03 74.3068C104.215 73.8068 104.308 73.2652 104.308 72.6818C104.308 72.0985 104.215 71.5549 104.03 71.0511C103.844 70.5473 103.558 70.1402 103.172 69.8295C102.786 69.5189 102.293 69.3636 101.695 69.3636C101.096 69.3636 100.604 69.5189 100.217 69.8295C99.831 70.1402 99.545 70.5473 99.3594 71.0511C99.1738 71.5549 99.081 72.0985 99.081 72.6818C99.081 73.2652 99.1738 73.8068 99.3594 74.3068C99.545 74.8068 99.831 75.2102 100.217 75.517C100.604 75.8239 101.096 75.9773 101.695 75.9773ZM110.264 77.2045C109.711 77.2045 109.209 77.1004 108.759 76.892C108.308 76.6799 107.95 76.375 107.685 75.9773C107.42 75.5758 107.287 75.0909 107.287 74.5227C107.287 74.0227 107.385 73.6174 107.582 73.3068C107.779 72.9924 108.043 72.7462 108.372 72.5682C108.702 72.3902 109.065 72.2576 109.463 72.1705C109.865 72.0795 110.268 72.0076 110.673 71.9545C111.204 71.8864 111.634 71.8352 111.963 71.8011C112.296 71.7633 112.539 71.7008 112.69 71.6136C112.846 71.5265 112.923 71.375 112.923 71.1591V71.1136C112.923 70.553 112.77 70.1174 112.463 69.8068C112.16 69.4962 111.7 69.3409 111.082 69.3409C110.442 69.3409 109.94 69.4811 109.577 69.7614C109.213 70.0417 108.957 70.3409 108.81 70.6591L107.537 70.2045C107.764 69.6742 108.067 69.2614 108.446 68.9659C108.829 68.6667 109.245 68.4583 109.696 68.3409C110.151 68.2197 110.598 68.1591 111.037 68.1591C111.317 68.1591 111.639 68.1932 112.003 68.2614C112.37 68.3258 112.724 68.4602 113.065 68.6648C113.41 68.8693 113.696 69.178 113.923 69.5909C114.151 70.0038 114.264 70.5568 114.264 71.25V77H112.923V75.8182H112.855C112.764 76.0076 112.613 76.2102 112.401 76.4261C112.188 76.642 111.906 76.8258 111.554 76.9773C111.202 77.1288 110.772 77.2045 110.264 77.2045ZM110.469 76C110.999 76 111.446 75.8958 111.81 75.6875C112.177 75.4792 112.454 75.2102 112.639 74.8807C112.829 74.5511 112.923 74.2045 112.923 73.8409V72.6136C112.866 72.6818 112.741 72.7443 112.548 72.8011C112.359 72.8542 112.139 72.9015 111.889 72.9432C111.643 72.9811 111.402 73.0152 111.168 73.0455C110.937 73.072 110.749 73.0947 110.605 73.1136C110.257 73.1591 109.931 73.233 109.628 73.3352C109.329 73.4337 109.086 73.5833 108.901 73.7841C108.719 73.9811 108.628 74.25 108.628 74.5909C108.628 75.0568 108.8 75.4091 109.145 75.6477C109.493 75.8826 109.935 76 110.469 76ZM125.007 68.2727V69.4091H120.484V68.2727H125.007ZM121.803 66.1818H123.143V74.5C123.143 74.8788 123.198 75.1629 123.308 75.3523C123.422 75.5379 123.566 75.6629 123.74 75.7273C123.918 75.7879 124.106 75.8182 124.303 75.8182C124.45 75.8182 124.571 75.8106 124.666 75.7955C124.761 75.7765 124.837 75.7614 124.893 75.75L125.166 76.9545C125.075 76.9886 124.948 77.0227 124.786 77.0568C124.623 77.0947 124.416 77.1136 124.166 77.1136C123.787 77.1136 123.416 77.0322 123.053 76.8693C122.693 76.7064 122.393 76.4583 122.155 76.125C121.92 75.7917 121.803 75.3712 121.803 74.8636V66.1818ZM129.592 77.2045C129.039 77.2045 128.537 77.1004 128.087 76.892C127.636 76.6799 127.278 76.375 127.013 75.9773C126.748 75.5758 126.615 75.0909 126.615 74.5227C126.615 74.0227 126.714 73.6174 126.911 73.3068C127.107 72.9924 127.371 72.7462 127.7 72.5682C128.03 72.3902 128.393 72.2576 128.791 72.1705C129.193 72.0795 129.596 72.0076 130.001 71.9545C130.532 71.8864 130.962 71.8352 131.291 71.8011C131.625 71.7633 131.867 71.7008 132.018 71.6136C132.174 71.5265 132.251 71.375 132.251 71.1591V71.1136C132.251 70.553 132.098 70.1174 131.791 69.8068C131.488 69.4962 131.028 69.3409 130.411 69.3409C129.77 69.3409 129.268 69.4811 128.905 69.7614C128.541 70.0417 128.286 70.3409 128.138 70.6591L126.865 70.2045C127.092 69.6742 127.395 69.2614 127.774 68.9659C128.157 68.6667 128.573 68.4583 129.024 68.3409C129.479 68.2197 129.926 68.1591 130.365 68.1591C130.645 68.1591 130.967 68.1932 131.331 68.2614C131.698 68.3258 132.053 68.4602 132.393 68.6648C132.738 68.8693 133.024 69.178 133.251 69.5909C133.479 70.0038 133.592 70.5568 133.592 71.25V77H132.251V75.8182H132.183C132.092 76.0076 131.941 76.2102 131.729 76.4261C131.517 76.642 131.234 76.8258 130.882 76.9773C130.53 77.1288 130.1 77.2045 129.592 77.2045ZM129.797 76C130.327 76 130.774 75.8958 131.138 75.6875C131.505 75.4792 131.782 75.2102 131.967 74.8807C132.157 74.5511 132.251 74.2045 132.251 73.8409V72.6136C132.195 72.6818 132.07 72.7443 131.876 72.8011C131.687 72.8542 131.467 72.9015 131.217 72.9432C130.971 72.9811 130.731 73.0152 130.496 73.0455C130.265 73.072 130.077 73.0947 129.933 73.1136C129.585 73.1591 129.259 73.233 128.956 73.3352C128.657 73.4337 128.414 73.5833 128.229 73.7841C128.047 73.9811 127.956 74.25 127.956 74.5909C127.956 75.0568 128.128 75.4091 128.473 75.6477C128.821 75.8826 129.263 76 129.797 76ZM136.04 77V68.2727H137.335V69.5909H137.426C137.585 69.1591 137.873 68.8087 138.29 68.5398C138.706 68.2708 139.176 68.1364 139.699 68.1364C139.797 68.1364 139.92 68.1383 140.068 68.142C140.216 68.1458 140.328 68.1515 140.403 68.1591V69.5227C140.358 69.5114 140.254 69.4943 140.091 69.4716C139.932 69.4451 139.763 69.4318 139.585 69.4318C139.161 69.4318 138.782 69.5208 138.449 69.6989C138.119 69.8731 137.858 70.1155 137.665 70.4261C137.475 70.733 137.381 71.0833 137.381 71.4773V77H136.04ZM145.023 77.1818C144.295 77.1818 143.653 76.9981 143.097 76.6307C142.54 76.2595 142.104 75.7367 141.79 75.0625C141.475 74.3845 141.318 73.5833 141.318 72.6591C141.318 71.7424 141.475 70.947 141.79 70.2727C142.104 69.5985 142.542 69.0777 143.102 68.7102C143.663 68.3428 144.311 68.1591 145.045 68.1591C145.614 68.1591 146.063 68.2538 146.392 68.4432C146.725 68.6288 146.979 68.8409 147.153 69.0795C147.331 69.3144 147.47 69.5076 147.568 69.6591H147.682V65.3636H149.023V77H147.727V75.6591H147.568C147.47 75.8182 147.33 76.0189 147.148 76.2614C146.966 76.5 146.706 76.714 146.369 76.9034C146.032 77.089 145.583 77.1818 145.023 77.1818ZM145.205 75.9773C145.742 75.9773 146.197 75.8371 146.568 75.5568C146.939 75.2727 147.222 74.8807 147.415 74.3807C147.608 73.8769 147.705 73.2955 147.705 72.6364C147.705 71.9848 147.61 71.4148 147.42 70.9261C147.231 70.4337 146.951 70.0511 146.58 69.7784C146.208 69.5019 145.75 69.3636 145.205 69.3636C144.636 69.3636 144.163 69.5095 143.784 69.8011C143.409 70.089 143.127 70.4811 142.938 70.9773C142.752 71.4697 142.659 72.0227 142.659 72.6364C142.659 73.2576 142.754 73.822 142.943 74.3295C143.136 74.8333 143.42 75.2348 143.795 75.5341C144.174 75.8295 144.644 75.9773 145.205 75.9773ZM155.324 77.1818C154.483 77.1818 153.758 76.9962 153.148 76.625C152.542 76.25 152.074 75.7273 151.744 75.0568C151.419 74.3826 151.256 73.5985 151.256 72.7045C151.256 71.8106 151.419 71.0227 151.744 70.3409C152.074 69.6553 152.532 69.1212 153.119 68.7386C153.71 68.3523 154.4 68.1591 155.188 68.1591C155.642 68.1591 156.091 68.2348 156.534 68.3864C156.977 68.5379 157.381 68.7841 157.744 69.125C158.108 69.4621 158.398 69.9091 158.614 70.4659C158.83 71.0227 158.938 71.7083 158.938 72.5227V73.0909H152.21V71.9318H157.574C157.574 71.4394 157.475 71 157.278 70.6136C157.085 70.2273 156.809 69.9223 156.449 69.6989C156.093 69.4754 155.672 69.3636 155.188 69.3636C154.653 69.3636 154.191 69.4962 153.801 69.7614C153.415 70.0227 153.117 70.3636 152.909 70.7841C152.701 71.2045 152.597 71.6553 152.597 72.1364V72.9091C152.597 73.5682 152.71 74.1269 152.938 74.5852C153.169 75.0398 153.489 75.3864 153.898 75.625C154.307 75.8598 154.782 75.9773 155.324 75.9773C155.676 75.9773 155.994 75.928 156.278 75.8295C156.566 75.7273 156.814 75.5758 157.023 75.375C157.231 75.1705 157.392 74.9167 157.506 74.6136L158.801 74.9773C158.665 75.4167 158.436 75.803 158.114 76.1364C157.792 76.4659 157.394 76.7235 156.92 76.9091C156.447 77.0909 155.915 77.1818 155.324 77.1818Z" fill="#08142E"/>
<path d="M55.7727 119.614V118.364H64.5V119.614H60.8409V130H59.4318V119.614H55.7727ZM70.8054 126.432V121.273H72.1463V130H70.8054V128.523H70.7145C70.5099 128.966 70.1918 129.343 69.7599 129.653C69.3281 129.96 68.7827 130.114 68.1236 130.114C67.5781 130.114 67.0933 129.994 66.669 129.756C66.2448 129.513 65.9115 129.15 65.669 128.665C65.4266 128.176 65.3054 127.561 65.3054 126.818V121.273H66.6463V126.727C66.6463 127.364 66.8243 127.871 67.1804 128.25C67.5402 128.629 67.9986 128.818 68.5554 128.818C68.8887 128.818 69.2277 128.733 69.5724 128.562C69.9209 128.392 70.2126 128.131 70.4474 127.778C70.6861 127.426 70.8054 126.977 70.8054 126.432ZM77.8977 130.182C77.1705 130.182 76.5284 129.998 75.9716 129.631C75.4148 129.259 74.9792 128.737 74.6648 128.062C74.3504 127.384 74.1932 126.583 74.1932 125.659C74.1932 124.742 74.3504 123.947 74.6648 123.273C74.9792 122.598 75.4167 122.078 75.9773 121.71C76.5379 121.343 77.1856 121.159 77.9205 121.159C78.4886 121.159 78.9375 121.254 79.267 121.443C79.6004 121.629 79.8542 121.841 80.0284 122.08C80.2064 122.314 80.3447 122.508 80.4432 122.659H80.5568V118.364H81.8977V130H80.6023V128.659H80.4432C80.3447 128.818 80.2045 129.019 80.0227 129.261C79.8409 129.5 79.5814 129.714 79.2443 129.903C78.9072 130.089 78.4583 130.182 77.8977 130.182ZM78.0795 128.977C78.6174 128.977 79.072 128.837 79.4432 128.557C79.8144 128.273 80.0966 127.881 80.2898 127.381C80.483 126.877 80.5795 126.295 80.5795 125.636C80.5795 124.985 80.4848 124.415 80.2955 123.926C80.1061 123.434 79.8258 123.051 79.4545 122.778C79.0833 122.502 78.625 122.364 78.0795 122.364C77.5114 122.364 77.0379 122.509 76.6591 122.801C76.2841 123.089 76.0019 123.481 75.8125 123.977C75.6269 124.47 75.5341 125.023 75.5341 125.636C75.5341 126.258 75.6288 126.822 75.8182 127.33C76.0114 127.833 76.2955 128.235 76.6705 128.534C77.0492 128.83 77.5189 128.977 78.0795 128.977ZM88.0852 130.182C87.2973 130.182 86.6061 129.994 86.0114 129.619C85.4205 129.244 84.9583 128.72 84.625 128.045C84.2955 127.371 84.1307 126.583 84.1307 125.682C84.1307 124.773 84.2955 123.979 84.625 123.301C84.9583 122.623 85.4205 122.097 86.0114 121.722C86.6061 121.347 87.2973 121.159 88.0852 121.159C88.8731 121.159 89.5625 121.347 90.1534 121.722C90.7481 122.097 91.2102 122.623 91.5398 123.301C91.8731 123.979 92.0398 124.773 92.0398 125.682C92.0398 126.583 91.8731 127.371 91.5398 128.045C91.2102 128.72 90.7481 129.244 90.1534 129.619C89.5625 129.994 88.8731 130.182 88.0852 130.182ZM88.0852 128.977C88.6837 128.977 89.1761 128.824 89.5625 128.517C89.9489 128.21 90.2348 127.807 90.4205 127.307C90.6061 126.807 90.6989 126.265 90.6989 125.682C90.6989 125.098 90.6061 124.555 90.4205 124.051C90.2348 123.547 89.9489 123.14 89.5625 122.83C89.1761 122.519 88.6837 122.364 88.0852 122.364C87.4867 122.364 86.9943 122.519 86.608 122.83C86.2216 123.14 85.9356 123.547 85.75 124.051C85.5644 124.555 85.4716 125.098 85.4716 125.682C85.4716 126.265 85.5644 126.807 85.75 127.307C85.9356 127.807 86.2216 128.21 86.608 128.517C86.9943 128.824 87.4867 128.977 88.0852 128.977ZM102.132 130.182C101.314 130.182 100.609 129.989 100.018 129.602C99.4276 129.216 98.973 128.684 98.6548 128.006C98.3366 127.328 98.1776 126.553 98.1776 125.682C98.1776 124.795 98.3404 124.013 98.6662 123.335C98.9957 122.653 99.4541 122.121 100.041 121.739C100.632 121.352 101.321 121.159 102.109 121.159C102.723 121.159 103.276 121.273 103.768 121.5C104.261 121.727 104.664 122.045 104.979 122.455C105.293 122.864 105.488 123.341 105.564 123.886H104.223C104.121 123.489 103.893 123.136 103.541 122.83C103.193 122.519 102.723 122.364 102.132 122.364C101.609 122.364 101.151 122.5 100.757 122.773C100.367 123.042 100.062 123.422 99.8423 123.915C99.6264 124.403 99.5185 124.977 99.5185 125.636C99.5185 126.311 99.6245 126.898 99.8366 127.398C100.053 127.898 100.356 128.286 100.746 128.562C101.14 128.839 101.602 128.977 102.132 128.977C102.481 128.977 102.797 128.917 103.081 128.795C103.365 128.674 103.606 128.5 103.803 128.273C104 128.045 104.14 127.773 104.223 127.455H105.564C105.488 127.97 105.301 128.434 105.001 128.847C104.706 129.256 104.314 129.581 103.825 129.824C103.34 130.062 102.776 130.182 102.132 130.182ZM111.183 130.182C110.342 130.182 109.617 129.996 109.007 129.625C108.401 129.25 107.933 128.727 107.604 128.057C107.278 127.383 107.115 126.598 107.115 125.705C107.115 124.811 107.278 124.023 107.604 123.341C107.933 122.655 108.392 122.121 108.979 121.739C109.57 121.352 110.259 121.159 111.047 121.159C111.501 121.159 111.95 121.235 112.393 121.386C112.837 121.538 113.24 121.784 113.604 122.125C113.967 122.462 114.257 122.909 114.473 123.466C114.689 124.023 114.797 124.708 114.797 125.523V126.091H108.07V124.932H113.433C113.433 124.439 113.335 124 113.138 123.614C112.945 123.227 112.668 122.922 112.308 122.699C111.952 122.475 111.532 122.364 111.047 122.364C110.513 122.364 110.051 122.496 109.661 122.761C109.274 123.023 108.977 123.364 108.768 123.784C108.56 124.205 108.456 124.655 108.456 125.136V125.909C108.456 126.568 108.57 127.127 108.797 127.585C109.028 128.04 109.348 128.386 109.757 128.625C110.166 128.86 110.642 128.977 111.183 128.977C111.536 128.977 111.854 128.928 112.138 128.83C112.426 128.727 112.674 128.576 112.882 128.375C113.09 128.17 113.251 127.917 113.365 127.614L114.661 127.977C114.524 128.417 114.295 128.803 113.973 129.136C113.651 129.466 113.253 129.723 112.78 129.909C112.306 130.091 111.774 130.182 111.183 130.182ZM116.837 130V121.273H118.132V122.591H118.223C118.382 122.159 118.67 121.809 119.087 121.54C119.503 121.271 119.973 121.136 120.496 121.136C120.594 121.136 120.717 121.138 120.865 121.142C121.013 121.146 121.125 121.152 121.2 121.159V122.523C121.155 122.511 121.051 122.494 120.888 122.472C120.729 122.445 120.56 122.432 120.382 122.432C119.958 122.432 119.579 122.521 119.246 122.699C118.916 122.873 118.655 123.116 118.462 123.426C118.272 123.733 118.178 124.083 118.178 124.477V130H116.837ZM127.132 121.273V122.409H122.609V121.273H127.132ZM123.928 119.182H125.268V127.5C125.268 127.879 125.323 128.163 125.433 128.352C125.547 128.538 125.691 128.663 125.865 128.727C126.043 128.788 126.231 128.818 126.428 128.818C126.575 128.818 126.696 128.811 126.791 128.795C126.886 128.777 126.962 128.761 127.018 128.75L127.291 129.955C127.2 129.989 127.073 130.023 126.911 130.057C126.748 130.095 126.541 130.114 126.291 130.114C125.912 130.114 125.541 130.032 125.178 129.869C124.818 129.706 124.518 129.458 124.28 129.125C124.045 128.792 123.928 128.371 123.928 127.864V119.182ZM132.601 130.182C131.813 130.182 131.122 129.994 130.527 129.619C129.936 129.244 129.474 128.72 129.141 128.045C128.811 127.371 128.646 126.583 128.646 125.682C128.646 124.773 128.811 123.979 129.141 123.301C129.474 122.623 129.936 122.097 130.527 121.722C131.122 121.347 131.813 121.159 132.601 121.159C133.389 121.159 134.078 121.347 134.669 121.722C135.264 122.097 135.726 122.623 136.055 123.301C136.389 123.979 136.555 124.773 136.555 125.682C136.555 126.583 136.389 127.371 136.055 128.045C135.726 128.72 135.264 129.244 134.669 129.619C134.078 129.994 133.389 130.182 132.601 130.182ZM132.601 128.977C133.199 128.977 133.692 128.824 134.078 128.517C134.464 128.21 134.75 127.807 134.936 127.307C135.122 126.807 135.214 126.265 135.214 125.682C135.214 125.098 135.122 124.555 134.936 124.051C134.75 123.547 134.464 123.14 134.078 122.83C133.692 122.519 133.199 122.364 132.601 122.364C132.002 122.364 131.51 122.519 131.124 122.83C130.737 123.14 130.451 123.547 130.266 124.051C130.08 124.555 129.987 125.098 129.987 125.682C129.987 126.265 130.08 126.807 130.266 127.307C130.451 127.807 130.737 128.21 131.124 128.517C131.51 128.824 132.002 128.977 132.601 128.977ZM140.352 126.727V126.659C140.36 125.936 140.436 125.36 140.58 124.932C140.723 124.504 140.928 124.157 141.193 123.892C141.458 123.627 141.777 123.383 142.148 123.159C142.371 123.023 142.572 122.862 142.75 122.676C142.928 122.487 143.068 122.269 143.17 122.023C143.277 121.777 143.33 121.504 143.33 121.205C143.33 120.833 143.242 120.511 143.068 120.239C142.894 119.966 142.661 119.756 142.369 119.608C142.078 119.46 141.754 119.386 141.398 119.386C141.087 119.386 140.788 119.451 140.5 119.58C140.212 119.708 139.972 119.911 139.778 120.188C139.585 120.464 139.473 120.826 139.443 121.273H138.011C138.042 120.629 138.208 120.078 138.511 119.619C138.818 119.161 139.222 118.811 139.722 118.568C140.225 118.326 140.784 118.205 141.398 118.205C142.064 118.205 142.644 118.337 143.136 118.602C143.633 118.867 144.015 119.231 144.284 119.693C144.557 120.155 144.693 120.682 144.693 121.273C144.693 121.689 144.629 122.066 144.5 122.403C144.375 122.741 144.193 123.042 143.955 123.307C143.72 123.572 143.436 123.807 143.102 124.011C142.769 124.22 142.502 124.439 142.301 124.67C142.1 124.898 141.955 125.169 141.864 125.483C141.773 125.797 141.723 126.189 141.716 126.659V126.727H140.352ZM141.08 130.091C140.799 130.091 140.559 129.991 140.358 129.79C140.157 129.589 140.057 129.348 140.057 129.068C140.057 128.788 140.157 128.547 140.358 128.347C140.559 128.146 140.799 128.045 141.08 128.045C141.36 128.045 141.6 128.146 141.801 128.347C142.002 128.547 142.102 128.788 142.102 129.068C142.102 129.254 142.055 129.424 141.96 129.58C141.869 129.735 141.746 129.86 141.591 129.955C141.439 130.045 141.269 130.091 141.08 130.091Z" fill="#08142E"/>
<path d="M68.8239 251.909C68.8239 252.983 68.63 253.911 68.2422 254.693C67.8544 255.475 67.3224 256.079 66.6463 256.503C65.9702 256.927 65.1979 257.139 64.3295 257.139C63.4612 257.139 62.6889 256.927 62.0128 256.503C61.3366 256.079 60.8047 255.475 60.4169 254.693C60.0291 253.911 59.8352 252.983 59.8352 251.909C59.8352 250.835 60.0291 249.907 60.4169 249.125C60.8047 248.343 61.3366 247.74 62.0128 247.315C62.6889 246.891 63.4612 246.679 64.3295 246.679C65.1979 246.679 65.9702 246.891 66.6463 247.315C67.3224 247.74 67.8544 248.343 68.2422 249.125C68.63 249.907 68.8239 250.835 68.8239 251.909ZM67.6307 251.909C67.6307 251.027 67.4832 250.283 67.1882 249.677C66.8965 249.07 66.5005 248.611 66 248.3C65.5028 247.988 64.946 247.832 64.3295 247.832C63.7131 247.832 63.1546 247.988 62.6541 248.3C62.157 248.611 61.7609 249.07 61.4659 249.677C61.1742 250.283 61.0284 251.027 61.0284 251.909C61.0284 252.791 61.1742 253.535 61.4659 254.141C61.7609 254.748 62.157 255.207 62.6541 255.518C63.1546 255.83 63.7131 255.986 64.3295 255.986C64.946 255.986 65.5028 255.83 66 255.518C66.5005 255.207 66.8965 254.748 67.1882 254.141C67.4832 253.535 67.6307 252.791 67.6307 251.909ZM73.8402 257.159C73.1243 257.159 72.5078 256.99 71.9908 256.652C71.4737 256.314 71.076 255.848 70.7976 255.255C70.5192 254.662 70.38 253.984 70.38 253.222C70.38 252.446 70.5225 251.762 70.8075 251.168C71.0959 250.572 71.4969 250.106 72.0107 249.771C72.5277 249.433 73.1309 249.264 73.8203 249.264C74.3572 249.264 74.8411 249.364 75.272 249.562C75.7029 249.761 76.0559 250.04 76.331 250.398C76.6061 250.756 76.7768 251.173 76.843 251.651H75.6697C75.5803 251.303 75.3814 250.994 75.0732 250.726C74.7682 250.454 74.3572 250.318 73.8402 250.318C73.3828 250.318 72.9818 250.437 72.6371 250.676C72.2957 250.911 72.0289 251.245 71.8366 251.675C71.6477 252.103 71.5533 252.605 71.5533 253.182C71.5533 253.772 71.6461 254.286 71.8317 254.723C72.0206 255.161 72.2857 255.5 72.6271 255.742C72.9718 255.984 73.3762 256.105 73.8402 256.105C74.1451 256.105 74.4219 256.052 74.6705 255.946C74.919 255.84 75.1295 255.688 75.3018 255.489C75.4742 255.29 75.5968 255.051 75.6697 254.773H76.843C76.7768 255.223 76.6127 255.629 76.3509 255.991C76.0923 256.349 75.7493 256.634 75.3217 256.846C74.8975 257.055 74.4036 257.159 73.8402 257.159ZM81.6605 257.159C80.9711 257.159 80.3662 256.995 79.8459 256.667C79.3288 256.339 78.9245 255.88 78.6328 255.29C78.3445 254.7 78.2003 254.01 78.2003 253.222C78.2003 252.426 78.3445 251.732 78.6328 251.138C78.9245 250.545 79.3288 250.085 79.8459 249.756C80.3662 249.428 80.9711 249.264 81.6605 249.264C82.3499 249.264 82.9531 249.428 83.4702 249.756C83.9905 250.085 84.3949 250.545 84.6832 251.138C84.9749 251.732 85.1207 252.426 85.1207 253.222C85.1207 254.01 84.9749 254.7 84.6832 255.29C84.3949 255.88 83.9905 256.339 83.4702 256.667C82.9531 256.995 82.3499 257.159 81.6605 257.159ZM81.6605 256.105C82.1842 256.105 82.6151 255.971 82.9531 255.702C83.2912 255.434 83.5414 255.081 83.7038 254.643C83.8662 254.206 83.9474 253.732 83.9474 253.222C83.9474 252.711 83.8662 252.236 83.7038 251.795C83.5414 251.354 83.2912 250.998 82.9531 250.726C82.6151 250.454 82.1842 250.318 81.6605 250.318C81.1368 250.318 80.706 250.454 80.3679 250.726C80.0298 250.998 79.7796 251.354 79.6172 251.795C79.4548 252.236 79.3736 252.711 79.3736 253.222C79.3736 253.732 79.4548 254.206 79.6172 254.643C79.7796 255.081 80.0298 255.434 80.3679 255.702C80.706 255.971 81.1368 256.105 81.6605 256.105ZM86.9118 257V249.364H88.0453V250.517H88.1248C88.264 250.139 88.5159 249.833 88.8805 249.597C89.2451 249.362 89.6561 249.244 90.1135 249.244C90.1996 249.244 90.3074 249.246 90.4366 249.249C90.5659 249.253 90.6636 249.258 90.7299 249.264V250.457C90.6902 250.447 90.599 250.433 90.4565 250.413C90.3173 250.389 90.1698 250.378 90.014 250.378C89.6428 250.378 89.3114 250.456 89.0197 250.612C88.7314 250.764 88.5027 250.976 88.3336 251.248C88.1679 251.516 88.085 251.823 88.085 252.168V257H86.9118ZM92.1207 257V249.364H93.2543V250.517H93.3338C93.473 250.139 93.7249 249.833 94.0895 249.597C94.4541 249.362 94.8651 249.244 95.3224 249.244C95.4086 249.244 95.5163 249.246 95.6456 249.249C95.7749 249.253 95.8726 249.258 95.9389 249.264V250.457C95.8991 250.447 95.808 250.433 95.6655 250.413C95.5263 250.389 95.3788 250.378 95.223 250.378C94.8518 250.378 94.5204 250.456 94.2287 250.612C93.9403 250.764 93.7116 250.976 93.5426 251.248C93.3769 251.516 93.294 251.823 93.294 252.168V257H92.1207ZM100.299 257.159C99.5632 257.159 98.9285 256.997 98.3949 256.672C97.8646 256.344 97.4553 255.886 97.1669 255.3C96.8819 254.71 96.7393 254.024 96.7393 253.241C96.7393 252.459 96.8819 251.77 97.1669 251.173C97.4553 250.573 97.8563 250.106 98.37 249.771C98.8871 249.433 99.4903 249.264 100.18 249.264C100.577 249.264 100.97 249.33 101.358 249.463C101.746 249.596 102.099 249.811 102.417 250.109C102.735 250.404 102.989 250.795 103.178 251.283C103.366 251.77 103.461 252.37 103.461 253.082V253.58H97.5746V252.565H102.268C102.268 252.134 102.182 251.75 102.009 251.412C101.84 251.074 101.598 250.807 101.283 250.612C100.972 250.416 100.604 250.318 100.18 250.318C99.7124 250.318 99.308 250.434 98.9666 250.666C98.6286 250.895 98.3684 251.193 98.1861 251.561C98.0038 251.929 97.9126 252.323 97.9126 252.744V253.42C97.9126 253.997 98.0121 254.486 98.2109 254.887C98.4131 255.285 98.6932 255.588 99.0511 255.797C99.4091 256.002 99.825 256.105 100.299 256.105C100.607 256.105 100.886 256.062 101.134 255.976C101.386 255.886 101.603 255.754 101.786 255.578C101.968 255.399 102.109 255.177 102.208 254.912L103.342 255.23C103.222 255.615 103.022 255.953 102.74 256.244C102.458 256.533 102.11 256.758 101.696 256.92C101.282 257.08 100.816 257.159 100.299 257.159ZM110.058 253.878V249.364H111.232V257H110.058V255.707H109.979C109.8 256.095 109.521 256.425 109.143 256.697C108.766 256.965 108.288 257.099 107.712 257.099C107.234 257.099 106.81 256.995 106.439 256.786C106.068 256.574 105.776 256.256 105.564 255.832C105.352 255.404 105.246 254.866 105.246 254.216V249.364H106.419V254.136C106.419 254.693 106.575 255.137 106.886 255.469C107.201 255.8 107.602 255.966 108.089 255.966C108.381 255.966 108.678 255.891 108.979 255.742C109.284 255.593 109.54 255.364 109.745 255.056C109.954 254.748 110.058 254.355 110.058 253.878ZM122.131 253.878V249.364H123.304V257H122.131V255.707H122.051C121.872 256.095 121.594 256.425 121.216 256.697C120.838 256.965 120.361 257.099 119.784 257.099C119.307 257.099 118.882 256.995 118.511 256.786C118.14 256.574 117.848 256.256 117.636 255.832C117.424 255.404 117.318 254.866 117.318 254.216V249.364H118.491V254.136C118.491 254.693 118.647 255.137 118.959 255.469C119.273 255.8 119.675 255.966 120.162 255.966C120.453 255.966 120.75 255.891 121.052 255.742C121.357 255.593 121.612 255.364 121.817 255.056C122.026 254.748 122.131 254.355 122.131 253.878ZM125.453 257V249.364H126.586V250.557H126.686C126.845 250.149 127.102 249.833 127.456 249.607C127.811 249.379 128.237 249.264 128.734 249.264C129.238 249.264 129.657 249.379 129.992 249.607C130.33 249.833 130.593 250.149 130.782 250.557H130.862C131.057 250.162 131.351 249.849 131.742 249.617C132.133 249.382 132.602 249.264 133.149 249.264C133.832 249.264 134.39 249.478 134.824 249.906C135.258 250.33 135.475 250.991 135.475 251.889V257H134.302V251.889C134.302 251.326 134.148 250.923 133.84 250.681C133.532 250.439 133.169 250.318 132.751 250.318C132.214 250.318 131.798 250.481 131.503 250.805C131.208 251.127 131.061 251.535 131.061 252.028V257H129.868V251.77C129.868 251.336 129.727 250.986 129.445 250.721C129.163 250.452 128.8 250.318 128.356 250.318C128.051 250.318 127.766 250.399 127.501 250.562C127.239 250.724 127.027 250.95 126.865 251.238C126.706 251.523 126.626 251.853 126.626 252.227V257H125.453ZM141.558 257V249.364H142.732V257H141.558ZM142.155 248.091C141.926 248.091 141.729 248.013 141.563 247.857C141.401 247.701 141.32 247.514 141.32 247.295C141.32 247.077 141.401 246.889 141.563 246.734C141.729 246.578 141.926 246.5 142.155 246.5C142.384 246.5 142.579 246.578 142.741 246.734C142.907 246.889 142.99 247.077 142.99 247.295C142.99 247.514 142.907 247.701 142.741 247.857C142.579 248.013 142.384 248.091 142.155 248.091ZM144.881 257V249.364H146.014V250.557H146.113C146.273 250.149 146.529 249.833 146.884 249.607C147.239 249.379 147.665 249.264 148.162 249.264C148.666 249.264 149.085 249.379 149.42 249.607C149.758 249.833 150.021 250.149 150.21 250.557H150.29C150.485 250.162 150.778 249.849 151.17 249.617C151.561 249.382 152.03 249.264 152.577 249.264C153.259 249.264 153.818 249.478 154.252 249.906C154.686 250.33 154.903 250.991 154.903 251.889V257H153.73V251.889C153.73 251.326 153.576 250.923 153.268 250.681C152.959 250.439 152.596 250.318 152.179 250.318C151.642 250.318 151.226 250.481 150.931 250.805C150.636 251.127 150.488 251.535 150.488 252.028V257H149.295V251.77C149.295 251.336 149.154 250.986 148.873 250.721C148.591 250.452 148.228 250.318 147.784 250.318C147.479 250.318 147.194 250.399 146.929 250.562C146.667 250.724 146.455 250.95 146.292 251.238C146.133 251.523 146.054 251.853 146.054 252.227V257H144.881ZM157.048 259.864V249.364H158.182V250.577H158.321C158.407 250.444 158.527 250.275 158.679 250.07C158.835 249.861 159.057 249.675 159.345 249.513C159.637 249.347 160.031 249.264 160.529 249.264C161.172 249.264 161.738 249.425 162.229 249.746C162.719 250.068 163.102 250.524 163.377 251.114C163.652 251.704 163.79 252.4 163.79 253.202C163.79 254.01 163.652 254.711 163.377 255.305C163.102 255.895 162.721 256.352 162.234 256.677C161.747 256.998 161.185 257.159 160.548 257.159C160.058 257.159 159.665 257.078 159.37 256.915C159.075 256.75 158.848 256.562 158.689 256.354C158.53 256.142 158.407 255.966 158.321 255.827H158.222V259.864H157.048ZM158.202 253.182C158.202 253.759 158.286 254.267 158.455 254.708C158.624 255.146 158.871 255.489 159.196 255.737C159.521 255.982 159.919 256.105 160.389 256.105C160.88 256.105 161.289 255.976 161.617 255.717C161.949 255.455 162.197 255.104 162.363 254.663C162.532 254.219 162.617 253.725 162.617 253.182C162.617 252.645 162.534 252.161 162.368 251.73C162.206 251.296 161.959 250.953 161.627 250.701C161.299 250.446 160.887 250.318 160.389 250.318C159.912 250.318 159.511 250.439 159.186 250.681C158.861 250.92 158.616 251.254 158.45 251.685C158.285 252.113 158.202 252.612 158.202 253.182ZM165.58 257V249.364H166.713V250.517H166.793C166.932 250.139 167.184 249.833 167.548 249.597C167.913 249.362 168.324 249.244 168.781 249.244C168.868 249.244 168.975 249.246 169.105 249.249C169.234 249.253 169.332 249.258 169.398 249.264V250.457C169.358 250.447 169.267 250.433 169.124 250.413C168.985 250.389 168.838 250.378 168.682 250.378C168.311 250.378 167.979 250.456 167.688 250.612C167.399 250.764 167.171 250.976 167.002 251.248C166.836 251.516 166.753 251.823 166.753 252.168V257H165.58ZM173.758 257.159C173.022 257.159 172.387 256.997 171.854 256.672C171.324 256.344 170.914 255.886 170.626 255.3C170.341 254.71 170.198 254.024 170.198 253.241C170.198 252.459 170.341 251.77 170.626 251.173C170.914 250.573 171.315 250.106 171.829 249.771C172.346 249.433 172.949 249.264 173.639 249.264C174.036 249.264 174.429 249.33 174.817 249.463C175.205 249.596 175.558 249.811 175.876 250.109C176.194 250.404 176.448 250.795 176.637 251.283C176.825 251.77 176.92 252.37 176.92 253.082V253.58H171.034V252.565H175.727C175.727 252.134 175.641 251.75 175.468 251.412C175.299 251.074 175.057 250.807 174.742 250.612C174.431 250.416 174.063 250.318 173.639 250.318C173.171 250.318 172.767 250.434 172.426 250.666C172.088 250.895 171.827 251.193 171.645 251.561C171.463 251.929 171.372 252.323 171.372 252.744V253.42C171.372 253.997 171.471 254.486 171.67 254.887C171.872 255.285 172.152 255.588 172.51 255.797C172.868 256.002 173.284 256.105 173.758 256.105C174.066 256.105 174.345 256.062 174.593 255.976C174.845 255.886 175.062 255.754 175.244 255.578C175.427 255.399 175.568 255.177 175.667 254.912L176.801 255.23C176.681 255.615 176.481 255.953 176.199 256.244C175.917 256.533 175.569 256.758 175.155 256.92C174.741 257.08 174.275 257.159 173.758 257.159ZM184.717 249.364L181.893 257H180.7L177.876 249.364H179.148L181.256 255.449H181.336L183.444 249.364H184.717ZM186.265 257V249.364H187.439V257H186.265ZM186.862 248.091C186.633 248.091 186.436 248.013 186.27 247.857C186.108 247.701 186.027 247.514 186.027 247.295C186.027 247.077 186.108 246.889 186.27 246.734C186.436 246.578 186.633 246.5 186.862 246.5C187.091 246.5 187.286 246.578 187.449 246.734C187.614 246.889 187.697 247.077 187.697 247.295C187.697 247.514 187.614 247.701 187.449 247.857C187.286 248.013 187.091 248.091 186.862 248.091ZM194.997 251.074L193.943 251.372C193.876 251.196 193.779 251.026 193.649 250.86C193.523 250.691 193.351 250.552 193.132 250.442C192.914 250.333 192.633 250.278 192.292 250.278C191.825 250.278 191.435 250.386 191.124 250.602C190.816 250.814 190.661 251.084 190.661 251.412C190.661 251.704 190.767 251.934 190.98 252.103C191.192 252.272 191.523 252.413 191.974 252.526L193.107 252.804C193.79 252.97 194.299 253.223 194.634 253.565C194.968 253.903 195.136 254.339 195.136 254.872C195.136 255.31 195.01 255.701 194.758 256.045C194.509 256.39 194.161 256.662 193.714 256.861C193.267 257.06 192.746 257.159 192.153 257.159C191.374 257.159 190.729 256.99 190.219 256.652C189.709 256.314 189.385 255.82 189.249 255.17L190.363 254.892C190.469 255.303 190.67 255.611 190.965 255.817C191.263 256.022 191.652 256.125 192.133 256.125C192.68 256.125 193.114 256.009 193.436 255.777C193.76 255.542 193.923 255.26 193.923 254.932C193.923 254.667 193.83 254.445 193.644 254.266C193.459 254.083 193.174 253.947 192.789 253.858L191.517 253.56C190.817 253.394 190.303 253.137 189.975 252.789C189.651 252.438 189.488 251.999 189.488 251.472C189.488 251.041 189.609 250.66 189.851 250.328C190.096 249.997 190.429 249.737 190.85 249.548C191.275 249.359 191.755 249.264 192.292 249.264C193.048 249.264 193.641 249.43 194.072 249.761C194.506 250.093 194.814 250.53 194.997 251.074ZM200.223 249.364V250.358H196.266V249.364H200.223ZM197.419 247.534H198.592V254.812C198.592 255.144 198.64 255.393 198.737 255.558C198.836 255.721 198.962 255.83 199.114 255.886C199.27 255.939 199.434 255.966 199.607 255.966C199.736 255.966 199.842 255.959 199.925 255.946C200.008 255.929 200.074 255.916 200.124 255.906L200.362 256.96C200.283 256.99 200.172 257.02 200.029 257.05C199.887 257.083 199.706 257.099 199.487 257.099C199.156 257.099 198.831 257.028 198.513 256.886C198.198 256.743 197.936 256.526 197.727 256.234C197.522 255.943 197.419 255.575 197.419 255.131V247.534ZM205.008 257.159C204.319 257.159 203.714 256.995 203.194 256.667C202.676 256.339 202.272 255.88 201.98 255.29C201.692 254.7 201.548 254.01 201.548 253.222C201.548 252.426 201.692 251.732 201.98 251.138C202.272 250.545 202.676 250.085 203.194 249.756C203.714 249.428 204.319 249.264 205.008 249.264C205.698 249.264 206.301 249.428 206.818 249.756C207.338 250.085 207.743 250.545 208.031 251.138C208.323 251.732 208.468 252.426 208.468 253.222C208.468 254.01 208.323 254.7 208.031 255.29C207.743 255.88 207.338 256.339 206.818 256.667C206.301 256.995 205.698 257.159 205.008 257.159ZM205.008 256.105C205.532 256.105 205.963 255.971 206.301 255.702C206.639 255.434 206.889 255.081 207.051 254.643C207.214 254.206 207.295 253.732 207.295 253.222C207.295 252.711 207.214 252.236 207.051 251.795C206.889 251.354 206.639 250.998 206.301 250.726C205.963 250.454 205.532 250.318 205.008 250.318C204.484 250.318 204.054 250.454 203.716 250.726C203.377 250.998 203.127 251.354 202.965 251.795C202.802 252.236 202.721 252.711 202.721 253.222C202.721 253.732 202.802 254.206 202.965 254.643C203.127 255.081 203.377 255.434 203.716 255.702C204.054 255.971 204.484 256.105 205.008 256.105Z" fill="white"/>
<defs>
<filter id="filter0_d_1104_330" x="0" y="0" width="357" height="309" filterUnits="userSpaceOnUse" color-interpolation-filters="sRGB">
<feFlood flood-opacity="0" result="BackgroundImageFix"/>
<feColorMatrix in="SourceAlpha" type="matrix" values="0 0 0 0 0 0 0 0 0 0 0 0 0 0 0 0 0 0 127 0" result="hardAlpha"/>
<feOffset dx="2" dy="4"/>
<feGaussianBlur stdDeviation="5"/>
<feComposite in2="hardAlpha" operator="out"/>
<feColorMatrix type="matrix" values="0 0 0 0 0 0 0 0 0 0 0 0 0 0 0 0 0 0 0.25 0"/>
<feBlend mode="normal" in2="BackgroundImageFix" result="effect1_dropShadow_1104_330"/>
<feBlend mode="normal" in="SourceGraphic" in2="effect1_dropShadow_1104_330" result="shape"/>
</filter>
<filter id="filter1_d_1104_330" x="155" y="152" width="165" height="63" filterUnits="userSpaceOnUse" color-interpolation-filters="sRGB">
<feFlood flood-opacity="0" result="BackgroundImageFix"/>
<feColorMatrix in="SourceAlpha" type="matrix" values="0 0 0 0 0 0 0 0 0 0 0 0 0 0 0 0 0 0 127 0" result="hardAlpha"/>
<feOffset dx="-2" dy="4"/>
<feGaussianBlur stdDeviation="5"/>
<feComposite in2="hardAlpha" operator="out"/>
<feColorMatrix type="matrix" values="0 0 0 0 0 0 0 0 0 0 0 0 0 0 0 0 0 0 0.25 0"/>
<feBlend mode="normal" in2="BackgroundImageFix" result="effect1_dropShadow_1104_330"/>
<feBlend mode="normal" in="SourceGraphic" in2="effect1_dropShadow_1104_330" result="shape"/>
</filter>
<filter id="filter2_d_1104_330" x="31" y="99" width="158" height="60" filterUnits="userSpaceOnUse" color-interpolation-filters="sRGB">
<feFlood flood-opacity="0" result="BackgroundImageFix"/>
<feColorMatrix in="SourceAlpha" type="matrix" values="0 0 0 0 0 0 0 0 0 0 0 0 0 0 0 0 0 0 127 0" result="hardAlpha"/>
<feOffset dx="2" dy="4"/>
<feGaussianBlur stdDeviation="5"/>
<feComposite in2="hardAlpha" operator="out"/>
<feColorMatrix type="matrix" values="0 0 0 0 0 0 0 0 0 0 0 0 0 0 0 0 0 0 0.25 0"/>
<feBlend mode="normal" in2="BackgroundImageFix" result="effect1_dropShadow_1104_330"/>
<feBlend mode="normal" in="SourceGraphic" in2="effect1_dropShadow_1104_330" result="shape"/>
</filter>
<filter id="filter3_d_1104_330" x="34" y="46" width="158" height="60" filterUnits="userSpaceOnUse" color-interpolation-filters="sRGB">
<feFlood flood-opacity="0" result="BackgroundImageFix"/>
<feColorMatrix in="SourceAlpha" type="matrix" values="0 0 0 0 0 0 0 0 0 0 0 0 0 0 0 0 0 0 127 0" result="hardAlpha"/>
<feOffset dx="2" dy="4"/>
<feGaussianBlur stdDeviation="5"/>
<feComposite in2="hardAlpha" operator="out"/>
<feColorMatrix type="matrix" values="0 0 0 0 0 0 0 0 0 0 0 0 0 0 0 0 0 0 0.25 0"/>
<feBlend mode="normal" in2="BackgroundImageFix" result="effect1_dropShadow_1104_330"/>
<feBlend mode="normal" in="SourceGraphic" in2="effect1_dropShadow_1104_330" result="shape"/>
</filter>
<linearGradient id="paint0_linear_1104_330" x1="135" y1="222.877" x2="135" y2="268" gradientUnits="userSpaceOnUse">
<stop stop-color="#4799F8"/>
<stop offset="1" stop-color="#1157D1"/>
</linearGradient>
<linearGradient id="paint1_linear_1104_330" x1="264.5" y1="222.877" x2="264.5" y2="268" gradientUnits="userSpaceOnUse">
<stop stop-color="#4799F8"/>
<stop offset="1" stop-color="#1157D1"/>
</linearGradient>
<linearGradient id="paint2_linear_1104_330" x1="239.5" y1="136.323" x2="239.5" y2="201" gradientUnits="userSpaceOnUse">
<stop stop-color="#4799F8"/>
<stop offset="1" stop-color="#1157D1"/>
</linearGradient>
</defs>
</svg>
