<svg width="357" height="309" viewBox="0 0 357 309" fill="none" xmlns="http://www.w3.org/2000/svg">
<g filter="url(#filter0_d_1104_328)">
<rect x="8" y="6" width="337" height="289" rx="40" fill="#F3F3F3"/>
</g>
<rect x="48" y="231" width="270" height="44" rx="22" fill="#B2B8BF"/>
<g filter="url(#filter1_d_1104_328)">
<rect x="48" y="116" width="138" height="40" rx="10" fill="white"/>
</g>
<g filter="url(#filter2_d_1104_328)">
<path d="M170 182C170 176.477 174.477 172 180 172H305C310.523 172 315 176.477 315 182V205C315 210.523 310.523 215 305 215H180C174.477 215 170 210.523 170 205V182Z" fill="url(#paint0_linear_1104_328)"/>
</g>
<path d="M61 248C61 242.477 65.4772 238 71 238H123C128.523 238 133 242.477 133 248V258C133 263.523 128.523 268 123 268H71C65.4772 268 61 263.523 61 258V248Z" fill="url(#paint1_linear_1104_328)"/>
<path d="M149 248C149 242.477 153.477 238 159 238H211C216.523 238 221 242.477 221 248V258C221 263.523 216.523 268 211 268H159C153.477 268 149 263.523 149 258V248Z" fill="url(#paint2_linear_1104_328)"/>
<path d="M231 248C231 242.477 235.477 238 241 238H293C298.523 238 303 242.477 303 248V258C303 263.523 298.523 268 293 268H241C235.477 268 231 263.523 231 258V248Z" fill="url(#paint3_linear_1104_328)"/>
<g filter="url(#filter3_d_1104_328)">
<path d="M170 67C170 61.4772 174.477 57 180 57H305C310.523 57 315 61.4772 315 67V90C315 95.5228 310.523 100 305 100H180C174.477 100 170 95.5228 170 90V67Z" fill="url(#paint4_linear_1104_328)"/>
</g>
<path d="M180.409 83V71.3636H184.341C185.254 71.3636 186 71.5284 186.58 71.858C187.163 72.1837 187.595 72.625 187.875 73.1818C188.155 73.7386 188.295 74.3598 188.295 75.0455C188.295 75.7311 188.155 76.3542 187.875 76.9148C187.598 77.4754 187.17 77.9223 186.591 78.2557C186.011 78.5852 185.269 78.75 184.364 78.75H181.545V77.5H184.318C184.943 77.5 185.445 77.392 185.824 77.1761C186.203 76.9602 186.477 76.6686 186.648 76.3011C186.822 75.9299 186.909 75.5114 186.909 75.0455C186.909 74.5795 186.822 74.1629 186.648 73.7955C186.477 73.428 186.201 73.1402 185.818 72.9318C185.436 72.7197 184.928 72.6136 184.295 72.6136H181.818V83H180.409ZM190.384 83V74.2727H191.679V75.5909H191.77C191.929 75.1591 192.217 74.8087 192.634 74.5398C193.05 74.2708 193.52 74.1364 194.043 74.1364C194.141 74.1364 194.264 74.1383 194.412 74.142C194.56 74.1458 194.671 74.1515 194.747 74.1591V75.5227C194.702 75.5114 194.598 75.4943 194.435 75.4716C194.276 75.4451 194.107 75.4318 193.929 75.4318C193.505 75.4318 193.126 75.5208 192.793 75.6989C192.463 75.8731 192.202 76.1155 192.009 76.4261C191.819 76.733 191.724 77.0833 191.724 77.4773V83H190.384ZM199.73 83.1818C198.889 83.1818 198.164 82.9962 197.554 82.625C196.948 82.25 196.48 81.7273 196.151 81.0568C195.825 80.3826 195.662 79.5985 195.662 78.7045C195.662 77.8106 195.825 77.0227 196.151 76.3409C196.48 75.6553 196.938 75.1212 197.526 74.7386C198.116 74.3523 198.806 74.1591 199.594 74.1591C200.048 74.1591 200.497 74.2348 200.94 74.3864C201.384 74.5379 201.787 74.7841 202.151 75.125C202.514 75.4621 202.804 75.9091 203.02 76.4659C203.236 77.0227 203.344 77.7083 203.344 78.5227V79.0909H196.616V77.9318H201.98C201.98 77.4394 201.882 77 201.685 76.6136C201.491 76.2273 201.215 75.9223 200.855 75.6989C200.499 75.4754 200.079 75.3636 199.594 75.3636C199.06 75.3636 198.598 75.4962 198.207 75.7614C197.821 76.0227 197.524 76.3636 197.315 76.7841C197.107 77.2045 197.003 77.6553 197.003 78.1364V78.9091C197.003 79.5682 197.116 80.1269 197.344 80.5852C197.575 81.0398 197.895 81.3864 198.304 81.625C198.713 81.8598 199.188 81.9773 199.73 81.9773C200.082 81.9773 200.401 81.928 200.685 81.8295C200.973 81.7273 201.221 81.5758 201.429 81.375C201.637 81.1705 201.798 80.9167 201.912 80.6136L203.207 80.9773C203.071 81.4167 202.842 81.803 202.52 82.1364C202.198 82.4659 201.8 82.7235 201.327 82.9091C200.853 83.0909 200.321 83.1818 199.73 83.1818ZM208.929 83.1818C208.111 83.1818 207.406 82.9886 206.815 82.6023C206.224 82.2159 205.77 81.6837 205.452 81.0057C205.134 80.3277 204.974 79.553 204.974 78.6818C204.974 77.7955 205.137 77.0133 205.463 76.3352C205.793 75.6534 206.251 75.1212 206.838 74.7386C207.429 74.3523 208.118 74.1591 208.906 74.1591C209.52 74.1591 210.073 74.2727 210.565 74.5C211.058 74.7273 211.461 75.0455 211.776 75.4545C212.09 75.8636 212.285 76.3409 212.361 76.8864H211.02C210.918 76.4886 210.69 76.1364 210.338 75.8295C209.99 75.5189 209.52 75.3636 208.929 75.3636C208.406 75.3636 207.948 75.5 207.554 75.7727C207.164 76.0417 206.859 76.4223 206.639 76.9148C206.423 77.4034 206.315 77.9773 206.315 78.6364C206.315 79.3106 206.421 79.8977 206.634 80.3977C206.849 80.8977 207.152 81.286 207.543 81.5625C207.937 81.839 208.399 81.9773 208.929 81.9773C209.277 81.9773 209.594 81.9167 209.878 81.7955C210.162 81.6742 210.402 81.5 210.599 81.2727C210.796 81.0455 210.937 80.7727 211.02 80.4545H212.361C212.285 80.9697 212.098 81.4337 211.798 81.8466C211.503 82.2557 211.111 82.5814 210.622 82.8239C210.137 83.0625 209.573 83.1818 208.929 83.1818ZM214.321 83V74.2727H215.662V83H214.321ZM215.003 72.8182C214.741 72.8182 214.516 72.7292 214.327 72.5511C214.141 72.3731 214.048 72.1591 214.048 71.9091C214.048 71.6591 214.141 71.4451 214.327 71.267C214.516 71.089 214.741 71 215.003 71C215.264 71 215.488 71.089 215.673 71.267C215.863 71.4451 215.957 71.6591 215.957 71.9091C215.957 72.1591 215.863 72.3731 215.673 72.5511C215.488 72.7292 215.264 72.8182 215.003 72.8182ZM224.3 76.2273L223.095 76.5682C223.019 76.3674 222.908 76.1723 222.76 75.983C222.616 75.7898 222.419 75.6307 222.169 75.5057C221.919 75.3807 221.599 75.3182 221.209 75.3182C220.675 75.3182 220.23 75.4413 219.874 75.6875C219.521 75.9299 219.345 76.2386 219.345 76.6136C219.345 76.947 219.466 77.2102 219.709 77.4034C219.951 77.5966 220.33 77.7576 220.845 77.8864L222.141 78.2045C222.921 78.3939 223.502 78.6837 223.885 79.0739C224.268 79.4602 224.459 79.9583 224.459 80.5682C224.459 81.0682 224.315 81.5152 224.027 81.9091C223.743 82.303 223.345 82.6136 222.834 82.8409C222.322 83.0682 221.728 83.1818 221.05 83.1818C220.16 83.1818 219.423 82.9886 218.839 82.6023C218.256 82.2159 217.887 81.6515 217.732 80.9091L219.004 80.5909C219.125 81.0606 219.355 81.4129 219.692 81.6477C220.033 81.8826 220.478 82 221.027 82C221.652 82 222.148 81.8674 222.516 81.6023C222.887 81.3333 223.072 81.0114 223.072 80.6364C223.072 80.3333 222.966 80.0795 222.754 79.875C222.542 79.6667 222.216 79.5114 221.777 79.4091L220.322 79.0682C219.523 78.8788 218.936 78.5852 218.561 78.1875C218.19 77.786 218.004 77.2841 218.004 76.6818C218.004 76.1894 218.143 75.7538 218.419 75.375C218.699 74.9962 219.08 74.6989 219.561 74.483C220.046 74.267 220.595 74.1591 221.209 74.1591C222.072 74.1591 222.75 74.3485 223.243 74.7273C223.739 75.1061 224.091 75.6061 224.3 76.2273ZM230.023 83.1818C229.235 83.1818 228.544 82.9943 227.949 82.6193C227.358 82.2443 226.896 81.7197 226.562 81.0455C226.233 80.3712 226.068 79.5833 226.068 78.6818C226.068 77.7727 226.233 76.9792 226.562 76.3011C226.896 75.6231 227.358 75.0966 227.949 74.7216C228.544 74.3466 229.235 74.1591 230.023 74.1591C230.811 74.1591 231.5 74.3466 232.091 74.7216C232.686 75.0966 233.148 75.6231 233.477 76.3011C233.811 76.9792 233.977 77.7727 233.977 78.6818C233.977 79.5833 233.811 80.3712 233.477 81.0455C233.148 81.7197 232.686 82.2443 232.091 82.6193C231.5 82.9943 230.811 83.1818 230.023 83.1818ZM230.023 81.9773C230.621 81.9773 231.114 81.8239 231.5 81.517C231.886 81.2102 232.172 80.8068 232.358 80.3068C232.544 79.8068 232.636 79.2652 232.636 78.6818C232.636 78.0985 232.544 77.5549 232.358 77.0511C232.172 76.5473 231.886 76.1402 231.5 75.8295C231.114 75.5189 230.621 75.3636 230.023 75.3636C229.424 75.3636 228.932 75.5189 228.545 75.8295C228.159 76.1402 227.873 76.5473 227.688 77.0511C227.502 77.5549 227.409 78.0985 227.409 78.6818C227.409 79.2652 227.502 79.8068 227.688 80.3068C227.873 80.8068 228.159 81.2102 228.545 81.517C228.932 81.8239 229.424 81.9773 230.023 81.9773ZM243.82 83.1818C243.092 83.1818 242.45 82.9981 241.893 82.6307C241.337 82.2595 240.901 81.7367 240.587 81.0625C240.272 80.3845 240.115 79.5833 240.115 78.6591C240.115 77.7424 240.272 76.947 240.587 76.2727C240.901 75.5985 241.339 75.0777 241.899 74.7102C242.46 74.3428 243.107 74.1591 243.842 74.1591C244.411 74.1591 244.859 74.2538 245.189 74.4432C245.522 74.6288 245.776 74.8409 245.95 75.0795C246.128 75.3144 246.267 75.5076 246.365 75.6591H246.479V71.3636H247.82V83H246.524V81.6591H246.365C246.267 81.8182 246.126 82.0189 245.945 82.2614C245.763 82.5 245.503 82.714 245.166 82.9034C244.829 83.089 244.38 83.1818 243.82 83.1818ZM244.001 81.9773C244.539 81.9773 244.994 81.8371 245.365 81.5568C245.736 81.2727 246.018 80.8807 246.212 80.3807C246.405 79.8769 246.501 79.2955 246.501 78.6364C246.501 77.9848 246.407 77.4148 246.217 76.9261C246.028 76.4337 245.748 76.0511 245.376 75.7784C245.005 75.5019 244.547 75.3636 244.001 75.3636C243.433 75.3636 242.96 75.5095 242.581 75.8011C242.206 76.089 241.924 76.4811 241.734 76.9773C241.549 77.4697 241.456 78.0227 241.456 78.6364C241.456 79.2576 241.551 79.822 241.74 80.3295C241.933 80.8333 242.217 81.2348 242.592 81.5341C242.971 81.8295 243.441 81.9773 244.001 81.9773ZM254.121 83.1818C253.28 83.1818 252.554 82.9962 251.945 82.625C251.339 82.25 250.871 81.7273 250.541 81.0568C250.215 80.3826 250.053 79.5985 250.053 78.7045C250.053 77.8106 250.215 77.0227 250.541 76.3409C250.871 75.6553 251.329 75.1212 251.916 74.7386C252.507 74.3523 253.196 74.1591 253.984 74.1591C254.439 74.1591 254.888 74.2348 255.331 74.3864C255.774 74.5379 256.178 74.7841 256.541 75.125C256.905 75.4621 257.195 75.9091 257.411 76.4659C257.626 77.0227 257.734 77.7083 257.734 78.5227V79.0909H251.007V77.9318H256.371C256.371 77.4394 256.272 77 256.075 76.6136C255.882 76.2273 255.606 75.9223 255.246 75.6989C254.89 75.4754 254.469 75.3636 253.984 75.3636C253.45 75.3636 252.988 75.4962 252.598 75.7614C252.212 76.0227 251.914 76.3636 251.706 76.7841C251.498 77.2045 251.393 77.6553 251.393 78.1364V78.9091C251.393 79.5682 251.507 80.1269 251.734 80.5852C251.965 81.0398 252.286 81.3864 252.695 81.625C253.104 81.8598 253.579 81.9773 254.121 81.9773C254.473 81.9773 254.791 81.928 255.075 81.8295C255.363 81.7273 255.611 81.5758 255.82 81.375C256.028 81.1705 256.189 80.9167 256.303 80.6136L257.598 80.9773C257.462 81.4167 257.232 81.803 256.911 82.1364C256.589 82.4659 256.191 82.7235 255.717 82.9091C255.244 83.0909 254.712 83.1818 254.121 83.1818ZM266.842 83.2045C266.289 83.2045 265.787 83.1004 265.337 82.892C264.886 82.6799 264.528 82.375 264.263 81.9773C263.998 81.5758 263.865 81.0909 263.865 80.5227C263.865 80.0227 263.964 79.6174 264.161 79.3068C264.357 78.9924 264.621 78.7462 264.95 78.5682C265.28 78.3902 265.643 78.2576 266.041 78.1705C266.443 78.0795 266.846 78.0076 267.251 77.9545C267.782 77.8864 268.212 77.8352 268.541 77.8011C268.875 77.7633 269.117 77.7008 269.268 77.6136C269.424 77.5265 269.501 77.375 269.501 77.1591V77.1136C269.501 76.553 269.348 76.1174 269.041 75.8068C268.738 75.4962 268.278 75.3409 267.661 75.3409C267.02 75.3409 266.518 75.4811 266.155 75.7614C265.791 76.0417 265.536 76.3409 265.388 76.6591L264.115 76.2045C264.342 75.6742 264.645 75.2614 265.024 74.9659C265.407 74.6667 265.823 74.4583 266.274 74.3409C266.729 74.2197 267.176 74.1591 267.615 74.1591C267.895 74.1591 268.217 74.1932 268.581 74.2614C268.948 74.3258 269.303 74.4602 269.643 74.6648C269.988 74.8693 270.274 75.178 270.501 75.5909C270.729 76.0038 270.842 76.5568 270.842 77.25V83H269.501V81.8182H269.433C269.342 82.0076 269.191 82.2102 268.979 82.4261C268.767 82.642 268.484 82.8258 268.132 82.9773C267.78 83.1288 267.35 83.2045 266.842 83.2045ZM267.047 82C267.577 82 268.024 81.8958 268.388 81.6875C268.755 81.4792 269.032 81.2102 269.217 80.8807C269.407 80.5511 269.501 80.2045 269.501 79.8409V78.6136C269.445 78.6818 269.32 78.7443 269.126 78.8011C268.937 78.8542 268.717 78.9015 268.467 78.9432C268.221 78.9811 267.981 79.0152 267.746 79.0455C267.515 79.072 267.327 79.0947 267.183 79.1136C266.835 79.1591 266.509 79.233 266.206 79.3352C265.907 79.4337 265.664 79.5833 265.479 79.7841C265.297 79.9811 265.206 80.25 265.206 80.5909C265.206 81.0568 265.378 81.4091 265.723 81.6477C266.071 81.8826 266.513 82 267.047 82ZM273.29 74.2727H274.631V83.6364C274.631 84.1742 274.538 84.6402 274.352 85.0341C274.17 85.428 273.894 85.733 273.523 85.9489C273.155 86.1648 272.691 86.2727 272.131 86.2727C272.085 86.2727 272.04 86.2727 271.994 86.2727C271.949 86.2727 271.903 86.2727 271.858 86.2727V85.0227C271.903 85.0227 271.945 85.0227 271.983 85.0227C272.021 85.0227 272.062 85.0227 272.108 85.0227C272.517 85.0227 272.816 84.9015 273.006 84.6591C273.195 84.4205 273.29 84.0795 273.29 83.6364V74.2727ZM273.949 72.8182C273.688 72.8182 273.462 72.7292 273.273 72.5511C273.087 72.3731 272.994 72.1591 272.994 71.9091C272.994 71.6591 273.087 71.4451 273.273 71.267C273.462 71.089 273.688 71 273.949 71C274.21 71 274.434 71.089 274.619 71.267C274.809 71.4451 274.903 71.6591 274.903 71.9091C274.903 72.1591 274.809 72.3731 274.619 72.5511C274.434 72.7292 274.21 72.8182 273.949 72.8182ZM282.587 79.4318V74.2727H283.928V83H282.587V81.5227H282.496C282.291 81.9659 281.973 82.3428 281.541 82.6534C281.109 82.9602 280.564 83.1136 279.905 83.1136C279.359 83.1136 278.875 82.9943 278.45 82.7557C278.026 82.5133 277.693 82.1496 277.45 81.6648C277.208 81.1761 277.087 80.5606 277.087 79.8182V74.2727H278.428V79.7273C278.428 80.3636 278.606 80.8712 278.962 81.25C279.321 81.6288 279.78 81.8182 280.337 81.8182C280.67 81.8182 281.009 81.733 281.354 81.5625C281.702 81.392 281.994 81.1307 282.229 80.7784C282.467 80.4261 282.587 79.9773 282.587 79.4318ZM289.679 83.1818C288.952 83.1818 288.31 82.9981 287.753 82.6307C287.196 82.2595 286.76 81.7367 286.446 81.0625C286.132 80.3845 285.974 79.5833 285.974 78.6591C285.974 77.7424 286.132 76.947 286.446 76.2727C286.76 75.5985 287.198 75.0777 287.759 74.7102C288.319 74.3428 288.967 74.1591 289.702 74.1591C290.27 74.1591 290.719 74.2538 291.048 74.4432C291.382 74.6288 291.635 74.8409 291.81 75.0795C291.988 75.3144 292.126 75.5076 292.224 75.6591H292.338V71.3636H293.679V83H292.384V81.6591H292.224C292.126 81.8182 291.986 82.0189 291.804 82.2614C291.622 82.5 291.363 82.714 291.026 82.9034C290.688 83.089 290.24 83.1818 289.679 83.1818ZM289.861 81.9773C290.399 81.9773 290.853 81.8371 291.224 81.5568C291.596 81.2727 291.878 80.8807 292.071 80.3807C292.264 79.8769 292.361 79.2955 292.361 78.6364C292.361 77.9848 292.266 77.4148 292.077 76.9261C291.887 76.4337 291.607 76.0511 291.236 75.7784C290.865 75.5019 290.406 75.3636 289.861 75.3636C289.293 75.3636 288.819 75.5095 288.44 75.8011C288.065 76.089 287.783 76.4811 287.594 76.9773C287.408 77.4697 287.315 78.0227 287.315 78.6364C287.315 79.2576 287.41 79.822 287.599 80.3295C287.793 80.8333 288.077 81.2348 288.452 81.5341C288.83 81.8295 289.3 81.9773 289.861 81.9773ZM298.889 83.2045C298.336 83.2045 297.834 83.1004 297.384 82.892C296.933 82.6799 296.575 82.375 296.31 81.9773C296.045 81.5758 295.912 81.0909 295.912 80.5227C295.912 80.0227 296.01 79.6174 296.207 79.3068C296.404 78.9924 296.668 78.7462 296.997 78.5682C297.327 78.3902 297.69 78.2576 298.088 78.1705C298.49 78.0795 298.893 78.0076 299.298 77.9545C299.829 77.8864 300.259 77.8352 300.588 77.8011C300.921 77.7633 301.164 77.7008 301.315 77.6136C301.471 77.5265 301.548 77.375 301.548 77.1591V77.1136C301.548 76.553 301.395 76.1174 301.088 75.8068C300.785 75.4962 300.325 75.3409 299.707 75.3409C299.067 75.3409 298.565 75.4811 298.202 75.7614C297.838 76.0417 297.582 76.3409 297.435 76.6591L296.162 76.2045C296.389 75.6742 296.692 75.2614 297.071 74.9659C297.454 74.6667 297.87 74.4583 298.321 74.3409C298.776 74.2197 299.223 74.1591 299.662 74.1591C299.942 74.1591 300.264 74.1932 300.628 74.2614C300.995 74.3258 301.349 74.4602 301.69 74.6648C302.035 74.8693 302.321 75.178 302.548 75.5909C302.776 76.0038 302.889 76.5568 302.889 77.25V83H301.548V81.8182H301.48C301.389 82.0076 301.238 82.2102 301.026 82.4261C300.813 82.642 300.531 82.8258 300.179 82.9773C299.827 83.1288 299.397 83.2045 298.889 83.2045ZM299.094 82C299.624 82 300.071 81.8958 300.435 81.6875C300.802 81.4792 301.079 81.2102 301.264 80.8807C301.454 80.5511 301.548 80.2045 301.548 79.8409V78.6136C301.491 78.6818 301.366 78.7443 301.173 78.8011C300.984 78.8542 300.764 78.9015 300.514 78.9432C300.268 78.9811 300.027 79.0152 299.793 79.0455C299.562 79.072 299.374 79.0947 299.23 79.1136C298.882 79.1591 298.556 79.233 298.253 79.3352C297.954 79.4337 297.711 79.5833 297.526 79.7841C297.344 79.9811 297.253 80.25 297.253 80.5909C297.253 81.0568 297.425 81.4091 297.77 81.6477C298.118 81.8826 298.56 82 299.094 82Z" fill="white"/>
<path d="M189.773 191H188.364C188.28 190.595 188.134 190.239 187.926 189.932C187.722 189.625 187.472 189.367 187.176 189.159C186.884 188.947 186.561 188.788 186.205 188.682C185.848 188.576 185.477 188.523 185.091 188.523C184.386 188.523 183.748 188.701 183.176 189.057C182.608 189.413 182.155 189.938 181.818 190.631C181.485 191.324 181.318 192.174 181.318 193.182C181.318 194.189 181.485 195.04 181.818 195.733C182.155 196.426 182.608 196.951 183.176 197.307C183.748 197.663 184.386 197.841 185.091 197.841C185.477 197.841 185.848 197.788 186.205 197.682C186.561 197.576 186.884 197.419 187.176 197.21C187.472 196.998 187.722 196.739 187.926 196.432C188.134 196.121 188.28 195.765 188.364 195.364H189.773C189.667 195.958 189.473 196.491 189.193 196.96C188.913 197.43 188.564 197.83 188.148 198.159C187.731 198.485 187.263 198.733 186.744 198.903C186.229 199.074 185.678 199.159 185.091 199.159C184.098 199.159 183.216 198.917 182.443 198.432C181.67 197.947 181.063 197.258 180.619 196.364C180.176 195.47 179.955 194.409 179.955 193.182C179.955 191.955 180.176 190.894 180.619 190C181.063 189.106 181.67 188.417 182.443 187.932C183.216 187.447 184.098 187.205 185.091 187.205C185.678 187.205 186.229 187.29 186.744 187.46C187.263 187.631 187.731 187.881 188.148 188.21C188.564 188.536 188.913 188.934 189.193 189.403C189.473 189.869 189.667 190.402 189.773 191ZM195.413 199.182C194.625 199.182 193.934 198.994 193.339 198.619C192.749 198.244 192.286 197.72 191.953 197.045C191.624 196.371 191.459 195.583 191.459 194.682C191.459 193.773 191.624 192.979 191.953 192.301C192.286 191.623 192.749 191.097 193.339 190.722C193.934 190.347 194.625 190.159 195.413 190.159C196.201 190.159 196.891 190.347 197.482 190.722C198.076 191.097 198.538 191.623 198.868 192.301C199.201 192.979 199.368 193.773 199.368 194.682C199.368 195.583 199.201 196.371 198.868 197.045C198.538 197.72 198.076 198.244 197.482 198.619C196.891 198.994 196.201 199.182 195.413 199.182ZM195.413 197.977C196.012 197.977 196.504 197.824 196.891 197.517C197.277 197.21 197.563 196.807 197.749 196.307C197.934 195.807 198.027 195.265 198.027 194.682C198.027 194.098 197.934 193.555 197.749 193.051C197.563 192.547 197.277 192.14 196.891 191.83C196.504 191.519 196.012 191.364 195.413 191.364C194.815 191.364 194.322 191.519 193.936 191.83C193.55 192.14 193.264 192.547 193.078 193.051C192.893 193.555 192.8 194.098 192.8 194.682C192.8 195.265 192.893 195.807 193.078 196.307C193.264 196.807 193.55 197.21 193.936 197.517C194.322 197.824 194.815 197.977 195.413 197.977ZM202.756 193.75V199H201.415V190.273H202.71V191.636H202.824C203.028 191.193 203.339 190.837 203.756 190.568C204.172 190.295 204.71 190.159 205.369 190.159C205.96 190.159 206.477 190.28 206.92 190.523C207.364 190.761 207.708 191.125 207.955 191.614C208.201 192.098 208.324 192.712 208.324 193.455V199H206.983V193.545C206.983 192.86 206.805 192.326 206.449 191.943C206.093 191.557 205.604 191.364 204.983 191.364C204.555 191.364 204.172 191.456 203.835 191.642C203.502 191.828 203.239 192.098 203.045 192.455C202.852 192.811 202.756 193.242 202.756 193.75ZM214.57 190.273V191.409H210.047V190.273H214.57ZM211.365 188.182H212.706V196.5C212.706 196.879 212.761 197.163 212.871 197.352C212.984 197.538 213.128 197.663 213.303 197.727C213.481 197.788 213.668 197.818 213.865 197.818C214.013 197.818 214.134 197.811 214.229 197.795C214.323 197.777 214.399 197.761 214.456 197.75L214.729 198.955C214.638 198.989 214.511 199.023 214.348 199.057C214.185 199.095 213.979 199.114 213.729 199.114C213.35 199.114 212.979 199.032 212.615 198.869C212.255 198.706 211.956 198.458 211.717 198.125C211.482 197.792 211.365 197.371 211.365 196.864V188.182ZM216.587 199V190.273H217.882V191.591H217.973C218.132 191.159 218.42 190.809 218.837 190.54C219.253 190.271 219.723 190.136 220.246 190.136C220.344 190.136 220.467 190.138 220.615 190.142C220.763 190.146 220.875 190.152 220.95 190.159V191.523C220.905 191.511 220.801 191.494 220.638 191.472C220.479 191.445 220.31 191.432 220.132 191.432C219.708 191.432 219.329 191.521 218.996 191.699C218.666 191.873 218.405 192.116 218.212 192.426C218.022 192.733 217.928 193.083 217.928 193.477V199H216.587ZM225.108 199.205C224.555 199.205 224.053 199.1 223.602 198.892C223.152 198.68 222.794 198.375 222.528 197.977C222.263 197.576 222.131 197.091 222.131 196.523C222.131 196.023 222.229 195.617 222.426 195.307C222.623 194.992 222.886 194.746 223.216 194.568C223.545 194.39 223.909 194.258 224.307 194.17C224.708 194.08 225.112 194.008 225.517 193.955C226.047 193.886 226.477 193.835 226.807 193.801C227.14 193.763 227.383 193.701 227.534 193.614C227.689 193.527 227.767 193.375 227.767 193.159V193.114C227.767 192.553 227.614 192.117 227.307 191.807C227.004 191.496 226.544 191.341 225.926 191.341C225.286 191.341 224.784 191.481 224.42 191.761C224.057 192.042 223.801 192.341 223.653 192.659L222.381 192.205C222.608 191.674 222.911 191.261 223.29 190.966C223.672 190.667 224.089 190.458 224.54 190.341C224.994 190.22 225.441 190.159 225.881 190.159C226.161 190.159 226.483 190.193 226.847 190.261C227.214 190.326 227.568 190.46 227.909 190.665C228.254 190.869 228.54 191.178 228.767 191.591C228.994 192.004 229.108 192.557 229.108 193.25V199H227.767V197.818H227.699C227.608 198.008 227.456 198.21 227.244 198.426C227.032 198.642 226.75 198.826 226.398 198.977C226.045 199.129 225.616 199.205 225.108 199.205ZM225.312 198C225.843 198 226.29 197.896 226.653 197.688C227.021 197.479 227.297 197.21 227.483 196.881C227.672 196.551 227.767 196.205 227.767 195.841V194.614C227.71 194.682 227.585 194.744 227.392 194.801C227.203 194.854 226.983 194.902 226.733 194.943C226.487 194.981 226.246 195.015 226.011 195.045C225.78 195.072 225.593 195.095 225.449 195.114C225.1 195.159 224.775 195.233 224.472 195.335C224.172 195.434 223.93 195.583 223.744 195.784C223.563 195.981 223.472 196.25 223.472 196.591C223.472 197.057 223.644 197.409 223.989 197.648C224.337 197.883 224.778 198 225.312 198ZM235.351 190.273V191.409H230.828V190.273H235.351ZM232.146 188.182H233.487V196.5C233.487 196.879 233.542 197.163 233.652 197.352C233.766 197.538 233.91 197.663 234.084 197.727C234.262 197.788 234.449 197.818 234.646 197.818C234.794 197.818 234.915 197.811 235.01 197.795C235.105 197.777 235.18 197.761 235.237 197.75L235.51 198.955C235.419 198.989 235.292 199.023 235.129 199.057C234.966 199.095 234.76 199.114 234.51 199.114C234.131 199.114 233.76 199.032 233.396 198.869C233.036 198.706 232.737 198.458 232.499 198.125C232.264 197.792 232.146 197.371 232.146 196.864V188.182ZM240.82 199.182C240.032 199.182 239.34 198.994 238.746 198.619C238.155 198.244 237.693 197.72 237.359 197.045C237.03 196.371 236.865 195.583 236.865 194.682C236.865 193.773 237.03 192.979 237.359 192.301C237.693 191.623 238.155 191.097 238.746 190.722C239.34 190.347 240.032 190.159 240.82 190.159C241.607 190.159 242.297 190.347 242.888 190.722C243.482 191.097 243.945 191.623 244.274 192.301C244.607 192.979 244.774 193.773 244.774 194.682C244.774 195.583 244.607 196.371 244.274 197.045C243.945 197.72 243.482 198.244 242.888 198.619C242.297 198.994 241.607 199.182 240.82 199.182ZM240.82 197.977C241.418 197.977 241.911 197.824 242.297 197.517C242.683 197.21 242.969 196.807 243.155 196.307C243.34 195.807 243.433 195.265 243.433 194.682C243.433 194.098 243.34 193.555 243.155 193.051C242.969 192.547 242.683 192.14 242.297 191.83C241.911 191.519 241.418 191.364 240.82 191.364C240.221 191.364 239.729 191.519 239.342 191.83C238.956 192.14 238.67 192.547 238.484 193.051C238.299 193.555 238.206 194.098 238.206 194.682C238.206 195.265 238.299 195.807 238.484 196.307C238.67 196.807 238.956 197.21 239.342 197.517C239.729 197.824 240.221 197.977 240.82 197.977Z" fill="white"/>
<path d="M73.233 257V246.818H74.4659V251.352H79.8949V246.818H81.1278V257H79.8949V252.446H74.4659V257H73.233ZM86.5394 257.159C85.85 257.159 85.2451 256.995 84.7248 256.667C84.2077 256.339 83.8034 255.88 83.5117 255.29C83.2234 254.7 83.0792 254.01 83.0792 253.222C83.0792 252.426 83.2234 251.732 83.5117 251.138C83.8034 250.545 84.2077 250.085 84.7248 249.756C85.2451 249.428 85.85 249.264 86.5394 249.264C87.2288 249.264 87.832 249.428 88.3491 249.756C88.8694 250.085 89.2738 250.545 89.5621 251.138C89.8538 251.732 89.9996 252.426 89.9996 253.222C89.9996 254.01 89.8538 254.7 89.5621 255.29C89.2738 255.88 88.8694 256.339 88.3491 256.667C87.832 256.995 87.2288 257.159 86.5394 257.159ZM86.5394 256.105C87.0631 256.105 87.494 255.971 87.832 255.702C88.1701 255.434 88.4203 255.081 88.5827 254.643C88.7451 254.206 88.8263 253.732 88.8263 253.222C88.8263 252.711 88.7451 252.236 88.5827 251.795C88.4203 251.354 88.1701 250.998 87.832 250.726C87.494 250.454 87.0631 250.318 86.5394 250.318C86.0157 250.318 85.5849 250.454 85.2468 250.726C84.9087 250.998 84.6585 251.354 84.4961 251.795C84.3337 252.236 84.2525 252.711 84.2525 253.222C84.2525 253.732 84.3337 254.206 84.4961 254.643C84.6585 255.081 84.9087 255.434 85.2468 255.702C85.5849 255.971 86.0157 256.105 86.5394 256.105ZM91.7907 257V249.364H92.9242V250.517H93.0037C93.1429 250.139 93.3948 249.833 93.7594 249.597C94.124 249.362 94.535 249.244 94.9924 249.244C95.0785 249.244 95.1863 249.246 95.3155 249.249C95.4448 249.253 95.5426 249.258 95.6088 249.264V250.457C95.5691 250.447 95.4779 250.433 95.3354 250.413C95.1962 250.389 95.0487 250.378 94.8929 250.378C94.5217 250.378 94.1903 250.456 93.8986 250.612C93.6103 250.764 93.3816 250.976 93.2125 251.248C93.0468 251.516 92.964 251.823 92.964 252.168V257H91.7907ZM99.2468 257.179C98.7629 257.179 98.3237 257.088 97.9293 256.906C97.5349 256.72 97.2217 256.453 96.9897 256.105C96.7577 255.754 96.6417 255.33 96.6417 254.832C96.6417 254.395 96.7279 254.04 96.9002 253.768C97.0726 253.493 97.3029 253.278 97.5913 253.122C97.8796 252.966 98.1978 252.85 98.5458 252.774C98.8971 252.695 99.2501 252.632 99.6048 252.585C100.069 252.526 100.445 252.481 100.733 252.451C101.025 252.418 101.237 252.363 101.37 252.287C101.506 252.211 101.574 252.078 101.574 251.889V251.849C101.574 251.359 101.439 250.978 101.171 250.706C100.906 250.434 100.503 250.298 99.9627 250.298C99.4026 250.298 98.9634 250.421 98.6452 250.666C98.3271 250.911 98.1033 251.173 97.9741 251.452L96.8604 251.054C97.0593 250.59 97.3245 250.229 97.6559 249.97C97.9906 249.708 98.3552 249.526 98.7496 249.423C99.1474 249.317 99.5385 249.264 99.9229 249.264C100.168 249.264 100.45 249.294 100.768 249.354C101.09 249.41 101.4 249.528 101.698 249.707C101.999 249.886 102.25 250.156 102.449 250.517C102.647 250.878 102.747 251.362 102.747 251.969V257H101.574V255.966H101.514C101.434 256.132 101.302 256.309 101.116 256.498C100.931 256.687 100.684 256.848 100.375 256.98C100.067 257.113 99.6909 257.179 99.2468 257.179ZM99.4258 256.125C99.8898 256.125 100.281 256.034 100.599 255.852C100.921 255.669 101.163 255.434 101.325 255.146C101.491 254.857 101.574 254.554 101.574 254.236V253.162C101.524 253.222 101.414 253.276 101.245 253.326C101.08 253.372 100.887 253.414 100.669 253.45C100.453 253.483 100.243 253.513 100.037 253.54C99.8351 253.563 99.671 253.583 99.5451 253.599C99.2402 253.639 98.9551 253.704 98.69 253.793C98.4281 253.879 98.216 254.01 98.0536 254.186C97.8945 254.358 97.815 254.594 97.815 254.892C97.815 255.3 97.9658 255.608 98.2674 255.817C98.5723 256.022 98.9585 256.125 99.4258 256.125ZM99.4656 248.33L100.679 246.023H102.051L100.5 248.33H99.4656ZM104.888 257V249.364H106.022V250.517H106.101C106.241 250.139 106.492 249.833 106.857 249.597C107.222 249.362 107.633 249.244 108.09 249.244C108.176 249.244 108.284 249.246 108.413 249.249C108.542 249.253 108.64 249.258 108.706 249.264V250.457C108.667 250.447 108.576 250.433 108.433 250.413C108.294 250.389 108.146 250.378 107.991 250.378C107.619 250.378 107.288 250.456 106.996 250.612C106.708 250.764 106.479 250.976 106.31 251.248C106.144 251.516 106.062 251.823 106.062 252.168V257H104.888ZM110.097 257V249.364H111.271V257H110.097ZM110.694 248.091C110.465 248.091 110.268 248.013 110.102 247.857C109.94 247.701 109.859 247.514 109.859 247.295C109.859 247.077 109.94 246.889 110.102 246.734C110.268 246.578 110.465 246.5 110.694 246.5C110.923 246.5 111.118 246.578 111.281 246.734C111.446 246.889 111.529 247.077 111.529 247.295C111.529 247.514 111.446 247.701 111.281 247.857C111.118 248.013 110.923 248.091 110.694 248.091ZM116.522 257.159C115.832 257.159 115.228 256.995 114.707 256.667C114.19 256.339 113.786 255.88 113.494 255.29C113.206 254.7 113.062 254.01 113.062 253.222C113.062 252.426 113.206 251.732 113.494 251.138C113.786 250.545 114.19 250.085 114.707 249.756C115.228 249.428 115.832 249.264 116.522 249.264C117.211 249.264 117.814 249.428 118.331 249.756C118.852 250.085 119.256 250.545 119.545 251.138C119.836 251.732 119.982 252.426 119.982 253.222C119.982 254.01 119.836 254.7 119.545 255.29C119.256 255.88 118.852 256.339 118.331 256.667C117.814 256.995 117.211 257.159 116.522 257.159ZM116.522 256.105C117.046 256.105 117.476 255.971 117.814 255.702C118.153 255.434 118.403 255.081 118.565 254.643C118.728 254.206 118.809 253.732 118.809 253.222C118.809 252.711 118.728 252.236 118.565 251.795C118.403 251.354 118.153 250.998 117.814 250.726C117.476 250.454 117.046 250.318 116.522 250.318C115.998 250.318 115.567 250.454 115.229 250.726C114.891 250.998 114.641 251.354 114.479 251.795C114.316 252.236 114.235 252.711 114.235 253.222C114.235 253.732 114.316 254.206 114.479 254.643C114.641 255.081 114.891 255.434 115.229 255.702C115.567 255.971 115.998 256.105 116.522 256.105Z" fill="white"/>
<path d="M168.233 257V246.818H169.466V255.906H174.199V257H168.233ZM179.051 257.159C178.362 257.159 177.757 256.995 177.237 256.667C176.719 256.339 176.315 255.88 176.023 255.29C175.735 254.7 175.591 254.01 175.591 253.222C175.591 252.426 175.735 251.732 176.023 251.138C176.315 250.545 176.719 250.085 177.237 249.756C177.757 249.428 178.362 249.264 179.051 249.264C179.741 249.264 180.344 249.428 180.861 249.756C181.381 250.085 181.786 250.545 182.074 251.138C182.366 251.732 182.511 252.426 182.511 253.222C182.511 254.01 182.366 254.7 182.074 255.29C181.786 255.88 181.381 256.339 180.861 256.667C180.344 256.995 179.741 257.159 179.051 257.159ZM179.051 256.105C179.575 256.105 180.006 255.971 180.344 255.702C180.682 255.434 180.932 255.081 181.094 254.643C181.257 254.206 181.338 253.732 181.338 253.222C181.338 252.711 181.257 252.236 181.094 251.795C180.932 251.354 180.682 250.998 180.344 250.726C180.006 250.454 179.575 250.318 179.051 250.318C178.527 250.318 178.097 250.454 177.759 250.726C177.42 250.998 177.17 251.354 177.008 251.795C176.845 252.236 176.764 252.711 176.764 253.222C176.764 253.732 176.845 254.206 177.008 254.643C177.17 255.081 177.42 255.434 177.759 255.702C178.097 255.971 178.527 256.105 179.051 256.105ZM187.405 257.159C186.689 257.159 186.072 256.99 185.555 256.652C185.038 256.314 184.64 255.848 184.362 255.255C184.084 254.662 183.944 253.984 183.944 253.222C183.944 252.446 184.087 251.762 184.372 251.168C184.66 250.572 185.061 250.106 185.575 249.771C186.092 249.433 186.695 249.264 187.385 249.264C187.922 249.264 188.406 249.364 188.836 249.562C189.267 249.761 189.62 250.04 189.895 250.398C190.171 250.756 190.341 251.173 190.407 251.651H189.234C189.145 251.303 188.946 250.994 188.638 250.726C188.333 250.454 187.922 250.318 187.405 250.318C186.947 250.318 186.546 250.437 186.202 250.676C185.86 250.911 185.593 251.245 185.401 251.675C185.212 252.103 185.118 252.605 185.118 253.182C185.118 253.772 185.211 254.286 185.396 254.723C185.585 255.161 185.85 255.5 186.192 255.742C186.536 255.984 186.941 256.105 187.405 256.105C187.71 256.105 187.986 256.052 188.235 255.946C188.483 255.84 188.694 255.688 188.866 255.489C189.039 255.29 189.161 255.051 189.234 254.773H190.407C190.341 255.223 190.177 255.629 189.915 255.991C189.657 256.349 189.314 256.634 188.886 256.846C188.462 257.055 187.968 257.159 187.405 257.159ZM194.37 257.179C193.886 257.179 193.447 257.088 193.052 256.906C192.658 256.72 192.345 256.453 192.113 256.105C191.881 255.754 191.765 255.33 191.765 254.832C191.765 254.395 191.851 254.04 192.023 253.768C192.196 253.493 192.426 253.278 192.714 253.122C193.003 252.966 193.321 252.85 193.669 252.774C194.02 252.695 194.373 252.632 194.728 252.585C195.192 252.526 195.568 252.481 195.856 252.451C196.148 252.418 196.36 252.363 196.493 252.287C196.629 252.211 196.697 252.078 196.697 251.889V251.849C196.697 251.359 196.562 250.978 196.294 250.706C196.029 250.434 195.626 250.298 195.086 250.298C194.526 250.298 194.086 250.421 193.768 250.666C193.45 250.911 193.226 251.173 193.097 251.452L191.983 251.054C192.182 250.59 192.448 250.229 192.779 249.97C193.114 249.708 193.478 249.526 193.873 249.423C194.27 249.317 194.662 249.264 195.046 249.264C195.291 249.264 195.573 249.294 195.891 249.354C196.213 249.41 196.523 249.528 196.821 249.707C197.122 249.886 197.373 250.156 197.572 250.517C197.77 250.878 197.87 251.362 197.87 251.969V257H196.697V255.966H196.637C196.557 256.132 196.425 256.309 196.239 256.498C196.054 256.687 195.807 256.848 195.498 256.98C195.19 257.113 194.814 257.179 194.37 257.179ZM194.549 256.125C195.013 256.125 195.404 256.034 195.722 255.852C196.044 255.669 196.286 255.434 196.448 255.146C196.614 254.857 196.697 254.554 196.697 254.236V253.162C196.647 253.222 196.537 253.276 196.368 253.326C196.203 253.372 196.01 253.414 195.792 253.45C195.576 253.483 195.366 253.513 195.16 253.54C194.958 253.563 194.794 253.583 194.668 253.599C194.363 253.639 194.078 253.704 193.813 253.793C193.551 253.879 193.339 254.01 193.177 254.186C193.018 254.358 192.938 254.594 192.938 254.892C192.938 255.3 193.089 255.608 193.39 255.817C193.695 256.022 194.081 256.125 194.549 256.125ZM201.185 246.818V257H200.011V246.818H201.185Z" fill="white"/>
<path d="M256.375 257H253.233V246.818H256.514C257.502 246.818 258.347 247.022 259.05 247.43C259.752 247.834 260.291 248.416 260.665 249.175C261.04 249.93 261.227 250.835 261.227 251.889C261.227 252.95 261.038 253.863 260.661 254.629C260.283 255.391 259.732 255.978 259.01 256.388C258.287 256.796 257.409 257 256.375 257ZM254.466 255.906H256.295C257.137 255.906 257.835 255.744 258.388 255.419C258.942 255.094 259.355 254.632 259.626 254.032C259.898 253.432 260.034 252.718 260.034 251.889C260.034 251.067 259.9 250.36 259.631 249.766C259.363 249.17 258.962 248.712 258.428 248.394C257.895 248.073 257.23 247.912 256.435 247.912H254.466V255.906ZM265.384 257.179C264.9 257.179 264.46 257.088 264.066 256.906C263.672 256.72 263.358 256.453 263.126 256.105C262.894 255.754 262.778 255.33 262.778 254.832C262.778 254.395 262.865 254.04 263.037 253.768C263.209 253.493 263.44 253.278 263.728 253.122C264.016 252.966 264.335 252.85 264.683 252.774C265.034 252.695 265.387 252.632 265.741 252.585C266.205 252.526 266.582 252.481 266.87 252.451C267.162 252.418 267.374 252.363 267.506 252.287C267.642 252.211 267.71 252.078 267.71 251.889V251.849C267.71 251.359 267.576 250.978 267.308 250.706C267.042 250.434 266.64 250.298 266.099 250.298C265.539 250.298 265.1 250.421 264.782 250.666C264.464 250.911 264.24 251.173 264.111 251.452L262.997 251.054C263.196 250.59 263.461 250.229 263.793 249.97C264.127 249.708 264.492 249.526 264.886 249.423C265.284 249.317 265.675 249.264 266.06 249.264C266.305 249.264 266.587 249.294 266.905 249.354C267.226 249.41 267.536 249.528 267.835 249.707C268.136 249.886 268.386 250.156 268.585 250.517C268.784 250.878 268.884 251.362 268.884 251.969V257H267.71V255.966H267.651C267.571 256.132 267.438 256.309 267.253 256.498C267.067 256.687 266.82 256.848 266.512 256.98C266.204 257.113 265.828 257.179 265.384 257.179ZM265.562 256.125C266.027 256.125 266.418 256.034 266.736 255.852C267.057 255.669 267.299 255.434 267.462 255.146C267.627 254.857 267.71 254.554 267.71 254.236V253.162C267.661 253.222 267.551 253.276 267.382 253.326C267.216 253.372 267.024 253.414 266.805 253.45C266.59 253.483 266.379 253.513 266.174 253.54C265.972 253.563 265.808 253.583 265.682 253.599C265.377 253.639 265.092 253.704 264.827 253.793C264.565 253.879 264.353 254.01 264.19 254.186C264.031 254.358 263.952 254.594 263.952 254.892C263.952 255.3 264.103 255.608 264.404 255.817C264.709 256.022 265.095 256.125 265.562 256.125ZM274.346 249.364V250.358H270.389V249.364H274.346ZM271.542 247.534H272.715V254.812C272.715 255.144 272.763 255.393 272.86 255.558C272.959 255.721 273.085 255.83 273.237 255.886C273.393 255.939 273.557 255.966 273.73 255.966C273.859 255.966 273.965 255.959 274.048 255.946C274.131 255.929 274.197 255.916 274.247 255.906L274.485 256.96C274.406 256.99 274.295 257.02 274.152 257.05C274.01 257.083 273.829 257.099 273.61 257.099C273.279 257.099 272.954 257.028 272.636 256.886C272.321 256.743 272.059 256.526 271.85 256.234C271.645 255.943 271.542 255.575 271.542 255.131V247.534ZM278.358 257.179C277.874 257.179 277.435 257.088 277.041 256.906C276.646 256.72 276.333 256.453 276.101 256.105C275.869 255.754 275.753 255.33 275.753 254.832C275.753 254.395 275.839 254.04 276.012 253.768C276.184 253.493 276.414 253.278 276.703 253.122C276.991 252.966 277.309 252.85 277.657 252.774C278.008 252.695 278.361 252.632 278.716 252.585C279.18 252.526 279.556 252.481 279.845 252.451C280.136 252.418 280.348 252.363 280.481 252.287C280.617 252.211 280.685 252.078 280.685 251.889V251.849C280.685 251.359 280.551 250.978 280.282 250.706C280.017 250.434 279.614 250.298 279.074 250.298C278.514 250.298 278.075 250.421 277.757 250.666C277.438 250.911 277.215 251.173 277.085 251.452L275.972 251.054C276.171 250.59 276.436 250.229 276.767 249.97C277.102 249.708 277.467 249.526 277.861 249.423C278.259 249.317 278.65 249.264 279.034 249.264C279.28 249.264 279.561 249.294 279.879 249.354C280.201 249.41 280.511 249.528 280.809 249.707C281.111 249.886 281.361 250.156 281.56 250.517C281.759 250.878 281.858 251.362 281.858 251.969V257H280.685V255.966H280.625C280.546 256.132 280.413 256.309 280.227 256.498C280.042 256.687 279.795 256.848 279.487 256.98C279.178 257.113 278.802 257.179 278.358 257.179ZM278.537 256.125C279.001 256.125 279.392 256.034 279.71 255.852C280.032 255.669 280.274 255.434 280.436 255.146C280.602 254.857 280.685 254.554 280.685 254.236V253.162C280.635 253.222 280.526 253.276 280.357 253.326C280.191 253.372 279.999 253.414 279.78 253.45C279.565 253.483 279.354 253.513 279.149 253.54C278.946 253.563 278.782 253.583 278.656 253.599C278.352 253.639 278.066 253.704 277.801 253.793C277.539 253.879 277.327 254.01 277.165 254.186C277.006 254.358 276.926 254.594 276.926 254.892C276.926 255.3 277.077 255.608 277.379 255.817C277.684 256.022 278.07 256.125 278.537 256.125Z" fill="white"/>
<path d="M70.5256 126.545C70.5256 127.696 70.3178 128.69 69.9023 129.528C69.4869 130.366 68.9169 131.013 68.1925 131.467C67.468 131.922 66.6406 132.149 65.7102 132.149C64.7798 132.149 63.9524 131.922 63.228 131.467C62.5036 131.013 61.9336 130.366 61.5181 129.528C61.1026 128.69 60.8949 127.696 60.8949 126.545C60.8949 125.395 61.1026 124.401 61.5181 123.562C61.9336 122.724 62.5036 122.078 63.228 121.624C63.9524 121.169 64.7798 120.942 65.7102 120.942C66.6406 120.942 67.468 121.169 68.1925 121.624C68.9169 122.078 69.4869 122.724 69.9023 123.562C70.3178 124.401 70.5256 125.395 70.5256 126.545ZM69.2472 126.545C69.2472 125.601 69.0891 124.804 68.7731 124.154C68.4606 123.504 68.0362 123.012 67.5 122.678C66.9673 122.344 66.3707 122.178 65.7102 122.178C65.0497 122.178 64.4513 122.344 63.9151 122.678C63.3825 123.012 62.9581 123.504 62.642 124.154C62.3295 124.804 62.1733 125.601 62.1733 126.545C62.1733 127.49 62.3295 128.287 62.642 128.937C62.9581 129.587 63.3825 130.079 63.9151 130.413C64.4513 130.746 65.0497 130.913 65.7102 130.913C66.3707 130.913 66.9673 130.746 67.5 130.413C68.0362 130.079 68.4606 129.587 68.7731 128.937C69.0891 128.287 69.2472 127.49 69.2472 126.545ZM73.8335 121.091V132H72.5763V121.091H73.8335ZM78.5436 132.192C78.0251 132.192 77.5546 132.094 77.132 131.899C76.7094 131.7 76.3738 131.414 76.1253 131.041C75.8767 130.665 75.7524 130.21 75.7524 129.678C75.7524 129.209 75.8447 128.829 76.0294 128.538C76.214 128.243 76.4608 128.012 76.7698 127.845C77.0787 127.678 77.4197 127.554 77.7925 127.472C78.1689 127.387 78.5471 127.32 78.9271 127.27C79.4243 127.206 79.8273 127.158 80.1363 127.126C80.4488 127.091 80.676 127.032 80.8181 126.95C80.9637 126.869 81.0365 126.727 81.0365 126.524V126.482C81.0365 125.956 80.8927 125.548 80.605 125.256C80.3209 124.965 79.8895 124.82 79.3106 124.82C78.7105 124.82 78.24 124.951 77.8991 125.214C77.5581 125.477 77.3184 125.757 77.18 126.055L75.9868 125.629C76.1998 125.132 76.4839 124.745 76.839 124.468C77.1977 124.187 77.5883 123.992 78.0109 123.882C78.4371 123.768 78.8561 123.712 79.268 123.712C79.5308 123.712 79.8327 123.744 80.1736 123.808C80.518 123.868 80.8501 123.994 81.1697 124.186C81.4928 124.377 81.7609 124.667 81.974 125.054C82.1871 125.441 82.2936 125.96 82.2936 126.609V132H81.0365V130.892H80.9726C80.8873 131.07 80.7453 131.26 80.5464 131.462C80.3476 131.664 80.083 131.837 79.7528 131.979C79.4225 132.121 79.0194 132.192 78.5436 132.192ZM78.7354 131.062C79.2325 131.062 79.6515 130.965 79.9925 130.77C80.3369 130.574 80.5961 130.322 80.7702 130.013C80.9477 129.704 81.0365 129.379 81.0365 129.038V127.888C80.9832 127.952 80.866 128.01 80.6849 128.064C80.5074 128.113 80.3014 128.158 80.067 128.197C79.8362 128.232 79.6107 128.264 79.3905 128.293C79.1739 128.317 78.9981 128.339 78.8632 128.357C78.5365 128.399 78.2311 128.468 77.947 128.564C77.6665 128.657 77.4392 128.797 77.2652 128.985C77.0947 129.17 77.0095 129.422 77.0095 129.741C77.0095 130.178 77.1711 130.509 77.4942 130.732C77.8209 130.952 78.2346 131.062 78.7354 131.062ZM78.778 122.71L80.0777 120.239H81.5479L79.8859 122.71H78.778ZM86.4631 130.509L86.3778 131.084C86.3175 131.489 86.2251 131.922 86.1009 132.384C85.9801 132.845 85.854 133.28 85.7227 133.689C85.5913 134.097 85.483 134.422 85.3977 134.663H84.4389C84.4851 134.436 84.5455 134.136 84.62 133.763C84.6946 133.39 84.7692 132.973 84.8438 132.511C84.9219 132.053 84.9858 131.585 85.0355 131.105L85.0994 130.509H86.4631ZM96.3348 132.17C95.5677 132.17 94.9072 131.989 94.3532 131.627C93.7993 131.265 93.3731 130.766 93.0748 130.13C92.7765 129.495 92.6274 128.768 92.6274 127.952C92.6274 127.121 92.7801 126.387 93.0855 125.752C93.3944 125.113 93.8241 124.614 94.3746 124.255C94.9285 123.893 95.5748 123.712 96.3135 123.712C96.8888 123.712 97.4072 123.818 97.8689 124.031C98.3305 124.244 98.7087 124.543 99.0035 124.926C99.2982 125.31 99.4811 125.757 99.5521 126.268H98.295C98.1991 125.896 97.9861 125.565 97.6558 125.278C97.3291 124.987 96.8888 124.841 96.3348 124.841C95.8447 124.841 95.415 124.969 95.0457 125.224C94.68 125.477 94.3941 125.833 94.1881 126.295C93.9857 126.753 93.8845 127.291 93.8845 127.909C93.8845 128.541 93.9839 129.092 94.1828 129.56C94.3852 130.029 94.6693 130.393 95.0351 130.652C95.4044 130.912 95.8376 131.041 96.3348 131.041C96.6615 131.041 96.958 130.984 97.2243 130.871C97.4907 130.757 97.7162 130.594 97.9008 130.381C98.0855 130.168 98.2169 129.912 98.295 129.614H99.5521C99.4811 130.097 99.3053 130.532 99.0248 130.919C98.7478 131.302 98.3802 131.608 97.9221 131.835C97.4676 132.059 96.9385 132.17 96.3348 132.17ZM104.714 132.17C103.975 132.17 103.327 131.995 102.769 131.643C102.215 131.292 101.782 130.8 101.47 130.168C101.161 129.536 101.006 128.797 101.006 127.952C101.006 127.099 101.161 126.355 101.47 125.72C101.782 125.084 102.215 124.591 102.769 124.239C103.327 123.887 103.975 123.712 104.714 123.712C105.452 123.712 106.099 123.887 106.653 124.239C107.21 124.591 107.643 125.084 107.952 125.72C108.265 126.355 108.421 127.099 108.421 127.952C108.421 128.797 108.265 129.536 107.952 130.168C107.643 130.8 107.21 131.292 106.653 131.643C106.099 131.995 105.452 132.17 104.714 132.17ZM104.714 131.041C105.275 131.041 105.736 130.897 106.099 130.61C106.461 130.322 106.729 129.944 106.903 129.475C107.077 129.006 107.164 128.499 107.164 127.952C107.164 127.405 107.077 126.895 106.903 126.423C106.729 125.951 106.461 125.569 106.099 125.278C105.736 124.987 105.275 124.841 104.714 124.841C104.153 124.841 103.691 124.987 103.329 125.278C102.967 125.569 102.698 125.951 102.524 126.423C102.35 126.895 102.263 127.405 102.263 127.952C102.263 128.499 102.35 129.006 102.524 129.475C102.698 129.944 102.967 130.322 103.329 130.61C103.691 130.897 104.153 131.041 104.714 131.041ZM110.34 132V123.818H111.555V125.097H111.661C111.831 124.66 112.107 124.321 112.487 124.079C112.867 123.834 113.323 123.712 113.856 123.712C114.395 123.712 114.845 123.834 115.203 124.079C115.566 124.321 115.848 124.66 116.05 125.097H116.135C116.345 124.674 116.659 124.338 117.078 124.09C117.497 123.838 118 123.712 118.586 123.712C119.317 123.712 119.916 123.941 120.381 124.399C120.846 124.853 121.079 125.562 121.079 126.524V132H119.822V126.524C119.822 125.92 119.656 125.489 119.326 125.23C118.996 124.971 118.607 124.841 118.16 124.841C117.584 124.841 117.139 125.015 116.823 125.363C116.507 125.707 116.349 126.144 116.349 126.673V132H115.07V126.396C115.07 125.931 114.919 125.556 114.617 125.272C114.316 124.985 113.927 124.841 113.451 124.841C113.124 124.841 112.819 124.928 112.535 125.102C112.254 125.276 112.027 125.517 111.853 125.826C111.682 126.132 111.597 126.485 111.597 126.886V132H110.34ZM130.92 132.17C130.181 132.17 129.533 131.995 128.975 131.643C128.422 131.292 127.988 130.8 127.676 130.168C127.367 129.536 127.212 128.797 127.212 127.952C127.212 127.099 127.367 126.355 127.676 125.72C127.988 125.084 128.422 124.591 128.975 124.239C129.533 123.887 130.181 123.712 130.92 123.712C131.658 123.712 132.305 123.887 132.859 124.239C133.416 124.591 133.849 125.084 134.158 125.72C134.471 126.355 134.627 127.099 134.627 127.952C134.627 128.797 134.471 129.536 134.158 130.168C133.849 130.8 133.416 131.292 132.859 131.643C132.305 131.995 131.658 132.17 130.92 132.17ZM130.92 131.041C131.481 131.041 131.942 130.897 132.305 130.61C132.667 130.322 132.935 129.944 133.109 129.475C133.283 129.006 133.37 128.499 133.37 127.952C133.37 127.405 133.283 126.895 133.109 126.423C132.935 125.951 132.667 125.569 132.305 125.278C131.942 124.987 131.481 124.841 130.92 124.841C130.359 124.841 129.897 124.987 129.535 125.278C129.173 125.569 128.904 125.951 128.73 126.423C128.556 126.895 128.469 127.405 128.469 127.952C128.469 128.499 128.556 129.006 128.73 129.475C128.904 129.944 129.173 130.322 129.535 130.61C129.897 130.897 130.359 131.041 130.92 131.041ZM146.347 135.068V130.743H146.241C146.148 130.892 146.017 131.08 145.847 131.308C145.676 131.531 145.433 131.732 145.117 131.909C144.801 132.083 144.38 132.17 143.854 132.17C143.172 132.17 142.571 131.998 142.049 131.654C141.527 131.306 141.118 130.816 140.823 130.184C140.529 129.548 140.381 128.797 140.381 127.93C140.381 127.071 140.529 126.325 140.823 125.693C141.118 125.061 141.528 124.573 142.054 124.228C142.579 123.884 143.187 123.712 143.876 123.712C144.408 123.712 144.829 123.8 145.138 123.978C145.451 124.152 145.688 124.351 145.852 124.575C146.019 124.795 146.148 124.976 146.241 125.118H146.39V123.818H147.604V135.068H146.347ZM144.025 131.041C144.529 131.041 144.955 130.91 145.303 130.647C145.651 130.381 145.916 130.013 146.097 129.544C146.278 129.072 146.369 128.527 146.369 127.909C146.369 127.298 146.28 126.764 146.102 126.306C145.925 125.844 145.662 125.485 145.314 125.23C144.966 124.971 144.536 124.841 144.025 124.841C143.492 124.841 143.048 124.978 142.693 125.251C142.342 125.521 142.077 125.888 141.899 126.354C141.725 126.815 141.638 127.334 141.638 127.909C141.638 128.491 141.727 129.021 141.905 129.496C142.086 129.969 142.352 130.345 142.704 130.626C143.059 130.903 143.499 131.041 144.025 131.041ZM155.062 128.655V123.818H156.319V132H155.062V130.615H154.976C154.785 131.031 154.486 131.384 154.082 131.675C153.677 131.963 153.165 132.107 152.547 132.107C152.036 132.107 151.582 131.995 151.184 131.771C150.786 131.544 150.474 131.203 150.246 130.748C150.019 130.29 149.905 129.713 149.905 129.017V123.818H151.163V128.932C151.163 129.528 151.329 130.004 151.663 130.359C152.001 130.714 152.43 130.892 152.952 130.892C153.265 130.892 153.583 130.812 153.906 130.652C154.233 130.493 154.506 130.248 154.726 129.917C154.95 129.587 155.062 129.166 155.062 128.655ZM162.052 132.17C161.263 132.17 160.583 131.996 160.012 131.648C159.443 131.297 159.005 130.807 158.696 130.178C158.39 129.546 158.238 128.811 158.238 127.973C158.238 127.135 158.39 126.396 158.696 125.757C159.005 125.114 159.434 124.614 159.985 124.255C160.539 123.893 161.185 123.712 161.924 123.712C162.35 123.712 162.771 123.783 163.186 123.925C163.602 124.067 163.98 124.298 164.321 124.617C164.662 124.933 164.933 125.352 165.136 125.874C165.338 126.396 165.439 127.039 165.439 127.803V128.335H159.133V127.249H164.161C164.161 126.787 164.069 126.375 163.884 126.013C163.703 125.651 163.444 125.365 163.106 125.155C162.773 124.946 162.378 124.841 161.924 124.841C161.423 124.841 160.99 124.965 160.624 125.214C160.262 125.459 159.983 125.778 159.788 126.173C159.593 126.567 159.495 126.989 159.495 127.44V128.165C159.495 128.783 159.601 129.306 159.814 129.736C160.031 130.162 160.331 130.487 160.715 130.711C161.098 130.931 161.544 131.041 162.052 131.041C162.382 131.041 162.68 130.995 162.947 130.903C163.216 130.807 163.449 130.665 163.644 130.477C163.84 130.285 163.991 130.047 164.097 129.763L165.312 130.104C165.184 130.516 164.969 130.878 164.667 131.19C164.365 131.499 163.992 131.741 163.548 131.915C163.105 132.085 162.606 132.17 162.052 132.17ZM64.581 150.17C63.7926 150.17 63.1126 149.996 62.5408 149.648C61.9727 149.297 61.5341 148.807 61.2251 148.178C60.9197 147.546 60.767 146.811 60.767 145.973C60.767 145.135 60.9197 144.396 61.2251 143.757C61.5341 143.114 61.9638 142.614 62.5142 142.255C63.0682 141.893 63.7145 141.712 64.4531 141.712C64.8793 141.712 65.3001 141.783 65.7156 141.925C66.131 142.067 66.5092 142.298 66.8501 142.617C67.1911 142.933 67.4627 143.352 67.6651 143.874C67.8675 144.396 67.9688 145.039 67.9688 145.803V146.335H61.6619V145.249H66.6903C66.6903 144.787 66.598 144.375 66.4134 144.013C66.2322 143.651 65.973 143.365 65.6357 143.155C65.3018 142.946 64.9077 142.841 64.4531 142.841C63.9524 142.841 63.5192 142.965 63.1534 143.214C62.7912 143.459 62.5124 143.778 62.3171 144.173C62.1218 144.567 62.0241 144.989 62.0241 145.44V146.165C62.0241 146.783 62.1307 147.306 62.3438 147.736C62.5604 148.162 62.8604 148.487 63.244 148.711C63.6275 148.931 64.0732 149.041 64.581 149.041C64.9112 149.041 65.2095 148.995 65.4759 148.903C65.7457 148.807 65.9783 148.665 66.1737 148.477C66.369 148.285 66.5199 148.047 66.6264 147.763L67.8409 148.104C67.7131 148.516 67.4982 148.878 67.1964 149.19C66.8945 149.499 66.5217 149.741 66.0778 149.915C65.6339 150.085 65.1349 150.17 64.581 150.17ZM70.5988 141.818L72.559 145.163L74.5193 141.818H75.9681L73.3261 145.909L75.9681 150H74.5193L72.559 146.825L70.5988 150H69.1499L71.7494 145.909L69.1499 141.818H70.5988ZM80.1696 150.192C79.6511 150.192 79.1806 150.094 78.758 149.899C78.3354 149.7 77.9998 149.414 77.7512 149.041C77.5027 148.665 77.3784 148.21 77.3784 147.678C77.3784 147.209 77.4707 146.829 77.6554 146.538C77.84 146.243 78.0868 146.012 78.3958 145.845C78.7047 145.678 79.0456 145.554 79.4185 145.472C79.7949 145.387 80.1731 145.32 80.5531 145.27C81.0502 145.206 81.4533 145.158 81.7623 145.126C82.0748 145.091 82.302 145.032 82.4441 144.95C82.5897 144.869 82.6625 144.727 82.6625 144.524V144.482C82.6625 143.956 82.5186 143.548 82.231 143.256C81.9469 142.965 81.5154 142.82 80.9366 142.82C80.3365 142.82 79.8659 142.951 79.525 143.214C79.1841 143.477 78.9444 143.757 78.8059 144.055L77.6127 143.629C77.8258 143.132 78.1099 142.745 78.465 142.468C78.8237 142.187 79.2143 141.992 79.6369 141.882C80.063 141.768 80.4821 141.712 80.894 141.712C81.1568 141.712 81.4586 141.744 81.7995 141.808C82.144 141.868 82.476 141.994 82.7956 142.186C83.1188 142.377 83.3869 142.667 83.6 143.054C83.813 143.441 83.9196 143.96 83.9196 144.609V150H82.6625V148.892H82.5985C82.5133 149.07 82.3713 149.26 82.1724 149.462C81.9735 149.664 81.709 149.837 81.3787 149.979C81.0485 150.121 80.6454 150.192 80.1696 150.192ZM80.3613 149.062C80.8585 149.062 81.2775 148.965 81.6184 148.77C81.9629 148.574 82.2221 148.322 82.3961 148.013C82.5737 147.704 82.6625 147.379 82.6625 147.038V145.888C82.6092 145.952 82.492 146.01 82.3109 146.064C82.1333 146.113 81.9274 146.158 81.693 146.197C81.4622 146.232 81.2367 146.264 81.0165 146.293C80.7999 146.317 80.6241 146.339 80.4892 146.357C80.1625 146.399 79.8571 146.468 79.573 146.564C79.2924 146.657 79.0652 146.797 78.8912 146.985C78.7207 147.17 78.6355 147.422 78.6355 147.741C78.6355 148.178 78.7971 148.509 79.1202 148.732C79.4469 148.952 79.8606 149.062 80.3613 149.062ZM89.7723 141.818V142.884H85.5322V141.818H89.7723ZM86.768 139.858H88.0251V147.656C88.0251 148.011 88.0766 148.278 88.1796 148.455C88.2861 148.629 88.4211 148.746 88.5844 148.807C88.7513 148.864 88.9271 148.892 89.1118 148.892C89.2503 148.892 89.3639 148.885 89.4527 148.871C89.5415 148.853 89.6125 148.839 89.6657 148.828L89.9214 149.957C89.8362 149.989 89.7172 150.021 89.5645 150.053C89.4118 150.089 89.2183 150.107 88.9839 150.107C88.6288 150.107 88.2808 150.03 87.9399 149.877C87.6025 149.725 87.322 149.492 87.0983 149.18C86.8781 148.867 86.768 148.473 86.768 147.997V139.858ZM94.0709 150.192C93.5525 150.192 93.0819 150.094 92.6594 149.899C92.2368 149.7 91.9012 149.414 91.6526 149.041C91.404 148.665 91.2797 148.21 91.2797 147.678C91.2797 147.209 91.3721 146.829 91.5567 146.538C91.7414 146.243 91.9882 146.012 92.2971 145.845C92.6061 145.678 92.947 145.554 93.3199 145.472C93.6963 145.387 94.0745 145.32 94.4545 145.27C94.9516 145.206 95.3547 145.158 95.6636 145.126C95.9761 145.091 96.2034 145.032 96.3454 144.95C96.491 144.869 96.5638 144.727 96.5638 144.524V144.482C96.5638 143.956 96.42 143.548 96.1324 143.256C95.8483 142.965 95.4168 142.82 94.838 142.82C94.2378 142.82 93.7673 142.951 93.4264 143.214C93.0855 143.477 92.8458 143.757 92.7073 144.055L91.5141 143.629C91.7272 143.132 92.0113 142.745 92.3664 142.468C92.7251 142.187 93.1157 141.992 93.5383 141.882C93.9644 141.768 94.3834 141.712 94.7954 141.712C95.0581 141.712 95.36 141.744 95.7009 141.808C96.0454 141.868 96.3774 141.994 96.697 142.186C97.0202 142.377 97.2883 142.667 97.5013 143.054C97.7144 143.441 97.8209 143.96 97.8209 144.609V150H96.5638V148.892H96.4999C96.4147 149.07 96.2726 149.26 96.0738 149.462C95.8749 149.664 95.6104 149.837 95.2801 149.979C94.9498 150.121 94.5468 150.192 94.0709 150.192ZM94.2627 149.062C94.7599 149.062 95.1789 148.965 95.5198 148.77C95.8643 148.574 96.1235 148.322 96.2975 148.013C96.4751 147.704 96.5638 147.379 96.5638 147.038V145.888C96.5106 145.952 96.3934 146.01 96.2123 146.064C96.0347 146.113 95.8287 146.158 95.5944 146.197C95.3635 146.232 95.1381 146.264 94.9179 146.293C94.7013 146.317 94.5255 146.339 94.3905 146.357C94.0638 146.399 93.7584 146.468 93.4743 146.564C93.1938 146.657 92.9665 146.797 92.7925 146.985C92.6221 147.17 92.5368 147.422 92.5368 147.741C92.5368 148.178 92.6984 148.509 93.0216 148.732C93.3483 148.952 93.762 149.062 94.2627 149.062ZM100.115 150V141.818H101.33V143.097H101.436C101.607 142.66 101.882 142.321 102.262 142.079C102.642 141.834 103.098 141.712 103.631 141.712C104.171 141.712 104.62 141.834 104.979 142.079C105.341 142.321 105.623 142.66 105.826 143.097H105.911C106.12 142.674 106.435 142.338 106.854 142.09C107.273 141.838 107.775 141.712 108.361 141.712C109.093 141.712 109.691 141.941 110.156 142.399C110.621 142.853 110.854 143.562 110.854 144.524V150H109.597V144.524C109.597 143.92 109.432 143.489 109.102 143.23C108.771 142.971 108.382 142.841 107.935 142.841C107.36 142.841 106.914 143.015 106.598 143.363C106.282 143.707 106.124 144.144 106.124 144.673V150H104.846V144.396C104.846 143.931 104.695 143.556 104.393 143.272C104.091 142.985 103.702 142.841 103.226 142.841C102.9 142.841 102.594 142.928 102.31 143.102C102.029 143.276 101.802 143.517 101.628 143.826C101.458 144.132 101.373 144.485 101.373 144.886V150H100.115ZM116.583 150.17C115.795 150.17 115.115 149.996 114.543 149.648C113.975 149.297 113.536 148.807 113.227 148.178C112.922 147.546 112.769 146.811 112.769 145.973C112.769 145.135 112.922 144.396 113.227 143.757C113.536 143.114 113.966 142.614 114.516 142.255C115.07 141.893 115.716 141.712 116.455 141.712C116.881 141.712 117.302 141.783 117.718 141.925C118.133 142.067 118.511 142.298 118.852 142.617C119.193 142.933 119.465 143.352 119.667 143.874C119.869 144.396 119.971 145.039 119.971 145.803V146.335H113.664V145.249H118.692C118.692 144.787 118.6 144.375 118.415 144.013C118.234 143.651 117.975 143.365 117.638 143.155C117.304 142.946 116.91 142.841 116.455 142.841C115.954 142.841 115.521 142.965 115.155 143.214C114.793 143.459 114.514 143.778 114.319 144.173C114.124 144.567 114.026 144.989 114.026 145.44V146.165C114.026 146.783 114.133 147.306 114.346 147.736C114.562 148.162 114.862 148.487 115.246 148.711C115.629 148.931 116.075 149.041 116.583 149.041C116.913 149.041 117.211 148.995 117.478 148.903C117.748 148.807 117.98 148.665 118.176 148.477C118.371 148.285 118.522 148.047 118.628 147.763L119.843 148.104C119.715 148.516 119.5 148.878 119.198 149.19C118.896 149.499 118.524 149.741 118.08 149.915C117.636 150.085 117.137 150.17 116.583 150.17ZM123.14 145.078V150H121.883V141.818H123.097V143.097H123.204C123.396 142.681 123.687 142.347 124.078 142.095C124.468 141.839 124.972 141.712 125.59 141.712C126.144 141.712 126.629 141.825 127.045 142.053C127.46 142.276 127.783 142.617 128.014 143.075C128.245 143.53 128.36 144.105 128.36 144.801V150H127.103V144.886C127.103 144.244 126.936 143.743 126.602 143.384C126.269 143.022 125.811 142.841 125.228 142.841C124.827 142.841 124.468 142.928 124.152 143.102C123.84 143.276 123.593 143.53 123.412 143.864C123.231 144.197 123.14 144.602 123.14 145.078ZM134.216 141.818V142.884H129.976V141.818H134.216ZM131.211 139.858H132.468V147.656C132.468 148.011 132.52 148.278 132.623 148.455C132.729 148.629 132.864 148.746 133.028 148.807C133.195 148.864 133.37 148.892 133.555 148.892C133.694 148.892 133.807 148.885 133.896 148.871C133.985 148.853 134.056 148.839 134.109 148.828L134.365 149.957C134.28 149.989 134.161 150.021 134.008 150.053C133.855 150.089 133.662 150.107 133.427 150.107C133.072 150.107 132.724 150.03 132.383 149.877C132.046 149.725 131.765 149.492 131.542 149.18C131.321 148.867 131.211 148.473 131.211 147.997V139.858ZM139.449 150.17C138.661 150.17 137.981 149.996 137.409 149.648C136.841 149.297 136.402 148.807 136.093 148.178C135.788 147.546 135.635 146.811 135.635 145.973C135.635 145.135 135.788 144.396 136.093 143.757C136.402 143.114 136.832 142.614 137.382 142.255C137.936 141.893 138.583 141.712 139.321 141.712C139.747 141.712 140.168 141.783 140.584 141.925C140.999 142.067 141.377 142.298 141.718 142.617C142.059 142.933 142.331 143.352 142.533 143.874C142.736 144.396 142.837 145.039 142.837 145.803V146.335H136.53V145.249H141.559C141.559 144.787 141.466 144.375 141.282 144.013C141.1 143.651 140.841 143.365 140.504 143.155C140.17 142.946 139.776 142.841 139.321 142.841C138.821 142.841 138.387 142.965 138.022 143.214C137.659 143.459 137.381 143.778 137.185 144.173C136.99 144.567 136.892 144.989 136.892 145.44V146.165C136.892 146.783 136.999 147.306 137.212 147.736C137.429 148.162 137.729 148.487 138.112 148.711C138.496 148.931 138.941 149.041 139.449 149.041C139.779 149.041 140.078 148.995 140.344 148.903C140.614 148.807 140.847 148.665 141.042 148.477C141.237 148.285 141.388 148.047 141.495 147.763L142.709 148.104C142.581 148.516 142.366 148.878 142.065 149.19C141.763 149.499 141.39 149.741 140.946 149.915C140.502 150.085 140.003 150.17 139.449 150.17ZM146.39 146.932V146.868C146.397 146.19 146.468 145.65 146.603 145.249C146.738 144.847 146.93 144.522 147.178 144.274C147.427 144.025 147.725 143.796 148.073 143.587C148.283 143.459 148.471 143.308 148.638 143.134C148.805 142.956 148.936 142.752 149.032 142.521C149.131 142.29 149.181 142.035 149.181 141.754C149.181 141.406 149.099 141.104 148.936 140.849C148.773 140.593 148.554 140.396 148.281 140.257C148.007 140.119 147.704 140.05 147.37 140.05C147.079 140.05 146.798 140.11 146.528 140.231C146.258 140.352 146.033 140.542 145.852 140.801C145.671 141.06 145.566 141.399 145.538 141.818H144.195C144.224 141.214 144.38 140.698 144.664 140.268C144.952 139.838 145.33 139.51 145.799 139.283C146.271 139.055 146.795 138.942 147.37 138.942C147.995 138.942 148.538 139.066 149 139.315C149.465 139.563 149.824 139.904 150.076 140.337C150.332 140.771 150.459 141.264 150.459 141.818C150.459 142.209 150.399 142.562 150.278 142.878C150.161 143.194 149.991 143.477 149.767 143.725C149.547 143.974 149.28 144.194 148.968 144.386C148.655 144.581 148.405 144.787 148.217 145.004C148.029 145.217 147.892 145.471 147.807 145.765C147.722 146.06 147.675 146.428 147.668 146.868V146.932H146.39ZM147.072 150.085C146.809 150.085 146.583 149.991 146.395 149.803C146.207 149.615 146.113 149.389 146.113 149.126C146.113 148.864 146.207 148.638 146.395 148.45C146.583 148.262 146.809 148.168 147.072 148.168C147.334 148.168 147.56 148.262 147.748 148.45C147.936 148.638 148.03 148.864 148.03 149.126C148.03 149.3 147.986 149.46 147.897 149.606C147.812 149.751 147.697 149.869 147.551 149.957C147.409 150.043 147.249 150.085 147.072 150.085Z" fill="#08142E"/>
<defs>
<filter id="filter0_d_1104_328" x="0" y="0" width="357" height="309" filterUnits="userSpaceOnUse" color-interpolation-filters="sRGB">
<feFlood flood-opacity="0" result="BackgroundImageFix"/>
<feColorMatrix in="SourceAlpha" type="matrix" values="0 0 0 0 0 0 0 0 0 0 0 0 0 0 0 0 0 0 127 0" result="hardAlpha"/>
<feOffset dx="2" dy="4"/>
<feGaussianBlur stdDeviation="5"/>
<feComposite in2="hardAlpha" operator="out"/>
<feColorMatrix type="matrix" values="0 0 0 0 0 0 0 0 0 0 0 0 0 0 0 0 0 0 0.25 0"/>
<feBlend mode="normal" in2="BackgroundImageFix" result="effect1_dropShadow_1104_328"/>
<feBlend mode="normal" in="SourceGraphic" in2="effect1_dropShadow_1104_328" result="shape"/>
</filter>
<filter id="filter1_d_1104_328" x="40" y="110" width="158" height="60" filterUnits="userSpaceOnUse" color-interpolation-filters="sRGB">
<feFlood flood-opacity="0" result="BackgroundImageFix"/>
<feColorMatrix in="SourceAlpha" type="matrix" values="0 0 0 0 0 0 0 0 0 0 0 0 0 0 0 0 0 0 127 0" result="hardAlpha"/>
<feOffset dx="2" dy="4"/>
<feGaussianBlur stdDeviation="5"/>
<feComposite in2="hardAlpha" operator="out"/>
<feColorMatrix type="matrix" values="0 0 0 0 0 0 0 0 0 0 0 0 0 0 0 0 0 0 0.25 0"/>
<feBlend mode="normal" in2="BackgroundImageFix" result="effect1_dropShadow_1104_328"/>
<feBlend mode="normal" in="SourceGraphic" in2="effect1_dropShadow_1104_328" result="shape"/>
</filter>
<filter id="filter2_d_1104_328" x="158" y="166" width="165" height="63" filterUnits="userSpaceOnUse" color-interpolation-filters="sRGB">
<feFlood flood-opacity="0" result="BackgroundImageFix"/>
<feColorMatrix in="SourceAlpha" type="matrix" values="0 0 0 0 0 0 0 0 0 0 0 0 0 0 0 0 0 0 127 0" result="hardAlpha"/>
<feOffset dx="-2" dy="4"/>
<feGaussianBlur stdDeviation="5"/>
<feComposite in2="hardAlpha" operator="out"/>
<feColorMatrix type="matrix" values="0 0 0 0 0 0 0 0 0 0 0 0 0 0 0 0 0 0 0.25 0"/>
<feBlend mode="normal" in2="BackgroundImageFix" result="effect1_dropShadow_1104_328"/>
<feBlend mode="normal" in="SourceGraphic" in2="effect1_dropShadow_1104_328" result="shape"/>
</filter>
<filter id="filter3_d_1104_328" x="158" y="51" width="165" height="63" filterUnits="userSpaceOnUse" color-interpolation-filters="sRGB">
<feFlood flood-opacity="0" result="BackgroundImageFix"/>
<feColorMatrix in="SourceAlpha" type="matrix" values="0 0 0 0 0 0 0 0 0 0 0 0 0 0 0 0 0 0 127 0" result="hardAlpha"/>
<feOffset dx="-2" dy="4"/>
<feGaussianBlur stdDeviation="5"/>
<feComposite in2="hardAlpha" operator="out"/>
<feColorMatrix type="matrix" values="0 0 0 0 0 0 0 0 0 0 0 0 0 0 0 0 0 0 0.25 0"/>
<feBlend mode="normal" in2="BackgroundImageFix" result="effect1_dropShadow_1104_328"/>
<feBlend mode="normal" in="SourceGraphic" in2="effect1_dropShadow_1104_328" result="shape"/>
</filter>
<linearGradient id="paint0_linear_1104_328" x1="242.5" y1="150.323" x2="242.5" y2="215" gradientUnits="userSpaceOnUse">
<stop stop-color="#4799F8"/>
<stop offset="1" stop-color="#1157D1"/>
</linearGradient>
<linearGradient id="paint1_linear_1104_328" x1="97" y1="222.877" x2="97" y2="268" gradientUnits="userSpaceOnUse">
<stop stop-color="#4799F8"/>
<stop offset="1" stop-color="#1157D1"/>
</linearGradient>
<linearGradient id="paint2_linear_1104_328" x1="185" y1="222.877" x2="185" y2="268" gradientUnits="userSpaceOnUse">
<stop stop-color="#4799F8"/>
<stop offset="1" stop-color="#1157D1"/>
</linearGradient>
<linearGradient id="paint3_linear_1104_328" x1="267" y1="222.877" x2="267" y2="268" gradientUnits="userSpaceOnUse">
<stop stop-color="#4799F8"/>
<stop offset="1" stop-color="#1157D1"/>
</linearGradient>
<linearGradient id="paint4_linear_1104_328" x1="242.5" y1="35.323" x2="242.5" y2="100" gradientUnits="userSpaceOnUse">
<stop stop-color="#4799F8"/>
<stop offset="1" stop-color="#1157D1"/>
</linearGradient>
</defs>
</svg>
