<svg width="305" height="329" viewBox="0 0 305 329" fill="none" xmlns="http://www.w3.org/2000/svg">
<g filter="url(#filter0_d_1104_329)">
<path d="M12 46C12 23.9086 29.9086 6 52 6H257C279.091 6 297 23.9086 297 46V275C297 297.091 279.091 315 257 315H52C29.9086 315 12 297.091 12 275V46Z" fill="url(#paint0_linear_1104_329)"/>
</g>
<g filter="url(#filter1_d_1104_329)">
<path d="M120 226C120 220.477 124.477 216 130 216H180C185.523 216 190 220.477 190 226V292C190 297.523 185.523 302 180 302H130C124.477 302 120 297.523 120 292V226Z" fill="#F3F3F3"/>
</g>
<path d="M120 226C120 220.477 124.477 216 130 216H180C185.523 216 190 220.477 190 226V245H120V226Z" fill="#0F2A60"/>
<g filter="url(#filter2_d_1104_329)">
<path d="M33 46C33 40.4772 37.4772 36 43 36H93C98.5229 36 103 40.4772 103 46V112C103 117.523 98.5229 122 93 122H43C37.4772 122 33 117.523 33 112V46Z" fill="#F3F3F3"/>
</g>
<path d="M33 46C33 40.4772 37.4772 36 43 36H93C98.5229 36 103 40.4772 103 46V65H33V46Z" fill="#0F2A60"/>
<ellipse cx="68" cy="67.5" rx="18" ry="17.5" fill="#D9D9D9"/>
<g filter="url(#filter3_d_1104_329)">
<path d="M120 46C120 40.4772 124.477 36 130 36H180C185.523 36 190 40.4772 190 46V112C190 117.523 185.523 122 180 122H130C124.477 122 120 117.523 120 112V46Z" fill="#F3F3F3"/>
</g>
<path d="M120 46C120 40.4772 124.477 36 130 36H180C185.523 36 190 40.4772 190 46V65H120V46Z" fill="#0F2A60"/>
<ellipse cx="155" cy="67.5" rx="18" ry="17.5" fill="#D9D9D9"/>
<ellipse cx="155" cy="247.5" rx="18" ry="17.5" fill="#D9D9D9"/>
<g filter="url(#filter4_d_1104_329)">
<path d="M207 46C207 40.4772 211.477 36 217 36H267C272.523 36 277 40.4772 277 46V112C277 117.523 272.523 122 267 122H217C211.477 122 207 117.523 207 112V46Z" fill="#F3F3F3"/>
</g>
<path d="M207 46C207 40.4772 211.477 36 217 36H267C272.523 36 277 40.4772 277 46V65H207V46Z" fill="#0F2A60"/>
<ellipse cx="242" cy="67.5" rx="18" ry="17.5" fill="#D9D9D9"/>
<path d="M31.0795 259H30.0227C29.9602 258.696 29.8509 258.429 29.6946 258.199C29.5412 257.969 29.3537 257.776 29.1321 257.619C28.9134 257.46 28.6705 257.341 28.4034 257.261C28.1364 257.182 27.858 257.142 27.5682 257.142C27.0398 257.142 26.5611 257.276 26.1321 257.543C25.706 257.81 25.3665 258.203 25.1136 258.723C24.8636 259.243 24.7386 259.881 24.7386 260.636C24.7386 261.392 24.8636 262.03 25.1136 262.55C25.3665 263.07 25.706 263.463 26.1321 263.73C26.5611 263.997 27.0398 264.131 27.5682 264.131C27.858 264.131 28.1364 264.091 28.4034 264.011C28.6705 263.932 28.9134 263.814 29.1321 263.658C29.3537 263.499 29.5412 263.304 29.6946 263.074C29.8509 262.841 29.9602 262.574 30.0227 262.273H31.0795C31 262.719 30.8551 263.118 30.6449 263.47C30.4347 263.822 30.1733 264.122 29.8608 264.369C29.5483 264.614 29.1974 264.8 28.8082 264.928C28.4219 265.055 28.0085 265.119 27.5682 265.119C26.8239 265.119 26.1619 264.938 25.5824 264.574C25.0028 264.21 24.5469 263.693 24.2145 263.023C23.8821 262.352 23.7159 261.557 23.7159 260.636C23.7159 259.716 23.8821 258.92 24.2145 258.25C24.5469 257.58 25.0028 257.062 25.5824 256.699C26.1619 256.335 26.8239 256.153 27.5682 256.153C28.0085 256.153 28.4219 256.217 28.8082 256.345C29.1974 256.473 29.5483 256.661 29.8608 256.908C30.1733 257.152 30.4347 257.45 30.6449 257.803C30.8551 258.152 31 258.551 31.0795 259ZM35.31 265.136C34.7191 265.136 34.2006 264.996 33.7546 264.714C33.3114 264.433 32.9648 264.04 32.7148 263.534C32.4677 263.028 32.3441 262.437 32.3441 261.761C32.3441 261.08 32.4677 260.484 32.7148 259.976C32.9648 259.467 33.3114 259.072 33.7546 258.791C34.2006 258.51 34.7191 258.369 35.31 258.369C35.9009 258.369 36.418 258.51 36.8612 258.791C37.3072 259.072 37.6538 259.467 37.9009 259.976C38.1509 260.484 38.2759 261.08 38.2759 261.761C38.2759 262.437 38.1509 263.028 37.9009 263.534C37.6538 264.04 37.3072 264.433 36.8612 264.714C36.418 264.996 35.9009 265.136 35.31 265.136ZM35.31 264.233C35.7589 264.233 36.1282 264.118 36.418 263.888C36.7077 263.658 36.9222 263.355 37.0614 262.98C37.2006 262.605 37.2702 262.199 37.2702 261.761C37.2702 261.324 37.2006 260.916 37.0614 260.538C36.9222 260.161 36.7077 259.855 36.418 259.622C36.1282 259.389 35.7589 259.273 35.31 259.273C34.8612 259.273 34.4918 259.389 34.2021 259.622C33.9123 259.855 33.6978 260.161 33.5586 260.538C33.4194 260.916 33.3498 261.324 33.3498 261.761C33.3498 262.199 33.4194 262.605 33.5586 262.98C33.6978 263.355 33.9123 263.658 34.2021 263.888C34.4918 264.118 34.8612 264.233 35.31 264.233ZM40.8168 261.062V265H39.8111V258.455H40.7827V259.477H40.8679C41.0213 259.145 41.2543 258.878 41.5668 258.676C41.8793 258.472 42.2827 258.369 42.777 258.369C43.2202 258.369 43.608 258.46 43.9403 258.642C44.2727 258.821 44.5313 259.094 44.7159 259.46C44.9006 259.824 44.9929 260.284 44.9929 260.841V265H43.9872V260.909C43.9872 260.395 43.8537 259.994 43.5866 259.707C43.3196 259.418 42.9531 259.273 42.4872 259.273C42.1662 259.273 41.8793 259.342 41.6264 259.482C41.3764 259.621 41.179 259.824 41.0341 260.091C40.8892 260.358 40.8168 260.682 40.8168 261.062ZM49.6772 258.455V259.307H46.2852V258.455H49.6772ZM47.2738 256.886H48.2795V263.125C48.2795 263.409 48.3207 263.622 48.4031 263.764C48.4883 263.903 48.5962 263.997 48.7269 264.045C48.8604 264.091 49.0011 264.114 49.1488 264.114C49.2596 264.114 49.3505 264.108 49.4215 264.097C49.4925 264.082 49.5494 264.071 49.592 264.062L49.7965 264.966C49.7283 264.991 49.6332 265.017 49.511 265.043C49.3888 265.071 49.234 265.085 49.0465 265.085C48.7624 265.085 48.484 265.024 48.2113 264.902C47.9414 264.78 47.717 264.594 47.538 264.344C47.3619 264.094 47.2738 263.778 47.2738 263.398V256.886ZM51.19 265V258.455H52.1616V259.443H52.2298C52.3491 259.119 52.565 258.857 52.8775 258.655C53.19 258.453 53.5423 258.352 53.9343 258.352C54.0082 258.352 54.1005 258.354 54.2113 258.357C54.3221 258.359 54.4059 258.364 54.4627 258.369V259.392C54.4286 259.384 54.3505 259.371 54.2283 259.354C54.109 259.334 53.9826 259.324 53.8491 259.324C53.5309 259.324 53.2468 259.391 52.9968 259.524C52.7496 259.655 52.5536 259.837 52.4087 260.07C52.2667 260.3 52.1957 260.562 52.1957 260.858V265H51.19ZM57.581 265.153C57.1662 265.153 56.7898 265.075 56.4517 264.919C56.1136 264.76 55.8452 264.531 55.6463 264.233C55.4474 263.932 55.348 263.568 55.348 263.142C55.348 262.767 55.4219 262.463 55.5696 262.23C55.7173 261.994 55.9148 261.81 56.1619 261.676C56.4091 261.543 56.6818 261.443 56.9801 261.378C57.2813 261.31 57.5838 261.256 57.8878 261.216C58.2855 261.165 58.608 261.126 58.8551 261.101C59.1051 261.072 59.2869 261.026 59.4006 260.96C59.517 260.895 59.5753 260.781 59.5753 260.619V260.585C59.5753 260.165 59.4602 259.838 59.2301 259.605C59.0028 259.372 58.6577 259.256 58.1946 259.256C57.7145 259.256 57.3381 259.361 57.0653 259.571C56.7926 259.781 56.6009 260.006 56.4901 260.244L55.5355 259.903C55.706 259.506 55.9332 259.196 56.2173 258.974C56.5043 258.75 56.8168 258.594 57.1548 258.506C57.4957 258.415 57.831 258.369 58.1605 258.369C58.3707 258.369 58.6122 258.395 58.8849 258.446C59.1605 258.494 59.4261 258.595 59.6818 258.749C59.9403 258.902 60.1548 259.134 60.3253 259.443C60.4957 259.753 60.581 260.168 60.581 260.688V265H59.5753V264.114H59.5241C59.456 264.256 59.3423 264.408 59.1832 264.57C59.0241 264.732 58.8125 264.869 58.5483 264.983C58.2841 265.097 57.9616 265.153 57.581 265.153ZM57.7344 264.25C58.1321 264.25 58.4673 264.172 58.7401 264.016C59.0156 263.859 59.223 263.658 59.3622 263.411C59.5043 263.163 59.5753 262.903 59.5753 262.631V261.71C59.5327 261.761 59.4389 261.808 59.294 261.851C59.152 261.891 58.9872 261.926 58.7997 261.957C58.6151 261.986 58.4347 262.011 58.2585 262.034C58.0852 262.054 57.9446 262.071 57.8366 262.085C57.5753 262.119 57.331 262.175 57.1037 262.251C56.8793 262.325 56.6974 262.437 56.5582 262.588C56.4219 262.736 56.3537 262.937 56.3537 263.193C56.3537 263.543 56.483 263.807 56.7415 263.986C57.0028 264.162 57.3338 264.25 57.7344 264.25ZM65.2631 258.455V259.307H61.8711V258.455H65.2631ZM62.8597 256.886H63.8654V263.125C63.8654 263.409 63.9066 263.622 63.989 263.764C64.0742 263.903 64.1822 263.997 64.3129 264.045C64.4464 264.091 64.587 264.114 64.7347 264.114C64.8455 264.114 64.9364 264.108 65.0075 264.097C65.0785 264.082 65.1353 264.071 65.1779 264.062L65.3825 264.966C65.3143 264.991 65.2191 265.017 65.0969 265.043C64.9748 265.071 64.82 265.085 64.6325 265.085C64.3484 265.085 64.07 265.024 63.7972 264.902C63.5273 264.78 63.3029 264.594 63.1239 264.344C62.9478 264.094 62.8597 263.778 62.8597 263.398V256.886ZM68.7021 265.153C68.2873 265.153 67.9109 265.075 67.5728 264.919C67.2347 264.76 66.9663 264.531 66.7674 264.233C66.5685 263.932 66.4691 263.568 66.4691 263.142C66.4691 262.767 66.543 262.463 66.6907 262.23C66.8384 261.994 67.0359 261.81 67.283 261.676C67.5302 261.543 67.8029 261.443 68.1012 261.378C68.4023 261.31 68.7049 261.256 69.0089 261.216C69.4066 261.165 69.729 261.126 69.9762 261.101C70.2262 261.072 70.408 261.026 70.5217 260.96C70.6381 260.895 70.6964 260.781 70.6964 260.619V260.585C70.6964 260.165 70.5813 259.838 70.3512 259.605C70.1239 259.372 69.7788 259.256 69.3157 259.256C68.8356 259.256 68.4592 259.361 68.1864 259.571C67.9137 259.781 67.7219 260.006 67.6112 260.244L66.6566 259.903C66.8271 259.506 67.0543 259.196 67.3384 258.974C67.6254 258.75 67.9379 258.594 68.2759 258.506C68.6168 258.415 68.9521 258.369 69.2816 258.369C69.4918 258.369 69.7333 258.395 70.006 258.446C70.2816 258.494 70.5472 258.595 70.8029 258.749C71.0614 258.902 71.2759 259.134 71.4464 259.443C71.6168 259.753 71.7021 260.168 71.7021 260.688V265H70.6964V264.114H70.6452C70.5771 264.256 70.4634 264.408 70.3043 264.57C70.1452 264.732 69.9336 264.869 69.6694 264.983C69.4052 265.097 69.0827 265.153 68.7021 265.153ZM68.8555 264.25C69.2532 264.25 69.5884 264.172 69.8612 264.016C70.1367 263.859 70.3441 263.658 70.4833 263.411C70.6254 263.163 70.6964 262.903 70.6964 262.631V261.71C70.6538 261.761 70.56 261.808 70.4151 261.851C70.2731 261.891 70.1083 261.926 69.9208 261.957C69.7362 261.986 69.5558 262.011 69.3796 262.034C69.2063 262.054 69.0657 262.071 68.9577 262.085C68.6964 262.119 68.4521 262.175 68.2248 262.251C68.0004 262.325 67.8185 262.437 67.6793 262.588C67.543 262.736 67.4748 262.937 67.4748 263.193C67.4748 263.543 67.604 263.807 67.8626 263.986C68.1239 264.162 68.4549 264.25 68.8555 264.25ZM74.5433 261.062V265H73.5376V258.455H74.5092V259.477H74.5945C74.7479 259.145 74.9808 258.878 75.2933 258.676C75.6058 258.472 76.0092 258.369 76.5036 258.369C76.9467 258.369 77.3345 258.46 77.6669 258.642C77.9993 258.821 78.2578 259.094 78.4425 259.46C78.6271 259.824 78.7195 260.284 78.7195 260.841V265H77.7138V260.909C77.7138 260.395 77.5803 259.994 77.3132 259.707C77.0462 259.418 76.6797 259.273 76.2138 259.273C75.8928 259.273 75.6058 259.342 75.353 259.482C75.103 259.621 74.9055 259.824 74.7607 260.091C74.6158 260.358 74.5433 260.682 74.5433 261.062ZM83.4038 258.455V259.307H80.0117V258.455H83.4038ZM81.0004 256.886H82.006V263.125C82.006 263.409 82.0472 263.622 82.1296 263.764C82.2148 263.903 82.3228 263.997 82.4535 264.045C82.587 264.091 82.7276 264.114 82.8754 264.114C82.9862 264.114 83.0771 264.108 83.1481 264.097C83.2191 264.082 83.2759 264.071 83.3185 264.062L83.5231 264.966C83.4549 264.991 83.3597 265.017 83.2376 265.043C83.1154 265.071 82.9606 265.085 82.7731 265.085C82.489 265.085 82.2106 265.024 81.9379 264.902C81.668 264.78 81.4435 264.594 81.2646 264.344C81.0884 264.094 81.0004 263.778 81.0004 263.398V256.886ZM87.5906 265.136C86.9599 265.136 86.4158 264.997 85.9585 264.719C85.5039 264.438 85.1531 264.045 84.9059 263.543C84.6616 263.037 84.5394 262.449 84.5394 261.778C84.5394 261.108 84.6616 260.517 84.9059 260.006C85.1531 259.491 85.4968 259.091 85.9371 258.804C86.3803 258.514 86.8974 258.369 87.4883 258.369C87.8292 258.369 88.1658 258.426 88.4982 258.54C88.8306 258.653 89.1332 258.838 89.4059 259.094C89.6786 259.347 89.896 259.682 90.0579 260.099C90.2198 260.517 90.3008 261.031 90.3008 261.642V262.068H85.2553V261.199H89.2781C89.2781 260.83 89.2042 260.5 89.0565 260.21C88.9116 259.92 88.7042 259.692 88.4343 259.524C88.1673 259.357 87.8519 259.273 87.4883 259.273C87.0877 259.273 86.7411 259.372 86.4485 259.571C86.1587 259.767 85.9357 260.023 85.7795 260.338C85.6232 260.653 85.5451 260.991 85.5451 261.352V261.932C85.5451 262.426 85.6303 262.845 85.8008 263.189C85.9741 263.53 86.2141 263.79 86.521 263.969C86.8278 264.145 87.1843 264.233 87.5906 264.233C87.8548 264.233 88.0934 264.196 88.3065 264.122C88.5224 264.045 88.7085 263.932 88.8647 263.781C89.021 263.628 89.1417 263.437 89.2269 263.21L90.1985 263.483C90.0962 263.812 89.9244 264.102 89.6829 264.352C89.4414 264.599 89.1431 264.793 88.788 264.932C88.4329 265.068 88.0337 265.136 87.5906 265.136Z" fill="white"/>
<path d="M87.0568 25V16.2727H90.0057C90.6903 16.2727 91.25 16.3963 91.6847 16.6435C92.1222 16.8878 92.446 17.2188 92.6562 17.6364C92.8665 18.054 92.9716 18.5199 92.9716 19.0341C92.9716 19.5483 92.8665 20.0156 92.6562 20.4361C92.4489 20.8565 92.1278 21.1918 91.6932 21.4418C91.2585 21.6889 90.7017 21.8125 90.0227 21.8125H87.9091V20.875H89.9886C90.4574 20.875 90.8338 20.794 91.1179 20.6321C91.402 20.4702 91.608 20.2514 91.7358 19.9759C91.8665 19.6974 91.9318 19.3835 91.9318 19.0341C91.9318 18.6847 91.8665 18.3722 91.7358 18.0966C91.608 17.821 91.4006 17.6051 91.1136 17.4489C90.8267 17.2898 90.446 17.2102 89.9716 17.2102H88.1136V25H87.0568ZM94.5376 25V18.4545H95.5092V19.4432H95.5774C95.6967 19.1193 95.9126 18.8565 96.2251 18.6548C96.5376 18.4531 96.8899 18.3523 97.282 18.3523C97.3558 18.3523 97.4482 18.3537 97.5589 18.3565C97.6697 18.3594 97.7536 18.3636 97.8104 18.3693V19.392C97.7763 19.3835 97.6982 19.3707 97.576 19.3537C97.4567 19.3338 97.3303 19.3239 97.1967 19.3239C96.8786 19.3239 96.5945 19.3906 96.3445 19.5241C96.0973 19.6548 95.9013 19.8366 95.7564 20.0696C95.6143 20.2997 95.5433 20.5625 95.5433 20.858V25H94.5376ZM101.462 25.1364C100.871 25.1364 100.353 24.9957 99.907 24.7145C99.4638 24.4332 99.1172 24.0398 98.8672 23.5341C98.62 23.0284 98.4964 22.4375 98.4964 21.7614C98.4964 21.0795 98.62 20.4844 98.8672 19.9759C99.1172 19.4673 99.4638 19.0724 99.907 18.7912C100.353 18.5099 100.871 18.3693 101.462 18.3693C102.053 18.3693 102.57 18.5099 103.013 18.7912C103.46 19.0724 103.806 19.4673 104.053 19.9759C104.303 20.4844 104.428 21.0795 104.428 21.7614C104.428 22.4375 104.303 23.0284 104.053 23.5341C103.806 24.0398 103.46 24.4332 103.013 24.7145C102.57 24.9957 102.053 25.1364 101.462 25.1364ZM101.462 24.233C101.911 24.233 102.281 24.1179 102.57 23.8878C102.86 23.6577 103.075 23.3551 103.214 22.9801C103.353 22.6051 103.423 22.1989 103.423 21.7614C103.423 21.3239 103.353 20.9162 103.214 20.5384C103.075 20.1605 102.86 19.8551 102.57 19.6222C102.281 19.3892 101.911 19.2727 101.462 19.2727C101.013 19.2727 100.644 19.3892 100.354 19.6222C100.065 19.8551 99.8501 20.1605 99.7109 20.5384C99.5717 20.9162 99.5021 21.3239 99.5021 21.7614C99.5021 22.1989 99.5717 22.6051 99.7109 22.9801C99.8501 23.3551 100.065 23.6577 100.354 23.8878C100.644 24.1179 101.013 24.233 101.462 24.233ZM108.878 18.4545V19.3068H105.35V18.4545H108.878ZM106.407 25V17.5511C106.407 17.1761 106.495 16.8636 106.671 16.6136C106.847 16.3636 107.076 16.1761 107.357 16.0511C107.638 15.9261 107.935 15.8636 108.248 15.8636C108.495 15.8636 108.696 15.8835 108.853 15.9233C109.009 15.9631 109.125 16 109.202 16.0341L108.912 16.9034C108.861 16.8864 108.79 16.8651 108.699 16.8395C108.611 16.8139 108.495 16.8011 108.35 16.8011C108.017 16.8011 107.777 16.8849 107.63 17.0526C107.485 17.2202 107.412 17.4659 107.412 17.7898V25H106.407ZM110.288 25V18.4545H111.293V25H110.288ZM110.799 17.3636C110.603 17.3636 110.434 17.2969 110.292 17.1634C110.153 17.0298 110.083 16.8693 110.083 16.6818C110.083 16.4943 110.153 16.3338 110.292 16.2003C110.434 16.0668 110.603 16 110.799 16C110.995 16 111.163 16.0668 111.302 16.2003C111.444 16.3338 111.515 16.4943 111.515 16.6818C111.515 16.8693 111.444 17.0298 111.302 17.1634C111.163 17.2969 110.995 17.3636 110.799 17.3636ZM117.772 19.9205L116.868 20.1761C116.811 20.0256 116.728 19.8793 116.617 19.7372C116.509 19.5923 116.361 19.473 116.174 19.3793C115.986 19.2855 115.746 19.2386 115.453 19.2386C115.053 19.2386 114.719 19.331 114.452 19.5156C114.188 19.6974 114.056 19.929 114.056 20.2102C114.056 20.4602 114.147 20.6577 114.328 20.8026C114.51 20.9474 114.794 21.0682 115.181 21.1648L116.152 21.4034C116.738 21.5455 117.174 21.7628 117.461 22.0554C117.748 22.3452 117.891 22.7187 117.891 23.1761C117.891 23.5511 117.783 23.8864 117.567 24.1818C117.354 24.4773 117.056 24.7102 116.672 24.8807C116.289 25.0511 115.843 25.1364 115.334 25.1364C114.667 25.1364 114.114 24.9915 113.676 24.7017C113.239 24.4119 112.962 23.9886 112.846 23.4318L113.8 23.1932C113.891 23.5455 114.063 23.8097 114.316 23.9858C114.571 24.1619 114.905 24.25 115.317 24.25C115.786 24.25 116.158 24.1506 116.434 23.9517C116.712 23.75 116.851 23.5085 116.851 23.2273C116.851 23 116.772 22.8097 116.613 22.6562C116.453 22.5 116.209 22.3835 115.88 22.3068L114.789 22.0511C114.189 21.9091 113.749 21.6889 113.468 21.3906C113.189 21.0895 113.05 20.7131 113.05 20.2614C113.05 19.892 113.154 19.5653 113.361 19.2812C113.571 18.9972 113.857 18.7741 114.218 18.6122C114.581 18.4503 114.993 18.3693 115.453 18.3693C116.101 18.3693 116.61 18.5114 116.979 18.7955C117.351 19.0795 117.615 19.4545 117.772 19.9205ZM124.041 19.9205L123.138 20.1761C123.081 20.0256 122.997 19.8793 122.886 19.7372C122.778 19.5923 122.631 19.473 122.443 19.3793C122.256 19.2855 122.016 19.2386 121.723 19.2386C121.322 19.2386 120.989 19.331 120.722 19.5156C120.457 19.6974 120.325 19.929 120.325 20.2102C120.325 20.4602 120.416 20.6577 120.598 20.8026C120.78 20.9474 121.064 21.0682 121.45 21.1648L122.422 21.4034C123.007 21.5455 123.443 21.7628 123.73 22.0554C124.017 22.3452 124.161 22.7187 124.161 23.1761C124.161 23.5511 124.053 23.8864 123.837 24.1818C123.624 24.4773 123.325 24.7102 122.942 24.8807C122.558 25.0511 122.112 25.1364 121.604 25.1364C120.936 25.1364 120.384 24.9915 119.946 24.7017C119.509 24.4119 119.232 23.9886 119.115 23.4318L120.07 23.1932C120.161 23.5455 120.332 23.8097 120.585 23.9858C120.841 24.1619 121.175 24.25 121.587 24.25C122.055 24.25 122.428 24.1506 122.703 23.9517C122.982 23.75 123.121 23.5085 123.121 23.2273C123.121 23 123.041 22.8097 122.882 22.6562C122.723 22.5 122.479 22.3835 122.149 22.3068L121.058 22.0511C120.459 21.9091 120.018 21.6889 119.737 21.3906C119.459 21.0895 119.32 20.7131 119.32 20.2614C119.32 19.892 119.423 19.5653 119.631 19.2812C119.841 18.9972 120.126 18.7741 120.487 18.6122C120.851 18.4503 121.263 18.3693 121.723 18.3693C122.371 18.3693 122.879 18.5114 123.249 18.7955C123.621 19.0795 123.885 19.4545 124.041 19.9205ZM125.674 25V18.4545H126.68V25H125.674ZM126.186 17.3636C125.99 17.3636 125.821 17.2969 125.679 17.1634C125.539 17.0298 125.47 16.8693 125.47 16.6818C125.47 16.4943 125.539 16.3338 125.679 16.2003C125.821 16.0668 125.99 16 126.186 16C126.382 16 126.549 16.0668 126.689 16.2003C126.831 16.3338 126.902 16.4943 126.902 16.6818C126.902 16.8693 126.831 17.0298 126.689 17.1634C126.549 17.2969 126.382 17.3636 126.186 17.3636ZM131.181 25.1364C130.59 25.1364 130.072 24.9957 129.626 24.7145C129.183 24.4332 128.836 24.0398 128.586 23.5341C128.339 23.0284 128.215 22.4375 128.215 21.7614C128.215 21.0795 128.339 20.4844 128.586 19.9759C128.836 19.4673 129.183 19.0724 129.626 18.7912C130.072 18.5099 130.59 18.3693 131.181 18.3693C131.772 18.3693 132.289 18.5099 132.732 18.7912C133.178 19.0724 133.525 19.4673 133.772 19.9759C134.022 20.4844 134.147 21.0795 134.147 21.7614C134.147 22.4375 134.022 23.0284 133.772 23.5341C133.525 24.0398 133.178 24.4332 132.732 24.7145C132.289 24.9957 131.772 25.1364 131.181 25.1364ZM131.181 24.233C131.63 24.233 131.999 24.1179 132.289 23.8878C132.579 23.6577 132.793 23.3551 132.933 22.9801C133.072 22.6051 133.141 22.1989 133.141 21.7614C133.141 21.3239 133.072 20.9162 132.933 20.5384C132.793 20.1605 132.579 19.8551 132.289 19.6222C131.999 19.3892 131.63 19.2727 131.181 19.2727C130.732 19.2727 130.363 19.3892 130.073 19.6222C129.783 19.8551 129.569 20.1605 129.43 20.5384C129.29 20.9162 129.221 21.3239 129.221 21.7614C129.221 22.1989 129.29 22.6051 129.43 22.9801C129.569 23.3551 129.783 23.6577 130.073 23.8878C130.363 24.1179 130.732 24.233 131.181 24.233ZM136.688 21.0625V25H135.682V18.4545H136.654V19.4773H136.739C136.892 19.1449 137.125 18.8778 137.438 18.6761C137.75 18.4716 138.154 18.3693 138.648 18.3693C139.091 18.3693 139.479 18.4602 139.811 18.642C140.144 18.821 140.402 19.0938 140.587 19.4602C140.772 19.8239 140.864 20.2841 140.864 20.8409V25H139.858V20.9091C139.858 20.3949 139.725 19.9943 139.458 19.7074C139.191 19.4176 138.824 19.2727 138.358 19.2727C138.037 19.2727 137.75 19.3423 137.498 19.4815C137.248 19.6207 137.05 19.8239 136.905 20.0909C136.76 20.358 136.688 20.6818 136.688 21.0625ZM144.628 25.1534C144.213 25.1534 143.837 25.0753 143.499 24.919C143.161 24.7599 142.892 24.5312 142.693 24.233C142.494 23.9318 142.395 23.5682 142.395 23.142C142.395 22.767 142.469 22.4631 142.616 22.2301C142.764 21.9943 142.962 21.8097 143.209 21.6761C143.456 21.5426 143.729 21.4432 144.027 21.3778C144.328 21.3097 144.631 21.2557 144.935 21.2159C145.332 21.1648 145.655 21.1264 145.902 21.1009C146.152 21.0724 146.334 21.0256 146.447 20.9602C146.564 20.8949 146.622 20.7812 146.622 20.6193V20.5852C146.622 20.1648 146.507 19.8381 146.277 19.6051C146.05 19.3722 145.705 19.2557 145.241 19.2557C144.761 19.2557 144.385 19.3608 144.112 19.571C143.839 19.7812 143.648 20.0057 143.537 20.2443L142.582 19.9034C142.753 19.5057 142.98 19.196 143.264 18.9744C143.551 18.75 143.864 18.5937 144.202 18.5057C144.543 18.4148 144.878 18.3693 145.207 18.3693C145.418 18.3693 145.659 18.3949 145.932 18.446C146.207 18.4943 146.473 18.5952 146.729 18.7486C146.987 18.902 147.202 19.1335 147.372 19.4432C147.543 19.7528 147.628 20.1676 147.628 20.6875V25H146.622V24.1136H146.571C146.503 24.2557 146.389 24.4077 146.23 24.5696C146.071 24.7315 145.859 24.8693 145.595 24.983C145.331 25.0966 145.009 25.1534 144.628 25.1534ZM144.781 24.25C145.179 24.25 145.514 24.1719 145.787 24.0156C146.063 23.8594 146.27 23.6577 146.409 23.4105C146.551 23.1634 146.622 22.9034 146.622 22.6307V21.7102C146.58 21.7614 146.486 21.8082 146.341 21.8509C146.199 21.8906 146.034 21.9261 145.847 21.9574C145.662 21.9858 145.482 22.0114 145.305 22.0341C145.132 22.054 144.991 22.071 144.884 22.0852C144.622 22.1193 144.378 22.1747 144.151 22.2514C143.926 22.3253 143.744 22.4375 143.605 22.5881C143.469 22.7358 143.401 22.9375 143.401 23.1932C143.401 23.5426 143.53 23.8068 143.788 23.9858C144.05 24.1619 144.381 24.25 144.781 24.25ZM149.463 25V18.4545H150.469V25H149.463ZM149.975 17.3636C149.779 17.3636 149.61 17.2969 149.468 17.1634C149.328 17.0298 149.259 16.8693 149.259 16.6818C149.259 16.4943 149.328 16.3338 149.468 16.2003C149.61 16.0668 149.779 16 149.975 16C150.171 16 150.338 16.0668 150.478 16.2003C150.62 16.3338 150.691 16.4943 150.691 16.6818C150.691 16.8693 150.62 17.0298 150.478 17.1634C150.338 17.2969 150.171 17.3636 149.975 17.3636ZM156.947 19.9205L156.044 20.1761C155.987 20.0256 155.903 19.8793 155.793 19.7372C155.685 19.5923 155.537 19.473 155.349 19.3793C155.162 19.2855 154.922 19.2386 154.629 19.2386C154.229 19.2386 153.895 19.331 153.628 19.5156C153.364 19.6974 153.232 19.929 153.232 20.2102C153.232 20.4602 153.322 20.6577 153.504 20.8026C153.686 20.9474 153.97 21.0682 154.357 21.1648L155.328 21.4034C155.913 21.5455 156.349 21.7628 156.636 22.0554C156.923 22.3452 157.067 22.7187 157.067 23.1761C157.067 23.5511 156.959 23.8864 156.743 24.1818C156.53 24.4773 156.232 24.7102 155.848 24.8807C155.464 25.0511 155.018 25.1364 154.51 25.1364C153.842 25.1364 153.29 24.9915 152.852 24.7017C152.415 24.4119 152.138 23.9886 152.021 23.4318L152.976 23.1932C153.067 23.5455 153.239 23.8097 153.491 23.9858C153.747 24.1619 154.081 24.25 154.493 24.25C154.962 24.25 155.334 24.1506 155.609 23.9517C155.888 23.75 156.027 23.5085 156.027 23.2273C156.027 23 155.947 22.8097 155.788 22.6562C155.629 22.5 155.385 22.3835 155.055 22.3068L153.964 22.0511C153.365 21.9091 152.925 21.6889 152.643 21.3906C152.365 21.0895 152.226 20.7131 152.226 20.2614C152.226 19.892 152.33 19.5653 152.537 19.2812C152.747 18.9972 153.033 18.7741 153.393 18.6122C153.757 18.4503 154.169 18.3693 154.629 18.3693C155.277 18.3693 155.786 18.5114 156.155 18.7955C156.527 19.0795 156.791 19.4545 156.947 19.9205ZM164.427 25.1364C163.882 25.1364 163.4 24.9986 162.983 24.723C162.565 24.4446 162.238 24.0526 162.002 23.5469C161.767 23.0384 161.649 22.4375 161.649 21.7443C161.649 21.0568 161.767 20.4602 162.002 19.9545C162.238 19.4489 162.566 19.0582 162.987 18.7827C163.407 18.5071 163.893 18.3693 164.444 18.3693C164.87 18.3693 165.207 18.4403 165.454 18.5824C165.704 18.7216 165.895 18.8807 166.025 19.0597C166.159 19.2358 166.262 19.3807 166.336 19.4943H166.422V16.2727H167.427V25H166.456V23.9943H166.336C166.262 24.1136 166.157 24.2642 166.021 24.446C165.885 24.625 165.69 24.7855 165.437 24.9276C165.184 25.0668 164.848 25.1364 164.427 25.1364ZM164.564 24.233C164.967 24.233 165.308 24.1278 165.586 23.9176C165.865 23.7045 166.076 23.4105 166.221 23.0355C166.366 22.6577 166.439 22.2216 166.439 21.7273C166.439 21.2386 166.368 20.8111 166.225 20.4446C166.083 20.0753 165.873 19.7884 165.595 19.5838C165.316 19.3764 164.973 19.2727 164.564 19.2727C164.137 19.2727 163.782 19.3821 163.498 19.6009C163.217 19.8168 163.005 20.1108 162.863 20.483C162.724 20.8523 162.654 21.267 162.654 21.7273C162.654 22.1932 162.725 22.6165 162.868 22.9972C163.012 23.375 163.225 23.6761 163.507 23.9006C163.791 24.1222 164.143 24.233 164.564 24.233ZM172.153 25.1364C171.522 25.1364 170.978 24.9972 170.521 24.7188C170.066 24.4375 169.716 24.0455 169.468 23.5426C169.224 23.0369 169.102 22.4489 169.102 21.7784C169.102 21.108 169.224 20.517 169.468 20.0057C169.716 19.4915 170.059 19.0909 170.5 18.804C170.943 18.5142 171.46 18.3693 172.051 18.3693C172.392 18.3693 172.728 18.4261 173.061 18.5398C173.393 18.6534 173.696 18.8381 173.968 19.0938C174.241 19.3466 174.458 19.6818 174.62 20.0994C174.782 20.517 174.863 21.0312 174.863 21.642V22.0682H169.818V21.1989H173.841C173.841 20.8295 173.767 20.5 173.619 20.2102C173.474 19.9205 173.267 19.6918 172.997 19.5241C172.73 19.3565 172.414 19.2727 172.051 19.2727C171.65 19.2727 171.304 19.3722 171.011 19.571C170.721 19.767 170.498 20.0227 170.342 20.3381C170.186 20.6534 170.108 20.9915 170.108 21.3523V21.9318C170.108 22.4261 170.193 22.8452 170.363 23.1889C170.537 23.5298 170.777 23.7898 171.083 23.9688C171.39 24.1449 171.747 24.233 172.153 24.233C172.417 24.233 172.656 24.196 172.869 24.1222C173.085 24.0455 173.271 23.9318 173.427 23.7812C173.583 23.6278 173.704 23.4375 173.789 23.2102L174.761 23.483C174.659 23.8125 174.487 24.1023 174.245 24.3523C174.004 24.5994 173.706 24.7926 173.35 24.9318C172.995 25.0682 172.596 25.1364 172.153 25.1364ZM180.774 16.2727V25H179.768V16.2727H180.774ZM182.616 25V18.4545H183.621V25H182.616ZM183.127 17.3636C182.931 17.3636 182.762 17.2969 182.62 17.1634C182.481 17.0298 182.411 16.8693 182.411 16.6818C182.411 16.4943 182.481 16.3338 182.62 16.2003C182.762 16.0668 182.931 16 183.127 16C183.323 16 183.491 16.0668 183.63 16.2003C183.772 16.3338 183.843 16.4943 183.843 16.6818C183.843 16.8693 183.772 17.0298 183.63 17.1634C183.491 17.2969 183.323 17.3636 183.127 17.3636ZM185.463 25V18.4545H186.435V19.4773H186.52C186.657 19.1278 186.877 18.8565 187.181 18.6634C187.485 18.4673 187.85 18.3693 188.276 18.3693C188.708 18.3693 189.067 18.4673 189.354 18.6634C189.644 18.8565 189.87 19.1278 190.032 19.4773H190.1C190.267 19.1392 190.519 18.8707 190.854 18.6719C191.189 18.4702 191.591 18.3693 192.06 18.3693C192.645 18.3693 193.124 18.5526 193.496 18.919C193.868 19.2827 194.054 19.8494 194.054 20.6193V25H193.049V20.6193C193.049 20.1364 192.917 19.7912 192.652 19.5838C192.388 19.3764 192.077 19.2727 191.719 19.2727C191.259 19.2727 190.902 19.4119 190.65 19.6903C190.397 19.9659 190.27 20.3153 190.27 20.7386V25H189.248V20.517C189.248 20.1449 189.127 19.8452 188.885 19.6179C188.644 19.3878 188.333 19.2727 187.952 19.2727C187.691 19.2727 187.446 19.3423 187.219 19.4815C186.995 19.6207 186.813 19.8139 186.674 20.0611C186.537 20.3054 186.469 20.5881 186.469 20.9091V25H185.463ZM195.893 27.4545V18.4545H196.865V19.4943H196.984C197.058 19.3807 197.16 19.2358 197.291 19.0597C197.424 18.8807 197.615 18.7216 197.862 18.5824C198.112 18.4403 198.45 18.3693 198.876 18.3693C199.427 18.3693 199.913 18.5071 200.333 18.7827C200.754 19.0582 201.082 19.4489 201.318 19.9545C201.554 20.4602 201.672 21.0568 201.672 21.7443C201.672 22.4375 201.554 23.0384 201.318 23.5469C201.082 24.0526 200.755 24.4446 200.338 24.723C199.92 24.9986 199.439 25.1364 198.893 25.1364C198.473 25.1364 198.136 25.0668 197.883 24.9276C197.63 24.7855 197.436 24.625 197.299 24.446C197.163 24.2642 197.058 24.1136 196.984 23.9943H196.899V27.4545H195.893ZM196.882 21.7273C196.882 22.2216 196.954 22.6577 197.099 23.0355C197.244 23.4105 197.456 23.7045 197.734 23.9176C198.012 24.1278 198.353 24.233 198.757 24.233C199.177 24.233 199.528 24.1222 199.809 23.9006C200.093 23.6761 200.306 23.375 200.449 22.9972C200.593 22.6165 200.666 22.1932 200.666 21.7273C200.666 21.267 200.595 20.8523 200.453 20.483C200.314 20.1108 200.102 19.8168 199.818 19.6009C199.537 19.3821 199.183 19.2727 198.757 19.2727C198.348 19.2727 198.004 19.3764 197.725 19.5838C197.447 19.7884 197.237 20.0753 197.095 20.4446C196.953 20.8111 196.882 21.2386 196.882 21.7273ZM205.95 25.1364C205.319 25.1364 204.775 24.9972 204.318 24.7188C203.863 24.4375 203.512 24.0455 203.265 23.5426C203.021 23.0369 202.899 22.4489 202.899 21.7784C202.899 21.108 203.021 20.517 203.265 20.0057C203.512 19.4915 203.856 19.0909 204.297 18.804C204.74 18.5142 205.257 18.3693 205.848 18.3693C206.189 18.3693 206.525 18.4261 206.858 18.5398C207.19 18.6534 207.493 18.8381 207.765 19.0938C208.038 19.3466 208.255 19.6818 208.417 20.0994C208.579 20.517 208.66 21.0312 208.66 21.642V22.0682H203.615V21.1989H207.637C207.637 20.8295 207.564 20.5 207.416 20.2102C207.271 19.9205 207.064 19.6918 206.794 19.5241C206.527 19.3565 206.211 19.2727 205.848 19.2727C205.447 19.2727 205.1 19.3722 204.808 19.571C204.518 19.767 204.295 20.0227 204.139 20.3381C203.983 20.6534 203.904 20.9915 203.904 21.3523V21.9318C203.904 22.4261 203.99 22.8452 204.16 23.1889C204.333 23.5298 204.574 23.7898 204.88 23.9688C205.187 24.1449 205.544 24.233 205.95 24.233C206.214 24.233 206.453 24.196 206.666 24.1222C206.882 24.0455 207.068 23.9318 207.224 23.7812C207.38 23.6278 207.501 23.4375 207.586 23.2102L208.558 23.483C208.456 23.8125 208.284 24.1023 208.042 24.3523C207.801 24.5994 207.502 24.7926 207.147 24.9318C206.792 25.0682 206.393 25.1364 205.95 25.1364ZM210.002 25V24.233L213.718 19.4602V19.392H210.122V18.4545H215.014V19.2557L211.4 23.9943V24.0625H215.133V25H210.002ZM218.608 25.1534C218.194 25.1534 217.817 25.0753 217.479 24.919C217.141 24.7599 216.873 24.5312 216.674 24.233C216.475 23.9318 216.375 23.5682 216.375 23.142C216.375 22.767 216.449 22.4631 216.597 22.2301C216.745 21.9943 216.942 21.8097 217.189 21.6761C217.436 21.5426 217.709 21.4432 218.007 21.3778C218.309 21.3097 218.611 21.2557 218.915 21.2159C219.313 21.1648 219.635 21.1264 219.882 21.1009C220.132 21.0724 220.314 21.0256 220.428 20.9602C220.544 20.8949 220.603 20.7812 220.603 20.6193V20.5852C220.603 20.1648 220.488 19.8381 220.257 19.6051C220.03 19.3722 219.685 19.2557 219.222 19.2557C218.742 19.2557 218.365 19.3608 218.093 19.571C217.82 19.7812 217.628 20.0057 217.517 20.2443L216.563 19.9034C216.733 19.5057 216.961 19.196 217.245 18.9744C217.532 18.75 217.844 18.5937 218.182 18.5057C218.523 18.4148 218.858 18.3693 219.188 18.3693C219.398 18.3693 219.64 18.3949 219.912 18.446C220.188 18.4943 220.453 18.5952 220.709 18.7486C220.968 18.902 221.182 19.1335 221.353 19.4432C221.523 19.7528 221.608 20.1676 221.608 20.6875V25H220.603V24.1136H220.551C220.483 24.2557 220.37 24.4077 220.211 24.5696C220.051 24.7315 219.84 24.8693 219.576 24.983C219.311 25.0966 218.989 25.1534 218.608 25.1534ZM218.762 24.25C219.159 24.25 219.495 24.1719 219.767 24.0156C220.043 23.8594 220.25 23.6577 220.39 23.4105C220.532 23.1634 220.603 22.9034 220.603 22.6307V21.7102C220.56 21.7614 220.466 21.8082 220.321 21.8509C220.179 21.8906 220.015 21.9261 219.827 21.9574C219.642 21.9858 219.462 22.0114 219.286 22.0341C219.113 22.054 218.972 22.071 218.864 22.0852C218.603 22.1193 218.358 22.1747 218.131 22.2514C217.907 22.3253 217.725 22.4375 217.586 22.5881C217.449 22.7358 217.381 22.9375 217.381 23.1932C217.381 23.5426 217.51 23.8068 217.769 23.9858C218.03 24.1619 218.361 24.25 218.762 24.25Z" fill="white"/>
<path d="M113.707 261.707C114.098 261.317 114.098 260.683 113.707 260.293L107.343 253.929C106.953 253.538 106.319 253.538 105.929 253.929C105.538 254.319 105.538 254.953 105.929 255.343L111.586 261L105.929 266.657C105.538 267.047 105.538 267.681 105.929 268.071C106.319 268.462 106.953 268.462 107.343 268.071L113.707 261.707ZM97 262H113V260H97V262Z" fill="white"/>
<path d="M68.1657 138.014C67.621 137.922 67.1053 138.29 67.0138 138.834L65.5227 147.71C65.4312 148.255 65.7986 148.77 66.3432 148.862C66.8879 148.953 67.4036 148.586 67.4951 148.041L68.8205 140.152L76.7099 141.477C77.2546 141.569 77.7703 141.201 77.8618 140.657C77.9533 140.112 77.586 139.596 77.0413 139.505L68.1657 138.014ZM120.814 211.42L68.8145 138.42L67.1855 139.58L119.186 212.58L120.814 211.42Z" fill="white"/>
<path d="M155.707 134.293C155.317 133.902 154.683 133.902 154.293 134.293L147.929 140.657C147.538 141.047 147.538 141.681 147.929 142.071C148.319 142.462 148.953 142.462 149.343 142.071L155 136.414L160.657 142.071C161.047 142.462 161.681 142.462 162.071 142.071C162.462 141.681 162.462 141.047 162.071 140.657L155.707 134.293ZM156 212L156 135L154 135L154 212L156 212Z" fill="white"/>
<path d="M242.986 138.834C242.895 138.29 242.379 137.922 241.834 138.014L232.959 139.505C232.414 139.596 232.047 140.112 232.138 140.657C232.23 141.201 232.745 141.569 233.29 141.477L241.18 140.152L242.505 148.041C242.596 148.586 243.112 148.953 243.657 148.862C244.201 148.77 244.569 148.255 244.477 147.71L242.986 138.834ZM190.814 212.58L242.814 139.58L241.186 138.42L189.186 211.42L190.814 212.58Z" fill="white"/>
<defs>
<filter id="filter0_d_1104_329" x="0" y="0" width="305" height="329" filterUnits="userSpaceOnUse" color-interpolation-filters="sRGB">
<feFlood flood-opacity="0" result="BackgroundImageFix"/>
<feColorMatrix in="SourceAlpha" type="matrix" values="0 0 0 0 0 0 0 0 0 0 0 0 0 0 0 0 0 0 127 0" result="hardAlpha"/>
<feOffset dx="-2" dy="4"/>
<feGaussianBlur stdDeviation="5"/>
<feComposite in2="hardAlpha" operator="out"/>
<feColorMatrix type="matrix" values="0 0 0 0 0 0 0 0 0 0 0 0 0 0 0 0 0 0 0.25 0"/>
<feBlend mode="normal" in2="BackgroundImageFix" result="effect1_dropShadow_1104_329"/>
<feBlend mode="normal" in="SourceGraphic" in2="effect1_dropShadow_1104_329" result="shape"/>
</filter>
<filter id="filter1_d_1104_329" x="112" y="210" width="90" height="106" filterUnits="userSpaceOnUse" color-interpolation-filters="sRGB">
<feFlood flood-opacity="0" result="BackgroundImageFix"/>
<feColorMatrix in="SourceAlpha" type="matrix" values="0 0 0 0 0 0 0 0 0 0 0 0 0 0 0 0 0 0 127 0" result="hardAlpha"/>
<feOffset dx="2" dy="4"/>
<feGaussianBlur stdDeviation="5"/>
<feComposite in2="hardAlpha" operator="out"/>
<feColorMatrix type="matrix" values="0 0 0 0 0 0 0 0 0 0 0 0 0 0 0 0 0 0 0.25 0"/>
<feBlend mode="normal" in2="BackgroundImageFix" result="effect1_dropShadow_1104_329"/>
<feBlend mode="normal" in="SourceGraphic" in2="effect1_dropShadow_1104_329" result="shape"/>
</filter>
<filter id="filter2_d_1104_329" x="25" y="30" width="90" height="106" filterUnits="userSpaceOnUse" color-interpolation-filters="sRGB">
<feFlood flood-opacity="0" result="BackgroundImageFix"/>
<feColorMatrix in="SourceAlpha" type="matrix" values="0 0 0 0 0 0 0 0 0 0 0 0 0 0 0 0 0 0 127 0" result="hardAlpha"/>
<feOffset dx="2" dy="4"/>
<feGaussianBlur stdDeviation="5"/>
<feComposite in2="hardAlpha" operator="out"/>
<feColorMatrix type="matrix" values="0 0 0 0 0 0 0 0 0 0 0 0 0 0 0 0 0 0 0.25 0"/>
<feBlend mode="normal" in2="BackgroundImageFix" result="effect1_dropShadow_1104_329"/>
<feBlend mode="normal" in="SourceGraphic" in2="effect1_dropShadow_1104_329" result="shape"/>
</filter>
<filter id="filter3_d_1104_329" x="112" y="30" width="90" height="106" filterUnits="userSpaceOnUse" color-interpolation-filters="sRGB">
<feFlood flood-opacity="0" result="BackgroundImageFix"/>
<feColorMatrix in="SourceAlpha" type="matrix" values="0 0 0 0 0 0 0 0 0 0 0 0 0 0 0 0 0 0 127 0" result="hardAlpha"/>
<feOffset dx="2" dy="4"/>
<feGaussianBlur stdDeviation="5"/>
<feComposite in2="hardAlpha" operator="out"/>
<feColorMatrix type="matrix" values="0 0 0 0 0 0 0 0 0 0 0 0 0 0 0 0 0 0 0.25 0"/>
<feBlend mode="normal" in2="BackgroundImageFix" result="effect1_dropShadow_1104_329"/>
<feBlend mode="normal" in="SourceGraphic" in2="effect1_dropShadow_1104_329" result="shape"/>
</filter>
<filter id="filter4_d_1104_329" x="199" y="30" width="90" height="106" filterUnits="userSpaceOnUse" color-interpolation-filters="sRGB">
<feFlood flood-opacity="0" result="BackgroundImageFix"/>
<feColorMatrix in="SourceAlpha" type="matrix" values="0 0 0 0 0 0 0 0 0 0 0 0 0 0 0 0 0 0 127 0" result="hardAlpha"/>
<feOffset dx="2" dy="4"/>
<feGaussianBlur stdDeviation="5"/>
<feComposite in2="hardAlpha" operator="out"/>
<feColorMatrix type="matrix" values="0 0 0 0 0 0 0 0 0 0 0 0 0 0 0 0 0 0 0.25 0"/>
<feBlend mode="normal" in2="BackgroundImageFix" result="effect1_dropShadow_1104_329"/>
<feBlend mode="normal" in="SourceGraphic" in2="effect1_dropShadow_1104_329" result="shape"/>
</filter>
<linearGradient id="paint0_linear_1104_329" x1="154.5" y1="-149.772" x2="154.5" y2="315" gradientUnits="userSpaceOnUse">
<stop stop-color="#4799F8"/>
<stop offset="1" stop-color="#1157D1"/>
</linearGradient>
</defs>
</svg>
