<svg width="176" height="66" viewBox="0 0 176 66" fill="none" xmlns="http://www.w3.org/2000/svg">
<g clip-path="url(#clip0_1318_1507)">
<path d="M61.8319 11.9991C62.2771 9.88102 61.8601 8.02539 60.6529 6.76955C59.9881 6.07916 58.7715 5.25443 56.7584 5.25443C56.3245 5.25619 55.8914 5.29275 55.4634 5.36377C55.4352 5.36377 54.2091 5.57307 52.218 6.01668C45.9379 1.61264 38.3175 -0.481695 30.6592 0.0916459C23.0009 0.664987 15.7802 3.8704 10.2312 9.16003C4.68229 14.4497 1.14956 21.4951 0.236873 29.0922C-0.675816 36.6893 1.08819 44.3663 5.2274 50.8112C4.69121 52.7856 4.43409 53.9914 4.42782 54.0195C3.98569 56.1344 4.40273 57.9932 5.60995 59.249C6.2747 59.9394 7.49133 60.761 9.50127 60.761C9.93623 60.7593 10.3703 60.7227 10.7994 60.6517C10.8276 60.6517 12.0537 60.4424 14.0573 59.9957C20.3353 64.4013 27.9545 66.4973 35.612 65.9252C43.2695 65.3531 50.4897 62.1484 56.0379 56.8592C61.5861 51.57 65.1177 44.5248 66.0287 36.9284C66.9397 29.332 65.1736 21.6562 61.0323 15.2136C61.5685 13.233 61.8287 12.0241 61.8319 11.9991ZM13.0226 10.5402C18.5371 5.61525 25.6848 2.89587 33.0906 2.90521C33.677 2.90521 34.2665 2.90521 34.856 2.95519C39.5952 3.21899 44.2046 4.59559 48.3079 6.97261C46.6021 7.42558 44.68 7.98165 42.6387 8.65018C41.5746 9.00006 40.5409 9.36036 39.5375 9.73107C33.1816 8.23157 25.678 9.51864 20.2722 13.2205L20.1718 13.283C15.8164 16.1508 11.831 17.0068 8.29719 15.8509C9.65853 13.9027 11.2445 12.1203 13.0226 10.5402ZM6.71683 18.372C8.22678 18.9688 9.83659 19.2752 11.461 19.2748C14.6813 19.2748 18.096 18.1095 21.6644 15.7822C21.7199 15.7526 21.7734 15.7192 21.8243 15.6822C25.2735 13.2893 29.6916 12.0209 34 12.0022C28.6537 14.4358 24.2983 17.2473 20.9996 20.3869C19.3388 21.991 17.8256 23.7401 16.4781 25.6133L16.0986 25.7758L16.0108 25.8164C15.945 25.8507 9.35076 29.1246 3.8101 26.2006C3.7756 26.1819 3.73798 26.1725 3.70348 26.1569C4.33495 23.4335 5.34942 20.8126 6.71683 18.372ZM2.95407 31.2864C2.99483 30.5554 3.07322 29.8338 3.16416 29.1153C5.00383 29.9279 6.99668 30.339 9.00898 30.3211C10.6346 30.3099 12.2521 30.0915 13.8222 29.6713C12.2269 32.3869 10.8139 35.2046 9.5922 38.106C7.76134 38.528 5.85929 38.5397 4.02332 38.1404C3.78188 38.0436 3.5373 37.9561 3.29272 37.8749C2.94369 35.6971 2.83434 33.4879 2.96661 31.2864H2.95407ZM4.00451 41.1082C4.87383 41.2628 5.75537 41.3391 6.63844 41.3362C7.20399 41.3363 7.76917 41.3071 8.33168 41.2488L8.26583 41.4143C7.50387 43.4137 6.8642 45.2974 6.33742 46.9719C5.35816 45.1045 4.58036 43.1389 4.01705 41.1082H4.00451ZM23.7276 61.6076C21.7207 60.9562 19.7879 60.0966 17.9612 59.0429C19.6639 58.5899 21.5829 58.0369 23.621 57.3653L23.7841 57.3122C23.5657 58.7345 23.5467 60.1801 23.7276 61.6076ZM33.1345 63.0978C31.0448 63.1023 28.9602 62.8929 26.9134 62.473C26.8445 62.2324 26.7723 61.995 26.6877 61.7576C26.3669 59.9092 26.4633 58.0129 26.9699 56.2063C29.9349 55.1214 32.824 53.8409 35.618 52.3732C34.7682 55.1004 34.1317 59.0897 35.7026 62.9947C34.8539 63.0634 34.0021 63.0978 33.1471 63.0978H33.1345ZM36.4928 48.5307C35.8281 48.9243 35.1549 49.3044 34.4735 49.671L34.4202 49.6991C33.7366 50.0646 33.0436 50.4145 32.3475 50.7519L32.3161 50.7675C29.8271 51.9623 27.274 53.0198 24.6683 53.9352L23.9816 54.1757L23.8186 54.232L23.2981 54.41L23.066 54.485L22.627 54.6318L22.3668 54.7162L21.9591 54.8474L21.6989 54.9317L21.3132 55.0473L21.0561 55.1285L20.661 55.2504L20.4164 55.3222L20.0151 55.444L19.7924 55.5097L19.3754 55.6315L19.181 55.6877L18.7326 55.8127L18.5821 55.8564L18.0553 56.0001L17.9988 56.0189C16.9986 56.2906 16.0673 56.5312 15.2207 56.7342H15.205L14.7221 56.8498C13.1072 57.2341 11.8499 57.4902 11.1067 57.6339L11.0126 57.6496L10.9343 57.6652L10.7837 57.6933H10.7398L10.6426 57.7089H10.6113L10.5204 57.7245H10.4388H10.3573C10.2601 57.7402 10.1692 57.7495 10.0751 57.7589L9.93085 57.7776H9.78662C9.70195 57.7776 9.61415 57.7776 9.52949 57.7776C9.41347 57.7776 9.30373 57.7776 9.19398 57.762H9.09677C9.01838 57.762 8.94313 57.7433 8.86787 57.7277L8.77694 57.7089C8.68122 57.6906 8.58691 57.6655 8.49473 57.6339C8.40794 57.6026 8.32312 57.5661 8.24075 57.5246L8.14354 57.5465C8.08491 57.5158 8.02835 57.4814 7.97422 57.4434L7.91151 57.3996C7.84353 57.3484 7.77959 57.292 7.72023 57.2309C7.19658 56.6874 7.04294 55.7564 7.28438 54.6068C7.28438 54.5912 7.30633 54.4975 7.34396 54.3382V54.3194C7.34396 54.2851 7.34396 54.2507 7.3659 54.2132V54.1757L7.38472 54.0976C7.54464 53.4135 7.87074 52.0733 8.38185 50.2895V50.2551C8.41948 50.1239 8.46024 49.9896 8.49787 49.8521C8.49787 49.8272 8.51355 49.799 8.52296 49.774C8.56372 49.6272 8.61075 49.4617 8.65465 49.3242C8.65465 49.3055 8.65465 49.2898 8.67033 49.2742C8.87414 48.5869 9.09991 47.8497 9.3539 47.0718C9.3539 47.0343 9.37585 47 9.38839 46.9625C9.43856 46.8063 9.48873 46.6501 9.54204 46.4939C9.55772 46.4408 9.57653 46.3877 9.59534 46.3377C9.64238 46.1909 9.68941 46.0472 9.73958 45.9003L9.80229 45.716L9.9434 45.2974L10.0187 45.085L10.1598 44.682C10.1848 44.607 10.2131 44.532 10.2413 44.4539L10.3824 44.0509L10.467 43.8167C10.5172 43.6792 10.5674 43.5417 10.6207 43.4012L10.7054 43.17C10.7587 43.0263 10.812 42.8826 10.8684 42.7389C10.8935 42.6639 10.9217 42.5921 10.9499 42.5171C11.0095 42.3578 11.0722 42.2047 11.1349 42.0329C11.1569 41.9735 11.1788 41.9173 11.2039 41.8579C11.2823 41.6549 11.3607 41.4518 11.4422 41.2488C11.4422 41.2269 11.4422 41.2081 11.4642 41.1894C11.5551 40.9582 11.6492 40.7302 11.7432 40.499C12.774 37.9463 13.9465 35.4526 15.2552 33.0296C15.2584 33.0183 15.2638 33.0077 15.2708 32.9984C15.6408 32.3173 16.0265 31.6426 16.4216 30.9772L16.4467 30.9334C16.8481 30.268 17.262 29.6089 17.701 28.9622L17.7198 28.9341C17.933 28.6217 18.1525 28.2874 18.3751 27.9657C19.4113 26.4738 20.5513 25.0562 21.7867 23.7233C21.9748 23.5234 22.1661 23.3234 22.3574 23.1298L22.4013 23.0829C22.602 22.8798 22.8026 22.6799 23.0096 22.4862C23.2636 22.2425 23.5238 22.0051 23.7872 21.7708L23.9471 21.6303C24.2043 21.4053 24.4677 21.1835 24.7342 20.9648L24.8816 20.843C25.1418 20.6337 25.4021 20.4275 25.6655 20.2182L25.7501 20.1557C26.0323 19.9402 26.3177 19.7309 26.6093 19.5309C26.6689 19.4872 26.7284 19.4435 26.7912 19.4029C27.0796 19.1967 27.3712 18.9968 27.666 18.7968L27.7914 18.7156C28.0736 18.5282 28.3558 18.3438 28.6443 18.1626L28.7729 18.0814C29.0864 17.8877 29.4 17.7003 29.6979 17.516L29.8798 17.4098C30.1954 17.2223 30.5152 17.038 30.8393 16.8568L30.88 16.8318C31.1936 16.6538 31.5072 16.4788 31.8427 16.307L31.9869 16.2289L32.9684 15.7197L33.1189 15.6479C33.8003 15.3042 34.485 14.9752 35.1727 14.6607L35.3044 14.6013C35.6462 14.4451 35.9911 14.2889 36.3329 14.1421L36.4144 14.1077C37.1231 13.7953 37.8317 13.5048 38.5341 13.2237L38.6376 13.1831C42.2718 11.7567 45.9916 10.5568 49.7754 9.59049L50.669 9.36557H50.7004L51.5345 9.16563C54.1684 8.54084 55.8491 8.25656 55.9243 8.24719C56.0644 8.2222 56.2057 8.20447 56.3476 8.19408H56.5232H56.749C56.865 8.19408 56.9779 8.19408 57.0877 8.19408H57.1817L57.4138 8.22844L57.5047 8.24719C57.6001 8.26805 57.6943 8.29412 57.7869 8.32529C57.8737 8.35661 57.9585 8.39312 58.0409 8.43463L58.113 8.47211C58.1694 8.50335 58.2259 8.53772 58.2761 8.57208L58.3419 8.61894C58.4099 8.66905 58.4739 8.72441 58.5332 8.78451C59.0568 9.32808 59.2105 10.259 58.969 11.4086C58.9534 11.4742 58.5175 13.4954 57.6082 16.5694C56.4239 20.5971 54.9698 24.5411 53.2559 28.3749C53.2371 28.4155 53.2183 28.453 53.2026 28.4936C53.0458 28.8341 52.889 29.1715 52.7291 29.512L52.7135 29.5464C52.5567 29.8806 52.3999 30.2149 52.2306 30.5492C52.2149 30.5773 52.2023 30.6085 52.1867 30.6366C52.0236 30.9678 51.8574 31.2989 51.6881 31.6269L51.6128 31.7738C51.2679 32.4381 50.9115 33.0994 50.5436 33.7575L50.4558 33.9106C50.2771 34.223 50.0952 34.5354 49.9071 34.8477C49.8788 34.9009 49.8475 34.9508 49.8161 35.0008C49.6311 35.3132 49.443 35.6256 49.2517 35.938L49.2266 35.9755C49.0322 36.2879 48.8347 36.6003 48.6309 36.9127L48.5148 37.0908C48.3142 37.4032 48.1135 37.6906 47.9097 37.9842L47.8156 38.1154C47.6212 38.3903 47.4268 38.6652 47.2261 38.9339L47.1414 39.0557C46.9282 39.34 46.715 39.6212 46.4955 39.8992L46.3544 40.0773C46.1349 40.3553 45.9123 40.6333 45.6834 40.902L45.6144 40.9863C45.398 41.2394 45.1817 41.4893 44.9622 41.7361L44.8336 41.8798C44.6016 42.136 44.3664 42.3859 44.1281 42.6327C44.081 42.6858 44.0309 42.7358 43.9807 42.7857C43.733 43.0388 43.4821 43.2887 43.2282 43.5324C43.0243 43.7261 42.8143 43.9166 42.601 44.1072C42.5858 44.1234 42.569 44.138 42.5509 44.1509C40.6897 45.7934 38.6735 47.2528 36.5304 48.5088L36.4928 48.5307ZM38.6878 62.5886C38.6878 62.5542 38.6658 62.523 38.6501 62.4886C35.9629 56.8498 39.5375 50.4238 39.572 50.3614L39.619 50.2739L39.7978 49.9021C41.7352 48.6454 43.555 47.2171 45.235 45.6348C48.5274 42.5108 51.5313 38.2904 54.2123 33.0858C54.0053 37.3688 52.5379 41.7142 49.9886 45.0287C49.9516 45.0763 49.918 45.1264 49.8882 45.1787C46.1255 50.3739 45.0374 55.3316 46.6209 59.9363C44.1201 61.183 41.456 62.0737 38.7066 62.5823L38.6878 62.5886ZM53.2183 55.4847C51.9776 56.5911 50.6478 57.5941 49.2423 58.4837C48.242 54.9161 49.2768 50.9861 52.3434 46.7875C52.3661 46.7565 52.3871 46.7241 52.4062 46.6907C56.3571 41.4768 57.9782 34.0699 56.7553 27.6782C57.1734 26.6869 57.5831 25.6675 57.9845 24.6199C58.7433 22.6268 59.3798 20.7462 59.9066 19.0749C63.0122 25.0186 64.0424 31.8236 62.8347 38.4155C61.627 45.0075 58.2501 51.011 53.2371 55.4784L53.2183 55.4847Z" fill="#1B3280"/>
<path d="M41.3812 25.1478C39.821 23.5245 37.8127 22.3984 35.6103 21.9121C33.4078 21.4258 31.11 21.6009 29.0075 22.4155C26.9049 23.2301 25.092 24.6474 23.7979 26.4884C22.5038 28.3294 21.7867 30.5113 21.7371 32.7583C21.6876 35.0053 22.3079 37.2164 23.5196 39.1122C24.7313 41.008 26.48 42.5033 28.5447 43.4091C30.6093 44.3148 32.8971 44.5903 35.1189 44.2008C37.3407 43.8113 39.3967 42.7742 41.0269 41.2206C43.2109 39.1348 44.4749 36.2707 44.5413 33.2572C44.6077 30.2438 43.4712 27.3272 41.3812 25.1478ZM38.9668 39.0776C37.7626 40.2249 36.2439 40.9907 34.6029 41.2782C32.9618 41.5656 31.2721 41.3619 29.7472 40.6927C28.2224 40.0235 26.931 38.9189 26.0362 37.5186C25.1414 36.1182 24.6835 34.485 24.7203 32.8254C24.7571 31.1658 25.2871 29.5543 26.2431 28.1947C27.1991 26.8351 28.5383 25.7885 30.0913 25.1871C31.6443 24.5856 33.3415 24.4565 34.9681 24.816C36.5948 25.1754 38.078 26.0073 39.2302 27.2065C39.9981 28.0019 40.6006 28.9407 41.003 29.969C41.4053 30.9972 41.5995 32.0946 41.5745 33.1979C41.5494 34.3013 41.3055 35.3888 40.8569 36.3979C40.4083 37.4069 39.7638 38.3177 38.9605 39.0776H38.9668Z" fill="#1B3280"/>
<path d="M140.74 20.7588C134.707 20.7588 130.32 24.1077 130.32 32.1238V37.9343C130.32 45.9473 134.71 49.2962 140.74 49.2962C146.77 49.2962 151.16 45.9473 151.16 37.9343V32.1238C151.16 24.1202 146.773 20.7588 140.74 20.7588ZM146.039 37.9406C146.039 42.7484 144.321 44.7696 140.74 44.7696C137.159 44.7696 135.45 42.7421 135.45 37.9343V32.1238C135.45 27.316 137.169 25.2917 140.753 25.2917C144.337 25.2917 146.052 27.316 146.052 32.1238L146.039 37.9406Z" fill="#1B3280"/>
<path d="M93.0533 21.396H85.4494C85.2558 21.3968 85.0705 21.4738 84.9337 21.6101C84.7968 21.7464 84.7196 21.9311 84.7188 22.1239V48.0215C84.7188 48.1171 84.7376 48.2118 84.7744 48.3001C84.8111 48.3884 84.8649 48.4686 84.9327 48.5362C85.0006 48.6038 85.0811 48.6574 85.1698 48.694C85.2584 48.7306 85.3534 48.7494 85.4494 48.7494H88.9769C89.0709 48.7487 89.1638 48.7291 89.25 48.6917C89.3362 48.6544 89.414 48.6002 89.4787 48.5322C89.5434 48.4643 89.5937 48.384 89.6265 48.2963C89.6594 48.2085 89.6741 48.1151 89.6699 48.0215V38.8027H93.0533C98.8228 38.8027 103.197 36.5972 103.197 30.1493V29.837C103.197 23.3641 98.4497 21.396 93.0533 21.396ZM98.6284 30.1431C98.6284 33.0578 96.8693 34.5166 93.0533 34.5166C92.8871 34.5166 92.6111 34.5166 92.2819 34.5166H89.6699V25.7133H93.0533C96.5307 25.7133 98.6284 26.8786 98.6284 29.9369V30.1431Z" fill="#1B3280"/>
<path d="M121.399 37.5187C124.136 36.4316 125.88 34.2073 125.88 30.1368V29.8244C125.88 23.3765 121.129 21.4084 115.733 21.4084H108.129C107.936 21.4093 107.75 21.4862 107.613 21.6225C107.476 21.7589 107.399 21.9435 107.398 22.1363V48.034C107.398 48.1296 107.417 48.2242 107.454 48.3125C107.491 48.4009 107.545 48.4811 107.612 48.5487C107.68 48.6163 107.761 48.6699 107.849 48.7065C107.938 48.7431 108.033 48.7619 108.129 48.7619H111.657C111.751 48.7616 111.844 48.7422 111.931 48.7051C112.017 48.668 112.095 48.6138 112.16 48.5458C112.225 48.4778 112.276 48.3974 112.309 48.3095C112.342 48.2215 112.357 48.1278 112.353 48.034V38.4059H115.733H116.3L121.512 48.0277C121.694 48.3933 121.841 48.7556 122.243 48.7556H126.701C126.76 48.7614 126.82 48.7541 126.875 48.7344C126.931 48.7147 126.982 48.6829 127.023 48.6414C127.065 48.6 127.098 48.5498 127.118 48.4944C127.138 48.4391 127.146 48.38 127.14 48.3214C127.147 48.2184 127.122 48.1159 127.068 48.0277L121.399 37.5187ZM121.18 30.1368C121.18 33.0515 119.549 34.3667 115.733 34.3667H112.353V25.7133H115.733C119.21 25.7133 121.18 26.8785 121.18 29.9369V30.1368Z" fill="#1B3280"/>
<path d="M175.966 47.9496L169.97 24.9853C169.092 21.5958 166.458 21.2678 164.887 21.2678C163.316 21.2678 160.682 21.5802 159.804 24.9853L153.809 47.9496C153.8 48.0107 153.788 48.0712 153.771 48.1308C153.771 48.2155 153.789 48.2994 153.822 48.3773C153.855 48.4552 153.905 48.5256 153.966 48.584C154.028 48.6425 154.101 48.6878 154.18 48.7173C154.26 48.7468 154.345 48.7598 154.43 48.7556H158.306C158.474 48.741 158.633 48.6721 158.759 48.5594C158.884 48.4466 158.97 48.2962 159.002 48.1308L160.682 41.2112H169.092L170.773 48.1308C170.805 48.2964 170.89 48.4471 171.015 48.56C171.141 48.6728 171.3 48.7415 171.469 48.7556H175.342C175.426 48.7598 175.511 48.7468 175.591 48.7173C175.671 48.6878 175.744 48.6425 175.805 48.584C175.867 48.5256 175.916 48.4552 175.949 48.3773C175.983 48.2994 176 48.2155 176 48.1308C175.985 48.071 175.974 48.0106 175.966 47.9496ZM161.789 37.0595L164.298 26.4973C164.408 26.06 164.517 25.9132 164.884 25.9132C165.251 25.9132 165.358 26.06 165.467 26.4973L167.976 37.0595H161.789Z" fill="#1B3280"/>
</g>
<defs>
<clipPath id="clip0_1318_1507">
<rect width="176" height="66" fill="white"/>
</clipPath>
</defs>
</svg>
