<svg width="109" height="94" viewBox="0 0 109 94" fill="none" xmlns="http://www.w3.org/2000/svg">
<path fill-rule="evenodd" clip-rule="evenodd" d="M72.6169 31.2602V12.5657H76.006H79.3952V31.3554V34.162L78.9655 36.6355L78.154 39.6799L77.2472 42.1534L75.9107 44.865L74.8605 46.4347L73.5716 48.2899L72.235 49.717L70.6121 51.3818L68.2732 53.2848L65.6957 54.9971L62.7838 56.4242L60.0631 57.3281L59.1084 57.661L57.8672 57.9464L55.9102 58.232L53.5711 58.4222H49.7048L45.6473 57.8514L42.5925 56.9475L37.5803 54.4738L33.3321 51.1442L30.2771 47.8618L27.938 44.3892L25.9811 39.7751L24.7877 34.5901L24.6445 24.0633H31.4705L32.0909 36.2074L33.1411 39.442L34.764 42.3913L36.578 44.7223L38.2486 46.4347L40.5398 48.0997L42.0196 49.2412L45.6473 47.0056L49.2274 45.7212L51.7095 45.531H53.7143L56.9125 46.4347L58.9173 47.3385L60.779 48.4803L61.8768 49.2412L64.8363 47.5289L67.4139 45.0077L69.7051 41.6302L71.2804 38.4432L72.3782 34.6853L72.6169 31.2602Z" fill="#26D64C"/>
<path d="M79.3952 12.5658H76.0059H72.6168H68.8936L76.0059 0L82.9622 12.5658H79.3952Z" fill="#26D64C"/>
<path d="M35.9965 21.8932L36.3784 19.1343L37.2375 19.7525L37.8582 20.1808L39.7196 20.9895C40.3721 21.148 41.6863 21.4745 41.7244 21.5128C41.7626 21.5508 43.1723 21.6872 43.8725 21.7505L45.5433 22.0359L47.3094 22.5591L48.5504 23.2728L49.6482 24.2242L50.2689 25.1755L50.8416 26.2696L51.4146 27.7919L51.6531 29.5042L51.5099 30.9314L50.8416 32.3585L50.2212 33.3099L49.4574 32.5012L48.3596 31.4072L47.1185 30.4081L45.7341 29.3616L45.0182 29.1237L45.2569 29.5994L46.0684 30.4556L47.2617 31.6926L48.3596 32.9768L49.2187 34.2138L50.078 35.4505L51.2712 37.3532L51.6054 38.0667L52.0829 39.018L52.6077 39.9219L52.942 40.8258L53.4671 41.8723L53.8966 41.2064L54.3262 40.3025L54.7558 39.589L55.2808 38.6852L55.8059 38.1144L56.2834 37.4959L56.7606 36.6873L57.4289 36.3067L58.4314 35.3553L59.0997 34.4514L58.3359 34.4991L57.6199 34.8795L56.8561 35.3553L56.2834 35.9261L55.4719 36.5446L55.2808 36.3067L54.9468 35.1174L54.8036 34.3565L54.7558 33.4049L54.8036 33.0245L54.8989 32.7866L55.2808 31.7876L55.9491 30.7887L56.4266 30.1702L57.4767 29.3141L58.3835 28.7908L59.768 28.0773L61.009 27.649L62.823 27.0782L64.4936 26.8881L66.1641 26.6502L67.453 26.555V26.7929C67.4372 26.9673 67.4054 27.3353 67.4054 27.4113C67.4054 27.4874 67.278 27.7919 67.2143 27.9346L67.0711 28.6956L66.8324 30.0275V32.1206L66.6892 33.4049L66.4507 34.9272L65.6869 36.3067L64.8755 37.1153L63.3957 38.0667L61.4385 38.7804L58.9086 39.1607L58.0018 39.2084L56.6174 39.0658L55.6628 40.5879L54.8989 42.7762L54.4694 44.0604H52.3692L52.226 43.6324L52.035 42.681L51.6531 41.5392L51.0803 40.2073L50.5552 38.8754L49.9346 37.7338L49.5529 36.8774L48.98 35.9738L48.3117 35.2126L47.4526 35.4505L45.8773 35.5455L44.1588 35.5932L42.727 35.4505L41.7723 35.3553L40.3879 34.7368L39.6719 34.4039L38.9081 33.8807L38.049 33.0245L36.9988 31.4072L36.1397 28.886L35.7578 26.3171V24.0338L35.9965 21.8932Z" fill="#26D64C"/>
<path d="M6.37026 93.8405C5.16466 93.8405 4.07588 93.5984 3.10415 93.1142C2.15034 92.63 1.39455 91.8321 0.836775 90.7201C0.278998 89.6082 0 88.1109 0 86.2279V75.8716H2.24039V86.2817C2.24039 87.6984 2.42027 88.8193 2.78024 89.6442C3.15814 90.4511 3.65307 91.0251 4.26483 91.3657C4.89473 91.7064 5.59654 91.8768 6.37026 91.8768C7.16211 91.8768 7.87278 91.7064 8.50268 91.3657C9.13257 91.0251 9.62729 90.4511 9.98726 89.6442C10.3652 88.8193 10.5541 87.6984 10.5541 86.2817V75.8716H12.7135V86.2279C12.7135 88.1109 12.4345 89.6082 11.8768 90.7201C11.319 91.8321 10.5632 92.63 9.60937 93.1142C8.65556 93.5984 7.57586 93.8405 6.37026 93.8405ZM18.9632 93.5177V75.8716H24.0108C25.3425 75.8716 26.5032 76.033 27.4928 76.3558C28.4825 76.6786 29.2564 77.2256 29.8142 77.9967C30.372 78.7499 30.651 79.7721 30.651 81.0632C30.651 82.9103 30.0481 84.2821 28.8425 85.1789C27.6369 86.0756 26.0622 86.5238 24.1187 86.5238H21.2035V93.5177H18.9632ZM21.2035 84.6947H23.8488C25.3965 84.6947 26.539 84.4078 27.2769 83.8339C28.0327 83.2421 28.4106 82.3185 28.4106 81.0632C28.4106 79.7899 28.0148 78.9113 27.2229 78.4271C26.4492 77.925 25.2885 77.6739 23.7409 77.6739H21.2035V84.6947ZM42.4307 93.8405C40.9552 93.8405 39.6325 93.4818 38.4628 92.7645C37.3112 92.0292 36.3934 90.9801 35.7095 89.6173C35.0438 88.2544 34.7108 86.6136 34.7108 84.6947C34.7108 82.7938 35.0526 81.1618 35.7365 79.7989C36.4204 78.4361 37.3561 77.387 38.5438 76.6517C39.7314 75.9164 41.072 75.5488 42.5657 75.5488C43.6454 75.5488 44.5992 75.7731 45.4269 76.2213C46.2546 76.6517 46.9205 77.1538 47.4243 77.7277L46.2097 79.1803C45.7417 78.6782 45.2109 78.2747 44.6171 77.9698C44.0233 77.6649 43.3485 77.5125 42.5927 77.5125C41.4769 77.5125 40.4963 77.8084 39.6505 78.4002C38.8228 78.9741 38.1749 79.7899 37.707 80.848C37.2572 81.9061 37.0322 83.1704 37.0322 84.6409C37.0322 86.1113 37.2572 87.3937 37.707 88.4875C38.1568 89.5635 38.7867 90.3974 39.5965 90.9891C40.4242 91.5809 41.3959 91.8768 42.5117 91.8768C43.3575 91.8768 44.1133 91.6976 44.7791 91.3388C45.4448 90.9801 46.0568 90.4959 46.6146 89.8863L47.8562 91.285C47.1544 92.092 46.3626 92.7197 45.4809 93.168C44.5992 93.6163 43.5823 93.8405 42.4307 93.8405ZM55.3184 93.5177V86.6852L50.0009 75.8716H52.4032L54.6976 80.848C54.9854 81.4936 55.2644 82.1302 55.5344 82.7579C55.8222 83.3856 56.1103 84.0312 56.3981 84.6947H56.5061C56.8121 84.0312 57.1179 83.3856 57.4238 82.7579C57.7298 82.1302 58.0177 81.4936 58.2876 80.848L60.555 75.8716H62.9033L57.5858 86.6852V93.5177H55.3184ZM73.1042 93.8405C71.6287 93.8405 70.3061 93.4818 69.1363 92.7645C67.9847 92.0292 67.0669 90.9801 66.3831 89.6173C65.7173 88.2544 65.3843 86.6136 65.3843 84.6947C65.3843 82.7938 65.7262 81.1618 66.41 79.7989C67.0939 78.4361 68.0296 77.387 69.2173 76.6517C70.405 75.9164 71.7455 75.5488 73.2392 75.5488C74.3189 75.5488 75.2727 75.7731 76.1004 76.2213C76.9281 76.6517 77.5941 77.1538 78.0979 77.7277L76.8832 79.1803C76.4152 78.6782 75.8845 78.2747 75.2906 77.9698C74.6968 77.6649 74.022 77.5125 73.2662 77.5125C72.1504 77.5125 71.1698 77.8084 70.324 78.4002C69.4963 78.9741 68.8485 79.7899 68.3805 80.848C67.9307 81.9061 67.7057 83.1704 67.7057 84.6409C67.7057 86.1113 67.9307 87.3937 68.3805 88.4875C68.8303 89.5635 69.4602 90.3974 70.27 90.9891C71.0977 91.5809 72.0694 91.8768 73.1852 91.8768C74.031 91.8768 74.7868 91.6976 75.4526 91.3388C76.1183 90.9801 76.7303 90.4959 77.2881 89.8863L78.5297 91.285C77.8279 92.092 77.0361 92.7197 76.1544 93.168C75.2727 93.6163 74.2558 93.8405 73.1042 93.8405ZM83.3152 93.5177V75.8716H85.5556V91.6078H93.3025V93.5177H83.3152ZM97.9271 93.5177V75.8716H108.129V77.7546H100.167V83.2959H106.889V85.2058H100.167V91.6078H108.399V93.5177H97.9271Z" fill="#012970"/>
</svg>
