<svg width="390" height="506" viewBox="0 0 390 506" fill="none" xmlns="http://www.w3.org/2000/svg">
<g filter="url(#filter0_d_894_477)">
<rect x="3" y="1" width="380" height="496" rx="16" fill="white"/>
<path d="M58.166 96L49.85 81.312H46.286V96H38.726V58.308H52.874C55.79 58.308 58.274 58.83 60.326 59.874C62.378 60.882 63.908 62.268 64.916 64.032C65.96 65.76 66.482 67.704 66.482 69.864C66.482 72.348 65.762 74.598 64.322 76.614C62.882 78.594 60.74 79.962 57.896 80.718L66.914 96H58.166ZM46.286 75.642H52.604C54.656 75.642 56.186 75.156 57.194 74.184C58.202 73.176 58.706 71.79 58.706 70.026C58.706 68.298 58.202 66.966 57.194 66.03C56.186 65.058 54.656 64.572 52.604 64.572H46.286V75.642ZM100.212 85.146C100.212 87.018 99.7258 88.782 98.7538 90.438C97.8178 92.058 96.4138 93.408 94.5418 94.488C92.7058 95.532 90.5278 96.144 88.0078 96.324V100.698H84.5518V96.27C80.9518 95.946 78.0538 94.866 75.8578 93.03C73.6618 91.158 72.5278 88.638 72.4558 85.47H80.5558C80.7718 88.062 82.1038 89.628 84.5518 90.168V79.854C81.9598 79.206 79.8718 78.558 78.2878 77.91C76.7038 77.262 75.3358 76.218 74.1838 74.778C73.0318 73.338 72.4558 71.376 72.4558 68.892C72.4558 65.76 73.5718 63.204 75.8038 61.224C78.0718 59.244 80.9878 58.11 84.5518 57.822V53.448H88.0078V57.822C91.4638 58.11 94.2178 59.154 96.2698 60.954C98.3578 62.754 99.5278 65.238 99.7798 68.406H91.6258C91.5178 67.362 91.1398 66.462 90.4918 65.706C89.8798 64.914 89.0518 64.356 88.0078 64.032V74.238C90.7078 74.922 92.8318 75.588 94.3798 76.236C95.9638 76.848 97.3318 77.874 98.4838 79.314C99.6358 80.718 100.212 82.662 100.212 85.146ZM80.3398 68.514C80.3398 69.702 80.6998 70.674 81.4198 71.43C82.1398 72.15 83.1838 72.744 84.5518 73.212V63.87C83.2558 64.05 82.2298 64.536 81.4738 65.328C80.7178 66.12 80.3398 67.182 80.3398 68.514ZM88.0078 90.276C89.3758 90.024 90.4378 89.466 91.1938 88.602C91.9858 87.738 92.3818 86.694 92.3818 85.47C92.3818 84.282 92.0038 83.328 91.2478 82.608C90.4918 81.888 89.4118 81.294 88.0078 80.826V90.276ZM116.536 84.93C116.824 86.514 117.472 87.738 118.48 88.602C119.524 89.43 120.91 89.844 122.638 89.844C124.87 89.844 126.49 88.926 127.498 87.09C128.506 85.218 129.01 82.086 129.01 77.694C128.182 78.846 127.012 79.746 125.5 80.394C124.024 81.042 122.422 81.366 120.694 81.366C118.39 81.366 116.302 80.898 114.43 79.962C112.594 78.99 111.136 77.568 110.056 75.696C108.976 73.788 108.436 71.484 108.436 68.784C108.436 64.788 109.624 61.62 112 59.28C114.376 56.904 117.616 55.716 121.72 55.716C126.832 55.716 130.432 57.354 132.52 60.63C134.644 63.906 135.706 68.838 135.706 75.426C135.706 80.106 135.292 83.94 134.464 86.928C133.672 89.916 132.286 92.184 130.306 93.732C128.362 95.28 125.698 96.054 122.314 96.054C119.65 96.054 117.382 95.55 115.51 94.542C113.638 93.498 112.198 92.148 111.19 90.492C110.218 88.8 109.66 86.946 109.516 84.93H116.536ZM122.26 75.21C124.132 75.21 125.608 74.634 126.688 73.482C127.768 72.33 128.308 70.782 128.308 68.838C128.308 66.714 127.732 65.076 126.58 63.924C125.464 62.736 123.934 62.142 121.99 62.142C120.046 62.142 118.498 62.754 117.346 63.978C116.23 65.166 115.672 66.75 115.672 68.73C115.672 70.638 116.212 72.204 117.292 73.428C118.408 74.616 120.064 75.21 122.26 75.21ZM150.339 84.93C150.627 86.514 151.275 87.738 152.283 88.602C153.327 89.43 154.713 89.844 156.441 89.844C158.673 89.844 160.293 88.926 161.301 87.09C162.309 85.218 162.813 82.086 162.813 77.694C161.985 78.846 160.815 79.746 159.303 80.394C157.827 81.042 156.225 81.366 154.497 81.366C152.193 81.366 150.105 80.898 148.233 79.962C146.397 78.99 144.939 77.568 143.859 75.696C142.779 73.788 142.239 71.484 142.239 68.784C142.239 64.788 143.427 61.62 145.803 59.28C148.179 56.904 151.419 55.716 155.523 55.716C160.635 55.716 164.235 57.354 166.323 60.63C168.447 63.906 169.509 68.838 169.509 75.426C169.509 80.106 169.095 83.94 168.267 86.928C167.475 89.916 166.089 92.184 164.109 93.732C162.165 95.28 159.501 96.054 156.117 96.054C153.453 96.054 151.185 95.55 149.313 94.542C147.441 93.498 146.001 92.148 144.993 90.492C144.021 88.8 143.463 86.946 143.319 84.93H150.339ZM156.063 75.21C157.935 75.21 159.411 74.634 160.491 73.482C161.571 72.33 162.111 70.782 162.111 68.838C162.111 66.714 161.535 65.076 160.383 63.924C159.267 62.736 157.737 62.142 155.793 62.142C153.849 62.142 152.301 62.754 151.149 63.978C150.033 65.166 149.475 66.75 149.475 68.73C149.475 70.638 150.015 72.204 151.095 73.428C152.211 74.616 153.867 75.21 156.063 75.21ZM173.031 97.2L177.111 80.4H178.911L174.831 97.2H173.031ZM181.246 96V85.32H182.766V89.9H182.526C182.526 88.86 182.66 87.98 182.926 87.26C183.206 86.5267 183.62 85.9667 184.166 85.58C184.713 85.1933 185.406 85 186.246 85H186.326C187.166 85 187.86 85.1933 188.406 85.58C188.966 85.9667 189.38 86.5267 189.646 87.26C189.913 87.98 190.046 88.86 190.046 89.9H189.486C189.486 88.86 189.626 87.98 189.906 87.26C190.186 86.5267 190.6 85.9667 191.146 85.58C191.706 85.1933 192.406 85 193.246 85H193.326C194.166 85 194.866 85.1933 195.426 85.58C195.986 85.9667 196.4 86.5267 196.666 87.26C196.946 87.98 197.086 88.86 197.086 89.9V96H195.166V89.48C195.166 88.6133 194.953 87.9467 194.526 87.48C194.1 87 193.506 86.76 192.746 86.76C191.96 86.76 191.326 87.0133 190.846 87.52C190.366 88.0133 190.126 88.7067 190.126 89.6V96H188.206V89.48C188.206 88.6133 187.993 87.9467 187.566 87.48C187.14 87 186.546 86.76 185.786 86.76C185 86.76 184.366 87.0133 183.886 87.52C183.406 88.0133 183.166 88.7067 183.166 89.6V96H181.246ZM205.142 96.36C204.208 96.36 203.402 96.2 202.722 95.88C202.042 95.56 201.488 95.14 201.062 94.62C200.635 94.0867 200.315 93.4933 200.102 92.84C199.902 92.1867 199.802 91.52 199.802 90.84V90.48C199.802 89.7867 199.902 89.1133 200.102 88.46C200.315 87.8067 200.635 87.22 201.062 86.7C201.488 86.1667 202.028 85.7467 202.682 85.44C203.348 85.12 204.128 84.96 205.022 84.96C206.182 84.96 207.135 85.2133 207.882 85.72C208.642 86.2133 209.202 86.8533 209.562 87.64C209.935 88.4267 210.122 89.2667 210.122 90.16V91.02H200.642V89.58H208.722L208.282 90.36C208.282 89.6 208.162 88.9467 207.922 88.4C207.682 87.84 207.322 87.4067 206.842 87.1C206.362 86.7933 205.755 86.64 205.022 86.64C204.262 86.64 203.628 86.8133 203.122 87.16C202.628 87.5067 202.255 87.98 202.002 88.58C201.762 89.18 201.642 89.8733 201.642 90.66C201.642 91.42 201.762 92.1067 202.002 92.72C202.255 93.32 202.642 93.8 203.162 94.16C203.682 94.5067 204.342 94.68 205.142 94.68C205.982 94.68 206.662 94.4933 207.182 94.12C207.715 93.7467 208.035 93.3133 208.142 92.82H209.942C209.795 93.5533 209.502 94.1867 209.062 94.72C208.622 95.2533 208.068 95.66 207.402 95.94C206.735 96.22 205.982 96.36 205.142 96.36ZM201.742 83.76L203.942 79.8H206.102L208.262 83.76H206.702L205.102 80.76H204.942L203.302 83.76H201.742ZM216.348 96.32C214.948 96.32 213.861 96.02 213.088 95.42C212.328 94.82 211.934 94 211.908 92.96H213.708C213.734 93.3733 213.941 93.7667 214.328 94.14C214.728 94.5 215.401 94.68 216.348 94.68C217.201 94.68 217.854 94.5133 218.308 94.18C218.761 93.8333 218.988 93.4133 218.988 92.92C218.988 92.48 218.821 92.14 218.488 91.9C218.154 91.6467 217.614 91.48 216.868 91.4L215.708 91.28C214.694 91.1733 213.868 90.8733 213.228 90.38C212.588 89.8733 212.268 89.1667 212.268 88.26C212.268 87.58 212.441 87 212.788 86.52C213.134 86.0267 213.614 85.6533 214.228 85.4C214.841 85.1333 215.548 85 216.348 85C217.548 85 218.521 85.2667 219.268 85.8C220.014 86.3333 220.401 87.1267 220.428 88.18H218.628C218.614 87.7533 218.414 87.3933 218.028 87.1C217.654 86.7933 217.094 86.64 216.348 86.64C215.601 86.64 215.034 86.7933 214.648 87.1C214.261 87.4067 214.068 87.7933 214.068 88.26C214.068 88.66 214.201 88.98 214.468 89.22C214.748 89.46 215.201 89.6133 215.828 89.68L216.988 89.8C218.134 89.92 219.054 90.24 219.748 90.76C220.441 91.2667 220.788 91.9867 220.788 92.92C220.788 93.5867 220.594 94.18 220.208 94.7C219.834 95.2067 219.314 95.6067 218.648 95.9C217.981 96.18 217.214 96.32 216.348 96.32Z" fill="#131517"/>
<path d="M37.34 163V143.89H41.032V163H37.34ZM48.936 163L43.112 154.732H47.246L53.252 163H48.936ZM39.94 156.656V153.666H44.776C45.452 153.666 46.0327 153.527 46.518 153.25C47.0207 152.973 47.4107 152.583 47.688 152.08C47.9653 151.577 48.104 151.005 48.104 150.364C48.104 149.705 47.9653 149.125 47.688 148.622C47.4107 148.119 47.0207 147.729 46.518 147.452C46.0327 147.175 45.452 147.036 44.776 147.036H39.94V143.89H44.386C45.9113 143.89 47.2287 144.115 48.338 144.566C49.4647 145.017 50.3313 145.701 50.938 146.62C51.5447 147.539 51.848 148.691 51.848 150.078V150.494C51.848 151.898 51.536 153.051 50.912 153.952C50.3053 154.853 49.4473 155.529 48.338 155.98C47.2287 156.431 45.9113 156.656 44.386 156.656H39.94ZM61.831 163.494C60.6177 163.494 59.5517 163.286 58.633 162.87C57.7317 162.454 56.9777 161.899 56.371 161.206C55.7817 160.495 55.331 159.707 55.019 158.84C54.7243 157.973 54.577 157.089 54.577 156.188V155.694C54.577 154.758 54.7243 153.857 55.019 152.99C55.331 152.106 55.7817 151.326 56.371 150.65C56.9777 149.957 57.723 149.411 58.607 149.012C59.491 148.596 60.5137 148.388 61.675 148.388C63.2003 148.388 64.4743 148.726 65.497 149.402C66.537 150.061 67.317 150.936 67.837 152.028C68.357 153.103 68.617 154.264 68.617 155.512V156.812H56.111V154.602H66.355L65.237 155.694C65.237 154.793 65.107 154.021 64.847 153.38C64.587 152.739 64.1883 152.245 63.651 151.898C63.131 151.551 62.4723 151.378 61.675 151.378C60.8777 151.378 60.2017 151.56 59.647 151.924C59.0923 152.288 58.6677 152.817 58.373 153.51C58.0957 154.186 57.957 155.001 57.957 155.954C57.957 156.838 58.0957 157.627 58.373 158.32C58.6503 158.996 59.075 159.533 59.647 159.932C60.219 160.313 60.947 160.504 61.831 160.504C62.715 160.504 63.4343 160.331 63.989 159.984C64.5437 159.62 64.899 159.178 65.055 158.658H68.383C68.175 159.629 67.7763 160.478 67.187 161.206C66.5977 161.934 65.8437 162.497 64.925 162.896C64.0237 163.295 62.9923 163.494 61.831 163.494ZM77.148 168.564C76.472 168.564 75.7787 168.538 75.068 168.486C74.3747 168.434 73.7247 168.365 73.118 168.278V165.262C73.742 165.331 74.4094 165.392 75.12 165.444C75.8307 165.513 76.498 165.548 77.122 165.548C78.2834 165.548 79.2194 165.409 79.93 165.132C80.658 164.855 81.1867 164.413 81.516 163.806C81.8627 163.217 82.036 162.463 82.036 161.544V158.762L82.816 156.994C82.764 158.294 82.4954 159.403 82.01 160.322C81.5247 161.223 80.866 161.917 80.034 162.402C79.202 162.87 78.24 163.104 77.148 163.104C76.1774 163.104 75.2934 162.922 74.496 162.558C73.716 162.194 73.04 161.691 72.468 161.05C71.9134 160.409 71.48 159.655 71.168 158.788C70.856 157.921 70.7 156.994 70.7 156.006V155.46C70.7 154.472 70.856 153.553 71.168 152.704C71.4974 151.837 71.9567 151.083 72.546 150.442C73.1354 149.801 73.8374 149.307 74.652 148.96C75.4667 148.613 76.368 148.44 77.356 148.44C78.5174 148.44 79.5227 148.691 80.372 149.194C81.2387 149.697 81.9147 150.425 82.4 151.378C82.8854 152.331 83.154 153.501 83.206 154.888L82.582 154.992V148.882H85.442V161.336C85.442 163.052 85.1474 164.439 84.558 165.496C83.9687 166.553 83.0587 167.325 81.828 167.81C80.6147 168.313 79.0547 168.564 77.148 168.564ZM78.188 160.01C78.8814 160.01 79.514 159.854 80.086 159.542C80.658 159.23 81.1174 158.779 81.464 158.19C81.8107 157.601 81.984 156.89 81.984 156.058V155.148C81.984 154.351 81.802 153.675 81.438 153.12C81.0914 152.565 80.632 152.149 80.06 151.872C79.488 151.577 78.864 151.43 78.188 151.43C77.4254 151.43 76.7494 151.612 76.16 151.976C75.588 152.323 75.1374 152.817 74.808 153.458C74.4787 154.099 74.314 154.862 74.314 155.746C74.314 156.613 74.4787 157.367 74.808 158.008C75.1374 158.649 75.588 159.143 76.16 159.49C76.7494 159.837 77.4254 160.01 78.188 160.01ZM94.1941 163.442C92.5647 163.442 91.2994 162.905 90.3981 161.83C89.5141 160.755 89.0721 159.161 89.0721 157.046V148.856H92.6861V157.358C92.6861 158.225 92.9287 158.918 93.4141 159.438C93.8994 159.941 94.5581 160.192 95.3901 160.192C96.2221 160.192 96.8981 159.923 97.4181 159.386C97.9554 158.849 98.2241 158.121 98.2241 157.202V148.856H101.838V163H98.9781V156.994H99.2641C99.2641 158.415 99.0821 159.603 98.7181 160.556C98.3541 161.509 97.8081 162.229 97.0801 162.714C96.3521 163.199 95.4421 163.442 94.3501 163.442H94.1941ZM106.172 163V144.02H109.786V163H106.172ZM104.404 146.724V144.02H109.786V146.724H104.404ZM122.465 163V158.814H121.867V154.16C121.867 153.345 121.668 152.739 121.269 152.34C120.871 151.941 120.255 151.742 119.423 151.742C118.99 151.742 118.47 151.751 117.863 151.768C117.257 151.785 116.641 151.811 116.017 151.846C115.411 151.863 114.865 151.889 114.379 151.924V148.856C114.778 148.821 115.229 148.787 115.731 148.752C116.234 148.717 116.745 148.7 117.265 148.7C117.803 148.683 118.305 148.674 118.773 148.674C120.229 148.674 121.434 148.865 122.387 149.246C123.358 149.627 124.086 150.225 124.571 151.04C125.074 151.855 125.325 152.921 125.325 154.238V163H122.465ZM117.915 163.364C116.893 163.364 115.991 163.182 115.211 162.818C114.449 162.454 113.851 161.934 113.417 161.258C113.001 160.582 112.793 159.767 112.793 158.814C112.793 157.774 113.045 156.925 113.547 156.266C114.067 155.607 114.787 155.113 115.705 154.784C116.641 154.455 117.733 154.29 118.981 154.29H122.257V156.448H118.929C118.097 156.448 117.456 156.656 117.005 157.072C116.572 157.471 116.355 157.991 116.355 158.632C116.355 159.273 116.572 159.793 117.005 160.192C117.456 160.591 118.097 160.79 118.929 160.79C119.432 160.79 119.891 160.703 120.307 160.53C120.741 160.339 121.096 160.027 121.373 159.594C121.668 159.143 121.833 158.537 121.867 157.774L122.751 158.788C122.665 159.776 122.422 160.608 122.023 161.284C121.642 161.96 121.105 162.48 120.411 162.844C119.735 163.191 118.903 163.364 117.915 163.364ZM129.197 163V148.882H132.057V154.862H131.979C131.979 152.834 132.412 151.3 133.279 150.26C134.145 149.22 135.419 148.7 137.101 148.7H137.621V151.846H136.633C135.419 151.846 134.475 152.175 133.799 152.834C133.14 153.475 132.811 154.411 132.811 155.642V163H129.197Z" fill="#131517"/>
<path d="M44.78 192.02V193.18H40.9V206H39.5V193.18H35.6V192.02H44.78ZM56.4506 195.08V206H55.0506V204.08C54.7306 204.76 54.2373 205.28 53.5706 205.64C52.904 206 52.1573 206.18 51.3306 206.18C50.024 206.18 48.9573 205.78 48.1306 204.98C47.304 204.167 46.8906 202.993 46.8906 201.46V195.08H48.2706V201.3C48.2706 202.487 48.564 203.393 49.1506 204.02C49.7506 204.647 50.564 204.96 51.5906 204.96C52.644 204.96 53.484 204.627 54.1106 203.96C54.7373 203.293 55.0506 202.313 55.0506 201.02V195.08H56.4506ZM59.0069 200.52C59.0069 199.4 59.2335 198.42 59.6869 197.58C60.1402 196.727 60.7602 196.073 61.5469 195.62C62.3469 195.153 63.2469 194.92 64.2469 194.92C65.2069 194.92 66.0735 195.153 66.8469 195.62C67.6202 196.087 68.1869 196.693 68.5469 197.44V191.2H69.9469V206H68.5469V203.56C68.2135 204.32 67.6669 204.947 66.9069 205.44C66.1469 205.92 65.2535 206.16 64.2269 206.16C63.2269 206.16 62.3269 205.927 61.5269 205.46C60.7402 204.993 60.1202 204.333 59.6669 203.48C59.2269 202.627 59.0069 201.64 59.0069 200.52ZM68.5469 200.54C68.5469 199.66 68.3669 198.887 68.0069 198.22C67.6469 197.553 67.1535 197.04 66.5269 196.68C65.9135 196.32 65.2335 196.14 64.4869 196.14C63.7135 196.14 63.0202 196.313 62.4069 196.66C61.7935 197.007 61.3069 197.513 60.9469 198.18C60.6002 198.833 60.4269 199.613 60.4269 200.52C60.4269 201.413 60.6002 202.2 60.9469 202.88C61.3069 203.547 61.7935 204.06 62.4069 204.42C63.0202 204.767 63.7135 204.94 64.4869 204.94C65.2335 204.94 65.9135 204.76 66.5269 204.4C67.1535 204.04 67.6469 203.527 68.0069 202.86C68.3669 202.193 68.5469 201.42 68.5469 200.54ZM77.923 206.16C76.8963 206.16 75.9696 205.933 75.143 205.48C74.3296 205.013 73.683 204.36 73.203 203.52C72.7363 202.667 72.503 201.673 72.503 200.54C72.503 199.407 72.743 198.42 73.223 197.58C73.703 196.727 74.3563 196.073 75.183 195.62C76.0096 195.153 76.9363 194.92 77.963 194.92C78.9896 194.92 79.9163 195.153 80.743 195.62C81.583 196.073 82.2363 196.727 82.703 197.58C83.183 198.42 83.423 199.407 83.423 200.54C83.423 201.66 83.183 202.647 82.703 203.5C82.223 204.353 81.563 205.013 80.723 205.48C79.883 205.933 78.9496 206.16 77.923 206.16ZM77.923 204.94C78.643 204.94 79.3096 204.78 79.923 204.46C80.5363 204.127 81.0296 203.633 81.403 202.98C81.7896 202.313 81.983 201.5 81.983 200.54C81.983 199.58 81.7963 198.773 81.423 198.12C81.0496 197.453 80.5563 196.96 79.943 196.64C79.3296 196.307 78.663 196.14 77.943 196.14C77.223 196.14 76.5563 196.307 75.943 196.64C75.3296 196.96 74.8363 197.453 74.463 198.12C74.103 198.773 73.923 199.58 73.923 200.54C73.923 201.5 74.103 202.313 74.463 202.98C74.8363 203.633 75.323 204.127 75.923 204.46C76.5363 204.78 77.203 204.94 77.923 204.94ZM96.2433 206.16C95.2166 206.16 94.2899 205.933 93.4633 205.48C92.6499 205.013 92.0033 204.36 91.5233 203.52C91.0566 202.667 90.8233 201.673 90.8233 200.54C90.8233 199.407 91.0633 198.42 91.5433 197.58C92.0233 196.727 92.6766 196.073 93.5033 195.62C94.3299 195.153 95.2566 194.92 96.2833 194.92C97.3099 194.92 98.2366 195.153 99.0633 195.62C99.9033 196.073 100.557 196.727 101.023 197.58C101.503 198.42 101.743 199.407 101.743 200.54C101.743 201.66 101.503 202.647 101.023 203.5C100.543 204.353 99.8833 205.013 99.0433 205.48C98.2033 205.933 97.2699 206.16 96.2433 206.16ZM96.2433 204.94C96.9633 204.94 97.6299 204.78 98.2433 204.46C98.8566 204.127 99.3499 203.633 99.7233 202.98C100.11 202.313 100.303 201.5 100.303 200.54C100.303 199.58 100.117 198.773 99.7433 198.12C99.3699 197.453 98.8766 196.96 98.2633 196.64C97.6499 196.307 96.9833 196.14 96.2633 196.14C95.5433 196.14 94.8766 196.307 94.2633 196.64C93.6499 196.96 93.1566 197.453 92.7833 198.12C92.4233 198.773 92.2433 199.58 92.2433 200.54C92.2433 201.5 92.4233 202.313 92.7833 202.98C93.1566 203.633 93.6433 204.127 94.2433 204.46C94.8566 204.78 95.5233 204.94 96.2433 204.94ZM109.144 200.52C109.144 199.4 109.37 198.42 109.824 197.58C110.277 196.727 110.897 196.073 111.684 195.62C112.484 195.153 113.384 194.92 114.384 194.92C115.41 194.92 116.304 195.167 117.064 195.66C117.824 196.14 118.364 196.747 118.684 197.48V195.08H120.084V211.16H118.684V203.6C118.364 204.333 117.817 204.947 117.044 205.44C116.284 205.92 115.384 206.16 114.344 206.16C113.357 206.16 112.464 205.927 111.664 205.46C110.877 204.993 110.257 204.333 109.804 203.48C109.364 202.627 109.144 201.64 109.144 200.52ZM118.684 200.54C118.684 199.66 118.504 198.887 118.144 198.22C117.784 197.553 117.29 197.04 116.664 196.68C116.05 196.32 115.37 196.14 114.624 196.14C113.85 196.14 113.157 196.313 112.544 196.66C111.93 197.007 111.444 197.513 111.084 198.18C110.737 198.833 110.564 199.613 110.564 200.52C110.564 201.413 110.737 202.2 111.084 202.88C111.444 203.547 111.93 204.06 112.544 204.42C113.157 204.767 113.85 204.94 114.624 204.94C115.37 204.94 116.05 204.76 116.664 204.4C117.29 204.04 117.784 203.527 118.144 202.86C118.504 202.193 118.684 201.42 118.684 200.54ZM132.74 195.08V206H131.34V204.08C131.02 204.76 130.526 205.28 129.86 205.64C129.193 206 128.446 206.18 127.62 206.18C126.313 206.18 125.246 205.78 124.42 204.98C123.593 204.167 123.18 202.993 123.18 201.46V195.08H124.56V201.3C124.56 202.487 124.853 203.393 125.44 204.02C126.04 204.647 126.853 204.96 127.88 204.96C128.933 204.96 129.773 204.627 130.4 203.96C131.026 203.293 131.34 202.313 131.34 201.02V195.08H132.74ZM145.816 199.98C145.816 200.46 145.803 200.827 145.776 201.08H136.716C136.756 201.907 136.956 202.613 137.316 203.2C137.676 203.787 138.149 204.233 138.736 204.54C139.323 204.833 139.963 204.98 140.656 204.98C141.563 204.98 142.323 204.76 142.936 204.32C143.563 203.88 143.976 203.287 144.176 202.54H145.656C145.389 203.607 144.816 204.48 143.936 205.16C143.069 205.827 141.976 206.16 140.656 206.16C139.629 206.16 138.709 205.933 137.896 205.48C137.083 205.013 136.443 204.36 135.976 203.52C135.523 202.667 135.296 201.673 135.296 200.54C135.296 199.407 135.523 198.413 135.976 197.56C136.429 196.707 137.063 196.053 137.876 195.6C138.689 195.147 139.616 194.92 140.656 194.92C141.696 194.92 142.603 195.147 143.376 195.6C144.163 196.053 144.763 196.667 145.176 197.44C145.603 198.2 145.816 199.047 145.816 199.98ZM144.396 199.94C144.409 199.127 144.243 198.433 143.896 197.86C143.563 197.287 143.103 196.853 142.516 196.56C141.929 196.267 141.289 196.12 140.596 196.12C139.556 196.12 138.669 196.453 137.936 197.12C137.203 197.787 136.796 198.727 136.716 199.94H144.396ZM157.746 204.64L161.426 195.08H162.906L158.526 206H156.946L152.566 195.08H154.066L157.746 204.64ZM169.583 206.16C168.556 206.16 167.63 205.933 166.803 205.48C165.99 205.013 165.343 204.36 164.863 203.52C164.396 202.667 164.163 201.673 164.163 200.54C164.163 199.407 164.403 198.42 164.883 197.58C165.363 196.727 166.016 196.073 166.843 195.62C167.67 195.153 168.596 194.92 169.623 194.92C170.65 194.92 171.576 195.153 172.403 195.62C173.243 196.073 173.896 196.727 174.363 197.58C174.843 198.42 175.083 199.407 175.083 200.54C175.083 201.66 174.843 202.647 174.363 203.5C173.883 204.353 173.223 205.013 172.383 205.48C171.543 205.933 170.61 206.16 169.583 206.16ZM169.583 204.94C170.303 204.94 170.97 204.78 171.583 204.46C172.196 204.127 172.69 203.633 173.063 202.98C173.45 202.313 173.643 201.5 173.643 200.54C173.643 199.58 173.456 198.773 173.083 198.12C172.71 197.453 172.216 196.96 171.603 196.64C170.99 196.307 170.323 196.14 169.603 196.14C168.883 196.14 168.216 196.307 167.603 196.64C166.99 196.96 166.496 197.453 166.123 198.12C165.763 198.773 165.583 199.58 165.583 200.54C165.583 201.5 165.763 202.313 166.123 202.98C166.496 203.633 166.983 204.127 167.583 204.46C168.196 204.78 168.863 204.94 169.583 204.94ZM176.995 200.54C176.995 199.407 177.222 198.42 177.675 197.58C178.128 196.727 178.755 196.073 179.555 195.62C180.355 195.153 181.268 194.92 182.295 194.92C183.642 194.92 184.748 195.253 185.615 195.92C186.495 196.587 187.062 197.493 187.315 198.64H185.815C185.628 197.853 185.222 197.24 184.595 196.8C183.982 196.347 183.215 196.12 182.295 196.12C181.562 196.12 180.902 196.287 180.315 196.62C179.728 196.953 179.262 197.453 178.915 198.12C178.582 198.773 178.415 199.58 178.415 200.54C178.415 201.5 178.582 202.313 178.915 202.98C179.262 203.647 179.728 204.147 180.315 204.48C180.902 204.813 181.562 204.98 182.295 204.98C183.215 204.98 183.982 204.76 184.595 204.32C185.222 203.867 185.628 203.24 185.815 202.44H187.315C187.062 203.56 186.495 204.46 185.615 205.14C184.735 205.82 183.628 206.16 182.295 206.16C181.268 206.16 180.355 205.933 179.555 205.48C178.755 205.013 178.128 204.36 177.675 203.52C177.222 202.667 176.995 201.673 176.995 200.54ZM199.781 199.98C199.781 200.46 199.767 200.827 199.741 201.08H190.681C190.721 201.907 190.921 202.613 191.281 203.2C191.641 203.787 192.114 204.233 192.701 204.54C193.287 204.833 193.927 204.98 194.621 204.98C195.527 204.98 196.287 204.76 196.901 204.32C197.527 203.88 197.941 203.287 198.141 202.54H199.621C199.354 203.607 198.781 204.48 197.901 205.16C197.034 205.827 195.941 206.16 194.621 206.16C193.594 206.16 192.674 205.933 191.861 205.48C191.047 205.013 190.407 204.36 189.941 203.52C189.487 202.667 189.261 201.673 189.261 200.54C189.261 199.407 189.487 198.413 189.941 197.56C190.394 196.707 191.027 196.053 191.841 195.6C192.654 195.147 193.581 194.92 194.621 194.92C195.661 194.92 196.567 195.147 197.341 195.6C198.127 196.053 198.727 196.667 199.141 197.44C199.567 198.2 199.781 199.047 199.781 199.98ZM198.361 199.94C198.374 199.127 198.207 198.433 197.861 197.86C197.527 197.287 197.067 196.853 196.481 196.56C195.894 196.267 195.254 196.12 194.561 196.12C193.521 196.12 192.634 196.453 191.901 197.12C191.167 197.787 190.761 198.727 190.681 199.94H198.361ZM194.521 192.24L191.841 193.92V192.78L194.521 191.14L197.201 192.78V193.92L194.521 192.24ZM209.21 197.48C209.557 196.747 210.104 196.14 210.85 195.66C211.61 195.167 212.51 194.92 213.55 194.92C214.537 194.92 215.424 195.153 216.21 195.62C217.01 196.073 217.63 196.727 218.07 197.58C218.524 198.42 218.75 199.4 218.75 200.52C218.75 201.64 218.524 202.627 218.07 203.48C217.63 204.333 217.01 204.993 216.21 205.46C215.424 205.927 214.537 206.16 213.55 206.16C212.524 206.16 211.63 205.92 210.87 205.44C210.11 204.947 209.557 204.333 209.21 203.6V211.16H207.83V195.08H209.21V197.48ZM217.33 200.52C217.33 199.613 217.15 198.833 216.79 198.18C216.444 197.513 215.964 197.007 215.35 196.66C214.737 196.313 214.044 196.14 213.27 196.14C212.524 196.14 211.837 196.32 211.21 196.68C210.597 197.04 210.11 197.553 209.75 198.22C209.39 198.887 209.21 199.66 209.21 200.54C209.21 201.42 209.39 202.193 209.75 202.86C210.11 203.527 210.597 204.04 211.21 204.4C211.837 204.76 212.524 204.94 213.27 204.94C214.044 204.94 214.737 204.767 215.35 204.42C215.964 204.06 216.444 203.547 216.79 202.88C217.15 202.2 217.33 201.413 217.33 200.52ZM222.727 197.02C223.033 196.34 223.5 195.813 224.127 195.44C224.767 195.067 225.547 194.88 226.467 194.88V196.34H226.087C225.073 196.34 224.26 196.613 223.647 197.16C223.033 197.707 222.727 198.62 222.727 199.9V206H221.327V195.08H222.727V197.02ZM238.453 199.98C238.453 200.46 238.439 200.827 238.413 201.08H229.353C229.393 201.907 229.593 202.613 229.953 203.2C230.313 203.787 230.786 204.233 231.373 204.54C231.959 204.833 232.599 204.98 233.293 204.98C234.199 204.98 234.959 204.76 235.573 204.32C236.199 203.88 236.613 203.287 236.813 202.54H238.293C238.026 203.607 237.453 204.48 236.573 205.16C235.706 205.827 234.613 206.16 233.293 206.16C232.266 206.16 231.346 205.933 230.533 205.48C229.719 205.013 229.079 204.36 228.613 203.52C228.159 202.667 227.933 201.673 227.933 200.54C227.933 199.407 228.159 198.413 228.613 197.56C229.066 196.707 229.699 196.053 230.513 195.6C231.326 195.147 232.253 194.92 233.293 194.92C234.333 194.92 235.239 195.147 236.013 195.6C236.799 196.053 237.399 196.667 237.813 197.44C238.239 198.2 238.453 199.047 238.453 199.98ZM237.033 199.94C237.046 199.127 236.879 198.433 236.533 197.86C236.199 197.287 235.739 196.853 235.153 196.56C234.566 196.267 233.926 196.12 233.233 196.12C232.193 196.12 231.306 196.453 230.573 197.12C229.839 197.787 229.433 198.727 229.353 199.94H237.033ZM240.374 200.54C240.374 199.407 240.601 198.42 241.054 197.58C241.507 196.727 242.134 196.073 242.934 195.62C243.734 195.153 244.647 194.92 245.674 194.92C247.021 194.92 248.127 195.253 248.994 195.92C249.874 196.587 250.441 197.493 250.694 198.64H249.194C249.007 197.853 248.601 197.24 247.974 196.8C247.361 196.347 246.594 196.12 245.674 196.12C244.941 196.12 244.281 196.287 243.694 196.62C243.107 196.953 242.641 197.453 242.294 198.12C241.961 198.773 241.794 199.58 241.794 200.54C241.794 201.5 241.961 202.313 242.294 202.98C242.641 203.647 243.107 204.147 243.694 204.48C244.281 204.813 244.941 204.98 245.674 204.98C246.594 204.98 247.361 204.76 247.974 204.32C248.601 203.867 249.007 203.24 249.194 202.44H250.694C250.441 203.56 249.874 204.46 248.994 205.14C248.114 205.82 247.007 206.16 245.674 206.16C244.647 206.16 243.734 205.933 242.934 205.48C242.134 205.013 241.507 204.36 241.054 203.52C240.601 202.667 240.374 201.673 240.374 200.54ZM253.98 193.02C253.7 193.02 253.46 192.92 253.26 192.72C253.06 192.52 252.96 192.273 252.96 191.98C252.96 191.687 253.06 191.447 253.26 191.26C253.46 191.06 253.7 190.96 253.98 190.96C254.26 190.96 254.5 191.06 254.7 191.26C254.9 191.447 255 191.687 255 191.98C255 192.273 254.9 192.52 254.7 192.72C254.5 192.92 254.26 193.02 253.98 193.02ZM254.68 195.08V206H253.28V195.08H254.68ZM261.61 206.16C260.357 206.16 259.33 205.873 258.53 205.3C257.743 204.713 257.303 203.92 257.21 202.92H258.65C258.717 203.533 259.003 204.033 259.51 204.42C260.03 204.793 260.723 204.98 261.59 204.98C262.35 204.98 262.943 204.8 263.37 204.44C263.81 204.08 264.03 203.633 264.03 203.1C264.03 202.727 263.91 202.42 263.67 202.18C263.43 201.94 263.123 201.753 262.75 201.62C262.39 201.473 261.897 201.32 261.27 201.16C260.457 200.947 259.797 200.733 259.29 200.52C258.783 200.307 258.35 199.993 257.99 199.58C257.643 199.153 257.47 198.587 257.47 197.88C257.47 197.347 257.63 196.853 257.95 196.4C258.27 195.947 258.723 195.587 259.31 195.32C259.897 195.053 260.563 194.92 261.31 194.92C262.483 194.92 263.43 195.22 264.15 195.82C264.87 196.407 265.257 197.22 265.31 198.26H263.91C263.87 197.62 263.617 197.107 263.15 196.72C262.697 196.32 262.07 196.12 261.27 196.12C260.563 196.12 259.99 196.287 259.55 196.62C259.11 196.953 258.89 197.367 258.89 197.86C258.89 198.287 259.017 198.64 259.27 198.92C259.537 199.187 259.863 199.4 260.25 199.56C260.637 199.707 261.157 199.873 261.81 200.06C262.597 200.273 263.223 200.48 263.69 200.68C264.157 200.88 264.557 201.173 264.89 201.56C265.223 201.947 265.397 202.46 265.41 203.1C265.41 203.687 265.25 204.213 264.93 204.68C264.61 205.133 264.163 205.493 263.59 205.76C263.017 206.027 262.357 206.16 261.61 206.16ZM267.405 200.52C267.405 199.4 267.625 198.42 268.065 197.58C268.519 196.727 269.139 196.073 269.925 195.62C270.725 195.153 271.625 194.92 272.625 194.92C273.665 194.92 274.559 195.16 275.305 195.64C276.065 196.12 276.612 196.733 276.945 197.48V195.08H278.345V206H276.945V203.58C276.599 204.327 276.045 204.947 275.285 205.44C274.539 205.92 273.645 206.16 272.605 206.16C271.619 206.16 270.725 205.927 269.925 205.46C269.139 204.993 268.519 204.333 268.065 203.48C267.625 202.627 267.405 201.64 267.405 200.52ZM276.945 200.54C276.945 199.66 276.765 198.887 276.405 198.22C276.045 197.553 275.552 197.04 274.925 196.68C274.312 196.32 273.632 196.14 272.885 196.14C272.112 196.14 271.419 196.313 270.805 196.66C270.192 197.007 269.705 197.513 269.345 198.18C268.999 198.833 268.825 199.613 268.825 200.52C268.825 201.413 268.999 202.2 269.345 202.88C269.705 203.547 270.192 204.06 270.805 204.42C271.419 204.767 272.112 204.94 272.885 204.94C273.632 204.94 274.312 204.76 274.925 204.4C275.552 204.04 276.045 203.527 276.405 202.86C276.765 202.193 276.945 201.42 276.945 200.54ZM288.41 197.48C288.756 196.747 289.303 196.14 290.05 195.66C290.81 195.167 291.71 194.92 292.75 194.92C293.736 194.92 294.623 195.153 295.41 195.62C296.21 196.073 296.83 196.727 297.27 197.58C297.723 198.42 297.95 199.4 297.95 200.52C297.95 201.64 297.723 202.627 297.27 203.48C296.83 204.333 296.21 204.993 295.41 205.46C294.623 205.927 293.736 206.16 292.75 206.16C291.723 206.16 290.83 205.92 290.07 205.44C289.31 204.947 288.756 204.333 288.41 203.6V211.16H287.03V195.08H288.41V197.48ZM296.53 200.52C296.53 199.613 296.35 198.833 295.99 198.18C295.643 197.513 295.163 197.007 294.55 196.66C293.936 196.313 293.243 196.14 292.47 196.14C291.723 196.14 291.036 196.32 290.41 196.68C289.796 197.04 289.31 197.553 288.95 198.22C288.59 198.887 288.41 199.66 288.41 200.54C288.41 201.42 288.59 202.193 288.95 202.86C289.31 203.527 289.796 204.04 290.41 204.4C291.036 204.76 291.723 204.94 292.47 204.94C293.243 204.94 293.936 204.767 294.55 204.42C295.163 204.06 295.643 203.547 295.99 202.88C296.35 202.2 296.53 201.413 296.53 200.52ZM299.886 200.52C299.886 199.4 300.106 198.42 300.546 197.58C300.999 196.727 301.619 196.073 302.406 195.62C303.206 195.153 304.106 194.92 305.106 194.92C306.146 194.92 307.039 195.16 307.786 195.64C308.546 196.12 309.092 196.733 309.426 197.48V195.08H310.826V206H309.426V203.58C309.079 204.327 308.526 204.947 307.766 205.44C307.019 205.92 306.126 206.16 305.086 206.16C304.099 206.16 303.206 205.927 302.406 205.46C301.619 204.993 300.999 204.333 300.546 203.48C300.106 202.627 299.886 201.64 299.886 200.52ZM309.426 200.54C309.426 199.66 309.246 198.887 308.886 198.22C308.526 197.553 308.032 197.04 307.406 196.68C306.792 196.32 306.112 196.14 305.366 196.14C304.592 196.14 303.899 196.313 303.286 196.66C302.672 197.007 302.186 197.513 301.826 198.18C301.479 198.833 301.306 199.613 301.306 200.52C301.306 201.413 301.479 202.2 301.826 202.88C302.186 203.547 302.672 204.06 303.286 204.42C303.899 204.767 304.592 204.94 305.366 204.94C306.112 204.94 306.792 204.76 307.406 204.4C308.032 204.04 308.526 203.527 308.886 202.86C309.246 202.193 309.426 201.42 309.426 200.54ZM315.422 197.02C315.729 196.34 316.195 195.813 316.822 195.44C317.462 195.067 318.242 194.88 319.162 194.88V196.34H318.782C317.769 196.34 316.955 196.613 316.342 197.16C315.729 197.707 315.422 198.62 315.422 199.9V206H314.022V195.08H315.422V197.02ZM320.628 200.52C320.628 199.4 320.848 198.42 321.288 197.58C321.741 196.727 322.361 196.073 323.148 195.62C323.948 195.153 324.848 194.92 325.848 194.92C326.888 194.92 327.781 195.16 328.528 195.64C329.288 196.12 329.835 196.733 330.168 197.48V195.08H331.568V206H330.168V203.58C329.821 204.327 329.268 204.947 328.508 205.44C327.761 205.92 326.868 206.16 325.828 206.16C324.841 206.16 323.948 205.927 323.148 205.46C322.361 204.993 321.741 204.333 321.288 203.48C320.848 202.627 320.628 201.64 320.628 200.52ZM330.168 200.54C330.168 199.66 329.988 198.887 329.628 198.22C329.268 197.553 328.775 197.04 328.148 196.68C327.535 196.32 326.855 196.14 326.108 196.14C325.335 196.14 324.641 196.313 324.028 196.66C323.415 197.007 322.928 197.513 322.568 198.18C322.221 198.833 322.048 199.613 322.048 200.52C322.048 201.413 322.221 202.2 322.568 202.88C322.928 203.547 323.415 204.06 324.028 204.42C324.641 204.767 325.335 204.94 326.108 204.94C326.855 204.94 327.535 204.76 328.148 204.4C328.775 204.04 329.268 203.527 329.628 202.86C329.988 202.193 330.168 201.42 330.168 200.54ZM41.38 238.16C40.3533 238.16 39.4267 237.933 38.6 237.48C37.7867 237.013 37.14 236.36 36.66 235.52C36.1933 234.667 35.96 233.673 35.96 232.54C35.96 231.407 36.2 230.42 36.68 229.58C37.16 228.727 37.8133 228.073 38.64 227.62C39.4667 227.153 40.3933 226.92 41.42 226.92C42.4467 226.92 43.3733 227.153 44.2 227.62C45.04 228.073 45.6933 228.727 46.16 229.58C46.64 230.42 46.88 231.407 46.88 232.54C46.88 233.66 46.64 234.647 46.16 235.5C45.68 236.353 45.02 237.013 44.18 237.48C43.34 237.933 42.4067 238.16 41.38 238.16ZM41.38 236.94C42.1 236.94 42.7667 236.78 43.38 236.46C43.9933 236.127 44.4867 235.633 44.86 234.98C45.2467 234.313 45.44 233.5 45.44 232.54C45.44 231.58 45.2533 230.773 44.88 230.12C44.5067 229.453 44.0133 228.96 43.4 228.64C42.7867 228.307 42.12 228.14 41.4 228.14C40.68 228.14 40.0133 228.307 39.4 228.64C38.7867 228.96 38.2933 229.453 37.92 230.12C37.56 230.773 37.38 231.58 37.38 232.54C37.38 233.5 37.56 234.313 37.92 234.98C38.2933 235.633 38.78 236.127 39.38 236.46C39.9933 236.78 40.66 236.94 41.38 236.94ZM58.6803 238.16C57.427 238.16 56.4003 237.873 55.6003 237.3C54.8136 236.713 54.3736 235.92 54.2803 234.92H55.7203C55.787 235.533 56.0736 236.033 56.5803 236.42C57.1003 236.793 57.7936 236.98 58.6603 236.98C59.4203 236.98 60.0136 236.8 60.4403 236.44C60.8803 236.08 61.1003 235.633 61.1003 235.1C61.1003 234.727 60.9803 234.42 60.7403 234.18C60.5003 233.94 60.1936 233.753 59.8203 233.62C59.4603 233.473 58.967 233.32 58.3403 233.16C57.527 232.947 56.867 232.733 56.3603 232.52C55.8536 232.307 55.4203 231.993 55.0603 231.58C54.7136 231.153 54.5403 230.587 54.5403 229.88C54.5403 229.347 54.7003 228.853 55.0203 228.4C55.3403 227.947 55.7936 227.587 56.3803 227.32C56.967 227.053 57.6336 226.92 58.3803 226.92C59.5536 226.92 60.5003 227.22 61.2203 227.82C61.9403 228.407 62.327 229.22 62.3803 230.26H60.9803C60.9403 229.62 60.687 229.107 60.2203 228.72C59.767 228.32 59.1403 228.12 58.3403 228.12C57.6336 228.12 57.0603 228.287 56.6203 228.62C56.1803 228.953 55.9603 229.367 55.9603 229.86C55.9603 230.287 56.087 230.64 56.3403 230.92C56.607 231.187 56.9336 231.4 57.3203 231.56C57.707 231.707 58.227 231.873 58.8803 232.06C59.667 232.273 60.2936 232.48 60.7603 232.68C61.227 232.88 61.627 233.173 61.9603 233.56C62.2936 233.947 62.467 234.46 62.4803 235.1C62.4803 235.687 62.3203 236.213 62.0003 236.68C61.6803 237.133 61.2336 237.493 60.6603 237.76C60.087 238.027 59.427 238.16 58.6803 238.16ZM74.9956 231.98C74.9956 232.46 74.9823 232.827 74.9556 233.08H65.8956C65.9356 233.907 66.1356 234.613 66.4956 235.2C66.8556 235.787 67.329 236.233 67.9156 236.54C68.5023 236.833 69.1423 236.98 69.8356 236.98C70.7423 236.98 71.5023 236.76 72.1156 236.32C72.7423 235.88 73.1556 235.287 73.3556 234.54H74.8356C74.569 235.607 73.9956 236.48 73.1156 237.16C72.249 237.827 71.1556 238.16 69.8356 238.16C68.809 238.16 67.889 237.933 67.0756 237.48C66.2623 237.013 65.6223 236.36 65.1556 235.52C64.7023 234.667 64.4756 233.673 64.4756 232.54C64.4756 231.407 64.7023 230.413 65.1556 229.56C65.609 228.707 66.2423 228.053 67.0556 227.6C67.869 227.147 68.7956 226.92 69.8356 226.92C70.8756 226.92 71.7823 227.147 72.5556 227.6C73.3423 228.053 73.9423 228.667 74.3556 229.44C74.7823 230.2 74.9956 231.047 74.9956 231.98ZM73.5756 231.94C73.589 231.127 73.4223 230.433 73.0756 229.86C72.7423 229.287 72.2823 228.853 71.6956 228.56C71.109 228.267 70.469 228.12 69.7756 228.12C68.7356 228.12 67.849 228.453 67.1156 229.12C66.3823 229.787 65.9756 230.727 65.8956 231.94H73.5756ZM87.017 227.08V238H85.617V236.08C85.297 236.76 84.8037 237.28 84.137 237.64C83.4704 238 82.7237 238.18 81.897 238.18C80.5904 238.18 79.5237 237.78 78.697 236.98C77.8704 236.167 77.457 234.993 77.457 233.46V227.08H78.837V233.3C78.837 234.487 79.1304 235.393 79.717 236.02C80.317 236.647 81.1304 236.96 82.157 236.96C83.2104 236.96 84.0504 236.627 84.677 235.96C85.3037 235.293 85.617 234.313 85.617 233.02V227.08H87.017ZM100.822 226.88C102.128 226.88 103.195 227.287 104.022 228.1C104.848 228.9 105.262 230.067 105.262 231.6V238H103.882V231.76C103.882 230.573 103.582 229.667 102.982 229.04C102.395 228.413 101.588 228.1 100.562 228.1C99.5082 228.1 98.6682 228.433 98.0416 229.1C97.4149 229.767 97.1016 230.747 97.1016 232.04V238H95.7016V227.08H97.1016V228.94C97.4482 228.273 97.9482 227.767 98.6016 227.42C99.2549 227.06 99.9949 226.88 100.822 226.88ZM118.238 231.98C118.238 232.46 118.224 232.827 118.198 233.08H109.138C109.178 233.907 109.378 234.613 109.738 235.2C110.098 235.787 110.571 236.233 111.158 236.54C111.744 236.833 112.384 236.98 113.078 236.98C113.984 236.98 114.744 236.76 115.358 236.32C115.984 235.88 116.398 235.287 116.598 234.54H118.078C117.811 235.607 117.238 236.48 116.358 237.16C115.491 237.827 114.398 238.16 113.078 238.16C112.051 238.16 111.131 237.933 110.318 237.48C109.504 237.013 108.864 236.36 108.398 235.52C107.944 234.667 107.718 233.673 107.718 232.54C107.718 231.407 107.944 230.413 108.398 229.56C108.851 228.707 109.484 228.053 110.298 227.6C111.111 227.147 112.038 226.92 113.078 226.92C114.118 226.92 115.024 227.147 115.798 227.6C116.584 228.053 117.184 228.667 117.598 229.44C118.024 230.2 118.238 231.047 118.238 231.98ZM116.818 231.94C116.831 231.127 116.664 230.433 116.318 229.86C115.984 229.287 115.524 228.853 114.938 228.56C114.351 228.267 113.711 228.12 113.018 228.12C111.978 228.12 111.091 228.453 110.358 229.12C109.624 229.787 109.218 230.727 109.138 231.94H116.818ZM125.379 226.92C126.406 226.92 127.299 227.16 128.059 227.64C128.819 228.12 129.366 228.727 129.699 229.46V227.08H131.099V238.28C131.099 239.28 130.879 240.167 130.439 240.94C130.013 241.713 129.413 242.307 128.639 242.72C127.866 243.147 126.986 243.36 125.999 243.36C124.599 243.36 123.433 243.027 122.499 242.36C121.579 241.693 121.006 240.787 120.779 239.64H122.159C122.399 240.4 122.853 241.007 123.519 241.46C124.199 241.913 125.026 242.14 125.999 242.14C126.706 242.14 127.339 241.987 127.899 241.68C128.459 241.387 128.899 240.947 129.219 240.36C129.539 239.773 129.699 239.08 129.699 238.28V235.58C129.353 236.327 128.799 236.947 128.039 237.44C127.293 237.92 126.406 238.16 125.379 238.16C124.379 238.16 123.479 237.927 122.679 237.46C121.893 236.993 121.273 236.333 120.819 235.48C120.379 234.627 120.159 233.64 120.159 232.52C120.159 231.4 120.379 230.42 120.819 229.58C121.273 228.727 121.893 228.073 122.679 227.62C123.479 227.153 124.379 226.92 125.379 226.92ZM129.699 232.54C129.699 231.66 129.519 230.887 129.159 230.22C128.799 229.553 128.306 229.04 127.679 228.68C127.066 228.32 126.386 228.14 125.639 228.14C124.866 228.14 124.173 228.313 123.559 228.66C122.946 229.007 122.459 229.513 122.099 230.18C121.753 230.833 121.579 231.613 121.579 232.52C121.579 233.413 121.753 234.2 122.099 234.88C122.459 235.547 122.946 236.06 123.559 236.42C124.173 236.767 124.866 236.94 125.639 236.94C126.386 236.94 127.066 236.76 127.679 236.4C128.306 236.04 128.799 235.527 129.159 234.86C129.519 234.193 129.699 233.42 129.699 232.54ZM139.075 238.16C138.049 238.16 137.122 237.933 136.295 237.48C135.482 237.013 134.835 236.36 134.355 235.52C133.889 234.667 133.655 233.673 133.655 232.54C133.655 231.407 133.895 230.42 134.375 229.58C134.855 228.727 135.509 228.073 136.335 227.62C137.162 227.153 138.089 226.92 139.115 226.92C140.142 226.92 141.069 227.153 141.895 227.62C142.735 228.073 143.389 228.727 143.855 229.58C144.335 230.42 144.575 231.407 144.575 232.54C144.575 233.66 144.335 234.647 143.855 235.5C143.375 236.353 142.715 237.013 141.875 237.48C141.035 237.933 140.102 238.16 139.075 238.16ZM139.075 236.94C139.795 236.94 140.462 236.78 141.075 236.46C141.689 236.127 142.182 235.633 142.555 234.98C142.942 234.313 143.135 233.5 143.135 232.54C143.135 231.58 142.949 230.773 142.575 230.12C142.202 229.453 141.709 228.96 141.095 228.64C140.482 228.307 139.815 228.14 139.095 228.14C138.375 228.14 137.709 228.307 137.095 228.64C136.482 228.96 135.989 229.453 135.615 230.12C135.255 230.773 135.075 231.58 135.075 232.54C135.075 233.5 135.255 234.313 135.615 234.98C135.989 235.633 136.475 236.127 137.075 236.46C137.689 236.78 138.355 236.94 139.075 236.94ZM140.995 223.76L136.895 226.14V225.06L140.995 222.5V223.76ZM146.487 232.54C146.487 231.407 146.714 230.42 147.167 229.58C147.621 228.727 148.247 228.073 149.047 227.62C149.847 227.153 150.761 226.92 151.787 226.92C153.134 226.92 154.241 227.253 155.107 227.92C155.987 228.587 156.554 229.493 156.807 230.64H155.307C155.121 229.853 154.714 229.24 154.087 228.8C153.474 228.347 152.707 228.12 151.787 228.12C151.054 228.12 150.394 228.287 149.807 228.62C149.221 228.953 148.754 229.453 148.407 230.12C148.074 230.773 147.907 231.58 147.907 232.54C147.907 233.5 148.074 234.313 148.407 234.98C148.754 235.647 149.221 236.147 149.807 236.48C150.394 236.813 151.054 236.98 151.787 236.98C152.707 236.98 153.474 236.76 154.087 236.32C154.714 235.867 155.121 235.24 155.307 234.44H156.807C156.554 235.56 155.987 236.46 155.107 237.14C154.227 237.82 153.121 238.16 151.787 238.16C150.761 238.16 149.847 237.933 149.047 237.48C148.247 237.013 147.621 236.36 147.167 235.52C146.714 234.667 146.487 233.673 146.487 232.54ZM160.093 225.02C159.813 225.02 159.573 224.92 159.373 224.72C159.173 224.52 159.073 224.273 159.073 223.98C159.073 223.687 159.173 223.447 159.373 223.26C159.573 223.06 159.813 222.96 160.093 222.96C160.373 222.96 160.613 223.06 160.813 223.26C161.013 223.447 161.113 223.687 161.113 223.98C161.113 224.273 161.013 224.52 160.813 224.72C160.613 224.92 160.373 225.02 160.093 225.02ZM160.793 227.08V238H159.393V227.08H160.793ZM168.743 238.16C167.717 238.16 166.79 237.933 165.963 237.48C165.15 237.013 164.503 236.36 164.023 235.52C163.557 234.667 163.323 233.673 163.323 232.54C163.323 231.407 163.563 230.42 164.043 229.58C164.523 228.727 165.177 228.073 166.003 227.62C166.83 227.153 167.757 226.92 168.783 226.92C169.81 226.92 170.737 227.153 171.563 227.62C172.403 228.073 173.057 228.727 173.523 229.58C174.003 230.42 174.243 231.407 174.243 232.54C174.243 233.66 174.003 234.647 173.523 235.5C173.043 236.353 172.383 237.013 171.543 237.48C170.703 237.933 169.77 238.16 168.743 238.16ZM168.743 236.94C169.463 236.94 170.13 236.78 170.743 236.46C171.357 236.127 171.85 235.633 172.223 234.98C172.61 234.313 172.803 233.5 172.803 232.54C172.803 231.58 172.617 230.773 172.243 230.12C171.87 229.453 171.377 228.96 170.763 228.64C170.15 228.307 169.483 228.14 168.763 228.14C168.043 228.14 167.377 228.307 166.763 228.64C166.15 228.96 165.657 229.453 165.283 230.12C164.923 230.773 164.743 231.58 164.743 232.54C164.743 233.5 164.923 234.313 165.283 234.98C165.657 235.633 166.143 236.127 166.743 236.46C167.357 236.78 168.023 236.94 168.743 236.94ZM178.675 224.02L178.495 234.3H177.315L177.155 224.02H178.675ZM177.975 238.1C177.682 238.1 177.435 238 177.235 237.8C177.049 237.6 176.955 237.353 176.955 237.06C176.955 236.767 177.049 236.527 177.235 236.34C177.435 236.14 177.682 236.04 177.975 236.04C178.255 236.04 178.489 236.14 178.675 236.34C178.875 236.527 178.975 236.767 178.975 237.06C178.975 237.353 178.875 237.6 178.675 237.8C178.489 238 178.255 238.1 177.975 238.1Z" fill="#131517"/>
<path d="M64 300.86H69.02V302H62.6V288.02H64V300.86ZM71.718 289.02C71.438 289.02 71.198 288.92 70.998 288.72C70.798 288.52 70.698 288.273 70.698 287.98C70.698 287.687 70.798 287.447 70.998 287.26C71.198 287.06 71.438 286.96 71.718 286.96C71.998 286.96 72.238 287.06 72.438 287.26C72.638 287.447 72.738 287.687 72.738 287.98C72.738 288.273 72.638 288.52 72.438 288.72C72.238 288.92 71.998 289.02 71.718 289.02ZM72.418 291.08V302H71.018V291.08H72.418ZM88.5883 290.88C89.8683 290.88 90.9083 291.287 91.7083 292.1C92.5216 292.9 92.9283 294.067 92.9283 295.6V302H91.5483V295.76C91.5483 294.573 91.2616 293.667 90.6883 293.04C90.1149 292.413 89.3349 292.1 88.3483 292.1C87.3216 292.1 86.5016 292.44 85.8883 293.12C85.2749 293.8 84.9683 294.787 84.9683 296.08V302H83.5883V295.76C83.5883 294.573 83.3016 293.667 82.7283 293.04C82.1549 292.413 81.3683 292.1 80.3683 292.1C79.3416 292.1 78.5216 292.44 77.9083 293.12C77.2949 293.8 76.9883 294.787 76.9883 296.08V302H75.5883V291.08H76.9883V292.96C77.3349 292.28 77.8283 291.767 78.4683 291.42C79.1083 291.06 79.8216 290.88 80.6083 290.88C81.5549 290.88 82.3816 291.107 83.0883 291.56C83.8083 292.013 84.3283 292.68 84.6483 293.56C84.9416 292.693 85.4416 292.033 86.1483 291.58C86.8683 291.113 87.6816 290.88 88.5883 290.88ZM97.4175 293.48C97.7642 292.747 98.3108 292.14 99.0575 291.66C99.8175 291.167 100.718 290.92 101.758 290.92C102.744 290.92 103.631 291.153 104.418 291.62C105.218 292.073 105.838 292.727 106.278 293.58C106.731 294.42 106.958 295.4 106.958 296.52C106.958 297.64 106.731 298.627 106.278 299.48C105.838 300.333 105.218 300.993 104.418 301.46C103.631 301.927 102.744 302.16 101.758 302.16C100.731 302.16 99.8375 301.92 99.0775 301.44C98.3175 300.947 97.7642 300.333 97.4175 299.6V307.16H96.0375V291.08H97.4175V293.48ZM105.538 296.52C105.538 295.613 105.358 294.833 104.997 294.18C104.651 293.513 104.171 293.007 103.558 292.66C102.944 292.313 102.251 292.14 101.478 292.14C100.731 292.14 100.044 292.32 99.4175 292.68C98.8042 293.04 98.3175 293.553 97.9575 294.22C97.5975 294.887 97.4175 295.66 97.4175 296.54C97.4175 297.42 97.5975 298.193 97.9575 298.86C98.3175 299.527 98.8042 300.04 99.4175 300.4C100.044 300.76 100.731 300.94 101.478 300.94C102.251 300.94 102.944 300.767 103.558 300.42C104.171 300.06 104.651 299.547 104.997 298.88C105.358 298.2 105.538 297.413 105.538 296.52ZM119.414 295.98C119.414 296.46 119.4 296.827 119.374 297.08H110.314C110.354 297.907 110.554 298.613 110.914 299.2C111.274 299.787 111.747 300.233 112.334 300.54C112.92 300.833 113.56 300.98 114.254 300.98C115.16 300.98 115.92 300.76 116.534 300.32C117.16 299.88 117.574 299.287 117.774 298.54H119.254C118.987 299.607 118.414 300.48 117.534 301.16C116.667 301.827 115.574 302.16 114.254 302.16C113.227 302.16 112.307 301.933 111.494 301.48C110.68 301.013 110.04 300.36 109.574 299.52C109.12 298.667 108.894 297.673 108.894 296.54C108.894 295.407 109.12 294.413 109.574 293.56C110.027 292.707 110.66 292.053 111.474 291.6C112.287 291.147 113.214 290.92 114.254 290.92C115.294 290.92 116.2 291.147 116.974 291.6C117.76 292.053 118.36 292.667 118.774 293.44C119.2 294.2 119.414 295.047 119.414 295.98ZM117.994 295.94C118.007 295.127 117.84 294.433 117.494 293.86C117.16 293.287 116.7 292.853 116.114 292.56C115.527 292.267 114.887 292.12 114.194 292.12C113.154 292.12 112.267 292.453 111.534 293.12C110.8 293.787 110.394 294.727 110.314 295.94H117.994ZM122.715 300.84H128.435V302H121.115V300.84L126.735 292.24H121.215V291.08H128.335V292.24L122.715 300.84ZM130.163 296.52C130.163 295.4 130.383 294.42 130.823 293.58C131.276 292.727 131.896 292.073 132.683 291.62C133.483 291.153 134.383 290.92 135.383 290.92C136.423 290.92 137.316 291.16 138.063 291.64C138.823 292.12 139.37 292.733 139.703 293.48V291.08H141.103V302H139.703V299.58C139.356 300.327 138.803 300.947 138.043 301.44C137.296 301.92 136.403 302.16 135.363 302.16C134.376 302.16 133.483 301.927 132.683 301.46C131.896 300.993 131.276 300.333 130.823 299.48C130.383 298.627 130.163 297.64 130.163 296.52ZM139.703 296.54C139.703 295.66 139.523 294.887 139.163 294.22C138.803 293.553 138.31 293.04 137.683 292.68C137.07 292.32 136.39 292.14 135.643 292.14C134.87 292.14 134.176 292.313 133.563 292.66C132.95 293.007 132.463 293.513 132.103 294.18C131.756 294.833 131.583 295.613 131.583 296.52C131.583 297.413 131.756 298.2 132.103 298.88C132.463 299.547 132.95 300.06 133.563 300.42C134.176 300.767 134.87 300.94 135.643 300.94C136.39 300.94 137.07 300.76 137.683 300.4C138.31 300.04 138.803 299.527 139.163 298.86C139.523 298.193 139.703 297.42 139.703 296.54ZM149.148 296.52C149.148 295.4 149.374 294.42 149.828 293.58C150.281 292.727 150.901 292.073 151.688 291.62C152.488 291.153 153.388 290.92 154.388 290.92C155.348 290.92 156.214 291.153 156.988 291.62C157.761 292.087 158.328 292.693 158.688 293.44V287.2H160.088V302H158.688V299.56C158.354 300.32 157.808 300.947 157.048 301.44C156.288 301.92 155.394 302.16 154.368 302.16C153.368 302.16 152.468 301.927 151.668 301.46C150.881 300.993 150.261 300.333 149.808 299.48C149.368 298.627 149.148 297.64 149.148 296.52ZM158.688 296.54C158.688 295.66 158.508 294.887 158.148 294.22C157.788 293.553 157.294 293.04 156.668 292.68C156.054 292.32 155.374 292.14 154.628 292.14C153.854 292.14 153.161 292.313 152.548 292.66C151.934 293.007 151.448 293.513 151.088 294.18C150.741 294.833 150.568 295.613 150.568 296.52C150.568 297.413 150.741 298.2 151.088 298.88C151.448 299.547 151.934 300.06 152.548 300.42C153.161 300.767 153.854 300.94 154.628 300.94C155.374 300.94 156.054 300.76 156.668 300.4C157.294 300.04 157.788 299.527 158.148 298.86C158.508 298.193 158.688 297.42 158.688 296.54ZM168.064 302.16C167.037 302.16 166.11 301.933 165.284 301.48C164.47 301.013 163.824 300.36 163.344 299.52C162.877 298.667 162.644 297.673 162.644 296.54C162.644 295.407 162.884 294.42 163.364 293.58C163.844 292.727 164.497 292.073 165.324 291.62C166.15 291.153 167.077 290.92 168.104 290.92C169.13 290.92 170.057 291.153 170.884 291.62C171.724 292.073 172.377 292.727 172.844 293.58C173.324 294.42 173.564 295.407 173.564 296.54C173.564 297.66 173.324 298.647 172.844 299.5C172.364 300.353 171.704 301.013 170.864 301.48C170.024 301.933 169.09 302.16 168.064 302.16ZM168.064 300.94C168.784 300.94 169.45 300.78 170.064 300.46C170.677 300.127 171.17 299.633 171.544 298.98C171.93 298.313 172.124 297.5 172.124 296.54C172.124 295.58 171.937 294.773 171.564 294.12C171.19 293.453 170.697 292.96 170.084 292.64C169.47 292.307 168.804 292.14 168.084 292.14C167.364 292.14 166.697 292.307 166.084 292.64C165.47 292.96 164.977 293.453 164.604 294.12C164.244 294.773 164.064 295.58 164.064 296.54C164.064 297.5 164.244 298.313 164.604 298.98C164.977 299.633 165.464 300.127 166.064 300.46C166.677 300.78 167.344 300.94 168.064 300.94ZM179.876 302.16C178.622 302.16 177.596 301.873 176.796 301.3C176.009 300.713 175.569 299.92 175.476 298.92H176.916C176.982 299.533 177.269 300.033 177.776 300.42C178.296 300.793 178.989 300.98 179.856 300.98C180.616 300.98 181.209 300.8 181.636 300.44C182.076 300.08 182.296 299.633 182.296 299.1C182.296 298.727 182.176 298.42 181.936 298.18C181.696 297.94 181.389 297.753 181.016 297.62C180.656 297.473 180.162 297.32 179.536 297.16C178.722 296.947 178.062 296.733 177.556 296.52C177.049 296.307 176.616 295.993 176.256 295.58C175.909 295.153 175.736 294.587 175.736 293.88C175.736 293.347 175.896 292.853 176.216 292.4C176.536 291.947 176.989 291.587 177.576 291.32C178.162 291.053 178.829 290.92 179.576 290.92C180.749 290.92 181.696 291.22 182.416 291.82C183.136 292.407 183.522 293.22 183.576 294.26H182.176C182.136 293.62 181.882 293.107 181.416 292.72C180.962 292.32 180.336 292.12 179.536 292.12C178.829 292.12 178.256 292.287 177.816 292.62C177.376 292.953 177.156 293.367 177.156 293.86C177.156 294.287 177.282 294.64 177.536 294.92C177.802 295.187 178.129 295.4 178.516 295.56C178.902 295.707 179.422 295.873 180.076 296.06C180.862 296.273 181.489 296.48 181.956 296.68C182.422 296.88 182.822 297.173 183.156 297.56C183.489 297.947 183.662 298.46 183.676 299.1C183.676 299.687 183.516 300.213 183.196 300.68C182.876 301.133 182.429 301.493 181.856 301.76C181.282 302.027 180.622 302.16 179.876 302.16ZM191.159 296.54C191.159 295.407 191.386 294.42 191.839 293.58C192.293 292.727 192.919 292.073 193.719 291.62C194.519 291.153 195.433 290.92 196.459 290.92C197.806 290.92 198.913 291.253 199.779 291.92C200.659 292.587 201.226 293.493 201.479 294.64H199.979C199.793 293.853 199.386 293.24 198.759 292.8C198.146 292.347 197.379 292.12 196.459 292.12C195.726 292.12 195.066 292.287 194.479 292.62C193.893 292.953 193.426 293.453 193.079 294.12C192.746 294.773 192.579 295.58 192.579 296.54C192.579 297.5 192.746 298.313 193.079 298.98C193.426 299.647 193.893 300.147 194.479 300.48C195.066 300.813 195.726 300.98 196.459 300.98C197.379 300.98 198.146 300.76 198.759 300.32C199.386 299.867 199.793 299.24 199.979 298.44H201.479C201.226 299.56 200.659 300.46 199.779 301.14C198.899 301.82 197.793 302.16 196.459 302.16C195.433 302.16 194.519 301.933 193.719 301.48C192.919 301.013 192.293 300.36 191.839 299.52C191.386 298.667 191.159 297.673 191.159 296.54ZM208.845 302.16C207.818 302.16 206.892 301.933 206.065 301.48C205.252 301.013 204.605 300.36 204.125 299.52C203.658 298.667 203.425 297.673 203.425 296.54C203.425 295.407 203.665 294.42 204.145 293.58C204.625 292.727 205.278 292.073 206.105 291.62C206.932 291.153 207.858 290.92 208.885 290.92C209.912 290.92 210.838 291.153 211.665 291.62C212.505 292.073 213.158 292.727 213.625 293.58C214.105 294.42 214.345 295.407 214.345 296.54C214.345 297.66 214.105 298.647 213.625 299.5C213.145 300.353 212.485 301.013 211.645 301.48C210.805 301.933 209.872 302.16 208.845 302.16ZM208.845 300.94C209.565 300.94 210.232 300.78 210.845 300.46C211.458 300.127 211.952 299.633 212.325 298.98C212.712 298.313 212.905 297.5 212.905 296.54C212.905 295.58 212.718 294.773 212.345 294.12C211.972 293.453 211.478 292.96 210.865 292.64C210.252 292.307 209.585 292.14 208.865 292.14C208.145 292.14 207.478 292.307 206.865 292.64C206.252 292.96 205.758 293.453 205.385 294.12C205.025 294.773 204.845 295.58 204.845 296.54C204.845 297.5 205.025 298.313 205.385 298.98C205.758 299.633 206.245 300.127 206.845 300.46C207.458 300.78 208.125 300.94 208.845 300.94ZM208.925 288.14L206.245 289.82V288.68L208.925 287.04L211.605 288.68V289.82L208.925 288.14ZM229.897 290.88C231.177 290.88 232.217 291.287 233.017 292.1C233.83 292.9 234.237 294.067 234.237 295.6V302H232.857V295.76C232.857 294.573 232.57 293.667 231.997 293.04C231.424 292.413 230.644 292.1 229.657 292.1C228.63 292.1 227.81 292.44 227.197 293.12C226.584 293.8 226.277 294.787 226.277 296.08V302H224.897V295.76C224.897 294.573 224.61 293.667 224.037 293.04C223.464 292.413 222.677 292.1 221.677 292.1C220.65 292.1 219.83 292.44 219.217 293.12C218.604 293.8 218.297 294.787 218.297 296.08V302H216.897V291.08H218.297V292.96C218.644 292.28 219.137 291.767 219.777 291.42C220.417 291.06 221.13 290.88 221.917 290.88C222.864 290.88 223.69 291.107 224.397 291.56C225.117 292.013 225.637 292.68 225.957 293.56C226.25 292.693 226.75 292.033 227.457 291.58C228.177 291.113 228.99 290.88 229.897 290.88ZM242.126 302.16C241.099 302.16 240.173 301.933 239.346 301.48C238.533 301.013 237.886 300.36 237.406 299.52C236.939 298.667 236.706 297.673 236.706 296.54C236.706 295.407 236.946 294.42 237.426 293.58C237.906 292.727 238.559 292.073 239.386 291.62C240.213 291.153 241.139 290.92 242.166 290.92C243.193 290.92 244.119 291.153 244.946 291.62C245.786 292.073 246.439 292.727 246.906 293.58C247.386 294.42 247.626 295.407 247.626 296.54C247.626 297.66 247.386 298.647 246.906 299.5C246.426 300.353 245.766 301.013 244.926 301.48C244.086 301.933 243.153 302.16 242.126 302.16ZM242.126 300.94C242.846 300.94 243.513 300.78 244.126 300.46C244.739 300.127 245.233 299.633 245.606 298.98C245.993 298.313 246.186 297.5 246.186 296.54C246.186 295.58 245.999 294.773 245.626 294.12C245.253 293.453 244.759 292.96 244.146 292.64C243.533 292.307 242.866 292.14 242.146 292.14C241.426 292.14 240.759 292.307 240.146 292.64C239.533 292.96 239.039 293.453 238.666 294.12C238.306 294.773 238.126 295.58 238.126 296.54C238.126 297.5 238.306 298.313 238.666 298.98C239.039 299.633 239.526 300.127 240.126 300.46C240.739 300.78 241.406 300.94 242.126 300.94ZM249.538 296.52C249.538 295.4 249.765 294.42 250.218 293.58C250.671 292.727 251.291 292.073 252.078 291.62C252.878 291.153 253.778 290.92 254.778 290.92C255.738 290.92 256.605 291.153 257.378 291.62C258.151 292.087 258.718 292.693 259.078 293.44V287.2H260.478V302H259.078V299.56C258.745 300.32 258.198 300.947 257.438 301.44C256.678 301.92 255.785 302.16 254.758 302.16C253.758 302.16 252.858 301.927 252.058 301.46C251.271 300.993 250.651 300.333 250.198 299.48C249.758 298.627 249.538 297.64 249.538 296.52ZM259.078 296.54C259.078 295.66 258.898 294.887 258.538 294.22C258.178 293.553 257.685 293.04 257.058 292.68C256.445 292.32 255.765 292.14 255.018 292.14C254.245 292.14 253.551 292.313 252.938 292.66C252.325 293.007 251.838 293.513 251.478 294.18C251.131 294.833 250.958 295.613 250.958 296.52C250.958 297.413 251.131 298.2 251.478 298.88C251.838 299.547 252.325 300.06 252.938 300.42C253.551 300.767 254.245 300.94 255.018 300.94C255.765 300.94 256.445 300.76 257.058 300.4C257.685 300.04 258.178 299.527 258.538 298.86C258.898 298.193 259.078 297.42 259.078 296.54ZM268.454 302.16C267.428 302.16 266.501 301.933 265.674 301.48C264.861 301.013 264.214 300.36 263.734 299.52C263.268 298.667 263.034 297.673 263.034 296.54C263.034 295.407 263.274 294.42 263.754 293.58C264.234 292.727 264.888 292.073 265.714 291.62C266.541 291.153 267.468 290.92 268.494 290.92C269.521 290.92 270.448 291.153 271.274 291.62C272.114 292.073 272.768 292.727 273.234 293.58C273.714 294.42 273.954 295.407 273.954 296.54C273.954 297.66 273.714 298.647 273.234 299.5C272.754 300.353 272.094 301.013 271.254 301.48C270.414 301.933 269.481 302.16 268.454 302.16ZM268.454 300.94C269.174 300.94 269.841 300.78 270.454 300.46C271.068 300.127 271.561 299.633 271.934 298.98C272.321 298.313 272.514 297.5 272.514 296.54C272.514 295.58 272.328 294.773 271.954 294.12C271.581 293.453 271.088 292.96 270.474 292.64C269.861 292.307 269.194 292.14 268.474 292.14C267.754 292.14 267.088 292.307 266.474 292.64C265.861 292.96 265.368 293.453 264.994 294.12C264.634 294.773 264.454 295.58 264.454 296.54C264.454 297.5 264.634 298.313 264.994 298.98C265.368 299.633 265.854 300.127 266.454 300.46C267.068 300.78 267.734 300.94 268.454 300.94ZM280.266 302.16C279.013 302.16 277.986 301.873 277.186 301.3C276.4 300.713 275.96 299.92 275.866 298.92H277.306C277.373 299.533 277.66 300.033 278.166 300.42C278.686 300.793 279.38 300.98 280.246 300.98C281.006 300.98 281.6 300.8 282.026 300.44C282.466 300.08 282.686 299.633 282.686 299.1C282.686 298.727 282.566 298.42 282.326 298.18C282.086 297.94 281.78 297.753 281.406 297.62C281.046 297.473 280.553 297.32 279.926 297.16C279.113 296.947 278.453 296.733 277.946 296.52C277.44 296.307 277.006 295.993 276.646 295.58C276.3 295.153 276.126 294.587 276.126 293.88C276.126 293.347 276.286 292.853 276.606 292.4C276.926 291.947 277.38 291.587 277.966 291.32C278.553 291.053 279.22 290.92 279.966 290.92C281.14 290.92 282.086 291.22 282.806 291.82C283.526 292.407 283.913 293.22 283.966 294.26H282.566C282.526 293.62 282.273 293.107 281.806 292.72C281.353 292.32 280.726 292.12 279.926 292.12C279.22 292.12 278.646 292.287 278.206 292.62C277.766 292.953 277.546 293.367 277.546 293.86C277.546 294.287 277.673 294.64 277.926 294.92C278.193 295.187 278.52 295.4 278.906 295.56C279.293 295.707 279.813 295.873 280.466 296.06C281.253 296.273 281.88 296.48 282.346 296.68C282.813 296.88 283.213 297.173 283.546 297.56C283.88 297.947 284.053 298.46 284.066 299.1C284.066 299.687 283.906 300.213 283.586 300.68C283.266 301.133 282.82 301.493 282.246 301.76C281.673 302.027 281.013 302.16 280.266 302.16Z" fill="#131517"/>
<rect x="35" y="290" width="10" height="10" rx="5" fill="#131517"/>
<path d="M64 348.86H69.02V350H62.6V336.02H64V348.86ZM71.718 337.02C71.438 337.02 71.198 336.92 70.998 336.72C70.798 336.52 70.698 336.273 70.698 335.98C70.698 335.687 70.798 335.447 70.998 335.26C71.198 335.06 71.438 334.96 71.718 334.96C71.998 334.96 72.238 335.06 72.438 335.26C72.638 335.447 72.738 335.687 72.738 335.98C72.738 336.273 72.638 336.52 72.438 336.72C72.238 336.92 71.998 337.02 71.718 337.02ZM72.418 339.08V350H71.018V339.08H72.418ZM88.5883 338.88C89.8683 338.88 90.9083 339.287 91.7083 340.1C92.5216 340.9 92.9283 342.067 92.9283 343.6V350H91.5483V343.76C91.5483 342.573 91.2616 341.667 90.6883 341.04C90.1149 340.413 89.3349 340.1 88.3483 340.1C87.3216 340.1 86.5016 340.44 85.8883 341.12C85.2749 341.8 84.9683 342.787 84.9683 344.08V350H83.5883V343.76C83.5883 342.573 83.3016 341.667 82.7283 341.04C82.1549 340.413 81.3683 340.1 80.3683 340.1C79.3416 340.1 78.5216 340.44 77.9083 341.12C77.2949 341.8 76.9883 342.787 76.9883 344.08V350H75.5883V339.08H76.9883V340.96C77.3349 340.28 77.8283 339.767 78.4683 339.42C79.1083 339.06 79.8216 338.88 80.6083 338.88C81.5549 338.88 82.3816 339.107 83.0883 339.56C83.8083 340.013 84.3283 340.68 84.6483 341.56C84.9416 340.693 85.4416 340.033 86.1483 339.58C86.8683 339.113 87.6816 338.88 88.5883 338.88ZM97.4175 341.48C97.7642 340.747 98.3108 340.14 99.0575 339.66C99.8175 339.167 100.718 338.92 101.758 338.92C102.744 338.92 103.631 339.153 104.418 339.62C105.218 340.073 105.838 340.727 106.278 341.58C106.731 342.42 106.958 343.4 106.958 344.52C106.958 345.64 106.731 346.627 106.278 347.48C105.838 348.333 105.218 348.993 104.418 349.46C103.631 349.927 102.744 350.16 101.758 350.16C100.731 350.16 99.8375 349.92 99.0775 349.44C98.3175 348.947 97.7642 348.333 97.4175 347.6V355.16H96.0375V339.08H97.4175V341.48ZM105.538 344.52C105.538 343.613 105.358 342.833 104.997 342.18C104.651 341.513 104.171 341.007 103.558 340.66C102.944 340.313 102.251 340.14 101.478 340.14C100.731 340.14 100.044 340.32 99.4175 340.68C98.8042 341.04 98.3175 341.553 97.9575 342.22C97.5975 342.887 97.4175 343.66 97.4175 344.54C97.4175 345.42 97.5975 346.193 97.9575 346.86C98.3175 347.527 98.8042 348.04 99.4175 348.4C100.044 348.76 100.731 348.94 101.478 348.94C102.251 348.94 102.944 348.767 103.558 348.42C104.171 348.06 104.651 347.547 104.997 346.88C105.358 346.2 105.538 345.413 105.538 344.52ZM119.414 343.98C119.414 344.46 119.4 344.827 119.374 345.08H110.314C110.354 345.907 110.554 346.613 110.914 347.2C111.274 347.787 111.747 348.233 112.334 348.54C112.92 348.833 113.56 348.98 114.254 348.98C115.16 348.98 115.92 348.76 116.534 348.32C117.16 347.88 117.574 347.287 117.774 346.54H119.254C118.987 347.607 118.414 348.48 117.534 349.16C116.667 349.827 115.574 350.16 114.254 350.16C113.227 350.16 112.307 349.933 111.494 349.48C110.68 349.013 110.04 348.36 109.574 347.52C109.12 346.667 108.894 345.673 108.894 344.54C108.894 343.407 109.12 342.413 109.574 341.56C110.027 340.707 110.66 340.053 111.474 339.6C112.287 339.147 113.214 338.92 114.254 338.92C115.294 338.92 116.2 339.147 116.974 339.6C117.76 340.053 118.36 340.667 118.774 341.44C119.2 342.2 119.414 343.047 119.414 343.98ZM117.994 343.94C118.007 343.127 117.84 342.433 117.494 341.86C117.16 341.287 116.7 340.853 116.114 340.56C115.527 340.267 114.887 340.12 114.194 340.12C113.154 340.12 112.267 340.453 111.534 341.12C110.8 341.787 110.394 342.727 110.314 343.94H117.994ZM122.715 348.84H128.435V350H121.115V348.84L126.735 340.24H121.215V339.08H128.335V340.24L122.715 348.84ZM130.163 344.52C130.163 343.4 130.383 342.42 130.823 341.58C131.276 340.727 131.896 340.073 132.683 339.62C133.483 339.153 134.383 338.92 135.383 338.92C136.423 338.92 137.316 339.16 138.063 339.64C138.823 340.12 139.37 340.733 139.703 341.48V339.08H141.103V350H139.703V347.58C139.356 348.327 138.803 348.947 138.043 349.44C137.296 349.92 136.403 350.16 135.363 350.16C134.376 350.16 133.483 349.927 132.683 349.46C131.896 348.993 131.276 348.333 130.823 347.48C130.383 346.627 130.163 345.64 130.163 344.52ZM139.703 344.54C139.703 343.66 139.523 342.887 139.163 342.22C138.803 341.553 138.31 341.04 137.683 340.68C137.07 340.32 136.39 340.14 135.643 340.14C134.87 340.14 134.176 340.313 133.563 340.66C132.95 341.007 132.463 341.513 132.103 342.18C131.756 342.833 131.583 343.613 131.583 344.52C131.583 345.413 131.756 346.2 132.103 346.88C132.463 347.547 132.95 348.06 133.563 348.42C134.176 348.767 134.87 348.94 135.643 348.94C136.39 348.94 137.07 348.76 137.683 348.4C138.31 348.04 138.803 347.527 139.163 346.86C139.523 346.193 139.703 345.42 139.703 344.54ZM159.668 343.98C159.668 344.46 159.654 344.827 159.628 345.08H150.568C150.608 345.907 150.808 346.613 151.168 347.2C151.528 347.787 152.001 348.233 152.588 348.54C153.174 348.833 153.814 348.98 154.508 348.98C155.414 348.98 156.174 348.76 156.788 348.32C157.414 347.88 157.828 347.287 158.028 346.54H159.508C159.241 347.607 158.668 348.48 157.788 349.16C156.921 349.827 155.828 350.16 154.508 350.16C153.481 350.16 152.561 349.933 151.748 349.48C150.934 349.013 150.294 348.36 149.828 347.52C149.374 346.667 149.148 345.673 149.148 344.54C149.148 343.407 149.374 342.413 149.828 341.56C150.281 340.707 150.914 340.053 151.728 339.6C152.541 339.147 153.468 338.92 154.508 338.92C155.548 338.92 156.454 339.147 157.228 339.6C158.014 340.053 158.614 340.667 159.028 341.44C159.454 342.2 159.668 343.047 159.668 343.98ZM158.248 343.94C158.261 343.127 158.094 342.433 157.748 341.86C157.414 341.287 156.954 340.853 156.368 340.56C155.781 340.267 155.141 340.12 154.448 340.12C153.408 340.12 152.521 340.453 151.788 341.12C151.054 341.787 150.648 342.727 150.568 343.94H158.248ZM167.949 350L165.129 345.6L162.409 350H160.929L164.449 344.54L160.969 339.08H162.549L165.329 343.42L168.029 339.08H169.489L166.009 344.48L169.529 350H167.949ZM173.248 340.26V347.04C173.248 347.707 173.375 348.167 173.628 348.42C173.881 348.673 174.328 348.8 174.968 348.8H176.248V350H174.748C173.761 350 173.028 349.773 172.548 349.32C172.068 348.853 171.828 348.093 171.828 347.04V340.26H170.308V339.08H171.828V336.34H173.248V339.08H176.248V340.26H173.248ZM188.437 343.98C188.437 344.46 188.424 344.827 188.397 345.08H179.337C179.377 345.907 179.577 346.613 179.937 347.2C180.297 347.787 180.77 348.233 181.357 348.54C181.944 348.833 182.584 348.98 183.277 348.98C184.184 348.98 184.944 348.76 185.557 348.32C186.184 347.88 186.597 347.287 186.797 346.54H188.277C188.01 347.607 187.437 348.48 186.557 349.16C185.69 349.827 184.597 350.16 183.277 350.16C182.25 350.16 181.33 349.933 180.517 349.48C179.704 349.013 179.064 348.36 178.597 347.52C178.144 346.667 177.917 345.673 177.917 344.54C177.917 343.407 178.144 342.413 178.597 341.56C179.05 340.707 179.684 340.053 180.497 339.6C181.31 339.147 182.237 338.92 183.277 338.92C184.317 338.92 185.224 339.147 185.997 339.6C186.784 340.053 187.384 340.667 187.797 341.44C188.224 342.2 188.437 343.047 188.437 343.98ZM187.017 343.94C187.03 343.127 186.864 342.433 186.517 341.86C186.184 341.287 185.724 340.853 185.137 340.56C184.55 340.267 183.91 340.12 183.217 340.12C182.177 340.12 181.29 340.453 180.557 341.12C179.824 341.787 179.417 342.727 179.337 343.94H187.017ZM192.398 341.02C192.705 340.34 193.172 339.813 193.798 339.44C194.438 339.067 195.218 338.88 196.138 338.88V340.34H195.758C194.745 340.34 193.932 340.613 193.318 341.16C192.705 341.707 192.398 342.62 192.398 343.9V350H190.998V339.08H192.398V341.02ZM203.365 338.88C204.671 338.88 205.738 339.287 206.565 340.1C207.391 340.9 207.805 342.067 207.805 343.6V350H206.425V343.76C206.425 342.573 206.125 341.667 205.525 341.04C204.938 340.413 204.131 340.1 203.105 340.1C202.051 340.1 201.211 340.433 200.585 341.1C199.958 341.767 199.645 342.747 199.645 344.04V350H198.245V339.08H199.645V340.94C199.991 340.273 200.491 339.767 201.145 339.42C201.798 339.06 202.538 338.88 203.365 338.88ZM210.261 344.52C210.261 343.4 210.481 342.42 210.921 341.58C211.374 340.727 211.994 340.073 212.781 339.62C213.581 339.153 214.481 338.92 215.481 338.92C216.521 338.92 217.414 339.16 218.161 339.64C218.921 340.12 219.467 340.733 219.801 341.48V339.08H221.201V350H219.801V347.58C219.454 348.327 218.901 348.947 218.141 349.44C217.394 349.92 216.501 350.16 215.461 350.16C214.474 350.16 213.581 349.927 212.781 349.46C211.994 348.993 211.374 348.333 210.921 347.48C210.481 346.627 210.261 345.64 210.261 344.52ZM219.801 344.54C219.801 343.66 219.621 342.887 219.261 342.22C218.901 341.553 218.407 341.04 217.781 340.68C217.167 340.32 216.487 340.14 215.741 340.14C214.967 340.14 214.274 340.313 213.661 340.66C213.047 341.007 212.561 341.513 212.201 342.18C211.854 342.833 211.681 343.613 211.681 344.52C211.681 345.413 211.854 346.2 212.201 346.88C212.561 347.547 213.047 348.06 213.661 348.42C214.274 348.767 214.967 348.94 215.741 348.94C216.487 348.94 217.167 348.76 217.781 348.4C218.407 348.04 218.901 347.527 219.261 346.86C219.621 346.193 219.801 345.42 219.801 344.54Z" fill="#131517"/>
<rect x="35" y="338" width="10" height="10" rx="5" fill="#131517"/>
<path d="M64 396.86H69.02V398H62.6V384.02H64V396.86ZM71.718 385.02C71.438 385.02 71.198 384.92 70.998 384.72C70.798 384.52 70.698 384.273 70.698 383.98C70.698 383.687 70.798 383.447 70.998 383.26C71.198 383.06 71.438 382.96 71.718 382.96C71.998 382.96 72.238 383.06 72.438 383.26C72.638 383.447 72.738 383.687 72.738 383.98C72.738 384.273 72.638 384.52 72.438 384.72C72.238 384.92 71.998 385.02 71.718 385.02ZM72.418 387.08V398H71.018V387.08H72.418ZM88.5883 386.88C89.8683 386.88 90.9083 387.287 91.7083 388.1C92.5216 388.9 92.9283 390.067 92.9283 391.6V398H91.5483V391.76C91.5483 390.573 91.2616 389.667 90.6883 389.04C90.1149 388.413 89.3349 388.1 88.3483 388.1C87.3216 388.1 86.5016 388.44 85.8883 389.12C85.2749 389.8 84.9683 390.787 84.9683 392.08V398H83.5883V391.76C83.5883 390.573 83.3016 389.667 82.7283 389.04C82.1549 388.413 81.3683 388.1 80.3683 388.1C79.3416 388.1 78.5216 388.44 77.9083 389.12C77.2949 389.8 76.9883 390.787 76.9883 392.08V398H75.5883V387.08H76.9883V388.96C77.3349 388.28 77.8283 387.767 78.4683 387.42C79.1083 387.06 79.8216 386.88 80.6083 386.88C81.5549 386.88 82.3816 387.107 83.0883 387.56C83.8083 388.013 84.3283 388.68 84.6483 389.56C84.9416 388.693 85.4416 388.033 86.1483 387.58C86.8683 387.113 87.6816 386.88 88.5883 386.88ZM97.4175 389.48C97.7642 388.747 98.3108 388.14 99.0575 387.66C99.8175 387.167 100.718 386.92 101.758 386.92C102.744 386.92 103.631 387.153 104.418 387.62C105.218 388.073 105.838 388.727 106.278 389.58C106.731 390.42 106.958 391.4 106.958 392.52C106.958 393.64 106.731 394.627 106.278 395.48C105.838 396.333 105.218 396.993 104.418 397.46C103.631 397.927 102.744 398.16 101.758 398.16C100.731 398.16 99.8375 397.92 99.0775 397.44C98.3175 396.947 97.7642 396.333 97.4175 395.6V403.16H96.0375V387.08H97.4175V389.48ZM105.538 392.52C105.538 391.613 105.358 390.833 104.997 390.18C104.651 389.513 104.171 389.007 103.558 388.66C102.944 388.313 102.251 388.14 101.478 388.14C100.731 388.14 100.044 388.32 99.4175 388.68C98.8042 389.04 98.3175 389.553 97.9575 390.22C97.5975 390.887 97.4175 391.66 97.4175 392.54C97.4175 393.42 97.5975 394.193 97.9575 394.86C98.3175 395.527 98.8042 396.04 99.4175 396.4C100.044 396.76 100.731 396.94 101.478 396.94C102.251 396.94 102.944 396.767 103.558 396.42C104.171 396.06 104.651 395.547 104.997 394.88C105.358 394.2 105.538 393.413 105.538 392.52ZM119.414 391.98C119.414 392.46 119.4 392.827 119.374 393.08H110.314C110.354 393.907 110.554 394.613 110.914 395.2C111.274 395.787 111.747 396.233 112.334 396.54C112.92 396.833 113.56 396.98 114.254 396.98C115.16 396.98 115.92 396.76 116.534 396.32C117.16 395.88 117.574 395.287 117.774 394.54H119.254C118.987 395.607 118.414 396.48 117.534 397.16C116.667 397.827 115.574 398.16 114.254 398.16C113.227 398.16 112.307 397.933 111.494 397.48C110.68 397.013 110.04 396.36 109.574 395.52C109.12 394.667 108.894 393.673 108.894 392.54C108.894 391.407 109.12 390.413 109.574 389.56C110.027 388.707 110.66 388.053 111.474 387.6C112.287 387.147 113.214 386.92 114.254 386.92C115.294 386.92 116.2 387.147 116.974 387.6C117.76 388.053 118.36 388.667 118.774 389.44C119.2 390.2 119.414 391.047 119.414 391.98ZM117.994 391.94C118.007 391.127 117.84 390.433 117.494 389.86C117.16 389.287 116.7 388.853 116.114 388.56C115.527 388.267 114.887 388.12 114.194 388.12C113.154 388.12 112.267 388.453 111.534 389.12C110.8 389.787 110.394 390.727 110.314 391.94H117.994ZM122.715 396.84H128.435V398H121.115V396.84L126.735 388.24H121.215V387.08H128.335V388.24L122.715 396.84ZM130.163 392.52C130.163 391.4 130.383 390.42 130.823 389.58C131.276 388.727 131.896 388.073 132.683 387.62C133.483 387.153 134.383 386.92 135.383 386.92C136.423 386.92 137.316 387.16 138.063 387.64C138.823 388.12 139.37 388.733 139.703 389.48V387.08H141.103V398H139.703V395.58C139.356 396.327 138.803 396.947 138.043 397.44C137.296 397.92 136.403 398.16 135.363 398.16C134.376 398.16 133.483 397.927 132.683 397.46C131.896 396.993 131.276 396.333 130.823 395.48C130.383 394.627 130.163 393.64 130.163 392.52ZM139.703 392.54C139.703 391.66 139.523 390.887 139.163 390.22C138.803 389.553 138.31 389.04 137.683 388.68C137.07 388.32 136.39 388.14 135.643 388.14C134.87 388.14 134.176 388.313 133.563 388.66C132.95 389.007 132.463 389.513 132.103 390.18C131.756 390.833 131.583 391.613 131.583 392.52C131.583 393.413 131.756 394.2 132.103 394.88C132.463 395.547 132.95 396.06 133.563 396.42C134.176 396.767 134.87 396.94 135.643 396.94C136.39 396.94 137.07 396.76 137.683 396.4C138.31 396.04 138.803 395.527 139.163 394.86C139.523 394.193 139.703 393.42 139.703 392.54ZM149.148 392.52C149.148 391.4 149.374 390.42 149.828 389.58C150.281 388.727 150.901 388.073 151.688 387.62C152.488 387.153 153.388 386.92 154.388 386.92C155.348 386.92 156.214 387.153 156.988 387.62C157.761 388.087 158.328 388.693 158.688 389.44V383.2H160.088V398H158.688V395.56C158.354 396.32 157.808 396.947 157.048 397.44C156.288 397.92 155.394 398.16 154.368 398.16C153.368 398.16 152.468 397.927 151.668 397.46C150.881 396.993 150.261 396.333 149.808 395.48C149.368 394.627 149.148 393.64 149.148 392.52ZM158.688 392.54C158.688 391.66 158.508 390.887 158.148 390.22C157.788 389.553 157.294 389.04 156.668 388.68C156.054 388.32 155.374 388.14 154.628 388.14C153.854 388.14 153.161 388.313 152.548 388.66C151.934 389.007 151.448 389.513 151.088 390.18C150.741 390.833 150.568 391.613 150.568 392.52C150.568 393.413 150.741 394.2 151.088 394.88C151.448 395.547 151.934 396.06 152.548 396.42C153.161 396.767 153.854 396.94 154.628 396.94C155.374 396.94 156.054 396.76 156.668 396.4C157.294 396.04 157.788 395.527 158.148 394.86C158.508 394.193 158.688 393.42 158.688 392.54ZM173.164 391.98C173.164 392.46 173.15 392.827 173.124 393.08H164.064C164.104 393.907 164.304 394.613 164.664 395.2C165.024 395.787 165.497 396.233 166.084 396.54C166.67 396.833 167.31 396.98 168.004 396.98C168.91 396.98 169.67 396.76 170.284 396.32C170.91 395.88 171.324 395.287 171.524 394.54H173.004C172.737 395.607 172.164 396.48 171.284 397.16C170.417 397.827 169.324 398.16 168.004 398.16C166.977 398.16 166.057 397.933 165.244 397.48C164.43 397.013 163.79 396.36 163.324 395.52C162.87 394.667 162.644 393.673 162.644 392.54C162.644 391.407 162.87 390.413 163.324 389.56C163.777 388.707 164.41 388.053 165.224 387.6C166.037 387.147 166.964 386.92 168.004 386.92C169.044 386.92 169.95 387.147 170.724 387.6C171.51 388.053 172.11 388.667 172.524 389.44C172.95 390.2 173.164 391.047 173.164 391.98ZM171.744 391.94C171.757 391.127 171.59 390.433 171.244 389.86C170.91 389.287 170.45 388.853 169.864 388.56C169.277 388.267 168.637 388.12 167.944 388.12C166.904 388.12 166.017 388.453 165.284 389.12C164.55 389.787 164.144 390.727 164.064 391.94H171.744ZM182.013 385.02C181.733 385.02 181.493 384.92 181.293 384.72C181.093 384.52 180.993 384.273 180.993 383.98C180.993 383.687 181.093 383.447 181.293 383.26C181.493 383.06 181.733 382.96 182.013 382.96C182.293 382.96 182.527 383.06 182.713 383.26C182.913 383.447 183.013 383.687 183.013 383.98C183.013 384.273 182.913 384.52 182.713 384.72C182.527 384.92 182.293 385.02 182.013 385.02ZM182.693 400.58C182.693 401.46 182.473 402.107 182.033 402.52C181.593 402.947 180.933 403.16 180.053 403.16H179.073V401.96H179.833C180.353 401.96 180.727 401.847 180.953 401.62C181.18 401.407 181.293 401.04 181.293 400.52V387.08H182.693V400.58ZM185.261 392.52C185.261 391.4 185.481 390.42 185.921 389.58C186.374 388.727 186.994 388.073 187.781 387.62C188.581 387.153 189.481 386.92 190.481 386.92C191.521 386.92 192.414 387.16 193.161 387.64C193.921 388.12 194.467 388.733 194.801 389.48V387.08H196.201V398H194.801V395.58C194.454 396.327 193.901 396.947 193.141 397.44C192.394 397.92 191.501 398.16 190.461 398.16C189.474 398.16 188.581 397.927 187.781 397.46C186.994 396.993 186.374 396.333 185.921 395.48C185.481 394.627 185.261 393.64 185.261 392.52ZM194.801 392.54C194.801 391.66 194.621 390.887 194.261 390.22C193.901 389.553 193.407 389.04 192.781 388.68C192.167 388.32 191.487 388.14 190.741 388.14C189.967 388.14 189.274 388.313 188.661 388.66C188.047 389.007 187.561 389.513 187.201 390.18C186.854 390.833 186.681 391.613 186.681 392.52C186.681 393.413 186.854 394.2 187.201 394.88C187.561 395.547 188.047 396.06 188.661 396.42C189.274 396.767 189.967 396.94 190.741 396.94C191.487 396.94 192.167 396.76 192.781 396.4C193.407 396.04 193.901 395.527 194.261 394.86C194.621 394.193 194.801 393.42 194.801 392.54ZM204.517 386.88C205.824 386.88 206.89 387.287 207.717 388.1C208.544 388.9 208.957 390.067 208.957 391.6V398H207.577V391.76C207.577 390.573 207.277 389.667 206.677 389.04C206.09 388.413 205.284 388.1 204.257 388.1C203.204 388.1 202.364 388.433 201.737 389.1C201.11 389.767 200.797 390.747 200.797 392.04V398H199.397V387.08H200.797V388.94C201.144 388.273 201.644 387.767 202.297 387.42C202.95 387.06 203.69 386.88 204.517 386.88ZM221.933 391.98C221.933 392.46 221.92 392.827 221.893 393.08H212.833C212.873 393.907 213.073 394.613 213.433 395.2C213.793 395.787 214.266 396.233 214.853 396.54C215.44 396.833 216.08 396.98 216.773 396.98C217.68 396.98 218.44 396.76 219.053 396.32C219.68 395.88 220.093 395.287 220.293 394.54H221.773C221.506 395.607 220.933 396.48 220.053 397.16C219.186 397.827 218.093 398.16 216.773 398.16C215.746 398.16 214.826 397.933 214.013 397.48C213.2 397.013 212.56 396.36 212.093 395.52C211.64 394.667 211.413 393.673 211.413 392.54C211.413 391.407 211.64 390.413 212.093 389.56C212.546 388.707 213.18 388.053 213.993 387.6C214.806 387.147 215.733 386.92 216.773 386.92C217.813 386.92 218.72 387.147 219.493 387.6C220.28 388.053 220.88 388.667 221.293 389.44C221.72 390.2 221.933 391.047 221.933 391.98ZM220.513 391.94C220.526 391.127 220.36 390.433 220.013 389.86C219.68 389.287 219.22 388.853 218.633 388.56C218.046 388.267 217.406 388.12 216.713 388.12C215.673 388.12 214.786 388.453 214.053 389.12C213.32 389.787 212.913 390.727 212.833 391.94H220.513ZM225.895 383.2V398H224.495V383.2H225.895ZM228.425 392.52C228.425 391.4 228.645 390.42 229.085 389.58C229.538 388.727 230.158 388.073 230.945 387.62C231.745 387.153 232.645 386.92 233.645 386.92C234.685 386.92 235.578 387.16 236.325 387.64C237.085 388.12 237.632 388.733 237.965 389.48V387.08H239.365V398H237.965V395.58C237.618 396.327 237.065 396.947 236.305 397.44C235.558 397.92 234.665 398.16 233.625 398.16C232.638 398.16 231.745 397.927 230.945 397.46C230.158 396.993 229.538 396.333 229.085 395.48C228.645 394.627 228.425 393.64 228.425 392.52ZM237.965 392.54C237.965 391.66 237.785 390.887 237.425 390.22C237.065 389.553 236.572 389.04 235.945 388.68C235.332 388.32 234.652 388.14 233.905 388.14C233.132 388.14 232.438 388.313 231.825 388.66C231.212 389.007 230.725 389.513 230.365 390.18C230.018 390.833 229.845 391.613 229.845 392.52C229.845 393.413 230.018 394.2 230.365 394.88C230.725 395.547 231.212 396.06 231.825 396.42C232.438 396.767 233.132 396.94 233.905 396.94C234.652 396.94 235.332 396.76 235.945 396.4C236.572 396.04 237.065 395.527 237.425 394.86C237.785 394.193 237.965 393.42 237.965 392.54Z" fill="#131517"/>
<rect x="35" y="386" width="10" height="10" rx="5" fill="#131517"/>
<path d="M64 444.86H69.02V446H62.6V432.02H64V444.86ZM71.718 433.02C71.438 433.02 71.198 432.92 70.998 432.72C70.798 432.52 70.698 432.273 70.698 431.98C70.698 431.687 70.798 431.447 70.998 431.26C71.198 431.06 71.438 430.96 71.718 430.96C71.998 430.96 72.238 431.06 72.438 431.26C72.638 431.447 72.738 431.687 72.738 431.98C72.738 432.273 72.638 432.52 72.438 432.72C72.238 432.92 71.998 433.02 71.718 433.02ZM72.418 435.08V446H71.018V435.08H72.418ZM88.5883 434.88C89.8683 434.88 90.9083 435.287 91.7083 436.1C92.5216 436.9 92.9283 438.067 92.9283 439.6V446H91.5483V439.76C91.5483 438.573 91.2616 437.667 90.6883 437.04C90.1149 436.413 89.3349 436.1 88.3483 436.1C87.3216 436.1 86.5016 436.44 85.8883 437.12C85.2749 437.8 84.9683 438.787 84.9683 440.08V446H83.5883V439.76C83.5883 438.573 83.3016 437.667 82.7283 437.04C82.1549 436.413 81.3683 436.1 80.3683 436.1C79.3416 436.1 78.5216 436.44 77.9083 437.12C77.2949 437.8 76.9883 438.787 76.9883 440.08V446H75.5883V435.08H76.9883V436.96C77.3349 436.28 77.8283 435.767 78.4683 435.42C79.1083 435.06 79.8216 434.88 80.6083 434.88C81.5549 434.88 82.3816 435.107 83.0883 435.56C83.8083 436.013 84.3283 436.68 84.6483 437.56C84.9416 436.693 85.4416 436.033 86.1483 435.58C86.8683 435.113 87.6816 434.88 88.5883 434.88ZM97.4175 437.48C97.7642 436.747 98.3108 436.14 99.0575 435.66C99.8175 435.167 100.718 434.92 101.758 434.92C102.744 434.92 103.631 435.153 104.418 435.62C105.218 436.073 105.838 436.727 106.278 437.58C106.731 438.42 106.958 439.4 106.958 440.52C106.958 441.64 106.731 442.627 106.278 443.48C105.838 444.333 105.218 444.993 104.418 445.46C103.631 445.927 102.744 446.16 101.758 446.16C100.731 446.16 99.8375 445.92 99.0775 445.44C98.3175 444.947 97.7642 444.333 97.4175 443.6V451.16H96.0375V435.08H97.4175V437.48ZM105.538 440.52C105.538 439.613 105.358 438.833 104.997 438.18C104.651 437.513 104.171 437.007 103.558 436.66C102.944 436.313 102.251 436.14 101.478 436.14C100.731 436.14 100.044 436.32 99.4175 436.68C98.8042 437.04 98.3175 437.553 97.9575 438.22C97.5975 438.887 97.4175 439.66 97.4175 440.54C97.4175 441.42 97.5975 442.193 97.9575 442.86C98.3175 443.527 98.8042 444.04 99.4175 444.4C100.044 444.76 100.731 444.94 101.478 444.94C102.251 444.94 102.944 444.767 103.558 444.42C104.171 444.06 104.651 443.547 104.997 442.88C105.358 442.2 105.538 441.413 105.538 440.52ZM119.414 439.98C119.414 440.46 119.4 440.827 119.374 441.08H110.314C110.354 441.907 110.554 442.613 110.914 443.2C111.274 443.787 111.747 444.233 112.334 444.54C112.92 444.833 113.56 444.98 114.254 444.98C115.16 444.98 115.92 444.76 116.534 444.32C117.16 443.88 117.574 443.287 117.774 442.54H119.254C118.987 443.607 118.414 444.48 117.534 445.16C116.667 445.827 115.574 446.16 114.254 446.16C113.227 446.16 112.307 445.933 111.494 445.48C110.68 445.013 110.04 444.36 109.574 443.52C109.12 442.667 108.894 441.673 108.894 440.54C108.894 439.407 109.12 438.413 109.574 437.56C110.027 436.707 110.66 436.053 111.474 435.6C112.287 435.147 113.214 434.92 114.254 434.92C115.294 434.92 116.2 435.147 116.974 435.6C117.76 436.053 118.36 436.667 118.774 437.44C119.2 438.2 119.414 439.047 119.414 439.98ZM117.994 439.94C118.007 439.127 117.84 438.433 117.494 437.86C117.16 437.287 116.7 436.853 116.114 436.56C115.527 436.267 114.887 436.12 114.194 436.12C113.154 436.12 112.267 436.453 111.534 437.12C110.8 437.787 110.394 438.727 110.314 439.94H117.994ZM122.715 444.84H128.435V446H121.115V444.84L126.735 436.24H121.215V435.08H128.335V436.24L122.715 444.84ZM130.163 440.52C130.163 439.4 130.383 438.42 130.823 437.58C131.276 436.727 131.896 436.073 132.683 435.62C133.483 435.153 134.383 434.92 135.383 434.92C136.423 434.92 137.316 435.16 138.063 435.64C138.823 436.12 139.37 436.733 139.703 437.48V435.08H141.103V446H139.703V443.58C139.356 444.327 138.803 444.947 138.043 445.44C137.296 445.92 136.403 446.16 135.363 446.16C134.376 446.16 133.483 445.927 132.683 445.46C131.896 444.993 131.276 444.333 130.823 443.48C130.383 442.627 130.163 441.64 130.163 440.52ZM139.703 440.54C139.703 439.66 139.523 438.887 139.163 438.22C138.803 437.553 138.31 437.04 137.683 436.68C137.07 436.32 136.39 436.14 135.643 436.14C134.87 436.14 134.176 436.313 133.563 436.66C132.95 437.007 132.463 437.513 132.103 438.18C131.756 438.833 131.583 439.613 131.583 440.52C131.583 441.413 131.756 442.2 132.103 442.88C132.463 443.547 132.95 444.06 133.563 444.42C134.176 444.767 134.87 444.94 135.643 444.94C136.39 444.94 137.07 444.76 137.683 444.4C138.31 444.04 138.803 443.527 139.163 442.86C139.523 442.193 139.703 441.42 139.703 440.54ZM149.148 440.52C149.148 439.4 149.374 438.42 149.828 437.58C150.281 436.727 150.901 436.073 151.688 435.62C152.488 435.153 153.388 434.92 154.388 434.92C155.348 434.92 156.214 435.153 156.988 435.62C157.761 436.087 158.328 436.693 158.688 437.44V431.2H160.088V446H158.688V443.56C158.354 444.32 157.808 444.947 157.048 445.44C156.288 445.92 155.394 446.16 154.368 446.16C153.368 446.16 152.468 445.927 151.668 445.46C150.881 444.993 150.261 444.333 149.808 443.48C149.368 442.627 149.148 441.64 149.148 440.52ZM158.688 440.54C158.688 439.66 158.508 438.887 158.148 438.22C157.788 437.553 157.294 437.04 156.668 436.68C156.054 436.32 155.374 436.14 154.628 436.14C153.854 436.14 153.161 436.313 152.548 436.66C151.934 437.007 151.448 437.513 151.088 438.18C150.741 438.833 150.568 439.613 150.568 440.52C150.568 441.413 150.741 442.2 151.088 442.88C151.448 443.547 151.934 444.06 152.548 444.42C153.161 444.767 153.854 444.94 154.628 444.94C155.374 444.94 156.054 444.76 156.668 444.4C157.294 444.04 157.788 443.527 158.148 442.86C158.508 442.193 158.688 441.42 158.688 440.54ZM173.164 439.98C173.164 440.46 173.15 440.827 173.124 441.08H164.064C164.104 441.907 164.304 442.613 164.664 443.2C165.024 443.787 165.497 444.233 166.084 444.54C166.67 444.833 167.31 444.98 168.004 444.98C168.91 444.98 169.67 444.76 170.284 444.32C170.91 443.88 171.324 443.287 171.524 442.54H173.004C172.737 443.607 172.164 444.48 171.284 445.16C170.417 445.827 169.324 446.16 168.004 446.16C166.977 446.16 166.057 445.933 165.244 445.48C164.43 445.013 163.79 444.36 163.324 443.52C162.87 442.667 162.644 441.673 162.644 440.54C162.644 439.407 162.87 438.413 163.324 437.56C163.777 436.707 164.41 436.053 165.224 435.6C166.037 435.147 166.964 434.92 168.004 434.92C169.044 434.92 169.95 435.147 170.724 435.6C171.51 436.053 172.11 436.667 172.524 437.44C172.95 438.2 173.164 439.047 173.164 439.98ZM171.744 439.94C171.757 439.127 171.59 438.433 171.244 437.86C170.91 437.287 170.45 436.853 169.864 436.56C169.277 436.267 168.637 436.12 167.944 436.12C166.904 436.12 166.017 436.453 165.284 437.12C164.55 437.787 164.144 438.727 164.064 439.94H171.744ZM182.613 431.2V446H181.213V431.2H182.613ZM190.564 446.16C189.537 446.16 188.61 445.933 187.784 445.48C186.97 445.013 186.324 444.36 185.844 443.52C185.377 442.667 185.144 441.673 185.144 440.54C185.144 439.407 185.384 438.42 185.864 437.58C186.344 436.727 186.997 436.073 187.824 435.62C188.65 435.153 189.577 434.92 190.604 434.92C191.63 434.92 192.557 435.153 193.384 435.62C194.224 436.073 194.877 436.727 195.344 437.58C195.824 438.42 196.064 439.407 196.064 440.54C196.064 441.66 195.824 442.647 195.344 443.5C194.864 444.353 194.204 445.013 193.364 445.48C192.524 445.933 191.59 446.16 190.564 446.16ZM190.564 444.94C191.284 444.94 191.95 444.78 192.564 444.46C193.177 444.127 193.67 443.633 194.044 442.98C194.43 442.313 194.624 441.5 194.624 440.54C194.624 439.58 194.437 438.773 194.064 438.12C193.69 437.453 193.197 436.96 192.584 436.64C191.97 436.307 191.304 436.14 190.584 436.14C189.864 436.14 189.197 436.307 188.584 436.64C187.97 436.96 187.477 437.453 187.104 438.12C186.744 438.773 186.564 439.58 186.564 440.54C186.564 441.5 186.744 442.313 187.104 442.98C187.477 443.633 187.964 444.127 188.564 444.46C189.177 444.78 189.844 444.94 190.564 444.94ZM208.076 435.08V446H206.676V444.08C206.356 444.76 205.862 445.28 205.196 445.64C204.529 446 203.782 446.18 202.956 446.18C201.649 446.18 200.582 445.78 199.756 444.98C198.929 444.167 198.516 442.993 198.516 441.46V435.08H199.896V441.3C199.896 442.487 200.189 443.393 200.776 444.02C201.376 444.647 202.189 444.96 203.216 444.96C204.269 444.96 205.109 444.627 205.736 443.96C206.362 443.293 206.676 442.313 206.676 441.02V435.08H208.076ZM215.932 444.98C216.852 444.98 217.619 444.76 218.232 444.32C218.859 443.867 219.265 443.24 219.452 442.44H220.952C220.712 443.493 220.192 444.353 219.392 445.02C218.605 445.687 217.605 446.06 216.392 446.14V447.34C217.179 447.313 217.799 447.46 218.252 447.78C218.719 448.113 218.952 448.587 218.952 449.2C218.952 449.8 218.739 450.273 218.312 450.62C217.885 450.98 217.319 451.16 216.612 451.16H214.612V450.22H216.332C216.825 450.22 217.185 450.133 217.412 449.96C217.652 449.8 217.772 449.547 217.772 449.2C217.772 448.56 217.292 448.24 216.332 448.24H215.412V446.14C214.479 446.06 213.652 445.787 212.932 445.32C212.212 444.84 211.645 444.193 211.232 443.38C210.832 442.553 210.632 441.607 210.632 440.54C210.632 439.407 210.859 438.42 211.312 437.58C211.765 436.727 212.392 436.073 213.192 435.62C213.992 435.153 214.905 434.92 215.932 434.92C217.279 434.92 218.385 435.253 219.252 435.92C220.132 436.587 220.699 437.493 220.952 438.64H219.452C219.265 437.853 218.859 437.24 218.232 436.8C217.619 436.347 216.852 436.12 215.932 436.12C215.199 436.12 214.539 436.287 213.952 436.62C213.365 436.953 212.899 437.453 212.552 438.12C212.219 438.773 212.052 439.58 212.052 440.54C212.052 441.5 212.219 442.313 212.552 442.98C212.899 443.647 213.365 444.147 213.952 444.48C214.539 444.813 215.199 444.98 215.932 444.98ZM222.898 440.52C222.898 439.4 223.118 438.42 223.558 437.58C224.011 436.727 224.631 436.073 225.418 435.62C226.218 435.153 227.118 434.92 228.118 434.92C229.158 434.92 230.051 435.16 230.798 435.64C231.558 436.12 232.104 436.733 232.438 437.48V435.08H233.838V446H232.438V443.58C232.091 444.327 231.538 444.947 230.778 445.44C230.031 445.92 229.138 446.16 228.098 446.16C227.111 446.16 226.218 445.927 225.418 445.46C224.631 444.993 224.011 444.333 223.558 443.48C223.118 442.627 222.898 441.64 222.898 440.52ZM232.438 440.54C232.438 439.66 232.258 438.887 231.898 438.22C231.538 437.553 231.044 437.04 230.418 436.68C229.804 436.32 229.124 436.14 228.378 436.14C227.604 436.14 226.911 436.313 226.298 436.66C225.684 437.007 225.198 437.513 224.838 438.18C224.491 438.833 224.318 439.613 224.318 440.52C224.318 441.413 224.491 442.2 224.838 442.88C225.198 443.547 225.684 444.06 226.298 444.42C226.911 444.767 227.604 444.94 228.378 444.94C229.124 444.94 229.804 444.76 230.418 444.4C231.044 444.04 231.538 443.527 231.898 442.86C232.258 442.193 232.438 441.42 232.438 440.54ZM240.794 446.16C239.54 446.16 238.514 445.873 237.714 445.3C236.927 444.713 236.487 443.92 236.394 442.92H237.834C237.9 443.533 238.187 444.033 238.694 444.42C239.214 444.793 239.907 444.98 240.774 444.98C241.534 444.98 242.127 444.8 242.554 444.44C242.994 444.08 243.214 443.633 243.214 443.1C243.214 442.727 243.094 442.42 242.854 442.18C242.614 441.94 242.307 441.753 241.934 441.62C241.574 441.473 241.08 441.32 240.454 441.16C239.64 440.947 238.98 440.733 238.474 440.52C237.967 440.307 237.534 439.993 237.174 439.58C236.827 439.153 236.654 438.587 236.654 437.88C236.654 437.347 236.814 436.853 237.134 436.4C237.454 435.947 237.907 435.587 238.494 435.32C239.08 435.053 239.747 434.92 240.494 434.92C241.667 434.92 242.614 435.22 243.334 435.82C244.054 436.407 244.44 437.22 244.494 438.26H243.094C243.054 437.62 242.8 437.107 242.334 436.72C241.88 436.32 241.254 436.12 240.454 436.12C239.747 436.12 239.174 436.287 238.734 436.62C238.294 436.953 238.074 437.367 238.074 437.86C238.074 438.287 238.2 438.64 238.454 438.92C238.72 439.187 239.047 439.4 239.434 439.56C239.82 439.707 240.34 439.873 240.994 440.06C241.78 440.273 242.407 440.48 242.874 440.68C243.34 440.88 243.74 441.173 244.074 441.56C244.407 441.947 244.58 442.46 244.594 443.1C244.594 443.687 244.434 444.213 244.114 444.68C243.794 445.133 243.347 445.493 242.774 445.76C242.2 446.027 241.54 446.16 240.794 446.16Z" fill="#131517"/>
<rect x="35" y="434" width="10" height="10" rx="5" fill="#131517"/>
</g>
<defs>
<filter id="filter0_d_894_477" x="0" y="0" width="390" height="506" filterUnits="userSpaceOnUse" color-interpolation-filters="sRGB">
<feFlood flood-opacity="0" result="BackgroundImageFix"/>
<feColorMatrix in="SourceAlpha" type="matrix" values="0 0 0 0 0 0 0 0 0 0 0 0 0 0 0 0 0 0 127 0" result="hardAlpha"/>
<feOffset dx="2" dy="4"/>
<feGaussianBlur stdDeviation="2.5"/>
<feComposite in2="hardAlpha" operator="out"/>
<feColorMatrix type="matrix" values="0 0 0 0 0 0 0 0 0 0 0 0 0 0 0 0 0 0 0.25 0"/>
<feBlend mode="normal" in2="BackgroundImageFix" result="effect1_dropShadow_894_477"/>
<feBlend mode="normal" in="SourceGraphic" in2="effect1_dropShadow_894_477" result="shape"/>
</filter>
</defs>
</svg>
