<svg width="388" height="504" viewBox="0 0 388 504" fill="none" xmlns="http://www.w3.org/2000/svg">
<g filter="url(#filter0_d_894_459)">
<rect x="4" width="380" height="496" rx="16" fill="white"/>
<path d="M59.166 95L50.85 80.312H47.286V95H39.726V57.308H53.874C56.79 57.308 59.274 57.83 61.326 58.874C63.378 59.882 64.908 61.268 65.916 63.032C66.96 64.76 67.482 66.704 67.482 68.864C67.482 71.348 66.762 73.598 65.322 75.614C63.882 77.594 61.74 78.962 58.896 79.718L67.914 95H59.166ZM47.286 74.642H53.604C55.656 74.642 57.186 74.156 58.194 73.184C59.202 72.176 59.706 70.79 59.706 69.026C59.706 67.298 59.202 65.966 58.194 65.03C57.186 64.058 55.656 63.572 53.604 63.572H47.286V74.642ZM101.212 84.146C101.212 86.018 100.726 87.782 99.7538 89.438C98.8178 91.058 97.4138 92.408 95.5418 93.488C93.7058 94.532 91.5278 95.144 89.0078 95.324V99.698H85.5518V95.27C81.9518 94.946 79.0538 93.866 76.8578 92.03C74.6618 90.158 73.5278 87.638 73.4558 84.47H81.5558C81.7718 87.062 83.1038 88.628 85.5518 89.168V78.854C82.9598 78.206 80.8718 77.558 79.2878 76.91C77.7038 76.262 76.3358 75.218 75.1838 73.778C74.0318 72.338 73.4558 70.376 73.4558 67.892C73.4558 64.76 74.5718 62.204 76.8038 60.224C79.0718 58.244 81.9878 57.11 85.5518 56.822V52.448H89.0078V56.822C92.4638 57.11 95.2178 58.154 97.2698 59.954C99.3578 61.754 100.528 64.238 100.78 67.406H92.6258C92.5178 66.362 92.1398 65.462 91.4918 64.706C90.8798 63.914 90.0518 63.356 89.0078 63.032V73.238C91.7078 73.922 93.8318 74.588 95.3798 75.236C96.9638 75.848 98.3318 76.874 99.4838 78.314C100.636 79.718 101.212 81.662 101.212 84.146ZM81.3398 67.514C81.3398 68.702 81.6998 69.674 82.4198 70.43C83.1398 71.15 84.1838 71.744 85.5518 72.212V62.87C84.2558 63.05 83.2298 63.536 82.4738 64.328C81.7178 65.12 81.3398 66.182 81.3398 67.514ZM89.0078 89.276C90.3758 89.024 91.4378 88.466 92.1938 87.602C92.9858 86.738 93.3818 85.694 93.3818 84.47C93.3818 83.282 93.0038 82.328 92.2478 81.608C91.4918 80.888 90.4118 80.294 89.0078 79.826V89.276ZM107.87 62.6V55.634H120.884V95H113.108V62.6H107.87ZM137.1 83.93C137.388 85.514 138.036 86.738 139.044 87.602C140.088 88.43 141.474 88.844 143.202 88.844C145.434 88.844 147.054 87.926 148.062 86.09C149.07 84.218 149.574 81.086 149.574 76.694C148.746 77.846 147.576 78.746 146.064 79.394C144.588 80.042 142.986 80.366 141.258 80.366C138.954 80.366 136.866 79.898 134.994 78.962C133.158 77.99 131.7 76.568 130.62 74.696C129.54 72.788 129 70.484 129 67.784C129 63.788 130.188 60.62 132.564 58.28C134.94 55.904 138.18 54.716 142.284 54.716C147.396 54.716 150.996 56.354 153.084 59.63C155.208 62.906 156.27 67.838 156.27 74.426C156.27 79.106 155.856 82.94 155.028 85.928C154.236 88.916 152.85 91.184 150.87 92.732C148.926 94.28 146.262 95.054 142.878 95.054C140.214 95.054 137.946 94.55 136.074 93.542C134.202 92.498 132.762 91.148 131.754 89.492C130.782 87.8 130.224 85.946 130.08 83.93H137.1ZM142.824 74.21C144.696 74.21 146.172 73.634 147.252 72.482C148.332 71.33 148.872 69.782 148.872 67.838C148.872 65.714 148.296 64.076 147.144 62.924C146.028 61.736 144.498 61.142 142.554 61.142C140.61 61.142 139.062 61.754 137.91 62.978C136.794 64.166 136.236 65.75 136.236 67.73C136.236 69.638 136.776 71.204 137.856 72.428C138.972 73.616 140.628 74.21 142.824 74.21ZM170.903 83.93C171.191 85.514 171.839 86.738 172.847 87.602C173.891 88.43 175.277 88.844 177.005 88.844C179.237 88.844 180.857 87.926 181.865 86.09C182.873 84.218 183.377 81.086 183.377 76.694C182.549 77.846 181.379 78.746 179.867 79.394C178.391 80.042 176.789 80.366 175.061 80.366C172.757 80.366 170.669 79.898 168.797 78.962C166.961 77.99 165.503 76.568 164.423 74.696C163.343 72.788 162.803 70.484 162.803 67.784C162.803 63.788 163.991 60.62 166.367 58.28C168.743 55.904 171.983 54.716 176.087 54.716C181.199 54.716 184.799 56.354 186.887 59.63C189.011 62.906 190.073 67.838 190.073 74.426C190.073 79.106 189.659 82.94 188.831 85.928C188.039 88.916 186.653 91.184 184.673 92.732C182.729 94.28 180.065 95.054 176.681 95.054C174.017 95.054 171.749 94.55 169.877 93.542C168.005 92.498 166.565 91.148 165.557 89.492C164.585 87.8 164.027 85.946 163.883 83.93H170.903ZM176.627 74.21C178.499 74.21 179.975 73.634 181.055 72.482C182.135 71.33 182.675 69.782 182.675 67.838C182.675 65.714 182.099 64.076 180.947 62.924C179.831 61.736 178.301 61.142 176.357 61.142C174.413 61.142 172.865 61.754 171.713 62.978C170.597 64.166 170.039 65.75 170.039 67.73C170.039 69.638 170.579 71.204 171.659 72.428C172.775 73.616 174.431 74.21 176.627 74.21ZM193.596 96.2L197.676 79.4H199.476L195.396 96.2H193.596ZM201.811 95V84.32H203.331V88.9H203.091C203.091 87.86 203.224 86.98 203.491 86.26C203.771 85.5267 204.184 84.9667 204.731 84.58C205.277 84.1933 205.971 84 206.811 84H206.891C207.731 84 208.424 84.1933 208.971 84.58C209.531 84.9667 209.944 85.5267 210.211 86.26C210.477 86.98 210.611 87.86 210.611 88.9H210.051C210.051 87.86 210.191 86.98 210.471 86.26C210.751 85.5267 211.164 84.9667 211.711 84.58C212.271 84.1933 212.971 84 213.811 84H213.891C214.731 84 215.431 84.1933 215.991 84.58C216.551 84.9667 216.964 85.5267 217.231 86.26C217.511 86.98 217.651 87.86 217.651 88.9V95H215.731V88.48C215.731 87.6133 215.517 86.9467 215.091 86.48C214.664 86 214.071 85.76 213.311 85.76C212.524 85.76 211.891 86.0133 211.411 86.52C210.931 87.0133 210.691 87.7067 210.691 88.6V95H208.771V88.48C208.771 87.6133 208.557 86.9467 208.131 86.48C207.704 86 207.111 85.76 206.351 85.76C205.564 85.76 204.931 86.0133 204.451 86.52C203.971 87.0133 203.731 87.7067 203.731 88.6V95H201.811ZM225.706 95.36C224.773 95.36 223.966 95.2 223.286 94.88C222.606 94.56 222.053 94.14 221.626 93.62C221.2 93.0867 220.88 92.4933 220.666 91.84C220.466 91.1867 220.366 90.52 220.366 89.84V89.48C220.366 88.7867 220.466 88.1133 220.666 87.46C220.88 86.8067 221.2 86.22 221.626 85.7C222.053 85.1667 222.593 84.7467 223.246 84.44C223.913 84.12 224.693 83.96 225.586 83.96C226.746 83.96 227.7 84.2133 228.446 84.72C229.206 85.2133 229.766 85.8533 230.126 86.64C230.5 87.4267 230.686 88.2667 230.686 89.16V90.02H221.206V88.58H229.286L228.846 89.36C228.846 88.6 228.726 87.9467 228.486 87.4C228.246 86.84 227.886 86.4067 227.406 86.1C226.926 85.7933 226.32 85.64 225.586 85.64C224.826 85.64 224.193 85.8133 223.686 86.16C223.193 86.5067 222.82 86.98 222.566 87.58C222.326 88.18 222.206 88.8733 222.206 89.66C222.206 90.42 222.326 91.1067 222.566 91.72C222.82 92.32 223.206 92.8 223.726 93.16C224.246 93.5067 224.906 93.68 225.706 93.68C226.546 93.68 227.226 93.4933 227.746 93.12C228.28 92.7467 228.6 92.3133 228.706 91.82H230.506C230.36 92.5533 230.066 93.1867 229.626 93.72C229.186 94.2533 228.633 94.66 227.966 94.94C227.3 95.22 226.546 95.36 225.706 95.36ZM222.306 82.76L224.506 78.8H226.666L228.826 82.76H227.266L225.666 79.76H225.506L223.866 82.76H222.306ZM236.912 95.32C235.512 95.32 234.426 95.02 233.652 94.42C232.892 93.82 232.499 93 232.472 91.96H234.272C234.299 92.3733 234.506 92.7667 234.892 93.14C235.292 93.5 235.966 93.68 236.912 93.68C237.766 93.68 238.419 93.5133 238.872 93.18C239.326 92.8333 239.552 92.4133 239.552 91.92C239.552 91.48 239.386 91.14 239.052 90.9C238.719 90.6467 238.179 90.48 237.432 90.4L236.272 90.28C235.259 90.1733 234.432 89.8733 233.792 89.38C233.152 88.8733 232.832 88.1667 232.832 87.26C232.832 86.58 233.006 86 233.352 85.52C233.699 85.0267 234.179 84.6533 234.792 84.4C235.406 84.1333 236.112 84 236.912 84C238.112 84 239.086 84.2667 239.832 84.8C240.579 85.3333 240.966 86.1267 240.992 87.18H239.192C239.179 86.7533 238.979 86.3933 238.592 86.1C238.219 85.7933 237.659 85.64 236.912 85.64C236.166 85.64 235.599 85.7933 235.212 86.1C234.826 86.4067 234.632 86.7933 234.632 87.26C234.632 87.66 234.766 87.98 235.032 88.22C235.312 88.46 235.766 88.6133 236.392 88.68L237.552 88.8C238.699 88.92 239.619 89.24 240.312 89.76C241.006 90.2667 241.352 90.9867 241.352 91.92C241.352 92.5867 241.159 93.18 240.772 93.7C240.399 94.2067 239.879 94.6067 239.212 94.9C238.546 95.18 237.779 95.32 236.912 95.32Z" fill="#131517"/>
<path d="M41.512 162.104V158.672H45.438C46.426 158.672 47.3013 158.525 48.064 158.23C48.844 157.918 49.5027 157.485 50.04 156.93C50.5773 156.375 50.9847 155.725 51.262 154.98C51.5567 154.217 51.704 153.377 51.704 152.458C51.704 151.505 51.5567 150.655 51.262 149.91C50.9847 149.147 50.5773 148.497 50.04 147.96C49.5027 147.423 48.844 147.015 48.064 146.738C47.3013 146.461 46.426 146.322 45.438 146.322H41.512V142.89H45.204C46.92 142.89 48.4193 143.141 49.702 143.644C50.9847 144.147 52.0507 144.84 52.9 145.724C53.7493 146.591 54.382 147.587 54.798 148.714C55.2313 149.823 55.448 150.976 55.448 152.172V152.744C55.448 153.888 55.2313 155.015 54.798 156.124C54.382 157.233 53.7493 158.239 52.9 159.14C52.0507 160.041 50.9847 160.761 49.702 161.298C48.4193 161.835 46.92 162.104 45.204 162.104H41.512ZM38.34 162.104V142.89H42.032V162.104H38.34ZM64.7861 162.494C63.5727 162.494 62.5067 162.286 61.5881 161.87C60.6867 161.454 59.9327 160.899 59.3261 160.206C58.7367 159.495 58.2861 158.707 57.9741 157.84C57.6794 156.973 57.5321 156.089 57.5321 155.188V154.694C57.5321 153.758 57.6794 152.857 57.9741 151.99C58.2861 151.106 58.7367 150.326 59.3261 149.65C59.9327 148.957 60.6781 148.411 61.5621 148.012C62.4461 147.596 63.4687 147.388 64.6301 147.388C66.1554 147.388 67.4294 147.726 68.4521 148.402C69.4921 149.061 70.2721 149.936 70.7921 151.028C71.3121 152.103 71.5721 153.264 71.5721 154.512V155.812H59.0661V153.602H69.3101L68.1921 154.694C68.1921 153.793 68.0621 153.021 67.8021 152.38C67.5421 151.739 67.1434 151.245 66.6061 150.898C66.0861 150.551 65.4274 150.378 64.6301 150.378C63.8327 150.378 63.1567 150.56 62.6021 150.924C62.0474 151.288 61.6227 151.817 61.3281 152.51C61.0507 153.186 60.9121 154.001 60.9121 154.954C60.9121 155.838 61.0507 156.627 61.3281 157.32C61.6054 157.996 62.0301 158.533 62.6021 158.932C63.1741 159.313 63.9021 159.504 64.7861 159.504C65.6701 159.504 66.3894 159.331 66.9441 158.984C67.4987 158.62 67.8541 158.178 68.0101 157.658H71.3381C71.1301 158.629 70.7314 159.478 70.1421 160.206C69.5527 160.934 68.7987 161.497 67.8801 161.896C66.9787 162.295 65.9474 162.494 64.7861 162.494ZM74.7731 162V143.02H78.3871V162H74.7731ZM73.0051 145.724V143.02H78.3871V145.724H73.0051ZM87.323 162.442C85.6937 162.442 84.4283 161.905 83.527 160.83C82.643 159.755 82.201 158.161 82.201 156.046V147.856H85.815V156.358C85.815 157.225 86.0577 157.918 86.543 158.438C87.0283 158.941 87.687 159.192 88.519 159.192C89.351 159.192 90.027 158.923 90.547 158.386C91.0843 157.849 91.353 157.121 91.353 156.202V147.856H94.967V162H92.107V155.994H92.393C92.393 157.415 92.211 158.603 91.847 159.556C91.483 160.509 90.937 161.229 90.209 161.714C89.481 162.199 88.571 162.442 87.479 162.442H87.323ZM97.5065 162L102.108 154.46L102.03 155.058L97.6885 147.882H101.614L104.448 152.848H104.838L107.516 147.882H111.208L107.1 155.032L107.178 154.512L112.04 162H108.114L104.76 156.67H104.37L101.198 162H97.5065ZM120.366 162.494C119.153 162.494 118.087 162.286 117.168 161.87C116.267 161.454 115.513 160.899 114.906 160.206C114.317 159.495 113.866 158.707 113.554 157.84C113.259 156.973 113.112 156.089 113.112 155.188V154.694C113.112 153.758 113.259 152.857 113.554 151.99C113.866 151.106 114.317 150.326 114.906 149.65C115.513 148.957 116.258 148.411 117.142 148.012C118.026 147.596 119.049 147.388 120.21 147.388C121.735 147.388 123.009 147.726 124.032 148.402C125.072 149.061 125.852 149.936 126.372 151.028C126.892 152.103 127.152 153.264 127.152 154.512V155.812H114.646V153.602H124.89L123.772 154.694C123.772 153.793 123.642 153.021 123.382 152.38C123.122 151.739 122.723 151.245 122.186 150.898C121.666 150.551 121.007 150.378 120.21 150.378C119.413 150.378 118.737 150.56 118.182 150.924C117.627 151.288 117.203 151.817 116.908 152.51C116.631 153.186 116.492 154.001 116.492 154.954C116.492 155.838 116.631 156.627 116.908 157.32C117.185 157.996 117.61 158.533 118.182 158.932C118.754 159.313 119.482 159.504 120.366 159.504C121.25 159.504 121.969 159.331 122.524 158.984C123.079 158.62 123.434 158.178 123.59 157.658H126.918C126.71 158.629 126.311 159.478 125.722 160.206C125.133 160.934 124.379 161.497 123.46 161.896C122.559 162.295 121.527 162.494 120.366 162.494Z" fill="#131517"/>
<path d="M45.78 191.02V192.18H41.9V205H40.5V192.18H36.6V191.02H45.78ZM57.4506 194.08V205H56.0506V203.08C55.7306 203.76 55.2373 204.28 54.5706 204.64C53.904 205 53.1573 205.18 52.3306 205.18C51.024 205.18 49.9573 204.78 49.1306 203.98C48.304 203.167 47.8906 201.993 47.8906 200.46V194.08H49.2706V200.3C49.2706 201.487 49.564 202.393 50.1506 203.02C50.7506 203.647 51.564 203.96 52.5906 203.96C53.644 203.96 54.484 203.627 55.1106 202.96C55.7373 202.293 56.0506 201.313 56.0506 200.02V194.08H57.4506ZM60.0069 199.52C60.0069 198.4 60.2335 197.42 60.6869 196.58C61.1402 195.727 61.7602 195.073 62.5469 194.62C63.3469 194.153 64.2469 193.92 65.2469 193.92C66.2069 193.92 67.0735 194.153 67.8469 194.62C68.6202 195.087 69.1869 195.693 69.5469 196.44V190.2H70.9469V205H69.5469V202.56C69.2135 203.32 68.6669 203.947 67.9069 204.44C67.1469 204.92 66.2535 205.16 65.2269 205.16C64.2269 205.16 63.3269 204.927 62.5269 204.46C61.7402 203.993 61.1202 203.333 60.6669 202.48C60.2269 201.627 60.0069 200.64 60.0069 199.52ZM69.5469 199.54C69.5469 198.66 69.3669 197.887 69.0069 197.22C68.6469 196.553 68.1535 196.04 67.5269 195.68C66.9135 195.32 66.2335 195.14 65.4869 195.14C64.7135 195.14 64.0202 195.313 63.4069 195.66C62.7935 196.007 62.3069 196.513 61.9469 197.18C61.6002 197.833 61.4269 198.613 61.4269 199.52C61.4269 200.413 61.6002 201.2 61.9469 201.88C62.3069 202.547 62.7935 203.06 63.4069 203.42C64.0202 203.767 64.7135 203.94 65.4869 203.94C66.2335 203.94 66.9135 203.76 67.5269 203.4C68.1535 203.04 68.6469 202.527 69.0069 201.86C69.3669 201.193 69.5469 200.42 69.5469 199.54ZM78.923 205.16C77.8963 205.16 76.9696 204.933 76.143 204.48C75.3296 204.013 74.683 203.36 74.203 202.52C73.7363 201.667 73.503 200.673 73.503 199.54C73.503 198.407 73.743 197.42 74.223 196.58C74.703 195.727 75.3563 195.073 76.183 194.62C77.0096 194.153 77.9363 193.92 78.963 193.92C79.9896 193.92 80.9163 194.153 81.743 194.62C82.583 195.073 83.2363 195.727 83.703 196.58C84.183 197.42 84.423 198.407 84.423 199.54C84.423 200.66 84.183 201.647 83.703 202.5C83.223 203.353 82.563 204.013 81.723 204.48C80.883 204.933 79.9496 205.16 78.923 205.16ZM78.923 203.94C79.643 203.94 80.3096 203.78 80.923 203.46C81.5363 203.127 82.0296 202.633 82.403 201.98C82.7896 201.313 82.983 200.5 82.983 199.54C82.983 198.58 82.7963 197.773 82.423 197.12C82.0496 196.453 81.5563 195.96 80.943 195.64C80.3296 195.307 79.663 195.14 78.943 195.14C78.223 195.14 77.5563 195.307 76.943 195.64C76.3296 195.96 75.8363 196.453 75.463 197.12C75.103 197.773 74.923 198.58 74.923 199.54C74.923 200.5 75.103 201.313 75.463 201.98C75.8363 202.633 76.323 203.127 76.923 203.46C77.5363 203.78 78.203 203.94 78.923 203.94ZM97.2433 205.16C96.2166 205.16 95.2899 204.933 94.4633 204.48C93.6499 204.013 93.0033 203.36 92.5233 202.52C92.0566 201.667 91.8233 200.673 91.8233 199.54C91.8233 198.407 92.0633 197.42 92.5433 196.58C93.0233 195.727 93.6766 195.073 94.5033 194.62C95.3299 194.153 96.2566 193.92 97.2833 193.92C98.3099 193.92 99.2366 194.153 100.063 194.62C100.903 195.073 101.557 195.727 102.023 196.58C102.503 197.42 102.743 198.407 102.743 199.54C102.743 200.66 102.503 201.647 102.023 202.5C101.543 203.353 100.883 204.013 100.043 204.48C99.2033 204.933 98.2699 205.16 97.2433 205.16ZM97.2433 203.94C97.9633 203.94 98.6299 203.78 99.2433 203.46C99.8566 203.127 100.35 202.633 100.723 201.98C101.11 201.313 101.303 200.5 101.303 199.54C101.303 198.58 101.117 197.773 100.743 197.12C100.37 196.453 99.8766 195.96 99.2633 195.64C98.6499 195.307 97.9833 195.14 97.2633 195.14C96.5433 195.14 95.8766 195.307 95.2633 195.64C94.6499 195.96 94.1566 196.453 93.7833 197.12C93.4233 197.773 93.2433 198.58 93.2433 199.54C93.2433 200.5 93.4233 201.313 93.7833 201.98C94.1566 202.633 94.6433 203.127 95.2433 203.46C95.8566 203.78 96.5233 203.94 97.2433 203.94ZM110.144 199.52C110.144 198.4 110.37 197.42 110.824 196.58C111.277 195.727 111.897 195.073 112.684 194.62C113.484 194.153 114.384 193.92 115.384 193.92C116.41 193.92 117.304 194.167 118.064 194.66C118.824 195.14 119.364 195.747 119.684 196.48V194.08H121.084V210.16H119.684V202.6C119.364 203.333 118.817 203.947 118.044 204.44C117.284 204.92 116.384 205.16 115.344 205.16C114.357 205.16 113.464 204.927 112.664 204.46C111.877 203.993 111.257 203.333 110.804 202.48C110.364 201.627 110.144 200.64 110.144 199.52ZM119.684 199.54C119.684 198.66 119.504 197.887 119.144 197.22C118.784 196.553 118.29 196.04 117.664 195.68C117.05 195.32 116.37 195.14 115.624 195.14C114.85 195.14 114.157 195.313 113.544 195.66C112.93 196.007 112.444 196.513 112.084 197.18C111.737 197.833 111.564 198.613 111.564 199.52C111.564 200.413 111.737 201.2 112.084 201.88C112.444 202.547 112.93 203.06 113.544 203.42C114.157 203.767 114.85 203.94 115.624 203.94C116.37 203.94 117.05 203.76 117.664 203.4C118.29 203.04 118.784 202.527 119.144 201.86C119.504 201.193 119.684 200.42 119.684 199.54ZM133.74 194.08V205H132.34V203.08C132.02 203.76 131.526 204.28 130.86 204.64C130.193 205 129.446 205.18 128.62 205.18C127.313 205.18 126.246 204.78 125.42 203.98C124.593 203.167 124.18 201.993 124.18 200.46V194.08H125.56V200.3C125.56 201.487 125.853 202.393 126.44 203.02C127.04 203.647 127.853 203.96 128.88 203.96C129.933 203.96 130.773 203.627 131.4 202.96C132.026 202.293 132.34 201.313 132.34 200.02V194.08H133.74ZM146.816 198.98C146.816 199.46 146.803 199.827 146.776 200.08H137.716C137.756 200.907 137.956 201.613 138.316 202.2C138.676 202.787 139.149 203.233 139.736 203.54C140.323 203.833 140.963 203.98 141.656 203.98C142.563 203.98 143.323 203.76 143.936 203.32C144.563 202.88 144.976 202.287 145.176 201.54H146.656C146.389 202.607 145.816 203.48 144.936 204.16C144.069 204.827 142.976 205.16 141.656 205.16C140.629 205.16 139.709 204.933 138.896 204.48C138.083 204.013 137.443 203.36 136.976 202.52C136.523 201.667 136.296 200.673 136.296 199.54C136.296 198.407 136.523 197.413 136.976 196.56C137.429 195.707 138.063 195.053 138.876 194.6C139.689 194.147 140.616 193.92 141.656 193.92C142.696 193.92 143.603 194.147 144.376 194.6C145.163 195.053 145.763 195.667 146.176 196.44C146.603 197.2 146.816 198.047 146.816 198.98ZM145.396 198.94C145.409 198.127 145.243 197.433 144.896 196.86C144.563 196.287 144.103 195.853 143.516 195.56C142.929 195.267 142.289 195.12 141.596 195.12C140.556 195.12 139.669 195.453 138.936 196.12C138.203 196.787 137.796 197.727 137.716 198.94H145.396ZM158.746 203.64L162.426 194.08H163.906L159.526 205H157.946L153.566 194.08H155.066L158.746 203.64ZM170.583 205.16C169.556 205.16 168.63 204.933 167.803 204.48C166.99 204.013 166.343 203.36 165.863 202.52C165.396 201.667 165.163 200.673 165.163 199.54C165.163 198.407 165.403 197.42 165.883 196.58C166.363 195.727 167.016 195.073 167.843 194.62C168.67 194.153 169.596 193.92 170.623 193.92C171.65 193.92 172.576 194.153 173.403 194.62C174.243 195.073 174.896 195.727 175.363 196.58C175.843 197.42 176.083 198.407 176.083 199.54C176.083 200.66 175.843 201.647 175.363 202.5C174.883 203.353 174.223 204.013 173.383 204.48C172.543 204.933 171.61 205.16 170.583 205.16ZM170.583 203.94C171.303 203.94 171.97 203.78 172.583 203.46C173.196 203.127 173.69 202.633 174.063 201.98C174.45 201.313 174.643 200.5 174.643 199.54C174.643 198.58 174.456 197.773 174.083 197.12C173.71 196.453 173.216 195.96 172.603 195.64C171.99 195.307 171.323 195.14 170.603 195.14C169.883 195.14 169.216 195.307 168.603 195.64C167.99 195.96 167.496 196.453 167.123 197.12C166.763 197.773 166.583 198.58 166.583 199.54C166.583 200.5 166.763 201.313 167.123 201.98C167.496 202.633 167.983 203.127 168.583 203.46C169.196 203.78 169.863 203.94 170.583 203.94ZM177.995 199.54C177.995 198.407 178.222 197.42 178.675 196.58C179.128 195.727 179.755 195.073 180.555 194.62C181.355 194.153 182.268 193.92 183.295 193.92C184.642 193.92 185.748 194.253 186.615 194.92C187.495 195.587 188.062 196.493 188.315 197.64H186.815C186.628 196.853 186.222 196.24 185.595 195.8C184.982 195.347 184.215 195.12 183.295 195.12C182.562 195.12 181.902 195.287 181.315 195.62C180.728 195.953 180.262 196.453 179.915 197.12C179.582 197.773 179.415 198.58 179.415 199.54C179.415 200.5 179.582 201.313 179.915 201.98C180.262 202.647 180.728 203.147 181.315 203.48C181.902 203.813 182.562 203.98 183.295 203.98C184.215 203.98 184.982 203.76 185.595 203.32C186.222 202.867 186.628 202.24 186.815 201.44H188.315C188.062 202.56 187.495 203.46 186.615 204.14C185.735 204.82 184.628 205.16 183.295 205.16C182.268 205.16 181.355 204.933 180.555 204.48C179.755 204.013 179.128 203.36 178.675 202.52C178.222 201.667 177.995 200.673 177.995 199.54ZM200.781 198.98C200.781 199.46 200.767 199.827 200.741 200.08H191.681C191.721 200.907 191.921 201.613 192.281 202.2C192.641 202.787 193.114 203.233 193.701 203.54C194.287 203.833 194.927 203.98 195.621 203.98C196.527 203.98 197.287 203.76 197.901 203.32C198.527 202.88 198.941 202.287 199.141 201.54H200.621C200.354 202.607 199.781 203.48 198.901 204.16C198.034 204.827 196.941 205.16 195.621 205.16C194.594 205.16 193.674 204.933 192.861 204.48C192.047 204.013 191.407 203.36 190.941 202.52C190.487 201.667 190.261 200.673 190.261 199.54C190.261 198.407 190.487 197.413 190.941 196.56C191.394 195.707 192.027 195.053 192.841 194.6C193.654 194.147 194.581 193.92 195.621 193.92C196.661 193.92 197.567 194.147 198.341 194.6C199.127 195.053 199.727 195.667 200.141 196.44C200.567 197.2 200.781 198.047 200.781 198.98ZM199.361 198.94C199.374 198.127 199.207 197.433 198.861 196.86C198.527 196.287 198.067 195.853 197.481 195.56C196.894 195.267 196.254 195.12 195.561 195.12C194.521 195.12 193.634 195.453 192.901 196.12C192.167 196.787 191.761 197.727 191.681 198.94H199.361ZM195.521 191.24L192.841 192.92V191.78L195.521 190.14L198.201 191.78V192.92L195.521 191.24ZM210.21 196.48C210.557 195.747 211.104 195.14 211.85 194.66C212.61 194.167 213.51 193.92 214.55 193.92C215.537 193.92 216.424 194.153 217.21 194.62C218.01 195.073 218.63 195.727 219.07 196.58C219.524 197.42 219.75 198.4 219.75 199.52C219.75 200.64 219.524 201.627 219.07 202.48C218.63 203.333 218.01 203.993 217.21 204.46C216.424 204.927 215.537 205.16 214.55 205.16C213.524 205.16 212.63 204.92 211.87 204.44C211.11 203.947 210.557 203.333 210.21 202.6V210.16H208.83V194.08H210.21V196.48ZM218.33 199.52C218.33 198.613 218.15 197.833 217.79 197.18C217.444 196.513 216.964 196.007 216.35 195.66C215.737 195.313 215.044 195.14 214.27 195.14C213.524 195.14 212.837 195.32 212.21 195.68C211.597 196.04 211.11 196.553 210.75 197.22C210.39 197.887 210.21 198.66 210.21 199.54C210.21 200.42 210.39 201.193 210.75 201.86C211.11 202.527 211.597 203.04 212.21 203.4C212.837 203.76 213.524 203.94 214.27 203.94C215.044 203.94 215.737 203.767 216.35 203.42C216.964 203.06 217.444 202.547 217.79 201.88C218.15 201.2 218.33 200.413 218.33 199.52ZM223.727 196.02C224.033 195.34 224.5 194.813 225.127 194.44C225.767 194.067 226.547 193.88 227.467 193.88V195.34H227.087C226.073 195.34 225.26 195.613 224.647 196.16C224.033 196.707 223.727 197.62 223.727 198.9V205H222.327V194.08H223.727V196.02ZM239.453 198.98C239.453 199.46 239.439 199.827 239.413 200.08H230.353C230.393 200.907 230.593 201.613 230.953 202.2C231.313 202.787 231.786 203.233 232.373 203.54C232.959 203.833 233.599 203.98 234.293 203.98C235.199 203.98 235.959 203.76 236.573 203.32C237.199 202.88 237.613 202.287 237.813 201.54H239.293C239.026 202.607 238.453 203.48 237.573 204.16C236.706 204.827 235.613 205.16 234.293 205.16C233.266 205.16 232.346 204.933 231.533 204.48C230.719 204.013 230.079 203.36 229.613 202.52C229.159 201.667 228.933 200.673 228.933 199.54C228.933 198.407 229.159 197.413 229.613 196.56C230.066 195.707 230.699 195.053 231.513 194.6C232.326 194.147 233.253 193.92 234.293 193.92C235.333 193.92 236.239 194.147 237.013 194.6C237.799 195.053 238.399 195.667 238.813 196.44C239.239 197.2 239.453 198.047 239.453 198.98ZM238.033 198.94C238.046 198.127 237.879 197.433 237.533 196.86C237.199 196.287 236.739 195.853 236.153 195.56C235.566 195.267 234.926 195.12 234.233 195.12C233.193 195.12 232.306 195.453 231.573 196.12C230.839 196.787 230.433 197.727 230.353 198.94H238.033ZM241.374 199.54C241.374 198.407 241.601 197.42 242.054 196.58C242.507 195.727 243.134 195.073 243.934 194.62C244.734 194.153 245.647 193.92 246.674 193.92C248.021 193.92 249.127 194.253 249.994 194.92C250.874 195.587 251.441 196.493 251.694 197.64H250.194C250.007 196.853 249.601 196.24 248.974 195.8C248.361 195.347 247.594 195.12 246.674 195.12C245.941 195.12 245.281 195.287 244.694 195.62C244.107 195.953 243.641 196.453 243.294 197.12C242.961 197.773 242.794 198.58 242.794 199.54C242.794 200.5 242.961 201.313 243.294 201.98C243.641 202.647 244.107 203.147 244.694 203.48C245.281 203.813 245.941 203.98 246.674 203.98C247.594 203.98 248.361 203.76 248.974 203.32C249.601 202.867 250.007 202.24 250.194 201.44H251.694C251.441 202.56 250.874 203.46 249.994 204.14C249.114 204.82 248.007 205.16 246.674 205.16C245.647 205.16 244.734 204.933 243.934 204.48C243.134 204.013 242.507 203.36 242.054 202.52C241.601 201.667 241.374 200.673 241.374 199.54ZM254.98 192.02C254.7 192.02 254.46 191.92 254.26 191.72C254.06 191.52 253.96 191.273 253.96 190.98C253.96 190.687 254.06 190.447 254.26 190.26C254.46 190.06 254.7 189.96 254.98 189.96C255.26 189.96 255.5 190.06 255.7 190.26C255.9 190.447 256 190.687 256 190.98C256 191.273 255.9 191.52 255.7 191.72C255.5 191.92 255.26 192.02 254.98 192.02ZM255.68 194.08V205H254.28V194.08H255.68ZM262.61 205.16C261.357 205.16 260.33 204.873 259.53 204.3C258.743 203.713 258.303 202.92 258.21 201.92H259.65C259.717 202.533 260.003 203.033 260.51 203.42C261.03 203.793 261.723 203.98 262.59 203.98C263.35 203.98 263.943 203.8 264.37 203.44C264.81 203.08 265.03 202.633 265.03 202.1C265.03 201.727 264.91 201.42 264.67 201.18C264.43 200.94 264.123 200.753 263.75 200.62C263.39 200.473 262.897 200.32 262.27 200.16C261.457 199.947 260.797 199.733 260.29 199.52C259.783 199.307 259.35 198.993 258.99 198.58C258.643 198.153 258.47 197.587 258.47 196.88C258.47 196.347 258.63 195.853 258.95 195.4C259.27 194.947 259.723 194.587 260.31 194.32C260.897 194.053 261.563 193.92 262.31 193.92C263.483 193.92 264.43 194.22 265.15 194.82C265.87 195.407 266.257 196.22 266.31 197.26H264.91C264.87 196.62 264.617 196.107 264.15 195.72C263.697 195.32 263.07 195.12 262.27 195.12C261.563 195.12 260.99 195.287 260.55 195.62C260.11 195.953 259.89 196.367 259.89 196.86C259.89 197.287 260.017 197.64 260.27 197.92C260.537 198.187 260.863 198.4 261.25 198.56C261.637 198.707 262.157 198.873 262.81 199.06C263.597 199.273 264.223 199.48 264.69 199.68C265.157 199.88 265.557 200.173 265.89 200.56C266.223 200.947 266.397 201.46 266.41 202.1C266.41 202.687 266.25 203.213 265.93 203.68C265.61 204.133 265.163 204.493 264.59 204.76C264.017 205.027 263.357 205.16 262.61 205.16ZM268.405 199.52C268.405 198.4 268.625 197.42 269.065 196.58C269.519 195.727 270.139 195.073 270.925 194.62C271.725 194.153 272.625 193.92 273.625 193.92C274.665 193.92 275.559 194.16 276.305 194.64C277.065 195.12 277.612 195.733 277.945 196.48V194.08H279.345V205H277.945V202.58C277.599 203.327 277.045 203.947 276.285 204.44C275.539 204.92 274.645 205.16 273.605 205.16C272.619 205.16 271.725 204.927 270.925 204.46C270.139 203.993 269.519 203.333 269.065 202.48C268.625 201.627 268.405 200.64 268.405 199.52ZM277.945 199.54C277.945 198.66 277.765 197.887 277.405 197.22C277.045 196.553 276.552 196.04 275.925 195.68C275.312 195.32 274.632 195.14 273.885 195.14C273.112 195.14 272.419 195.313 271.805 195.66C271.192 196.007 270.705 196.513 270.345 197.18C269.999 197.833 269.825 198.613 269.825 199.52C269.825 200.413 269.999 201.2 270.345 201.88C270.705 202.547 271.192 203.06 271.805 203.42C272.419 203.767 273.112 203.94 273.885 203.94C274.632 203.94 275.312 203.76 275.925 203.4C276.552 203.04 277.045 202.527 277.405 201.86C277.765 201.193 277.945 200.42 277.945 199.54ZM289.41 196.48C289.756 195.747 290.303 195.14 291.05 194.66C291.81 194.167 292.71 193.92 293.75 193.92C294.736 193.92 295.623 194.153 296.41 194.62C297.21 195.073 297.83 195.727 298.27 196.58C298.723 197.42 298.95 198.4 298.95 199.52C298.95 200.64 298.723 201.627 298.27 202.48C297.83 203.333 297.21 203.993 296.41 204.46C295.623 204.927 294.736 205.16 293.75 205.16C292.723 205.16 291.83 204.92 291.07 204.44C290.31 203.947 289.756 203.333 289.41 202.6V210.16H288.03V194.08H289.41V196.48ZM297.53 199.52C297.53 198.613 297.35 197.833 296.99 197.18C296.643 196.513 296.163 196.007 295.55 195.66C294.936 195.313 294.243 195.14 293.47 195.14C292.723 195.14 292.036 195.32 291.41 195.68C290.796 196.04 290.31 196.553 289.95 197.22C289.59 197.887 289.41 198.66 289.41 199.54C289.41 200.42 289.59 201.193 289.95 201.86C290.31 202.527 290.796 203.04 291.41 203.4C292.036 203.76 292.723 203.94 293.47 203.94C294.243 203.94 294.936 203.767 295.55 203.42C296.163 203.06 296.643 202.547 296.99 201.88C297.35 201.2 297.53 200.413 297.53 199.52ZM300.886 199.52C300.886 198.4 301.106 197.42 301.546 196.58C301.999 195.727 302.619 195.073 303.406 194.62C304.206 194.153 305.106 193.92 306.106 193.92C307.146 193.92 308.039 194.16 308.786 194.64C309.546 195.12 310.092 195.733 310.426 196.48V194.08H311.826V205H310.426V202.58C310.079 203.327 309.526 203.947 308.766 204.44C308.019 204.92 307.126 205.16 306.086 205.16C305.099 205.16 304.206 204.927 303.406 204.46C302.619 203.993 301.999 203.333 301.546 202.48C301.106 201.627 300.886 200.64 300.886 199.52ZM310.426 199.54C310.426 198.66 310.246 197.887 309.886 197.22C309.526 196.553 309.032 196.04 308.406 195.68C307.792 195.32 307.112 195.14 306.366 195.14C305.592 195.14 304.899 195.313 304.286 195.66C303.672 196.007 303.186 196.513 302.826 197.18C302.479 197.833 302.306 198.613 302.306 199.52C302.306 200.413 302.479 201.2 302.826 201.88C303.186 202.547 303.672 203.06 304.286 203.42C304.899 203.767 305.592 203.94 306.366 203.94C307.112 203.94 307.792 203.76 308.406 203.4C309.032 203.04 309.526 202.527 309.886 201.86C310.246 201.193 310.426 200.42 310.426 199.54ZM316.422 196.02C316.729 195.34 317.195 194.813 317.822 194.44C318.462 194.067 319.242 193.88 320.162 193.88V195.34H319.782C318.769 195.34 317.955 195.613 317.342 196.16C316.729 196.707 316.422 197.62 316.422 198.9V205H315.022V194.08H316.422V196.02ZM321.628 199.52C321.628 198.4 321.848 197.42 322.288 196.58C322.741 195.727 323.361 195.073 324.148 194.62C324.948 194.153 325.848 193.92 326.848 193.92C327.888 193.92 328.781 194.16 329.528 194.64C330.288 195.12 330.835 195.733 331.168 196.48V194.08H332.568V205H331.168V202.58C330.821 203.327 330.268 203.947 329.508 204.44C328.761 204.92 327.868 205.16 326.828 205.16C325.841 205.16 324.948 204.927 324.148 204.46C323.361 203.993 322.741 203.333 322.288 202.48C321.848 201.627 321.628 200.64 321.628 199.52ZM331.168 199.54C331.168 198.66 330.988 197.887 330.628 197.22C330.268 196.553 329.775 196.04 329.148 195.68C328.535 195.32 327.855 195.14 327.108 195.14C326.335 195.14 325.641 195.313 325.028 195.66C324.415 196.007 323.928 196.513 323.568 197.18C323.221 197.833 323.048 198.613 323.048 199.52C323.048 200.413 323.221 201.2 323.568 201.88C323.928 202.547 324.415 203.06 325.028 203.42C325.641 203.767 326.335 203.94 327.108 203.94C327.855 203.94 328.535 203.76 329.148 203.4C329.775 203.04 330.268 202.527 330.628 201.86C330.988 201.193 331.168 200.42 331.168 199.54ZM42.38 237.16C41.3533 237.16 40.4267 236.933 39.6 236.48C38.7867 236.013 38.14 235.36 37.66 234.52C37.1933 233.667 36.96 232.673 36.96 231.54C36.96 230.407 37.2 229.42 37.68 228.58C38.16 227.727 38.8133 227.073 39.64 226.62C40.4667 226.153 41.3933 225.92 42.42 225.92C43.4467 225.92 44.3733 226.153 45.2 226.62C46.04 227.073 46.6933 227.727 47.16 228.58C47.64 229.42 47.88 230.407 47.88 231.54C47.88 232.66 47.64 233.647 47.16 234.5C46.68 235.353 46.02 236.013 45.18 236.48C44.34 236.933 43.4067 237.16 42.38 237.16ZM42.38 235.94C43.1 235.94 43.7667 235.78 44.38 235.46C44.9933 235.127 45.4867 234.633 45.86 233.98C46.2467 233.313 46.44 232.5 46.44 231.54C46.44 230.58 46.2533 229.773 45.88 229.12C45.5067 228.453 45.0133 227.96 44.4 227.64C43.7867 227.307 43.12 227.14 42.4 227.14C41.68 227.14 41.0133 227.307 40.4 227.64C39.7867 227.96 39.2933 228.453 38.92 229.12C38.56 229.773 38.38 230.58 38.38 231.54C38.38 232.5 38.56 233.313 38.92 233.98C39.2933 234.633 39.78 235.127 40.38 235.46C40.9933 235.78 41.66 235.94 42.38 235.94ZM59.6803 237.16C58.427 237.16 57.4003 236.873 56.6003 236.3C55.8136 235.713 55.3736 234.92 55.2803 233.92H56.7203C56.787 234.533 57.0736 235.033 57.5803 235.42C58.1003 235.793 58.7936 235.98 59.6603 235.98C60.4203 235.98 61.0136 235.8 61.4403 235.44C61.8803 235.08 62.1003 234.633 62.1003 234.1C62.1003 233.727 61.9803 233.42 61.7403 233.18C61.5003 232.94 61.1936 232.753 60.8203 232.62C60.4603 232.473 59.967 232.32 59.3403 232.16C58.527 231.947 57.867 231.733 57.3603 231.52C56.8536 231.307 56.4203 230.993 56.0603 230.58C55.7136 230.153 55.5403 229.587 55.5403 228.88C55.5403 228.347 55.7003 227.853 56.0203 227.4C56.3403 226.947 56.7936 226.587 57.3803 226.32C57.967 226.053 58.6336 225.92 59.3803 225.92C60.5536 225.92 61.5003 226.22 62.2203 226.82C62.9403 227.407 63.327 228.22 63.3803 229.26H61.9803C61.9403 228.62 61.687 228.107 61.2203 227.72C60.767 227.32 60.1403 227.12 59.3403 227.12C58.6336 227.12 58.0603 227.287 57.6203 227.62C57.1803 227.953 56.9603 228.367 56.9603 228.86C56.9603 229.287 57.087 229.64 57.3403 229.92C57.607 230.187 57.9336 230.4 58.3203 230.56C58.707 230.707 59.227 230.873 59.8803 231.06C60.667 231.273 61.2936 231.48 61.7603 231.68C62.227 231.88 62.627 232.173 62.9603 232.56C63.2936 232.947 63.467 233.46 63.4803 234.1C63.4803 234.687 63.3203 235.213 63.0003 235.68C62.6803 236.133 62.2336 236.493 61.6603 236.76C61.087 237.027 60.427 237.16 59.6803 237.16ZM75.9956 230.98C75.9956 231.46 75.9823 231.827 75.9556 232.08H66.8956C66.9356 232.907 67.1356 233.613 67.4956 234.2C67.8556 234.787 68.329 235.233 68.9156 235.54C69.5023 235.833 70.1423 235.98 70.8356 235.98C71.7423 235.98 72.5023 235.76 73.1156 235.32C73.7423 234.88 74.1556 234.287 74.3556 233.54H75.8356C75.569 234.607 74.9956 235.48 74.1156 236.16C73.249 236.827 72.1556 237.16 70.8356 237.16C69.809 237.16 68.889 236.933 68.0756 236.48C67.2623 236.013 66.6223 235.36 66.1556 234.52C65.7023 233.667 65.4756 232.673 65.4756 231.54C65.4756 230.407 65.7023 229.413 66.1556 228.56C66.609 227.707 67.2423 227.053 68.0556 226.6C68.869 226.147 69.7956 225.92 70.8356 225.92C71.8756 225.92 72.7823 226.147 73.5556 226.6C74.3423 227.053 74.9423 227.667 75.3556 228.44C75.7823 229.2 75.9956 230.047 75.9956 230.98ZM74.5756 230.94C74.589 230.127 74.4223 229.433 74.0756 228.86C73.7423 228.287 73.2823 227.853 72.6956 227.56C72.109 227.267 71.469 227.12 70.7756 227.12C69.7356 227.12 68.849 227.453 68.1156 228.12C67.3823 228.787 66.9756 229.727 66.8956 230.94H74.5756ZM88.017 226.08V237H86.617V235.08C86.297 235.76 85.8037 236.28 85.137 236.64C84.4704 237 83.7237 237.18 82.897 237.18C81.5904 237.18 80.5237 236.78 79.697 235.98C78.8704 235.167 78.457 233.993 78.457 232.46V226.08H79.837V232.3C79.837 233.487 80.1304 234.393 80.717 235.02C81.317 235.647 82.1304 235.96 83.157 235.96C84.2104 235.96 85.0504 235.627 85.677 234.96C86.3037 234.293 86.617 233.313 86.617 232.02V226.08H88.017ZM101.822 225.88C103.128 225.88 104.195 226.287 105.022 227.1C105.848 227.9 106.262 229.067 106.262 230.6V237H104.882V230.76C104.882 229.573 104.582 228.667 103.982 228.04C103.395 227.413 102.588 227.1 101.562 227.1C100.508 227.1 99.6682 227.433 99.0416 228.1C98.4149 228.767 98.1016 229.747 98.1016 231.04V237H96.7016V226.08H98.1016V227.94C98.4482 227.273 98.9482 226.767 99.6016 226.42C100.255 226.06 100.995 225.88 101.822 225.88ZM119.238 230.98C119.238 231.46 119.224 231.827 119.198 232.08H110.138C110.178 232.907 110.378 233.613 110.738 234.2C111.098 234.787 111.571 235.233 112.158 235.54C112.744 235.833 113.384 235.98 114.078 235.98C114.984 235.98 115.744 235.76 116.358 235.32C116.984 234.88 117.398 234.287 117.598 233.54H119.078C118.811 234.607 118.238 235.48 117.358 236.16C116.491 236.827 115.398 237.16 114.078 237.16C113.051 237.16 112.131 236.933 111.318 236.48C110.504 236.013 109.864 235.36 109.398 234.52C108.944 233.667 108.718 232.673 108.718 231.54C108.718 230.407 108.944 229.413 109.398 228.56C109.851 227.707 110.484 227.053 111.298 226.6C112.111 226.147 113.038 225.92 114.078 225.92C115.118 225.92 116.024 226.147 116.798 226.6C117.584 227.053 118.184 227.667 118.598 228.44C119.024 229.2 119.238 230.047 119.238 230.98ZM117.818 230.94C117.831 230.127 117.664 229.433 117.318 228.86C116.984 228.287 116.524 227.853 115.938 227.56C115.351 227.267 114.711 227.12 114.018 227.12C112.978 227.12 112.091 227.453 111.358 228.12C110.624 228.787 110.218 229.727 110.138 230.94H117.818ZM126.379 225.92C127.406 225.92 128.299 226.16 129.059 226.64C129.819 227.12 130.366 227.727 130.699 228.46V226.08H132.099V237.28C132.099 238.28 131.879 239.167 131.439 239.94C131.013 240.713 130.413 241.307 129.639 241.72C128.866 242.147 127.986 242.36 126.999 242.36C125.599 242.36 124.433 242.027 123.499 241.36C122.579 240.693 122.006 239.787 121.779 238.64H123.159C123.399 239.4 123.853 240.007 124.519 240.46C125.199 240.913 126.026 241.14 126.999 241.14C127.706 241.14 128.339 240.987 128.899 240.68C129.459 240.387 129.899 239.947 130.219 239.36C130.539 238.773 130.699 238.08 130.699 237.28V234.58C130.353 235.327 129.799 235.947 129.039 236.44C128.293 236.92 127.406 237.16 126.379 237.16C125.379 237.16 124.479 236.927 123.679 236.46C122.893 235.993 122.273 235.333 121.819 234.48C121.379 233.627 121.159 232.64 121.159 231.52C121.159 230.4 121.379 229.42 121.819 228.58C122.273 227.727 122.893 227.073 123.679 226.62C124.479 226.153 125.379 225.92 126.379 225.92ZM130.699 231.54C130.699 230.66 130.519 229.887 130.159 229.22C129.799 228.553 129.306 228.04 128.679 227.68C128.066 227.32 127.386 227.14 126.639 227.14C125.866 227.14 125.173 227.313 124.559 227.66C123.946 228.007 123.459 228.513 123.099 229.18C122.753 229.833 122.579 230.613 122.579 231.52C122.579 232.413 122.753 233.2 123.099 233.88C123.459 234.547 123.946 235.06 124.559 235.42C125.173 235.767 125.866 235.94 126.639 235.94C127.386 235.94 128.066 235.76 128.679 235.4C129.306 235.04 129.799 234.527 130.159 233.86C130.519 233.193 130.699 232.42 130.699 231.54ZM140.075 237.16C139.049 237.16 138.122 236.933 137.295 236.48C136.482 236.013 135.835 235.36 135.355 234.52C134.889 233.667 134.655 232.673 134.655 231.54C134.655 230.407 134.895 229.42 135.375 228.58C135.855 227.727 136.509 227.073 137.335 226.62C138.162 226.153 139.089 225.92 140.115 225.92C141.142 225.92 142.069 226.153 142.895 226.62C143.735 227.073 144.389 227.727 144.855 228.58C145.335 229.42 145.575 230.407 145.575 231.54C145.575 232.66 145.335 233.647 144.855 234.5C144.375 235.353 143.715 236.013 142.875 236.48C142.035 236.933 141.102 237.16 140.075 237.16ZM140.075 235.94C140.795 235.94 141.462 235.78 142.075 235.46C142.689 235.127 143.182 234.633 143.555 233.98C143.942 233.313 144.135 232.5 144.135 231.54C144.135 230.58 143.949 229.773 143.575 229.12C143.202 228.453 142.709 227.96 142.095 227.64C141.482 227.307 140.815 227.14 140.095 227.14C139.375 227.14 138.709 227.307 138.095 227.64C137.482 227.96 136.989 228.453 136.615 229.12C136.255 229.773 136.075 230.58 136.075 231.54C136.075 232.5 136.255 233.313 136.615 233.98C136.989 234.633 137.475 235.127 138.075 235.46C138.689 235.78 139.355 235.94 140.075 235.94ZM141.995 222.76L137.895 225.14V224.06L141.995 221.5V222.76ZM147.487 231.54C147.487 230.407 147.714 229.42 148.167 228.58C148.621 227.727 149.247 227.073 150.047 226.62C150.847 226.153 151.761 225.92 152.787 225.92C154.134 225.92 155.241 226.253 156.107 226.92C156.987 227.587 157.554 228.493 157.807 229.64H156.307C156.121 228.853 155.714 228.24 155.087 227.8C154.474 227.347 153.707 227.12 152.787 227.12C152.054 227.12 151.394 227.287 150.807 227.62C150.221 227.953 149.754 228.453 149.407 229.12C149.074 229.773 148.907 230.58 148.907 231.54C148.907 232.5 149.074 233.313 149.407 233.98C149.754 234.647 150.221 235.147 150.807 235.48C151.394 235.813 152.054 235.98 152.787 235.98C153.707 235.98 154.474 235.76 155.087 235.32C155.714 234.867 156.121 234.24 156.307 233.44H157.807C157.554 234.56 156.987 235.46 156.107 236.14C155.227 236.82 154.121 237.16 152.787 237.16C151.761 237.16 150.847 236.933 150.047 236.48C149.247 236.013 148.621 235.36 148.167 234.52C147.714 233.667 147.487 232.673 147.487 231.54ZM161.093 224.02C160.813 224.02 160.573 223.92 160.373 223.72C160.173 223.52 160.073 223.273 160.073 222.98C160.073 222.687 160.173 222.447 160.373 222.26C160.573 222.06 160.813 221.96 161.093 221.96C161.373 221.96 161.613 222.06 161.813 222.26C162.013 222.447 162.113 222.687 162.113 222.98C162.113 223.273 162.013 223.52 161.813 223.72C161.613 223.92 161.373 224.02 161.093 224.02ZM161.793 226.08V237H160.393V226.08H161.793ZM169.743 237.16C168.717 237.16 167.79 236.933 166.963 236.48C166.15 236.013 165.503 235.36 165.023 234.52C164.557 233.667 164.323 232.673 164.323 231.54C164.323 230.407 164.563 229.42 165.043 228.58C165.523 227.727 166.177 227.073 167.003 226.62C167.83 226.153 168.757 225.92 169.783 225.92C170.81 225.92 171.737 226.153 172.563 226.62C173.403 227.073 174.057 227.727 174.523 228.58C175.003 229.42 175.243 230.407 175.243 231.54C175.243 232.66 175.003 233.647 174.523 234.5C174.043 235.353 173.383 236.013 172.543 236.48C171.703 236.933 170.77 237.16 169.743 237.16ZM169.743 235.94C170.463 235.94 171.13 235.78 171.743 235.46C172.357 235.127 172.85 234.633 173.223 233.98C173.61 233.313 173.803 232.5 173.803 231.54C173.803 230.58 173.617 229.773 173.243 229.12C172.87 228.453 172.377 227.96 171.763 227.64C171.15 227.307 170.483 227.14 169.763 227.14C169.043 227.14 168.377 227.307 167.763 227.64C167.15 227.96 166.657 228.453 166.283 229.12C165.923 229.773 165.743 230.58 165.743 231.54C165.743 232.5 165.923 233.313 166.283 233.98C166.657 234.633 167.143 235.127 167.743 235.46C168.357 235.78 169.023 235.94 169.743 235.94ZM179.675 223.02L179.495 233.3H178.315L178.155 223.02H179.675ZM178.975 237.1C178.682 237.1 178.435 237 178.235 236.8C178.049 236.6 177.955 236.353 177.955 236.06C177.955 235.767 178.049 235.527 178.235 235.34C178.435 235.14 178.682 235.04 178.975 235.04C179.255 235.04 179.489 235.14 179.675 235.34C179.875 235.527 179.975 235.767 179.975 236.06C179.975 236.353 179.875 236.6 179.675 236.8C179.489 237 179.255 237.1 178.975 237.1Z" fill="#131517"/>
<path d="M65 299.86H70.02V301H63.6V287.02H65V299.86ZM72.718 288.02C72.438 288.02 72.198 287.92 71.998 287.72C71.798 287.52 71.698 287.273 71.698 286.98C71.698 286.687 71.798 286.447 71.998 286.26C72.198 286.06 72.438 285.96 72.718 285.96C72.998 285.96 73.238 286.06 73.438 286.26C73.638 286.447 73.738 286.687 73.738 286.98C73.738 287.273 73.638 287.52 73.438 287.72C73.238 287.92 72.998 288.02 72.718 288.02ZM73.418 290.08V301H72.018V290.08H73.418ZM89.5883 289.88C90.8683 289.88 91.9083 290.287 92.7083 291.1C93.5216 291.9 93.9283 293.067 93.9283 294.6V301H92.5483V294.76C92.5483 293.573 92.2616 292.667 91.6883 292.04C91.1149 291.413 90.3349 291.1 89.3483 291.1C88.3216 291.1 87.5016 291.44 86.8883 292.12C86.2749 292.8 85.9683 293.787 85.9683 295.08V301H84.5883V294.76C84.5883 293.573 84.3016 292.667 83.7283 292.04C83.1549 291.413 82.3683 291.1 81.3683 291.1C80.3416 291.1 79.5216 291.44 78.9083 292.12C78.2949 292.8 77.9883 293.787 77.9883 295.08V301H76.5883V290.08H77.9883V291.96C78.3349 291.28 78.8283 290.767 79.4683 290.42C80.1083 290.06 80.8216 289.88 81.6083 289.88C82.5549 289.88 83.3816 290.107 84.0883 290.56C84.8083 291.013 85.3283 291.68 85.6483 292.56C85.9416 291.693 86.4416 291.033 87.1483 290.58C87.8683 290.113 88.6816 289.88 89.5883 289.88ZM98.4175 292.48C98.7642 291.747 99.3108 291.14 100.058 290.66C100.818 290.167 101.718 289.92 102.758 289.92C103.744 289.92 104.631 290.153 105.418 290.62C106.218 291.073 106.838 291.727 107.278 292.58C107.731 293.42 107.958 294.4 107.958 295.52C107.958 296.64 107.731 297.627 107.278 298.48C106.838 299.333 106.218 299.993 105.418 300.46C104.631 300.927 103.744 301.16 102.758 301.16C101.731 301.16 100.838 300.92 100.078 300.44C99.3175 299.947 98.7642 299.333 98.4175 298.6V306.16H97.0375V290.08H98.4175V292.48ZM106.538 295.52C106.538 294.613 106.358 293.833 105.997 293.18C105.651 292.513 105.171 292.007 104.558 291.66C103.944 291.313 103.251 291.14 102.478 291.14C101.731 291.14 101.044 291.32 100.418 291.68C99.8042 292.04 99.3175 292.553 98.9575 293.22C98.5975 293.887 98.4175 294.66 98.4175 295.54C98.4175 296.42 98.5975 297.193 98.9575 297.86C99.3175 298.527 99.8042 299.04 100.418 299.4C101.044 299.76 101.731 299.94 102.478 299.94C103.251 299.94 103.944 299.767 104.558 299.42C105.171 299.06 105.651 298.547 105.997 297.88C106.358 297.2 106.538 296.413 106.538 295.52ZM120.414 294.98C120.414 295.46 120.4 295.827 120.374 296.08H111.314C111.354 296.907 111.554 297.613 111.914 298.2C112.274 298.787 112.747 299.233 113.334 299.54C113.92 299.833 114.56 299.98 115.254 299.98C116.16 299.98 116.92 299.76 117.534 299.32C118.16 298.88 118.574 298.287 118.774 297.54H120.254C119.987 298.607 119.414 299.48 118.534 300.16C117.667 300.827 116.574 301.16 115.254 301.16C114.227 301.16 113.307 300.933 112.494 300.48C111.68 300.013 111.04 299.36 110.574 298.52C110.12 297.667 109.894 296.673 109.894 295.54C109.894 294.407 110.12 293.413 110.574 292.56C111.027 291.707 111.66 291.053 112.474 290.6C113.287 290.147 114.214 289.92 115.254 289.92C116.294 289.92 117.2 290.147 117.974 290.6C118.76 291.053 119.36 291.667 119.774 292.44C120.2 293.2 120.414 294.047 120.414 294.98ZM118.994 294.94C119.007 294.127 118.84 293.433 118.494 292.86C118.16 292.287 117.7 291.853 117.114 291.56C116.527 291.267 115.887 291.12 115.194 291.12C114.154 291.12 113.267 291.453 112.534 292.12C111.8 292.787 111.394 293.727 111.314 294.94H118.994ZM123.715 299.84H129.435V301H122.115V299.84L127.735 291.24H122.215V290.08H129.335V291.24L123.715 299.84ZM131.163 295.52C131.163 294.4 131.383 293.42 131.823 292.58C132.276 291.727 132.896 291.073 133.683 290.62C134.483 290.153 135.383 289.92 136.383 289.92C137.423 289.92 138.316 290.16 139.063 290.64C139.823 291.12 140.37 291.733 140.703 292.48V290.08H142.103V301H140.703V298.58C140.356 299.327 139.803 299.947 139.043 300.44C138.296 300.92 137.403 301.16 136.363 301.16C135.376 301.16 134.483 300.927 133.683 300.46C132.896 299.993 132.276 299.333 131.823 298.48C131.383 297.627 131.163 296.64 131.163 295.52ZM140.703 295.54C140.703 294.66 140.523 293.887 140.163 293.22C139.803 292.553 139.31 292.04 138.683 291.68C138.07 291.32 137.39 291.14 136.643 291.14C135.87 291.14 135.176 291.313 134.563 291.66C133.95 292.007 133.463 292.513 133.103 293.18C132.756 293.833 132.583 294.613 132.583 295.52C132.583 296.413 132.756 297.2 133.103 297.88C133.463 298.547 133.95 299.06 134.563 299.42C135.176 299.767 135.87 299.94 136.643 299.94C137.39 299.94 138.07 299.76 138.683 299.4C139.31 299.04 139.803 298.527 140.163 297.86C140.523 297.193 140.703 296.42 140.703 295.54ZM150.148 295.52C150.148 294.4 150.374 293.42 150.828 292.58C151.281 291.727 151.901 291.073 152.688 290.62C153.488 290.153 154.388 289.92 155.388 289.92C156.348 289.92 157.214 290.153 157.988 290.62C158.761 291.087 159.328 291.693 159.688 292.44V286.2H161.088V301H159.688V298.56C159.354 299.32 158.808 299.947 158.048 300.44C157.288 300.92 156.394 301.16 155.368 301.16C154.368 301.16 153.468 300.927 152.668 300.46C151.881 299.993 151.261 299.333 150.808 298.48C150.368 297.627 150.148 296.64 150.148 295.52ZM159.688 295.54C159.688 294.66 159.508 293.887 159.148 293.22C158.788 292.553 158.294 292.04 157.668 291.68C157.054 291.32 156.374 291.14 155.628 291.14C154.854 291.14 154.161 291.313 153.548 291.66C152.934 292.007 152.448 292.513 152.088 293.18C151.741 293.833 151.568 294.613 151.568 295.52C151.568 296.413 151.741 297.2 152.088 297.88C152.448 298.547 152.934 299.06 153.548 299.42C154.161 299.767 154.854 299.94 155.628 299.94C156.374 299.94 157.054 299.76 157.668 299.4C158.294 299.04 158.788 298.527 159.148 297.86C159.508 297.193 159.688 296.42 159.688 295.54ZM169.064 301.16C168.037 301.16 167.11 300.933 166.284 300.48C165.47 300.013 164.824 299.36 164.344 298.52C163.877 297.667 163.644 296.673 163.644 295.54C163.644 294.407 163.884 293.42 164.364 292.58C164.844 291.727 165.497 291.073 166.324 290.62C167.15 290.153 168.077 289.92 169.104 289.92C170.13 289.92 171.057 290.153 171.884 290.62C172.724 291.073 173.377 291.727 173.844 292.58C174.324 293.42 174.564 294.407 174.564 295.54C174.564 296.66 174.324 297.647 173.844 298.5C173.364 299.353 172.704 300.013 171.864 300.48C171.024 300.933 170.09 301.16 169.064 301.16ZM169.064 299.94C169.784 299.94 170.45 299.78 171.064 299.46C171.677 299.127 172.17 298.633 172.544 297.98C172.93 297.313 173.124 296.5 173.124 295.54C173.124 294.58 172.937 293.773 172.564 293.12C172.19 292.453 171.697 291.96 171.084 291.64C170.47 291.307 169.804 291.14 169.084 291.14C168.364 291.14 167.697 291.307 167.084 291.64C166.47 291.96 165.977 292.453 165.604 293.12C165.244 293.773 165.064 294.58 165.064 295.54C165.064 296.5 165.244 297.313 165.604 297.98C165.977 298.633 166.464 299.127 167.064 299.46C167.677 299.78 168.344 299.94 169.064 299.94ZM180.876 301.16C179.622 301.16 178.596 300.873 177.796 300.3C177.009 299.713 176.569 298.92 176.476 297.92H177.916C177.982 298.533 178.269 299.033 178.776 299.42C179.296 299.793 179.989 299.98 180.856 299.98C181.616 299.98 182.209 299.8 182.636 299.44C183.076 299.08 183.296 298.633 183.296 298.1C183.296 297.727 183.176 297.42 182.936 297.18C182.696 296.94 182.389 296.753 182.016 296.62C181.656 296.473 181.162 296.32 180.536 296.16C179.722 295.947 179.062 295.733 178.556 295.52C178.049 295.307 177.616 294.993 177.256 294.58C176.909 294.153 176.736 293.587 176.736 292.88C176.736 292.347 176.896 291.853 177.216 291.4C177.536 290.947 177.989 290.587 178.576 290.32C179.162 290.053 179.829 289.92 180.576 289.92C181.749 289.92 182.696 290.22 183.416 290.82C184.136 291.407 184.522 292.22 184.576 293.26H183.176C183.136 292.62 182.882 292.107 182.416 291.72C181.962 291.32 181.336 291.12 180.536 291.12C179.829 291.12 179.256 291.287 178.816 291.62C178.376 291.953 178.156 292.367 178.156 292.86C178.156 293.287 178.282 293.64 178.536 293.92C178.802 294.187 179.129 294.4 179.516 294.56C179.902 294.707 180.422 294.873 181.076 295.06C181.862 295.273 182.489 295.48 182.956 295.68C183.422 295.88 183.822 296.173 184.156 296.56C184.489 296.947 184.662 297.46 184.676 298.1C184.676 298.687 184.516 299.213 184.196 299.68C183.876 300.133 183.429 300.493 182.856 300.76C182.282 301.027 181.622 301.16 180.876 301.16ZM192.159 295.54C192.159 294.407 192.386 293.42 192.839 292.58C193.293 291.727 193.919 291.073 194.719 290.62C195.519 290.153 196.433 289.92 197.459 289.92C198.806 289.92 199.913 290.253 200.779 290.92C201.659 291.587 202.226 292.493 202.479 293.64H200.979C200.793 292.853 200.386 292.24 199.759 291.8C199.146 291.347 198.379 291.12 197.459 291.12C196.726 291.12 196.066 291.287 195.479 291.62C194.893 291.953 194.426 292.453 194.079 293.12C193.746 293.773 193.579 294.58 193.579 295.54C193.579 296.5 193.746 297.313 194.079 297.98C194.426 298.647 194.893 299.147 195.479 299.48C196.066 299.813 196.726 299.98 197.459 299.98C198.379 299.98 199.146 299.76 199.759 299.32C200.386 298.867 200.793 298.24 200.979 297.44H202.479C202.226 298.56 201.659 299.46 200.779 300.14C199.899 300.82 198.793 301.16 197.459 301.16C196.433 301.16 195.519 300.933 194.719 300.48C193.919 300.013 193.293 299.36 192.839 298.52C192.386 297.667 192.159 296.673 192.159 295.54ZM209.845 301.16C208.818 301.16 207.892 300.933 207.065 300.48C206.252 300.013 205.605 299.36 205.125 298.52C204.658 297.667 204.425 296.673 204.425 295.54C204.425 294.407 204.665 293.42 205.145 292.58C205.625 291.727 206.278 291.073 207.105 290.62C207.932 290.153 208.858 289.92 209.885 289.92C210.912 289.92 211.838 290.153 212.665 290.62C213.505 291.073 214.158 291.727 214.625 292.58C215.105 293.42 215.345 294.407 215.345 295.54C215.345 296.66 215.105 297.647 214.625 298.5C214.145 299.353 213.485 300.013 212.645 300.48C211.805 300.933 210.872 301.16 209.845 301.16ZM209.845 299.94C210.565 299.94 211.232 299.78 211.845 299.46C212.458 299.127 212.952 298.633 213.325 297.98C213.712 297.313 213.905 296.5 213.905 295.54C213.905 294.58 213.718 293.773 213.345 293.12C212.972 292.453 212.478 291.96 211.865 291.64C211.252 291.307 210.585 291.14 209.865 291.14C209.145 291.14 208.478 291.307 207.865 291.64C207.252 291.96 206.758 292.453 206.385 293.12C206.025 293.773 205.845 294.58 205.845 295.54C205.845 296.5 206.025 297.313 206.385 297.98C206.758 298.633 207.245 299.127 207.845 299.46C208.458 299.78 209.125 299.94 209.845 299.94ZM209.925 287.14L207.245 288.82V287.68L209.925 286.04L212.605 287.68V288.82L209.925 287.14ZM230.897 289.88C232.177 289.88 233.217 290.287 234.017 291.1C234.83 291.9 235.237 293.067 235.237 294.6V301H233.857V294.76C233.857 293.573 233.57 292.667 232.997 292.04C232.424 291.413 231.644 291.1 230.657 291.1C229.63 291.1 228.81 291.44 228.197 292.12C227.584 292.8 227.277 293.787 227.277 295.08V301H225.897V294.76C225.897 293.573 225.61 292.667 225.037 292.04C224.464 291.413 223.677 291.1 222.677 291.1C221.65 291.1 220.83 291.44 220.217 292.12C219.604 292.8 219.297 293.787 219.297 295.08V301H217.897V290.08H219.297V291.96C219.644 291.28 220.137 290.767 220.777 290.42C221.417 290.06 222.13 289.88 222.917 289.88C223.864 289.88 224.69 290.107 225.397 290.56C226.117 291.013 226.637 291.68 226.957 292.56C227.25 291.693 227.75 291.033 228.457 290.58C229.177 290.113 229.99 289.88 230.897 289.88ZM243.126 301.16C242.099 301.16 241.173 300.933 240.346 300.48C239.533 300.013 238.886 299.36 238.406 298.52C237.939 297.667 237.706 296.673 237.706 295.54C237.706 294.407 237.946 293.42 238.426 292.58C238.906 291.727 239.559 291.073 240.386 290.62C241.213 290.153 242.139 289.92 243.166 289.92C244.193 289.92 245.119 290.153 245.946 290.62C246.786 291.073 247.439 291.727 247.906 292.58C248.386 293.42 248.626 294.407 248.626 295.54C248.626 296.66 248.386 297.647 247.906 298.5C247.426 299.353 246.766 300.013 245.926 300.48C245.086 300.933 244.153 301.16 243.126 301.16ZM243.126 299.94C243.846 299.94 244.513 299.78 245.126 299.46C245.739 299.127 246.233 298.633 246.606 297.98C246.993 297.313 247.186 296.5 247.186 295.54C247.186 294.58 246.999 293.773 246.626 293.12C246.253 292.453 245.759 291.96 245.146 291.64C244.533 291.307 243.866 291.14 243.146 291.14C242.426 291.14 241.759 291.307 241.146 291.64C240.533 291.96 240.039 292.453 239.666 293.12C239.306 293.773 239.126 294.58 239.126 295.54C239.126 296.5 239.306 297.313 239.666 297.98C240.039 298.633 240.526 299.127 241.126 299.46C241.739 299.78 242.406 299.94 243.126 299.94ZM250.538 295.52C250.538 294.4 250.765 293.42 251.218 292.58C251.671 291.727 252.291 291.073 253.078 290.62C253.878 290.153 254.778 289.92 255.778 289.92C256.738 289.92 257.605 290.153 258.378 290.62C259.151 291.087 259.718 291.693 260.078 292.44V286.2H261.478V301H260.078V298.56C259.745 299.32 259.198 299.947 258.438 300.44C257.678 300.92 256.785 301.16 255.758 301.16C254.758 301.16 253.858 300.927 253.058 300.46C252.271 299.993 251.651 299.333 251.198 298.48C250.758 297.627 250.538 296.64 250.538 295.52ZM260.078 295.54C260.078 294.66 259.898 293.887 259.538 293.22C259.178 292.553 258.685 292.04 258.058 291.68C257.445 291.32 256.765 291.14 256.018 291.14C255.245 291.14 254.551 291.313 253.938 291.66C253.325 292.007 252.838 292.513 252.478 293.18C252.131 293.833 251.958 294.613 251.958 295.52C251.958 296.413 252.131 297.2 252.478 297.88C252.838 298.547 253.325 299.06 253.938 299.42C254.551 299.767 255.245 299.94 256.018 299.94C256.765 299.94 257.445 299.76 258.058 299.4C258.685 299.04 259.178 298.527 259.538 297.86C259.898 297.193 260.078 296.42 260.078 295.54ZM269.454 301.16C268.428 301.16 267.501 300.933 266.674 300.48C265.861 300.013 265.214 299.36 264.734 298.52C264.268 297.667 264.034 296.673 264.034 295.54C264.034 294.407 264.274 293.42 264.754 292.58C265.234 291.727 265.888 291.073 266.714 290.62C267.541 290.153 268.468 289.92 269.494 289.92C270.521 289.92 271.448 290.153 272.274 290.62C273.114 291.073 273.768 291.727 274.234 292.58C274.714 293.42 274.954 294.407 274.954 295.54C274.954 296.66 274.714 297.647 274.234 298.5C273.754 299.353 273.094 300.013 272.254 300.48C271.414 300.933 270.481 301.16 269.454 301.16ZM269.454 299.94C270.174 299.94 270.841 299.78 271.454 299.46C272.068 299.127 272.561 298.633 272.934 297.98C273.321 297.313 273.514 296.5 273.514 295.54C273.514 294.58 273.328 293.773 272.954 293.12C272.581 292.453 272.088 291.96 271.474 291.64C270.861 291.307 270.194 291.14 269.474 291.14C268.754 291.14 268.088 291.307 267.474 291.64C266.861 291.96 266.368 292.453 265.994 293.12C265.634 293.773 265.454 294.58 265.454 295.54C265.454 296.5 265.634 297.313 265.994 297.98C266.368 298.633 266.854 299.127 267.454 299.46C268.068 299.78 268.734 299.94 269.454 299.94ZM281.266 301.16C280.013 301.16 278.986 300.873 278.186 300.3C277.4 299.713 276.96 298.92 276.866 297.92H278.306C278.373 298.533 278.66 299.033 279.166 299.42C279.686 299.793 280.38 299.98 281.246 299.98C282.006 299.98 282.6 299.8 283.026 299.44C283.466 299.08 283.686 298.633 283.686 298.1C283.686 297.727 283.566 297.42 283.326 297.18C283.086 296.94 282.78 296.753 282.406 296.62C282.046 296.473 281.553 296.32 280.926 296.16C280.113 295.947 279.453 295.733 278.946 295.52C278.44 295.307 278.006 294.993 277.646 294.58C277.3 294.153 277.126 293.587 277.126 292.88C277.126 292.347 277.286 291.853 277.606 291.4C277.926 290.947 278.38 290.587 278.966 290.32C279.553 290.053 280.22 289.92 280.966 289.92C282.14 289.92 283.086 290.22 283.806 290.82C284.526 291.407 284.913 292.22 284.966 293.26H283.566C283.526 292.62 283.273 292.107 282.806 291.72C282.353 291.32 281.726 291.12 280.926 291.12C280.22 291.12 279.646 291.287 279.206 291.62C278.766 291.953 278.546 292.367 278.546 292.86C278.546 293.287 278.673 293.64 278.926 293.92C279.193 294.187 279.52 294.4 279.906 294.56C280.293 294.707 280.813 294.873 281.466 295.06C282.253 295.273 282.88 295.48 283.346 295.68C283.813 295.88 284.213 296.173 284.546 296.56C284.88 296.947 285.053 297.46 285.066 298.1C285.066 298.687 284.906 299.213 284.586 299.68C284.266 300.133 283.82 300.493 283.246 300.76C282.673 301.027 282.013 301.16 281.266 301.16Z" fill="#131517"/>
<rect x="36" y="289" width="10" height="10" rx="5" fill="#131517"/>
<path d="M65 347.86H70.02V349H63.6V335.02H65V347.86ZM72.718 336.02C72.438 336.02 72.198 335.92 71.998 335.72C71.798 335.52 71.698 335.273 71.698 334.98C71.698 334.687 71.798 334.447 71.998 334.26C72.198 334.06 72.438 333.96 72.718 333.96C72.998 333.96 73.238 334.06 73.438 334.26C73.638 334.447 73.738 334.687 73.738 334.98C73.738 335.273 73.638 335.52 73.438 335.72C73.238 335.92 72.998 336.02 72.718 336.02ZM73.418 338.08V349H72.018V338.08H73.418ZM89.5883 337.88C90.8683 337.88 91.9083 338.287 92.7083 339.1C93.5216 339.9 93.9283 341.067 93.9283 342.6V349H92.5483V342.76C92.5483 341.573 92.2616 340.667 91.6883 340.04C91.1149 339.413 90.3349 339.1 89.3483 339.1C88.3216 339.1 87.5016 339.44 86.8883 340.12C86.2749 340.8 85.9683 341.787 85.9683 343.08V349H84.5883V342.76C84.5883 341.573 84.3016 340.667 83.7283 340.04C83.1549 339.413 82.3683 339.1 81.3683 339.1C80.3416 339.1 79.5216 339.44 78.9083 340.12C78.2949 340.8 77.9883 341.787 77.9883 343.08V349H76.5883V338.08H77.9883V339.96C78.3349 339.28 78.8283 338.767 79.4683 338.42C80.1083 338.06 80.8216 337.88 81.6083 337.88C82.5549 337.88 83.3816 338.107 84.0883 338.56C84.8083 339.013 85.3283 339.68 85.6483 340.56C85.9416 339.693 86.4416 339.033 87.1483 338.58C87.8683 338.113 88.6816 337.88 89.5883 337.88ZM98.4175 340.48C98.7642 339.747 99.3108 339.14 100.058 338.66C100.818 338.167 101.718 337.92 102.758 337.92C103.744 337.92 104.631 338.153 105.418 338.62C106.218 339.073 106.838 339.727 107.278 340.58C107.731 341.42 107.958 342.4 107.958 343.52C107.958 344.64 107.731 345.627 107.278 346.48C106.838 347.333 106.218 347.993 105.418 348.46C104.631 348.927 103.744 349.16 102.758 349.16C101.731 349.16 100.838 348.92 100.078 348.44C99.3175 347.947 98.7642 347.333 98.4175 346.6V354.16H97.0375V338.08H98.4175V340.48ZM106.538 343.52C106.538 342.613 106.358 341.833 105.997 341.18C105.651 340.513 105.171 340.007 104.558 339.66C103.944 339.313 103.251 339.14 102.478 339.14C101.731 339.14 101.044 339.32 100.418 339.68C99.8042 340.04 99.3175 340.553 98.9575 341.22C98.5975 341.887 98.4175 342.66 98.4175 343.54C98.4175 344.42 98.5975 345.193 98.9575 345.86C99.3175 346.527 99.8042 347.04 100.418 347.4C101.044 347.76 101.731 347.94 102.478 347.94C103.251 347.94 103.944 347.767 104.558 347.42C105.171 347.06 105.651 346.547 105.997 345.88C106.358 345.2 106.538 344.413 106.538 343.52ZM120.414 342.98C120.414 343.46 120.4 343.827 120.374 344.08H111.314C111.354 344.907 111.554 345.613 111.914 346.2C112.274 346.787 112.747 347.233 113.334 347.54C113.92 347.833 114.56 347.98 115.254 347.98C116.16 347.98 116.92 347.76 117.534 347.32C118.16 346.88 118.574 346.287 118.774 345.54H120.254C119.987 346.607 119.414 347.48 118.534 348.16C117.667 348.827 116.574 349.16 115.254 349.16C114.227 349.16 113.307 348.933 112.494 348.48C111.68 348.013 111.04 347.36 110.574 346.52C110.12 345.667 109.894 344.673 109.894 343.54C109.894 342.407 110.12 341.413 110.574 340.56C111.027 339.707 111.66 339.053 112.474 338.6C113.287 338.147 114.214 337.92 115.254 337.92C116.294 337.92 117.2 338.147 117.974 338.6C118.76 339.053 119.36 339.667 119.774 340.44C120.2 341.2 120.414 342.047 120.414 342.98ZM118.994 342.94C119.007 342.127 118.84 341.433 118.494 340.86C118.16 340.287 117.7 339.853 117.114 339.56C116.527 339.267 115.887 339.12 115.194 339.12C114.154 339.12 113.267 339.453 112.534 340.12C111.8 340.787 111.394 341.727 111.314 342.94H118.994ZM123.715 347.84H129.435V349H122.115V347.84L127.735 339.24H122.215V338.08H129.335V339.24L123.715 347.84ZM131.163 343.52C131.163 342.4 131.383 341.42 131.823 340.58C132.276 339.727 132.896 339.073 133.683 338.62C134.483 338.153 135.383 337.92 136.383 337.92C137.423 337.92 138.316 338.16 139.063 338.64C139.823 339.12 140.37 339.733 140.703 340.48V338.08H142.103V349H140.703V346.58C140.356 347.327 139.803 347.947 139.043 348.44C138.296 348.92 137.403 349.16 136.363 349.16C135.376 349.16 134.483 348.927 133.683 348.46C132.896 347.993 132.276 347.333 131.823 346.48C131.383 345.627 131.163 344.64 131.163 343.52ZM140.703 343.54C140.703 342.66 140.523 341.887 140.163 341.22C139.803 340.553 139.31 340.04 138.683 339.68C138.07 339.32 137.39 339.14 136.643 339.14C135.87 339.14 135.176 339.313 134.563 339.66C133.95 340.007 133.463 340.513 133.103 341.18C132.756 341.833 132.583 342.613 132.583 343.52C132.583 344.413 132.756 345.2 133.103 345.88C133.463 346.547 133.95 347.06 134.563 347.42C135.176 347.767 135.87 347.94 136.643 347.94C137.39 347.94 138.07 347.76 138.683 347.4C139.31 347.04 139.803 346.527 140.163 345.86C140.523 345.193 140.703 344.42 140.703 343.54ZM160.668 342.98C160.668 343.46 160.654 343.827 160.628 344.08H151.568C151.608 344.907 151.808 345.613 152.168 346.2C152.528 346.787 153.001 347.233 153.588 347.54C154.174 347.833 154.814 347.98 155.508 347.98C156.414 347.98 157.174 347.76 157.788 347.32C158.414 346.88 158.828 346.287 159.028 345.54H160.508C160.241 346.607 159.668 347.48 158.788 348.16C157.921 348.827 156.828 349.16 155.508 349.16C154.481 349.16 153.561 348.933 152.748 348.48C151.934 348.013 151.294 347.36 150.828 346.52C150.374 345.667 150.148 344.673 150.148 343.54C150.148 342.407 150.374 341.413 150.828 340.56C151.281 339.707 151.914 339.053 152.728 338.6C153.541 338.147 154.468 337.92 155.508 337.92C156.548 337.92 157.454 338.147 158.228 338.6C159.014 339.053 159.614 339.667 160.028 340.44C160.454 341.2 160.668 342.047 160.668 342.98ZM159.248 342.94C159.261 342.127 159.094 341.433 158.748 340.86C158.414 340.287 157.954 339.853 157.368 339.56C156.781 339.267 156.141 339.12 155.448 339.12C154.408 339.12 153.521 339.453 152.788 340.12C152.054 340.787 151.648 341.727 151.568 342.94H159.248ZM168.949 349L166.129 344.6L163.409 349H161.929L165.449 343.54L161.969 338.08H163.549L166.329 342.42L169.029 338.08H170.489L167.009 343.48L170.529 349H168.949ZM174.248 339.26V346.04C174.248 346.707 174.375 347.167 174.628 347.42C174.881 347.673 175.328 347.8 175.968 347.8H177.248V349H175.748C174.761 349 174.028 348.773 173.548 348.32C173.068 347.853 172.828 347.093 172.828 346.04V339.26H171.308V338.08H172.828V335.34H174.248V338.08H177.248V339.26H174.248ZM189.437 342.98C189.437 343.46 189.424 343.827 189.397 344.08H180.337C180.377 344.907 180.577 345.613 180.937 346.2C181.297 346.787 181.77 347.233 182.357 347.54C182.944 347.833 183.584 347.98 184.277 347.98C185.184 347.98 185.944 347.76 186.557 347.32C187.184 346.88 187.597 346.287 187.797 345.54H189.277C189.01 346.607 188.437 347.48 187.557 348.16C186.69 348.827 185.597 349.16 184.277 349.16C183.25 349.16 182.33 348.933 181.517 348.48C180.704 348.013 180.064 347.36 179.597 346.52C179.144 345.667 178.917 344.673 178.917 343.54C178.917 342.407 179.144 341.413 179.597 340.56C180.05 339.707 180.684 339.053 181.497 338.6C182.31 338.147 183.237 337.92 184.277 337.92C185.317 337.92 186.224 338.147 186.997 338.6C187.784 339.053 188.384 339.667 188.797 340.44C189.224 341.2 189.437 342.047 189.437 342.98ZM188.017 342.94C188.03 342.127 187.864 341.433 187.517 340.86C187.184 340.287 186.724 339.853 186.137 339.56C185.55 339.267 184.91 339.12 184.217 339.12C183.177 339.12 182.29 339.453 181.557 340.12C180.824 340.787 180.417 341.727 180.337 342.94H188.017ZM193.398 340.02C193.705 339.34 194.172 338.813 194.798 338.44C195.438 338.067 196.218 337.88 197.138 337.88V339.34H196.758C195.745 339.34 194.932 339.613 194.318 340.16C193.705 340.707 193.398 341.62 193.398 342.9V349H191.998V338.08H193.398V340.02ZM204.365 337.88C205.671 337.88 206.738 338.287 207.565 339.1C208.391 339.9 208.805 341.067 208.805 342.6V349H207.425V342.76C207.425 341.573 207.125 340.667 206.525 340.04C205.938 339.413 205.131 339.1 204.105 339.1C203.051 339.1 202.211 339.433 201.585 340.1C200.958 340.767 200.645 341.747 200.645 343.04V349H199.245V338.08H200.645V339.94C200.991 339.273 201.491 338.767 202.145 338.42C202.798 338.06 203.538 337.88 204.365 337.88ZM211.261 343.52C211.261 342.4 211.481 341.42 211.921 340.58C212.374 339.727 212.994 339.073 213.781 338.62C214.581 338.153 215.481 337.92 216.481 337.92C217.521 337.92 218.414 338.16 219.161 338.64C219.921 339.12 220.467 339.733 220.801 340.48V338.08H222.201V349H220.801V346.58C220.454 347.327 219.901 347.947 219.141 348.44C218.394 348.92 217.501 349.16 216.461 349.16C215.474 349.16 214.581 348.927 213.781 348.46C212.994 347.993 212.374 347.333 211.921 346.48C211.481 345.627 211.261 344.64 211.261 343.52ZM220.801 343.54C220.801 342.66 220.621 341.887 220.261 341.22C219.901 340.553 219.407 340.04 218.781 339.68C218.167 339.32 217.487 339.14 216.741 339.14C215.967 339.14 215.274 339.313 214.661 339.66C214.047 340.007 213.561 340.513 213.201 341.18C212.854 341.833 212.681 342.613 212.681 343.52C212.681 344.413 212.854 345.2 213.201 345.88C213.561 346.547 214.047 347.06 214.661 347.42C215.274 347.767 215.967 347.94 216.741 347.94C217.487 347.94 218.167 347.76 218.781 347.4C219.407 347.04 219.901 346.527 220.261 345.86C220.621 345.193 220.801 344.42 220.801 343.54Z" fill="#131517"/>
<rect x="36" y="337" width="10" height="10" rx="5" fill="#131517"/>
<path d="M65 395.86H70.02V397H63.6V383.02H65V395.86ZM72.718 384.02C72.438 384.02 72.198 383.92 71.998 383.72C71.798 383.52 71.698 383.273 71.698 382.98C71.698 382.687 71.798 382.447 71.998 382.26C72.198 382.06 72.438 381.96 72.718 381.96C72.998 381.96 73.238 382.06 73.438 382.26C73.638 382.447 73.738 382.687 73.738 382.98C73.738 383.273 73.638 383.52 73.438 383.72C73.238 383.92 72.998 384.02 72.718 384.02ZM73.418 386.08V397H72.018V386.08H73.418ZM89.5883 385.88C90.8683 385.88 91.9083 386.287 92.7083 387.1C93.5216 387.9 93.9283 389.067 93.9283 390.6V397H92.5483V390.76C92.5483 389.573 92.2616 388.667 91.6883 388.04C91.1149 387.413 90.3349 387.1 89.3483 387.1C88.3216 387.1 87.5016 387.44 86.8883 388.12C86.2749 388.8 85.9683 389.787 85.9683 391.08V397H84.5883V390.76C84.5883 389.573 84.3016 388.667 83.7283 388.04C83.1549 387.413 82.3683 387.1 81.3683 387.1C80.3416 387.1 79.5216 387.44 78.9083 388.12C78.2949 388.8 77.9883 389.787 77.9883 391.08V397H76.5883V386.08H77.9883V387.96C78.3349 387.28 78.8283 386.767 79.4683 386.42C80.1083 386.06 80.8216 385.88 81.6083 385.88C82.5549 385.88 83.3816 386.107 84.0883 386.56C84.8083 387.013 85.3283 387.68 85.6483 388.56C85.9416 387.693 86.4416 387.033 87.1483 386.58C87.8683 386.113 88.6816 385.88 89.5883 385.88ZM98.4175 388.48C98.7642 387.747 99.3108 387.14 100.058 386.66C100.818 386.167 101.718 385.92 102.758 385.92C103.744 385.92 104.631 386.153 105.418 386.62C106.218 387.073 106.838 387.727 107.278 388.58C107.731 389.42 107.958 390.4 107.958 391.52C107.958 392.64 107.731 393.627 107.278 394.48C106.838 395.333 106.218 395.993 105.418 396.46C104.631 396.927 103.744 397.16 102.758 397.16C101.731 397.16 100.838 396.92 100.078 396.44C99.3175 395.947 98.7642 395.333 98.4175 394.6V402.16H97.0375V386.08H98.4175V388.48ZM106.538 391.52C106.538 390.613 106.358 389.833 105.997 389.18C105.651 388.513 105.171 388.007 104.558 387.66C103.944 387.313 103.251 387.14 102.478 387.14C101.731 387.14 101.044 387.32 100.418 387.68C99.8042 388.04 99.3175 388.553 98.9575 389.22C98.5975 389.887 98.4175 390.66 98.4175 391.54C98.4175 392.42 98.5975 393.193 98.9575 393.86C99.3175 394.527 99.8042 395.04 100.418 395.4C101.044 395.76 101.731 395.94 102.478 395.94C103.251 395.94 103.944 395.767 104.558 395.42C105.171 395.06 105.651 394.547 105.997 393.88C106.358 393.2 106.538 392.413 106.538 391.52ZM120.414 390.98C120.414 391.46 120.4 391.827 120.374 392.08H111.314C111.354 392.907 111.554 393.613 111.914 394.2C112.274 394.787 112.747 395.233 113.334 395.54C113.92 395.833 114.56 395.98 115.254 395.98C116.16 395.98 116.92 395.76 117.534 395.32C118.16 394.88 118.574 394.287 118.774 393.54H120.254C119.987 394.607 119.414 395.48 118.534 396.16C117.667 396.827 116.574 397.16 115.254 397.16C114.227 397.16 113.307 396.933 112.494 396.48C111.68 396.013 111.04 395.36 110.574 394.52C110.12 393.667 109.894 392.673 109.894 391.54C109.894 390.407 110.12 389.413 110.574 388.56C111.027 387.707 111.66 387.053 112.474 386.6C113.287 386.147 114.214 385.92 115.254 385.92C116.294 385.92 117.2 386.147 117.974 386.6C118.76 387.053 119.36 387.667 119.774 388.44C120.2 389.2 120.414 390.047 120.414 390.98ZM118.994 390.94C119.007 390.127 118.84 389.433 118.494 388.86C118.16 388.287 117.7 387.853 117.114 387.56C116.527 387.267 115.887 387.12 115.194 387.12C114.154 387.12 113.267 387.453 112.534 388.12C111.8 388.787 111.394 389.727 111.314 390.94H118.994ZM123.715 395.84H129.435V397H122.115V395.84L127.735 387.24H122.215V386.08H129.335V387.24L123.715 395.84ZM131.163 391.52C131.163 390.4 131.383 389.42 131.823 388.58C132.276 387.727 132.896 387.073 133.683 386.62C134.483 386.153 135.383 385.92 136.383 385.92C137.423 385.92 138.316 386.16 139.063 386.64C139.823 387.12 140.37 387.733 140.703 388.48V386.08H142.103V397H140.703V394.58C140.356 395.327 139.803 395.947 139.043 396.44C138.296 396.92 137.403 397.16 136.363 397.16C135.376 397.16 134.483 396.927 133.683 396.46C132.896 395.993 132.276 395.333 131.823 394.48C131.383 393.627 131.163 392.64 131.163 391.52ZM140.703 391.54C140.703 390.66 140.523 389.887 140.163 389.22C139.803 388.553 139.31 388.04 138.683 387.68C138.07 387.32 137.39 387.14 136.643 387.14C135.87 387.14 135.176 387.313 134.563 387.66C133.95 388.007 133.463 388.513 133.103 389.18C132.756 389.833 132.583 390.613 132.583 391.52C132.583 392.413 132.756 393.2 133.103 393.88C133.463 394.547 133.95 395.06 134.563 395.42C135.176 395.767 135.87 395.94 136.643 395.94C137.39 395.94 138.07 395.76 138.683 395.4C139.31 395.04 139.803 394.527 140.163 393.86C140.523 393.193 140.703 392.42 140.703 391.54ZM150.148 391.52C150.148 390.4 150.374 389.42 150.828 388.58C151.281 387.727 151.901 387.073 152.688 386.62C153.488 386.153 154.388 385.92 155.388 385.92C156.348 385.92 157.214 386.153 157.988 386.62C158.761 387.087 159.328 387.693 159.688 388.44V382.2H161.088V397H159.688V394.56C159.354 395.32 158.808 395.947 158.048 396.44C157.288 396.92 156.394 397.16 155.368 397.16C154.368 397.16 153.468 396.927 152.668 396.46C151.881 395.993 151.261 395.333 150.808 394.48C150.368 393.627 150.148 392.64 150.148 391.52ZM159.688 391.54C159.688 390.66 159.508 389.887 159.148 389.22C158.788 388.553 158.294 388.04 157.668 387.68C157.054 387.32 156.374 387.14 155.628 387.14C154.854 387.14 154.161 387.313 153.548 387.66C152.934 388.007 152.448 388.513 152.088 389.18C151.741 389.833 151.568 390.613 151.568 391.52C151.568 392.413 151.741 393.2 152.088 393.88C152.448 394.547 152.934 395.06 153.548 395.42C154.161 395.767 154.854 395.94 155.628 395.94C156.374 395.94 157.054 395.76 157.668 395.4C158.294 395.04 158.788 394.527 159.148 393.86C159.508 393.193 159.688 392.42 159.688 391.54ZM174.164 390.98C174.164 391.46 174.15 391.827 174.124 392.08H165.064C165.104 392.907 165.304 393.613 165.664 394.2C166.024 394.787 166.497 395.233 167.084 395.54C167.67 395.833 168.31 395.98 169.004 395.98C169.91 395.98 170.67 395.76 171.284 395.32C171.91 394.88 172.324 394.287 172.524 393.54H174.004C173.737 394.607 173.164 395.48 172.284 396.16C171.417 396.827 170.324 397.16 169.004 397.16C167.977 397.16 167.057 396.933 166.244 396.48C165.43 396.013 164.79 395.36 164.324 394.52C163.87 393.667 163.644 392.673 163.644 391.54C163.644 390.407 163.87 389.413 164.324 388.56C164.777 387.707 165.41 387.053 166.224 386.6C167.037 386.147 167.964 385.92 169.004 385.92C170.044 385.92 170.95 386.147 171.724 386.6C172.51 387.053 173.11 387.667 173.524 388.44C173.95 389.2 174.164 390.047 174.164 390.98ZM172.744 390.94C172.757 390.127 172.59 389.433 172.244 388.86C171.91 388.287 171.45 387.853 170.864 387.56C170.277 387.267 169.637 387.12 168.944 387.12C167.904 387.12 167.017 387.453 166.284 388.12C165.55 388.787 165.144 389.727 165.064 390.94H172.744ZM183.013 384.02C182.733 384.02 182.493 383.92 182.293 383.72C182.093 383.52 181.993 383.273 181.993 382.98C181.993 382.687 182.093 382.447 182.293 382.26C182.493 382.06 182.733 381.96 183.013 381.96C183.293 381.96 183.527 382.06 183.713 382.26C183.913 382.447 184.013 382.687 184.013 382.98C184.013 383.273 183.913 383.52 183.713 383.72C183.527 383.92 183.293 384.02 183.013 384.02ZM183.693 399.58C183.693 400.46 183.473 401.107 183.033 401.52C182.593 401.947 181.933 402.16 181.053 402.16H180.073V400.96H180.833C181.353 400.96 181.727 400.847 181.953 400.62C182.18 400.407 182.293 400.04 182.293 399.52V386.08H183.693V399.58ZM186.261 391.52C186.261 390.4 186.481 389.42 186.921 388.58C187.374 387.727 187.994 387.073 188.781 386.62C189.581 386.153 190.481 385.92 191.481 385.92C192.521 385.92 193.414 386.16 194.161 386.64C194.921 387.12 195.467 387.733 195.801 388.48V386.08H197.201V397H195.801V394.58C195.454 395.327 194.901 395.947 194.141 396.44C193.394 396.92 192.501 397.16 191.461 397.16C190.474 397.16 189.581 396.927 188.781 396.46C187.994 395.993 187.374 395.333 186.921 394.48C186.481 393.627 186.261 392.64 186.261 391.52ZM195.801 391.54C195.801 390.66 195.621 389.887 195.261 389.22C194.901 388.553 194.407 388.04 193.781 387.68C193.167 387.32 192.487 387.14 191.741 387.14C190.967 387.14 190.274 387.313 189.661 387.66C189.047 388.007 188.561 388.513 188.201 389.18C187.854 389.833 187.681 390.613 187.681 391.52C187.681 392.413 187.854 393.2 188.201 393.88C188.561 394.547 189.047 395.06 189.661 395.42C190.274 395.767 190.967 395.94 191.741 395.94C192.487 395.94 193.167 395.76 193.781 395.4C194.407 395.04 194.901 394.527 195.261 393.86C195.621 393.193 195.801 392.42 195.801 391.54ZM205.517 385.88C206.824 385.88 207.89 386.287 208.717 387.1C209.544 387.9 209.957 389.067 209.957 390.6V397H208.577V390.76C208.577 389.573 208.277 388.667 207.677 388.04C207.09 387.413 206.284 387.1 205.257 387.1C204.204 387.1 203.364 387.433 202.737 388.1C202.11 388.767 201.797 389.747 201.797 391.04V397H200.397V386.08H201.797V387.94C202.144 387.273 202.644 386.767 203.297 386.42C203.95 386.06 204.69 385.88 205.517 385.88ZM222.933 390.98C222.933 391.46 222.92 391.827 222.893 392.08H213.833C213.873 392.907 214.073 393.613 214.433 394.2C214.793 394.787 215.266 395.233 215.853 395.54C216.44 395.833 217.08 395.98 217.773 395.98C218.68 395.98 219.44 395.76 220.053 395.32C220.68 394.88 221.093 394.287 221.293 393.54H222.773C222.506 394.607 221.933 395.48 221.053 396.16C220.186 396.827 219.093 397.16 217.773 397.16C216.746 397.16 215.826 396.933 215.013 396.48C214.2 396.013 213.56 395.36 213.093 394.52C212.64 393.667 212.413 392.673 212.413 391.54C212.413 390.407 212.64 389.413 213.093 388.56C213.546 387.707 214.18 387.053 214.993 386.6C215.806 386.147 216.733 385.92 217.773 385.92C218.813 385.92 219.72 386.147 220.493 386.6C221.28 387.053 221.88 387.667 222.293 388.44C222.72 389.2 222.933 390.047 222.933 390.98ZM221.513 390.94C221.526 390.127 221.36 389.433 221.013 388.86C220.68 388.287 220.22 387.853 219.633 387.56C219.046 387.267 218.406 387.12 217.713 387.12C216.673 387.12 215.786 387.453 215.053 388.12C214.32 388.787 213.913 389.727 213.833 390.94H221.513ZM226.895 382.2V397H225.495V382.2H226.895ZM229.425 391.52C229.425 390.4 229.645 389.42 230.085 388.58C230.538 387.727 231.158 387.073 231.945 386.62C232.745 386.153 233.645 385.92 234.645 385.92C235.685 385.92 236.578 386.16 237.325 386.64C238.085 387.12 238.632 387.733 238.965 388.48V386.08H240.365V397H238.965V394.58C238.618 395.327 238.065 395.947 237.305 396.44C236.558 396.92 235.665 397.16 234.625 397.16C233.638 397.16 232.745 396.927 231.945 396.46C231.158 395.993 230.538 395.333 230.085 394.48C229.645 393.627 229.425 392.64 229.425 391.52ZM238.965 391.54C238.965 390.66 238.785 389.887 238.425 389.22C238.065 388.553 237.572 388.04 236.945 387.68C236.332 387.32 235.652 387.14 234.905 387.14C234.132 387.14 233.438 387.313 232.825 387.66C232.212 388.007 231.725 388.513 231.365 389.18C231.018 389.833 230.845 390.613 230.845 391.52C230.845 392.413 231.018 393.2 231.365 393.88C231.725 394.547 232.212 395.06 232.825 395.42C233.438 395.767 234.132 395.94 234.905 395.94C235.652 395.94 236.332 395.76 236.945 395.4C237.572 395.04 238.065 394.527 238.425 393.86C238.785 393.193 238.965 392.42 238.965 391.54Z" fill="#131517"/>
<rect x="36" y="385" width="10" height="10" rx="5" fill="#131517"/>
<path d="M65 443.86H70.02V445H63.6V431.02H65V443.86ZM72.718 432.02C72.438 432.02 72.198 431.92 71.998 431.72C71.798 431.52 71.698 431.273 71.698 430.98C71.698 430.687 71.798 430.447 71.998 430.26C72.198 430.06 72.438 429.96 72.718 429.96C72.998 429.96 73.238 430.06 73.438 430.26C73.638 430.447 73.738 430.687 73.738 430.98C73.738 431.273 73.638 431.52 73.438 431.72C73.238 431.92 72.998 432.02 72.718 432.02ZM73.418 434.08V445H72.018V434.08H73.418ZM89.5883 433.88C90.8683 433.88 91.9083 434.287 92.7083 435.1C93.5216 435.9 93.9283 437.067 93.9283 438.6V445H92.5483V438.76C92.5483 437.573 92.2616 436.667 91.6883 436.04C91.1149 435.413 90.3349 435.1 89.3483 435.1C88.3216 435.1 87.5016 435.44 86.8883 436.12C86.2749 436.8 85.9683 437.787 85.9683 439.08V445H84.5883V438.76C84.5883 437.573 84.3016 436.667 83.7283 436.04C83.1549 435.413 82.3683 435.1 81.3683 435.1C80.3416 435.1 79.5216 435.44 78.9083 436.12C78.2949 436.8 77.9883 437.787 77.9883 439.08V445H76.5883V434.08H77.9883V435.96C78.3349 435.28 78.8283 434.767 79.4683 434.42C80.1083 434.06 80.8216 433.88 81.6083 433.88C82.5549 433.88 83.3816 434.107 84.0883 434.56C84.8083 435.013 85.3283 435.68 85.6483 436.56C85.9416 435.693 86.4416 435.033 87.1483 434.58C87.8683 434.113 88.6816 433.88 89.5883 433.88ZM98.4175 436.48C98.7642 435.747 99.3108 435.14 100.058 434.66C100.818 434.167 101.718 433.92 102.758 433.92C103.744 433.92 104.631 434.153 105.418 434.62C106.218 435.073 106.838 435.727 107.278 436.58C107.731 437.42 107.958 438.4 107.958 439.52C107.958 440.64 107.731 441.627 107.278 442.48C106.838 443.333 106.218 443.993 105.418 444.46C104.631 444.927 103.744 445.16 102.758 445.16C101.731 445.16 100.838 444.92 100.078 444.44C99.3175 443.947 98.7642 443.333 98.4175 442.6V450.16H97.0375V434.08H98.4175V436.48ZM106.538 439.52C106.538 438.613 106.358 437.833 105.997 437.18C105.651 436.513 105.171 436.007 104.558 435.66C103.944 435.313 103.251 435.14 102.478 435.14C101.731 435.14 101.044 435.32 100.418 435.68C99.8042 436.04 99.3175 436.553 98.9575 437.22C98.5975 437.887 98.4175 438.66 98.4175 439.54C98.4175 440.42 98.5975 441.193 98.9575 441.86C99.3175 442.527 99.8042 443.04 100.418 443.4C101.044 443.76 101.731 443.94 102.478 443.94C103.251 443.94 103.944 443.767 104.558 443.42C105.171 443.06 105.651 442.547 105.997 441.88C106.358 441.2 106.538 440.413 106.538 439.52ZM120.414 438.98C120.414 439.46 120.4 439.827 120.374 440.08H111.314C111.354 440.907 111.554 441.613 111.914 442.2C112.274 442.787 112.747 443.233 113.334 443.54C113.92 443.833 114.56 443.98 115.254 443.98C116.16 443.98 116.92 443.76 117.534 443.32C118.16 442.88 118.574 442.287 118.774 441.54H120.254C119.987 442.607 119.414 443.48 118.534 444.16C117.667 444.827 116.574 445.16 115.254 445.16C114.227 445.16 113.307 444.933 112.494 444.48C111.68 444.013 111.04 443.36 110.574 442.52C110.12 441.667 109.894 440.673 109.894 439.54C109.894 438.407 110.12 437.413 110.574 436.56C111.027 435.707 111.66 435.053 112.474 434.6C113.287 434.147 114.214 433.92 115.254 433.92C116.294 433.92 117.2 434.147 117.974 434.6C118.76 435.053 119.36 435.667 119.774 436.44C120.2 437.2 120.414 438.047 120.414 438.98ZM118.994 438.94C119.007 438.127 118.84 437.433 118.494 436.86C118.16 436.287 117.7 435.853 117.114 435.56C116.527 435.267 115.887 435.12 115.194 435.12C114.154 435.12 113.267 435.453 112.534 436.12C111.8 436.787 111.394 437.727 111.314 438.94H118.994ZM123.715 443.84H129.435V445H122.115V443.84L127.735 435.24H122.215V434.08H129.335V435.24L123.715 443.84ZM131.163 439.52C131.163 438.4 131.383 437.42 131.823 436.58C132.276 435.727 132.896 435.073 133.683 434.62C134.483 434.153 135.383 433.92 136.383 433.92C137.423 433.92 138.316 434.16 139.063 434.64C139.823 435.12 140.37 435.733 140.703 436.48V434.08H142.103V445H140.703V442.58C140.356 443.327 139.803 443.947 139.043 444.44C138.296 444.92 137.403 445.16 136.363 445.16C135.376 445.16 134.483 444.927 133.683 444.46C132.896 443.993 132.276 443.333 131.823 442.48C131.383 441.627 131.163 440.64 131.163 439.52ZM140.703 439.54C140.703 438.66 140.523 437.887 140.163 437.22C139.803 436.553 139.31 436.04 138.683 435.68C138.07 435.32 137.39 435.14 136.643 435.14C135.87 435.14 135.176 435.313 134.563 435.66C133.95 436.007 133.463 436.513 133.103 437.18C132.756 437.833 132.583 438.613 132.583 439.52C132.583 440.413 132.756 441.2 133.103 441.88C133.463 442.547 133.95 443.06 134.563 443.42C135.176 443.767 135.87 443.94 136.643 443.94C137.39 443.94 138.07 443.76 138.683 443.4C139.31 443.04 139.803 442.527 140.163 441.86C140.523 441.193 140.703 440.42 140.703 439.54ZM150.148 439.52C150.148 438.4 150.374 437.42 150.828 436.58C151.281 435.727 151.901 435.073 152.688 434.62C153.488 434.153 154.388 433.92 155.388 433.92C156.348 433.92 157.214 434.153 157.988 434.62C158.761 435.087 159.328 435.693 159.688 436.44V430.2H161.088V445H159.688V442.56C159.354 443.32 158.808 443.947 158.048 444.44C157.288 444.92 156.394 445.16 155.368 445.16C154.368 445.16 153.468 444.927 152.668 444.46C151.881 443.993 151.261 443.333 150.808 442.48C150.368 441.627 150.148 440.64 150.148 439.52ZM159.688 439.54C159.688 438.66 159.508 437.887 159.148 437.22C158.788 436.553 158.294 436.04 157.668 435.68C157.054 435.32 156.374 435.14 155.628 435.14C154.854 435.14 154.161 435.313 153.548 435.66C152.934 436.007 152.448 436.513 152.088 437.18C151.741 437.833 151.568 438.613 151.568 439.52C151.568 440.413 151.741 441.2 152.088 441.88C152.448 442.547 152.934 443.06 153.548 443.42C154.161 443.767 154.854 443.94 155.628 443.94C156.374 443.94 157.054 443.76 157.668 443.4C158.294 443.04 158.788 442.527 159.148 441.86C159.508 441.193 159.688 440.42 159.688 439.54ZM174.164 438.98C174.164 439.46 174.15 439.827 174.124 440.08H165.064C165.104 440.907 165.304 441.613 165.664 442.2C166.024 442.787 166.497 443.233 167.084 443.54C167.67 443.833 168.31 443.98 169.004 443.98C169.91 443.98 170.67 443.76 171.284 443.32C171.91 442.88 172.324 442.287 172.524 441.54H174.004C173.737 442.607 173.164 443.48 172.284 444.16C171.417 444.827 170.324 445.16 169.004 445.16C167.977 445.16 167.057 444.933 166.244 444.48C165.43 444.013 164.79 443.36 164.324 442.52C163.87 441.667 163.644 440.673 163.644 439.54C163.644 438.407 163.87 437.413 164.324 436.56C164.777 435.707 165.41 435.053 166.224 434.6C167.037 434.147 167.964 433.92 169.004 433.92C170.044 433.92 170.95 434.147 171.724 434.6C172.51 435.053 173.11 435.667 173.524 436.44C173.95 437.2 174.164 438.047 174.164 438.98ZM172.744 438.94C172.757 438.127 172.59 437.433 172.244 436.86C171.91 436.287 171.45 435.853 170.864 435.56C170.277 435.267 169.637 435.12 168.944 435.12C167.904 435.12 167.017 435.453 166.284 436.12C165.55 436.787 165.144 437.727 165.064 438.94H172.744ZM183.613 430.2V445H182.213V430.2H183.613ZM191.564 445.16C190.537 445.16 189.61 444.933 188.784 444.48C187.97 444.013 187.324 443.36 186.844 442.52C186.377 441.667 186.144 440.673 186.144 439.54C186.144 438.407 186.384 437.42 186.864 436.58C187.344 435.727 187.997 435.073 188.824 434.62C189.65 434.153 190.577 433.92 191.604 433.92C192.63 433.92 193.557 434.153 194.384 434.62C195.224 435.073 195.877 435.727 196.344 436.58C196.824 437.42 197.064 438.407 197.064 439.54C197.064 440.66 196.824 441.647 196.344 442.5C195.864 443.353 195.204 444.013 194.364 444.48C193.524 444.933 192.59 445.16 191.564 445.16ZM191.564 443.94C192.284 443.94 192.95 443.78 193.564 443.46C194.177 443.127 194.67 442.633 195.044 441.98C195.43 441.313 195.624 440.5 195.624 439.54C195.624 438.58 195.437 437.773 195.064 437.12C194.69 436.453 194.197 435.96 193.584 435.64C192.97 435.307 192.304 435.14 191.584 435.14C190.864 435.14 190.197 435.307 189.584 435.64C188.97 435.96 188.477 436.453 188.104 437.12C187.744 437.773 187.564 438.58 187.564 439.54C187.564 440.5 187.744 441.313 188.104 441.98C188.477 442.633 188.964 443.127 189.564 443.46C190.177 443.78 190.844 443.94 191.564 443.94ZM209.076 434.08V445H207.676V443.08C207.356 443.76 206.862 444.28 206.196 444.64C205.529 445 204.782 445.18 203.956 445.18C202.649 445.18 201.582 444.78 200.756 443.98C199.929 443.167 199.516 441.993 199.516 440.46V434.08H200.896V440.3C200.896 441.487 201.189 442.393 201.776 443.02C202.376 443.647 203.189 443.96 204.216 443.96C205.269 443.96 206.109 443.627 206.736 442.96C207.362 442.293 207.676 441.313 207.676 440.02V434.08H209.076ZM216.932 443.98C217.852 443.98 218.619 443.76 219.232 443.32C219.859 442.867 220.265 442.24 220.452 441.44H221.952C221.712 442.493 221.192 443.353 220.392 444.02C219.605 444.687 218.605 445.06 217.392 445.14V446.34C218.179 446.313 218.799 446.46 219.252 446.78C219.719 447.113 219.952 447.587 219.952 448.2C219.952 448.8 219.739 449.273 219.312 449.62C218.885 449.98 218.319 450.16 217.612 450.16H215.612V449.22H217.332C217.825 449.22 218.185 449.133 218.412 448.96C218.652 448.8 218.772 448.547 218.772 448.2C218.772 447.56 218.292 447.24 217.332 447.24H216.412V445.14C215.479 445.06 214.652 444.787 213.932 444.32C213.212 443.84 212.645 443.193 212.232 442.38C211.832 441.553 211.632 440.607 211.632 439.54C211.632 438.407 211.859 437.42 212.312 436.58C212.765 435.727 213.392 435.073 214.192 434.62C214.992 434.153 215.905 433.92 216.932 433.92C218.279 433.92 219.385 434.253 220.252 434.92C221.132 435.587 221.699 436.493 221.952 437.64H220.452C220.265 436.853 219.859 436.24 219.232 435.8C218.619 435.347 217.852 435.12 216.932 435.12C216.199 435.12 215.539 435.287 214.952 435.62C214.365 435.953 213.899 436.453 213.552 437.12C213.219 437.773 213.052 438.58 213.052 439.54C213.052 440.5 213.219 441.313 213.552 441.98C213.899 442.647 214.365 443.147 214.952 443.48C215.539 443.813 216.199 443.98 216.932 443.98ZM223.898 439.52C223.898 438.4 224.118 437.42 224.558 436.58C225.011 435.727 225.631 435.073 226.418 434.62C227.218 434.153 228.118 433.92 229.118 433.92C230.158 433.92 231.051 434.16 231.798 434.64C232.558 435.12 233.104 435.733 233.438 436.48V434.08H234.838V445H233.438V442.58C233.091 443.327 232.538 443.947 231.778 444.44C231.031 444.92 230.138 445.16 229.098 445.16C228.111 445.16 227.218 444.927 226.418 444.46C225.631 443.993 225.011 443.333 224.558 442.48C224.118 441.627 223.898 440.64 223.898 439.52ZM233.438 439.54C233.438 438.66 233.258 437.887 232.898 437.22C232.538 436.553 232.044 436.04 231.418 435.68C230.804 435.32 230.124 435.14 229.378 435.14C228.604 435.14 227.911 435.313 227.298 435.66C226.684 436.007 226.198 436.513 225.838 437.18C225.491 437.833 225.318 438.613 225.318 439.52C225.318 440.413 225.491 441.2 225.838 441.88C226.198 442.547 226.684 443.06 227.298 443.42C227.911 443.767 228.604 443.94 229.378 443.94C230.124 443.94 230.804 443.76 231.418 443.4C232.044 443.04 232.538 442.527 232.898 441.86C233.258 441.193 233.438 440.42 233.438 439.54ZM241.794 445.16C240.54 445.16 239.514 444.873 238.714 444.3C237.927 443.713 237.487 442.92 237.394 441.92H238.834C238.9 442.533 239.187 443.033 239.694 443.42C240.214 443.793 240.907 443.98 241.774 443.98C242.534 443.98 243.127 443.8 243.554 443.44C243.994 443.08 244.214 442.633 244.214 442.1C244.214 441.727 244.094 441.42 243.854 441.18C243.614 440.94 243.307 440.753 242.934 440.62C242.574 440.473 242.08 440.32 241.454 440.16C240.64 439.947 239.98 439.733 239.474 439.52C238.967 439.307 238.534 438.993 238.174 438.58C237.827 438.153 237.654 437.587 237.654 436.88C237.654 436.347 237.814 435.853 238.134 435.4C238.454 434.947 238.907 434.587 239.494 434.32C240.08 434.053 240.747 433.92 241.494 433.92C242.667 433.92 243.614 434.22 244.334 434.82C245.054 435.407 245.44 436.22 245.494 437.26H244.094C244.054 436.62 243.8 436.107 243.334 435.72C242.88 435.32 242.254 435.12 241.454 435.12C240.747 435.12 240.174 435.287 239.734 435.62C239.294 435.953 239.074 436.367 239.074 436.86C239.074 437.287 239.2 437.64 239.454 437.92C239.72 438.187 240.047 438.4 240.434 438.56C240.82 438.707 241.34 438.873 241.994 439.06C242.78 439.273 243.407 439.48 243.874 439.68C244.34 439.88 244.74 440.173 245.074 440.56C245.407 440.947 245.58 441.46 245.594 442.1C245.594 442.687 245.434 443.213 245.114 443.68C244.794 444.133 244.347 444.493 243.774 444.76C243.2 445.027 242.54 445.16 241.794 445.16Z" fill="#131517"/>
<rect x="36" y="433" width="10" height="10" rx="5" fill="#131517"/>
</g>
<defs>
<filter id="filter0_d_894_459" x="0" y="0" width="388" height="504" filterUnits="userSpaceOnUse" color-interpolation-filters="sRGB">
<feFlood flood-opacity="0" result="BackgroundImageFix"/>
<feColorMatrix in="SourceAlpha" type="matrix" values="0 0 0 0 0 0 0 0 0 0 0 0 0 0 0 0 0 0 127 0" result="hardAlpha"/>
<feOffset dy="4"/>
<feGaussianBlur stdDeviation="2"/>
<feComposite in2="hardAlpha" operator="out"/>
<feColorMatrix type="matrix" values="0 0 0 0 0 0 0 0 0 0 0 0 0 0 0 0 0 0 0.25 0"/>
<feBlend mode="normal" in2="BackgroundImageFix" result="effect1_dropShadow_894_459"/>
<feBlend mode="normal" in="SourceGraphic" in2="effect1_dropShadow_894_459" result="shape"/>
</filter>
</defs>
</svg>
