<svg width="508" height="405" viewBox="0 0 508 405" fill="none" xmlns="http://www.w3.org/2000/svg">
<path d="M437.563 398.506H381.868C380.893 398.506 379.959 398.119 379.27 397.43C378.581 396.741 378.194 395.807 378.194 394.833C378.194 393.858 378.581 392.924 379.27 392.235C379.959 391.546 380.893 391.159 381.868 391.159H437.563C438.537 391.159 439.472 391.546 440.161 392.235C440.85 392.924 441.237 393.858 441.237 394.833C441.237 395.807 440.85 396.741 440.161 397.43C439.472 398.119 438.537 398.506 437.563 398.506ZM123.585 155.446C123.585 155.446 121.822 147.951 142.542 141.338C163.263 134.725 174.725 126.79 176.929 117.532C176.929 117.532 181.779 141.338 190.596 145.747C190.596 145.747 201.617 111.36 176.048 99.0159C150.478 86.6718 121.381 104.306 109.478 127.231C97.5746 150.156 99.7788 154.564 87.4348 168.672C79.4258 177.824 21.7467 209.672 66.7144 244.499C66.7144 244.499 98.4563 198.209 116.091 201.736C116.091 201.736 122.195 175.223 121.347 172.168C120.526 169.209 103.756 156.505 109.303 143.495C109.534 142.908 109.878 142.373 110.316 141.919C110.754 141.465 111.278 141.102 111.856 140.851C114.407 139.836 119.097 140.638 123.585 155.446Z" fill="#0A0A0B"/>
<path d="M139.59 237.953C133.516 237.954 125.631 226.155 115.526 201.971C115.473 201.823 115.479 201.661 115.542 201.517C115.606 201.373 115.722 201.259 115.867 201.199C116.012 201.139 116.175 201.136 116.322 201.192C116.468 201.249 116.588 201.359 116.655 201.501C129.32 231.81 136.433 237.363 140.194 236.674C145.831 235.643 147.601 219.682 147.808 213.619C147.315 207.663 148.133 201.673 150.205 196.067C150.258 195.933 150.358 195.822 150.486 195.755C150.614 195.687 150.762 195.668 150.903 195.7C160.577 197.828 168.655 196.288 174.905 191.124C190.666 178.098 189.992 146.086 189.983 145.764C189.98 145.684 189.994 145.604 190.023 145.528C190.051 145.453 190.095 145.384 190.15 145.326C190.206 145.267 190.272 145.22 190.346 145.188C190.419 145.155 190.498 145.137 190.579 145.135C190.74 145.137 190.894 145.199 191.01 145.31C191.127 145.42 191.197 145.571 191.207 145.731C191.244 147.068 191.909 178.657 175.686 192.067C169.245 197.39 160.994 199.051 151.16 197.008C149.316 202.327 148.591 207.969 149.029 213.582C149 214.59 148.168 236.461 140.414 237.878C140.142 237.928 139.866 237.953 139.59 237.953Z" fill="#0A0A0B"/>
<path d="M169.835 171.122C168.486 171.105 167.161 170.757 165.978 170.107C164.794 169.458 163.789 168.528 163.05 167.398C162.964 167.264 162.935 167.101 162.967 166.945C163 166.789 163.092 166.652 163.224 166.563C163.356 166.473 163.517 166.439 163.674 166.467C163.831 166.495 163.971 166.583 164.064 166.712C165.033 168.196 166.527 169.26 168.246 169.691C168.846 169.877 169.478 169.941 170.103 169.88C170.729 169.819 171.336 169.634 171.889 169.335C172.391 168.935 172.808 168.438 173.116 167.875C173.424 167.311 173.617 166.692 173.683 166.054C173.971 164.326 173.772 162.553 173.109 160.932C172.828 160.041 172.58 159.139 172.364 158.229C171.68 155.25 170.743 151.172 172.397 147.272C172.976 145.821 173.862 144.513 174.995 143.438C176.128 142.363 177.481 141.547 178.96 141.046C181.077 140.446 183.332 140.555 185.381 141.356C185.532 141.415 185.654 141.531 185.719 141.68C185.784 141.829 185.788 141.997 185.729 142.149C185.67 142.3 185.553 142.422 185.405 142.487C185.256 142.552 185.087 142.556 184.936 142.497C183.14 141.793 181.163 141.695 179.307 142.22C178.002 142.67 176.809 143.397 175.812 144.351C174.814 145.305 174.034 146.463 173.526 147.747C172.025 151.285 172.91 155.14 173.558 157.954C173.787 158.952 174.049 159.815 174.281 160.575C175.01 162.388 175.219 164.368 174.885 166.294C174.791 167.093 174.537 167.864 174.138 168.563C173.739 169.262 173.203 169.873 172.563 170.359C171.748 170.877 170.8 171.142 169.835 171.122ZM167.378 144.035C167.275 144.035 167.173 144.009 167.083 143.959C166.992 143.91 166.916 143.838 166.861 143.751C162.405 136.771 151.4 141.01 151.29 141.052C151.215 141.083 151.134 141.099 151.053 141.099C150.971 141.099 150.891 141.083 150.816 141.051C150.741 141.019 150.673 140.973 150.616 140.915C150.559 140.857 150.514 140.788 150.484 140.712C150.454 140.636 150.44 140.555 150.442 140.474C150.443 140.392 150.461 140.312 150.495 140.238C150.528 140.163 150.575 140.096 150.635 140.04C150.694 139.985 150.764 139.941 150.841 139.913C150.961 139.864 162.9 135.272 167.893 143.093C167.952 143.186 167.985 143.293 167.989 143.402C167.993 143.512 167.967 143.621 167.914 143.717C167.861 143.813 167.784 143.893 167.689 143.949C167.595 144.005 167.487 144.035 167.378 144.035Z" fill="#0A0A0B"/>
<path d="M163.527 154.313C163.893 151.783 162.92 149.548 161.354 149.321C159.788 149.095 158.221 150.962 157.855 153.492C157.488 156.022 158.461 158.257 160.027 158.484C161.594 158.711 163.16 156.843 163.527 154.313Z" fill="#0A0A0B"/>
<path d="M184.382 157.332C184.748 154.801 183.776 152.567 182.209 152.34C180.643 152.113 179.076 153.98 178.71 156.511C178.344 159.041 179.317 161.276 180.883 161.502C182.449 161.729 184.016 159.862 184.382 157.332Z" fill="#0A0A0B"/>
<path d="M161.353 178.688L161.299 178.686C156.626 178.276 153.488 176.777 151.973 174.234C151.389 173.092 151.06 171.837 151.009 170.555C150.959 169.273 151.187 167.995 151.68 166.811C151.744 166.662 151.865 166.544 152.016 166.484C152.167 166.425 152.336 166.427 152.485 166.492C152.634 166.556 152.751 166.677 152.811 166.828C152.871 166.979 152.868 167.148 152.804 167.297C152.789 167.331 151.34 170.788 153.032 173.616C154.334 175.796 157.152 177.091 161.405 177.466C161.562 177.48 161.708 177.554 161.811 177.673C161.915 177.791 161.969 177.945 161.962 178.102C161.956 178.26 161.889 178.408 161.775 178.517C161.661 178.627 161.51 178.688 161.353 178.688ZM150.772 195.637C142.503 194.607 134.962 190.389 129.758 183.881C132.241 195.208 138.87 205.197 148.344 211.885C147.998 206.358 148.826 200.821 150.772 195.637Z" fill="#0A0A0B"/>
<path d="M117.987 310.556C107.501 310.556 98.8885 310.507 96.6511 310.358C96.2765 310.335 95.9129 310.223 95.591 310.03C95.2691 309.837 94.9984 309.569 94.8019 309.249C91.6706 304.454 98.8101 283.466 100.542 278.573C90.6811 277.62 56.7705 261.908 55.2875 261.22C55.2066 261.183 55.135 261.128 55.0775 261.06C55.0201 260.991 54.9782 260.911 54.9549 260.825C54.9316 260.739 54.9273 260.649 54.9425 260.561C54.9576 260.473 54.9918 260.39 55.0426 260.316L66.211 244.152C66.3061 244.025 66.4463 243.941 66.6023 243.916C66.7584 243.89 66.9181 243.927 67.0481 244.016C67.1781 244.106 67.2683 244.243 67.2999 244.398C67.3315 244.553 67.302 244.714 67.2176 244.847L56.4631 260.413C61.495 262.726 93.7182 277.392 101.394 277.392C101.492 277.392 101.589 277.416 101.676 277.461C101.764 277.507 101.839 277.573 101.895 277.653C101.951 277.734 101.988 277.826 102.001 277.924C102.014 278.021 102.003 278.12 101.97 278.213C99.3967 285.335 93.2749 304.672 95.8282 308.579C95.9204 308.741 96.0516 308.876 96.2097 308.973C96.3678 309.07 96.5478 309.126 96.7332 309.135C103.004 309.552 161.95 309.169 166.9 309.137C168.685 306.434 183.132 284.232 180.76 277.422C178.149 269.927 176.376 265.339 176.357 265.293C176.305 265.159 176.302 265.011 176.349 264.875C176.395 264.739 176.488 264.623 176.611 264.549L185.868 258.939C184.268 255 172.409 227.466 148.021 212.407C147.883 212.322 147.784 212.185 147.746 212.027C147.709 211.868 147.736 211.702 147.821 211.563C147.907 211.425 148.044 211.326 148.202 211.289C148.36 211.251 148.527 211.278 148.665 211.364C175.205 227.753 187.084 258.668 187.2 258.979C187.25 259.113 187.253 259.26 187.206 259.395C187.16 259.53 187.067 259.645 186.945 259.719L177.684 265.331C179.147 269.208 180.558 273.105 181.916 277.02C184.629 284.811 168.429 309.061 167.738 310.088C167.683 310.171 167.608 310.239 167.52 310.286C167.432 310.333 167.334 310.358 167.234 310.359C165.513 310.371 138.254 310.556 117.987 310.556Z" fill="#0A0A0B"/>
<path d="M114.051 247.438L102.001 278.004L93.7148 276.119L114.051 247.438ZM176.487 265.513L163.482 243.838L180.367 263.162L176.487 265.513Z" fill="#0A0A0B"/>
<path d="M237.777 378.118C233.782 378.118 229.858 375.456 228.56 374.485C227.937 375.149 227.169 375.662 226.316 375.983C225.463 376.305 224.548 376.426 223.641 376.337C218.275 375.674 213.42 367.065 210.207 361.368C209.464 359.964 208.643 358.604 207.747 357.293C206.657 355.894 203.557 357.644 199.633 359.863C194.608 362.701 187.705 366.594 180.347 366.348L177.931 366.271C124.11 364.597 32.7575 360.111 25.6389 348.869C17.1597 335.484 57.7959 265.39 59.5299 262.412C59.5705 262.342 59.6244 262.282 59.6885 262.233C59.7526 262.184 59.8257 262.149 59.9035 262.128C59.9814 262.108 60.0625 262.103 60.1422 262.114C60.2219 262.125 60.2987 262.152 60.3682 262.192C60.4376 262.233 60.4984 262.287 60.5471 262.351C60.5957 262.415 60.6313 262.488 60.6517 262.566C60.6721 262.644 60.677 262.725 60.6661 262.804C60.6551 262.884 60.6286 262.961 60.588 263.03C60.1667 263.753 18.5888 335.451 26.6724 348.214C31.6517 356.076 86.7971 362.212 177.969 365.046L180.388 365.124C187.413 365.339 193.859 361.719 199.03 358.797C203.642 356.189 206.973 354.303 208.713 356.543C209.65 357.899 210.505 359.309 211.274 360.768C214.366 366.249 219.038 374.534 223.792 375.123C224.603 375.187 225.418 375.049 226.164 374.722C226.909 374.395 227.563 373.889 228.066 373.249C228.172 373.136 228.317 373.068 228.472 373.059C228.627 373.05 228.779 373.1 228.898 373.199C228.96 373.248 234.985 378.124 239.81 376.591C242.277 375.802 244.06 373.431 245.112 369.543C245.138 369.448 245.187 369.36 245.254 369.288C245.321 369.216 245.405 369.161 245.498 369.128C245.591 369.095 245.691 369.085 245.789 369.099C245.887 369.113 245.98 369.15 246.06 369.208C246.125 369.253 252.508 373.779 257.096 371.792C259.605 370.699 261.174 367.813 261.762 363.212C262.342 358.203 261.591 353.131 259.586 348.504C257.086 342.571 251.879 331.797 245.099 326.315C244.982 326.219 244.905 326.085 244.881 325.936C244.857 325.788 244.889 325.636 244.97 325.509C245.052 325.382 245.177 325.29 245.322 325.25C245.467 325.21 245.621 325.224 245.756 325.291C246.516 325.67 264.439 334.669 271.914 341.704C275.773 345.339 279.578 345.524 281.634 344.092C283.952 342.479 284.327 338.955 282.612 334.893C278.472 325.086 253.393 305.63 249.206 304.608C249.095 304.581 248.993 304.523 248.913 304.44C248.833 304.358 248.778 304.255 248.754 304.142C248.73 304.03 248.737 303.913 248.777 303.806C248.816 303.698 248.884 303.603 248.975 303.532C249.066 303.46 258.165 296.316 259.429 289.575C260.262 285.128 259.713 281.696 257.923 280.158C256.45 278.893 254.112 278.808 250.974 279.906C247.096 281.262 243.1 283.961 239.235 286.57C234.363 289.859 229.326 293.26 224.218 294.257C218.408 295.391 212.507 296.08 208.2 296.585C205.693 296.879 203.714 297.11 202.384 297.344C194.633 298.712 175.731 302.704 167.647 310.196C167.528 310.307 167.37 310.365 167.207 310.359C167.045 310.353 166.892 310.282 166.781 310.163C166.671 310.044 166.612 309.886 166.618 309.723C166.625 309.561 166.695 309.408 166.814 309.297C175.137 301.585 194.313 297.526 202.171 296.139C203.537 295.898 205.532 295.664 208.057 295.369C212.345 294.867 218.22 294.178 223.984 293.054C228.847 292.105 233.78 288.775 238.549 285.555C242.479 282.902 246.542 280.159 250.57 278.751C254.151 277.495 256.893 277.658 258.72 279.228C260.884 281.086 261.562 284.841 260.633 289.8C259.505 295.817 252.918 301.831 250.557 303.822C257.149 306.897 279.715 324.882 283.74 334.418C286.074 339.946 284.543 343.559 282.332 345.096C279.869 346.81 275.433 346.698 271.074 342.596C265.804 337.636 254.875 331.495 249.053 328.388C254.149 333.962 258.124 341.879 260.715 348.029C262.803 352.855 263.583 358.145 262.977 363.368C262.331 368.428 260.515 371.64 257.581 372.915C253.28 374.786 247.964 371.877 246.058 370.675C244.859 374.514 242.885 376.896 240.179 377.758C239.402 378.002 238.591 378.123 237.777 378.118Z" fill="#0A0A0B"/>
<path d="M228.509 374.282C228.43 374.282 228.351 374.266 228.278 374.236C228.128 374.175 228.008 374.057 227.944 373.908C227.881 373.758 227.879 373.59 227.94 373.439C230.191 367.899 219.515 349.854 215.213 343.369C215.167 343.302 215.134 343.226 215.118 343.147C215.101 343.067 215.101 342.985 215.116 342.905C215.131 342.825 215.162 342.75 215.208 342.682C215.253 342.614 215.311 342.556 215.378 342.511C215.446 342.466 215.522 342.435 215.602 342.42C215.682 342.405 215.764 342.405 215.844 342.422C215.923 342.439 215.999 342.472 216.065 342.518C216.132 342.564 216.189 342.623 216.233 342.692C216.88 343.665 232.028 366.63 229.076 373.901C229.03 374.013 228.951 374.11 228.85 374.178C228.749 374.245 228.63 374.282 228.509 374.282ZM245.701 370.315C245.547 370.315 245.4 370.257 245.287 370.154C245.174 370.05 245.104 369.907 245.091 369.754C243.799 354.246 228.527 334.125 228.373 333.923C228.321 333.86 228.282 333.787 228.259 333.708C228.236 333.629 228.229 333.546 228.238 333.465C228.248 333.383 228.273 333.304 228.314 333.233C228.355 333.161 228.409 333.099 228.474 333.049C228.54 332.999 228.614 332.963 228.694 332.942C228.773 332.922 228.856 332.918 228.937 332.93C229.019 332.942 229.097 332.971 229.167 333.014C229.237 333.057 229.297 333.113 229.345 333.18C229.982 334.013 244.989 353.785 246.311 369.651C246.324 369.813 246.273 369.974 246.168 370.098C246.064 370.222 245.914 370.299 245.752 370.313C245.735 370.314 245.718 370.315 245.701 370.315ZM205.174 296.941C205.068 296.942 204.964 296.914 204.872 296.862C204.78 296.81 204.703 296.736 204.648 296.645L183.265 261.231C183.181 261.092 183.156 260.925 183.195 260.767C183.233 260.609 183.333 260.473 183.472 260.389C183.611 260.305 183.778 260.28 183.936 260.319C184.094 260.357 184.229 260.457 184.314 260.596L205.698 296.012C205.754 296.105 205.784 296.211 205.785 296.319C205.787 296.428 205.76 296.535 205.706 296.629C205.653 296.723 205.576 296.802 205.482 296.857C205.388 296.911 205.282 296.94 205.174 296.94V296.941ZM30.5627 382.419C30.5077 382.419 30.453 382.412 30.3998 382.398C30.3222 382.377 30.2495 382.341 30.1859 382.291C30.1224 382.242 30.0692 382.181 30.0294 382.111C29.9896 382.041 29.9639 381.964 29.9539 381.884C29.944 381.804 29.9498 381.723 29.9712 381.645L37.6213 353.885C37.6645 353.728 37.7681 353.595 37.9094 353.515C38.0506 353.435 38.2179 353.414 38.3745 353.457C38.531 353.5 38.664 353.604 38.7441 353.745C38.8243 353.886 38.845 354.054 38.8018 354.21L31.1529 381.971C31.1173 382.1 31.0403 382.214 30.9336 382.295C30.827 382.376 30.6967 382.419 30.5627 382.419ZM180.365 382.419C180.203 382.419 180.047 382.355 179.933 382.24C179.818 382.125 179.753 381.969 179.753 381.807V365.735C179.753 365.573 179.818 365.417 179.933 365.302C180.047 365.187 180.203 365.123 180.365 365.123C180.528 365.123 180.684 365.187 180.798 365.302C180.913 365.417 180.978 365.573 180.978 365.735V381.808C180.978 381.97 180.913 382.126 180.798 382.241C180.684 382.356 180.528 382.419 180.365 382.419Z" fill="#0A0A0B"/>
<path d="M506.986 382.42H14.9873C14.8249 382.42 14.6692 382.355 14.5543 382.241C14.4395 382.126 14.375 381.97 14.375 381.808C14.375 381.645 14.4395 381.489 14.5543 381.375C14.6692 381.26 14.8249 381.195 14.9873 381.195H506.986C507.149 381.195 507.305 381.26 507.419 381.375C507.534 381.489 507.599 381.645 507.599 381.808C507.599 381.97 507.534 382.126 507.419 382.241C507.305 382.355 507.149 382.42 506.986 382.42Z" fill="#0A0A0B"/>
<path d="M471.685 362.062H309.09L333.582 244.499H495.157C495.521 244.499 495.88 244.58 496.209 244.737C496.538 244.893 496.828 245.121 497.057 245.403C497.287 245.686 497.451 246.016 497.537 246.369C497.623 246.723 497.629 247.092 497.555 247.448L474.083 360.112C473.968 360.663 473.667 361.158 473.23 361.513C472.793 361.868 472.248 362.062 471.685 362.062Z" fill="#066D9D"/>
<path d="M323.649 246.449L300.177 359.113C300.102 359.469 300.108 359.838 300.194 360.191C300.28 360.545 300.444 360.875 300.674 361.157C300.904 361.44 301.193 361.668 301.522 361.824C301.851 361.98 302.21 362.062 302.574 362.062H309.089L333.581 244.499H326.046C325.484 244.499 324.938 244.693 324.501 245.048C324.064 245.403 323.763 245.898 323.649 246.449Z" fill="#0A0A0B"/>
<path d="M451.031 398.506H412.152L387.66 327.969H428.24C428.749 327.969 429.245 328.127 429.66 328.422C430.075 328.717 430.388 329.134 430.555 329.615L453.345 395.254C453.473 395.623 453.511 396.017 453.455 396.404C453.4 396.79 453.253 397.158 453.027 397.477C452.8 397.795 452.501 398.054 452.154 398.234C451.807 398.413 451.422 398.506 451.031 398.506Z" fill="#157E41"/>
<path d="M380.581 331.221L403.371 396.86C403.538 397.341 403.85 397.758 404.265 398.053C404.68 398.348 405.176 398.506 405.685 398.506H412.151L387.659 327.969H382.895C382.505 327.969 382.119 328.062 381.772 328.241C381.425 328.42 381.126 328.68 380.899 328.998C380.672 329.316 380.525 329.684 380.47 330.071C380.415 330.458 380.453 330.852 380.581 331.221Z" fill="#0A0A0B"/>
<path d="M406.863 297.696H400.397C397.313 297.696 394.812 300.196 394.812 303.281C394.812 306.365 397.313 308.865 400.397 308.865H406.863C409.947 308.865 412.447 306.365 412.447 303.281C412.447 300.196 409.947 297.696 406.863 297.696Z" fill="#0A0A0B"/>
<path d="M297.248 42.0049H221.705C221.056 42.0049 220.433 42.2629 219.973 42.7222C219.514 43.1816 219.256 43.8045 219.256 44.4541V98.6308C219.256 99.2804 219.514 99.9034 219.973 100.363C220.433 100.822 221.056 101.08 221.705 101.08H268.539L278.02 116.176C278.133 116.356 278.291 116.503 278.479 116.604C278.666 116.704 278.876 116.754 279.089 116.748C279.301 116.743 279.509 116.682 279.691 116.572C279.873 116.462 280.023 116.306 280.126 116.121L288.525 101.08H297.248C297.897 101.08 298.52 100.822 298.979 100.363C299.439 99.9034 299.697 99.2804 299.697 98.6308V44.4541C299.697 43.8045 299.439 43.1816 298.979 42.7222C298.52 42.2629 297.897 42.0049 297.248 42.0049Z" fill="#DE6356"/>
<path d="M446.917 92.9395H331.914C331.264 92.9395 330.642 93.1975 330.182 93.6568C329.723 94.1161 329.465 94.7391 329.465 95.3887V159.419C329.465 160.068 329.723 160.691 330.182 161.15C330.642 161.61 331.264 161.868 331.914 161.868H417.841L425.936 174.752C426.049 174.932 426.207 175.079 426.394 175.179C426.581 175.28 426.791 175.329 427.004 175.324C427.216 175.319 427.423 175.258 427.605 175.148C427.787 175.039 427.937 174.883 428.041 174.698L435.205 161.868H446.916C447.565 161.868 448.188 161.61 448.648 161.15C449.107 160.691 449.365 160.068 449.365 159.419V95.3887C449.365 94.7391 449.107 94.1161 448.648 93.6568C448.188 93.1975 447.565 92.9395 446.916 92.9395H446.917Z" fill="#F3F3F3"/>
<path d="M240.959 76.3369C245.686 76.3369 245.695 68.9893 240.959 68.9893C236.231 68.9893 236.224 76.3369 240.959 76.3369ZM259.475 76.3369C264.202 76.3369 264.211 68.9893 259.475 68.9893C254.747 68.9893 254.74 76.3369 259.475 76.3369ZM277.991 76.3369C282.718 76.3369 282.727 68.9893 277.991 68.9893C273.263 68.9893 273.256 76.3369 277.991 76.3369ZM433.713 117.974H391.39C391.065 117.974 390.754 117.845 390.524 117.615C390.294 117.385 390.165 117.074 390.165 116.749C390.165 116.424 390.294 116.113 390.524 115.883C390.754 115.653 391.065 115.524 391.39 115.524H433.713C434.037 115.524 434.349 115.653 434.579 115.883C434.808 116.113 434.937 116.424 434.937 116.749C434.937 117.074 434.808 117.385 434.579 117.615C434.349 117.845 434.037 117.974 433.713 117.974ZM433.713 129.138H391.39C391.065 129.138 390.754 129.009 390.524 128.78C390.294 128.55 390.165 128.239 390.165 127.914C390.165 127.589 390.294 127.278 390.524 127.048C390.754 126.818 391.065 126.689 391.39 126.689H433.713C434.037 126.689 434.349 126.818 434.579 127.048C434.808 127.278 434.937 127.589 434.937 127.914C434.937 128.239 434.808 128.55 434.579 128.78C434.349 129.009 434.037 129.138 433.713 129.138ZM433.713 140.302H391.39C391.065 140.302 390.754 140.173 390.524 139.943C390.294 139.714 390.165 139.402 390.165 139.077C390.165 138.753 390.294 138.441 390.524 138.211C390.754 137.982 391.065 137.853 391.39 137.853H433.713C434.037 137.853 434.349 137.982 434.579 138.211C434.808 138.441 434.937 138.753 434.937 139.077C434.937 139.402 434.808 139.714 434.579 139.943C434.349 140.173 434.037 140.302 433.713 140.302ZM377.772 146.185H345.639C344.665 146.184 343.731 145.797 343.042 145.108C342.353 144.419 341.966 143.485 341.965 142.511V113.316C341.966 112.342 342.353 111.408 343.042 110.72C343.731 110.031 344.665 109.644 345.639 109.643H377.772C378.747 109.644 379.68 110.031 380.369 110.72C381.058 111.408 381.445 112.342 381.446 113.316V142.511C381.445 143.485 381.058 144.419 380.369 145.108C379.68 145.797 378.747 146.184 377.772 146.185ZM345.639 112.092C345.314 112.092 345.003 112.221 344.773 112.451C344.544 112.68 344.414 112.992 344.414 113.316V142.511C344.414 142.836 344.544 143.147 344.773 143.377C345.003 143.606 345.314 143.735 345.639 143.736H377.772C378.097 143.735 378.408 143.606 378.638 143.377C378.868 143.147 378.997 142.836 378.997 142.511V113.316C378.997 112.992 378.868 112.68 378.638 112.451C378.408 112.221 378.097 112.092 377.772 112.092H345.639Z" fill="#0A0A0B"/>
<path d="M384.975 134.724H309.637C308.987 134.724 308.364 134.982 307.905 135.441C307.446 135.9 307.188 136.523 307.188 137.173V189.094C307.188 189.743 307.446 190.366 307.905 190.826C308.364 191.285 308.987 191.543 309.637 191.543H324.895L333.07 204.556C333.183 204.736 333.341 204.883 333.528 204.984C333.716 205.084 333.926 205.134 334.138 205.128C334.351 205.123 334.558 205.062 334.74 204.952C334.922 204.842 335.072 204.686 335.176 204.501L342.411 191.543H384.975C385.624 191.543 386.247 191.285 386.707 190.826C387.166 190.366 387.424 189.743 387.424 189.094V137.173C387.424 136.523 387.166 135.9 386.707 135.441C386.247 134.982 385.624 134.724 384.975 134.724Z" fill="#157E41"/>
<path d="M368.465 153.592H326.143C325.818 153.592 325.506 153.463 325.277 153.233C325.047 153.003 324.918 152.692 324.918 152.367C324.918 152.042 325.047 151.731 325.277 151.501C325.506 151.272 325.818 151.143 326.143 151.143H368.465C368.79 151.143 369.101 151.272 369.331 151.501C369.561 151.731 369.69 152.042 369.69 152.367C369.69 152.692 369.561 153.003 369.331 153.233C369.101 153.463 368.79 153.592 368.465 153.592ZM368.465 164.755H326.143C325.818 164.755 325.506 164.626 325.277 164.397C325.047 164.167 324.918 163.856 324.918 163.531C324.918 163.206 325.047 162.894 325.277 162.665C325.506 162.435 325.818 162.306 326.143 162.306H368.465C368.79 162.306 369.101 162.435 369.331 162.665C369.561 162.894 369.69 163.206 369.69 163.531C369.69 163.856 369.561 164.167 369.331 164.397C369.101 164.626 368.79 164.755 368.465 164.755ZM368.465 175.92H326.143C325.818 175.92 325.506 175.791 325.277 175.561C325.047 175.332 324.918 175.02 324.918 174.695C324.918 174.371 325.047 174.059 325.277 173.83C325.506 173.6 325.818 173.471 326.143 173.471H368.465C368.79 173.471 369.101 173.6 369.331 173.83C369.561 174.059 369.69 174.371 369.69 174.695C369.69 175.02 369.561 175.332 369.331 175.561C369.101 175.791 368.79 175.92 368.465 175.92Z" fill="#0A0A0B"/>
<path d="M0.0136719 304.943H68.7596V312.786H0.0136719V304.943Z" fill="#066D9D"/>
<path d="M433.715 216.379H502.461V224.221H433.715V216.379Z" fill="white"/>
<path d="M69.5117 68.7422H138.258V76.5846H69.5117V68.7422Z" fill="#DE6356"/>
<path d="M368.467 47.6286C367.355 47.6286 366.267 47.2988 365.343 46.6809C364.418 46.063 363.697 45.1848 363.271 44.1572C362.846 43.1297 362.734 41.999 362.951 40.9082C363.168 39.8173 363.704 38.8153 364.49 38.0289C365.277 37.2425 366.279 36.7069 367.37 36.4899C368.461 36.2729 369.591 36.3843 370.619 36.8099C371.646 37.2355 372.525 37.9563 373.143 38.8811C373.76 39.8058 374.09 40.893 374.09 42.0052C374.089 43.4962 373.496 44.9256 372.441 45.9798C371.387 47.0341 369.958 47.627 368.467 47.6286ZM368.467 37.6064C367.597 37.6064 366.746 37.8644 366.023 38.3478C365.3 38.8311 364.736 39.5181 364.403 40.3219C364.07 41.1257 363.983 42.0101 364.153 42.8634C364.322 43.7167 364.741 44.5005 365.356 45.1157C365.972 45.7308 366.755 46.1498 367.609 46.3195C368.462 46.4892 369.346 46.4021 370.15 46.0692C370.954 45.7363 371.641 45.1725 372.124 44.4491C372.608 43.7257 372.866 42.8752 372.866 42.0052C372.864 40.8391 372.4 39.7212 371.575 38.8966C370.751 38.072 369.633 37.6081 368.467 37.6064ZM215.724 203.507C214.612 203.506 213.525 203.177 212.6 202.559C211.675 201.941 210.955 201.062 210.529 200.035C210.104 199.007 209.993 197.877 210.21 196.786C210.427 195.695 210.962 194.693 211.749 193.907C212.535 193.121 213.537 192.585 214.628 192.368C215.718 192.151 216.849 192.262 217.876 192.688C218.904 193.113 219.782 193.834 220.4 194.758C221.018 195.683 221.348 196.77 221.348 197.882C221.347 199.373 220.754 200.803 219.699 201.858C218.645 202.912 217.215 203.505 215.724 203.507ZM215.724 193.485C214.854 193.485 214.003 193.743 213.28 194.227C212.557 194.71 211.993 195.397 211.661 196.201C211.328 197.005 211.241 197.889 211.411 198.743C211.581 199.596 212 200.38 212.615 200.995C213.231 201.61 214.015 202.028 214.868 202.198C215.721 202.367 216.606 202.28 217.409 201.947C218.213 201.614 218.9 201.05 219.383 200.326C219.866 199.603 220.124 198.752 220.124 197.882C220.122 196.716 219.658 195.598 218.833 194.773C218.008 193.949 216.89 193.486 215.724 193.485Z" fill="#0A0A0B"/>
<path d="M472.57 183.171L463.605 180.722L470.12 172.982L472.57 183.171Z" fill="#DE6356"/>
<path d="M29.5384 235.921L20.5742 233.471L27.0891 225.732L29.5384 235.921ZM288.777 11.0872L279.813 8.63797L286.328 0.898438L288.777 11.0872Z" fill="#FFC64C"/>
<path d="M108.365 105.144L99.4004 102.695L105.915 94.9551L108.365 105.144Z" fill="white"/>
<path d="M265.468 404.101L256.504 401.652L263.019 393.912L265.468 404.101Z" fill="#3FC979"/>
</svg>
