<svg id="Camada_1" data-name="Camada 1" xmlns="http://www.w3.org/2000/svg" viewBox="0 0 527.32 175.95"><defs><style>.cls-1{fill:#f5f7fa;}</style></defs><path class="cls-1" d="M184,392.7h0a4.39,4.39,0,0,1-4.3,3.4H132.6a2.26,2.26,0,0,1-1.9-3.5l1.5-2.4a1.71,1.71,0,0,1,1.3-.7l50.3,2.8C183.9,392.3,184,392.5,184,392.7Zm-50.3-5.2,5.2-7.1a8,8,0,0,1,7.2-3.1l38.3,4.9c1.4.2,2.4,1.1,2.1,2.2l-2,6a1.17,1.17,0,0,1-1.1.8l-48.9-2.3A.91.91,0,0,1,133.7,387.5Zm-1.9,1.7a5.34,5.34,0,0,1-8.6.3,10.24,10.24,0,0,0-3.8-3.1,10.94,10.94,0,0,0-2.5-.9,5.23,5.23,0,0,1-3.7-7.1l25.3-63.7a5.11,5.11,0,0,1,4.4-3.3h0a5.32,5.32,0,0,1,5.6,6L140,376.2a4.31,4.31,0,0,1-.9,2.2Zm7.3-77.3a13.34,13.34,0,0,1,5.6-.6c2.1.2,2.6,1.1,3.5,1.5a1.39,1.39,0,0,0,2-.9l6.1-18.9a2.14,2.14,0,0,0-2.1-2.6h-36a2.14,2.14,0,0,0-2.1,1.7l-.5,2.1a3.57,3.57,0,0,0,3.6,4.4l22.7-.8a1.48,1.48,0,0,1,1.4,2l-4.2,12.1m-18.2,79.2a4.6,4.6,0,1,1-4.6-4.6A4.59,4.59,0,0,1,120.9,391.1Z" transform="translate(-111.7 -290.4)"/><path class="cls-1" d="M231.6,323.6l-16.4,70.9a2.14,2.14,0,0,1-2.1,1.7H193.3a2.14,2.14,0,0,1-2.1-2.6l16.4-70.9a2.14,2.14,0,0,1,2.1-1.7h19.8A2.07,2.07,0,0,1,231.6,323.6Zm6.9-28.1-3.1,13.6a2.05,2.05,0,0,1-2.1,1.6H212.7a2.1,2.1,0,0,1-2.1-2.6l3.1-13.6a2.05,2.05,0,0,1,2.1-1.6h20.6A2.14,2.14,0,0,1,238.5,295.5Z" transform="translate(-111.7 -290.4)"/><path class="cls-1" d="M370.9,337.4a34.86,34.86,0,0,1-.3,4.4,46.33,46.33,0,0,1-.9,4.9l-10.8,46.5a2.05,2.05,0,0,1-2.1,1.6H337.5s-2.4-.4-2.1-1.8l8.1-34.7c.6-2.6,1.1-5,1.6-7.4a28.88,28.88,0,0,0,.7-5.7q0-3.9-2.1-5.7t-7.5-1.8a17.67,17.67,0,0,0-5.9,1.2,56.74,56.74,0,0,0-7,3.2,1.93,1.93,0,0,0-1.1,1.4L310.7,394a3.15,3.15,0,0,1-2.1,2.1H288.7a2.7,2.7,0,0,1-2.1-3l8.1-34.7c.5-2.2,1-4.5,1.5-7.1a31.5,31.5,0,0,0,.7-5.8c0-2.7-.7-4.7-2-5.9s-3.9-1.8-7.5-1.8a18.62,18.62,0,0,0-6.2,1.3c-2,.8-4.3,1.8-6.8,3.1a1.93,1.93,0,0,0-1.1,1.4L261.6,394c-.2,1-2.1.8-2.1.8H240.6a2.14,2.14,0,0,1-2.1-2.6l16.1-69.7a2.05,2.05,0,0,1,2.1-1.6h19.4a2.14,2.14,0,0,1,2.1,2.6l-.1.5a2.17,2.17,0,0,0,3.2,2.3,76.43,76.43,0,0,1,8.7-4.7,29.7,29.7,0,0,1,12.6-2.7,21.36,21.36,0,0,1,12.2,3.3,15.8,15.8,0,0,1,6,7.2,2,2,0,0,0,3.1.8,94.27,94.27,0,0,1,13.5-8,32.46,32.46,0,0,1,13.5-3.2c6.5,0,11.4,1.6,14.8,4.8S370.9,331.5,370.9,337.4Z" transform="translate(-111.7 -290.4)"/><path class="cls-1" d="M469.1,344.8a59.2,59.2,0,0,1-3.4,20,53.94,53.94,0,0,1-9.1,16.6A47.4,47.4,0,0,1,443,392.9a35.6,35.6,0,0,1-17,4.1,42.45,42.45,0,0,1-11-1.4,32.27,32.27,0,0,1-6.6-2.5,2.13,2.13,0,0,0-3,1.4l-6.1,26.7a2.05,2.05,0,0,1-2.1,1.6H377.6a2.14,2.14,0,0,1-2.1-2.6L398,322.6a2.05,2.05,0,0,1,2.1-1.6h19.6a2.14,2.14,0,0,1,2.1,2.6h0a2.15,2.15,0,0,0,3.2,2.3,84.06,84.06,0,0,1,8.1-4.4,30.66,30.66,0,0,1,12.7-2.6c7.5,0,13.3,2.3,17.3,6.9S469.1,336.7,469.1,344.8Zm-31,26.2a32.53,32.53,0,0,0,4.4-9.8A47.42,47.42,0,0,0,444,349q0-6-2.7-9.3c-1.8-2.1-4.9-3.2-9.5-3.2a20.45,20.45,0,0,0-6.9,1.2,42.17,42.17,0,0,0-6.3,2.8,1.93,1.93,0,0,0-1.1,1.4l-8,34.8a2.08,2.08,0,0,0,1.4,2.5,28.06,28.06,0,0,0,3.1.8,36.79,36.79,0,0,0,5.8.5,22,22,0,0,0,10.7-2.6A20.26,20.26,0,0,0,438.1,371Z" transform="translate(-111.7 -290.4)"/><path class="cls-1" d="M522.1,393.4a2.13,2.13,0,0,0-3.2-2.3,6.07,6.07,0,0,0-1,.7,40.3,40.3,0,0,1-5.9,3.3,47.43,47.43,0,0,1-7,2.3,42,42,0,0,1-9,.8c-6.2,0-11.3-1.8-15.2-5.2a17.42,17.42,0,0,1-5.9-13.6,26,26,0,0,1,4.2-15,28.18,28.18,0,0,1,12.4-9.8,67.18,67.18,0,0,1,18.4-5c7.1-1,14.8-1.8,23.1-2.3a4.51,4.51,0,0,1,.3-1.3,12.31,12.31,0,0,0,.2-2,6.7,6.7,0,0,0-4.4-6.6c-2.9-1.3-7.3-1.9-13.1-1.9a49.64,49.64,0,0,0-13,2c-4.6,1.3-8.1,2.4-10.5,3.2a.9.9,0,0,1-.5.1h0a1.54,1.54,0,0,1-1.5-1.9l2.9-14.5a2.3,2.3,0,0,1,1.6-1.7c2.8-.6,6.6-1.3,11.6-2.1a115.48,115.48,0,0,1,17.5-1.3c11.7,0,20.3,1.5,25.7,4.6a15.35,15.35,0,0,1,8.2,14.2c0,.9-.1,2-.2,3.5s-.4,2.7-.6,3.7l-11.3,49.2a2.14,2.14,0,0,1-2.1,1.7H524a2,2,0,0,1-1.9-2.6Zm6.9-30.1a2.12,2.12,0,0,0-2.3-2.6c-3.2.3-6.2.6-9.1,1a53.12,53.12,0,0,0-9.6,2.1,14.33,14.33,0,0,0-6.2,4.1,11.11,11.11,0,0,0-2.1,7.1c0,2.6.9,4.4,2.8,5.4a17.74,17.74,0,0,0,8.2,1.6,20,20,0,0,0,7.6-1.6,38.28,38.28,0,0,0,6.9-3.7,2,2,0,0,0,.9-1.3Z" transform="translate(-111.7 -290.4)"/><path class="cls-1" d="M577.3,388a1.21,1.21,0,0,0,2.2.5l15.7-22.7c1.1-1.5,2.1-3.1,1.8-4.9-1.6-9.8-6.6-40.6-6.6-40.6a2.08,2.08,0,0,0-2.1-1.9H569.7a3.32,3.32,0,0,0-3.3,3.9Z" transform="translate(-111.7 -290.4)"/><path class="cls-1" d="M636.6,318.4h-7.1a2.75,2.75,0,0,0-2.2,1.2l-56,86.6a1.36,1.36,0,0,0,.7,2,6.65,6.65,0,0,1,3,1.5,27.55,27.55,0,0,1,3.2,4.1c1.5.5,2-.1,2.9-1.4l57.5-90.2A2.45,2.45,0,0,0,636.6,318.4Z" transform="translate(-111.7 -290.4)"/><path class="cls-1" d="M573.8,410.8a12,12,0,0,0-4-1.6.88.88,0,0,0-.7.1c-2.4,1.5-3.8,2.5-11,7.9a1,1,0,0,0,.5,1.8,40.67,40.67,0,0,1,6.3,1.2c1.9.9,6.6,4.9,6.6,4.9a1.11,1.11,0,0,0,1.3-.8l4-7.8a2.51,2.51,0,0,0,.1-1.9A8.74,8.74,0,0,0,573.8,410.8Z" transform="translate(-111.7 -290.4)"/><path class="cls-1" d="M564.3,425.6a55.73,55.73,0,0,0-6.7-3c-2.9-.6-3.7.2-4.8,1.1-4.1,3.3-14.2,15.8-20,18.4-7,3.1-23.1-4.5-25.8-4.9a1.16,1.16,0,0,0-1,.2,6.67,6.67,0,0,0-2.2,4.3,15.18,15.18,0,0,0,.8,4.4c1.6,4.6,17.9,10.6,0,3.1.3,1.7.5,2.5.5,2.7a16.9,16.9,0,0,0,16.5,13s6.8.2,13.8.2h0c6.7,0,13.5-.1,14.8-.6,4-1.6,8.5-5.5,9.7-9l8.4-25.1C568.3,430.6,569,428.7,564.3,425.6Z" transform="translate(-111.7 -290.4)"/><path class="cls-1" d="M500,430.9c-.6.6-8.6-9.8-16-5.7-2.5,1.4-3-2.2-5.9-5-6.2-6-15.5-8.7-19.4,2.8-1.7,5.2-.5,12.4-1,14.2s-3.9-8.9-3.5-13.6c1.5-21.3,21.5-12.2,26.8-7.1,2.9,2.8,2.3,4.2,3.9,3.8C491.9,418.5,502.1,428.8,500,430.9Z" transform="translate(-111.7 -290.4)"/><path class="cls-1" d="M562.9,466.3h0a47.73,47.73,0,0,0,7.5-3.3c3.5-1.9,3.3-4.3,5.2-4.5a2.7,2.7,0,0,1,.9,0c1.2.2,1.8,1.4,4,1.3,3.4-.2,7.7-4.1,8.7-7.9,1.1-4.2-1.5-7.1-2.2-8.6-.5-1.1,6,4.9,6.5,8.4a10.09,10.09,0,0,1-4.4,9c-3.6,2.3-7,2.6-9.5,1.7a5,5,0,0,0-3-.4,9,9,0,0,0-2.7,1.9,10.59,10.59,0,0,1-4.5,1.9A32.19,32.19,0,0,1,562.9,466.3Z" transform="translate(-111.7 -290.4)"/><path class="cls-1" d="M594.2,445.9c-.1.2,2.2-.9.7-5-1.2-3.1-3.2-3.2-3.1-4.8a1.7,1.7,0,0,1,.1-.7c.3-1,1.4-1.3,1.5-3.2.2-2.8-2.5-6.8-5.5-8.1-3.3-1.4-5.9.4-7.3.9-.9.3,4.7-4.4,7.6-4.4a8.45,8.45,0,0,1,6.9,4.7c1.5,3.3,1.3,6.1.3,8a4,4,0,0,0-.7,2.4,2.72,2.72,0,0,0,.9,1.9,7.52,7.52,0,0,1,2.1,4.5C597.6,443.5,594.2,445.9,594.2,445.9Z" transform="translate(-111.7 -290.4)"/><path class="cls-1" d="M469.6,463.1c-1.2-.1-13.8,4-19.3-6.2-1.9-3.5-4.2.1-8.7.8-9.5,1.7-28.7-8.5-19.7-21.1,7.1-9.8,18.1-7.7,16-8.2-3-.7-18.8-.9-22.9,9.3-9.1,22.5,21.8,28.3,29.1,26.1,4.3-1.3,2.9-2.7,4.4-1C454.8,470.3,472.5,463.4,469.6,463.1Z" transform="translate(-111.7 -290.4)"/></svg>